<svg xmlns="http://www.w3.org/2000/svg" id="ef6df833-16d6-4288-bb5e-87126cea423c" data-name="Layer 1" width="80" height="80" viewBox="0 0 80 80"><defs><style>.b2c1e2c2-152f-42b0-9198-8db95787743e{fill:#f0f0f8;}.affe03cc-f032-4c3b-bcf1-eea174b83094{fill:#fff;}.b7799244-f671-4bc6-b670-0ec8e72783d1{fill:#7ec67f;}</style></defs><g id="bd4c2781-644e-4807-8f86-02ab594792e0" data-name="CustomSoftware"><path id="f6dfc21b-f3c0-49ad-8261-24b72ec157dd" data-name="Path 8009" class="b2c1e2c2-152f-42b0-9198-8db95787743e" d="M26.68,26.63h-.42A4.55,4.55,0,0,0,22,31.43V62.91a.17.17,0,0,0,.17.19H70.59a.17.17,0,0,0,.17-.18h0V31.43a4.55,4.55,0,0,0-4.25-4.8Z"></path><path id="baf54175-4db1-48f6-a860-68436f7332b6" data-name="Path 8010" class="affe03cc-f032-4c3b-bcf1-eea174b83094" d="M15.55,51.55V13.94a4.31,4.31,0,0,1,4.3-4.3h40.3a4.31,4.31,0,0,1,4.3,4.3V51.55a4.3,4.3,0,0,1-4.3,4.3H19.85a4.3,4.3,0,0,1-4.3-4.3Z"></path><path id="bc16e96a-48a0-46e5-9f9b-577b9f3606de" data-name="Path 8013" class="b7799244-f671-4bc6-b670-0ec8e72783d1" d="M73,61.76H72.1V27.64a6.73,6.73,0,0,0-6.32-6.7v-7A5.64,5.64,0,0,0,60.15,8.3H19.85a5.65,5.65,0,0,0-5.64,5.64v7a6.72,6.72,0,0,0-6.31,6.7v6.45a1.34,1.34,0,1,0,2.68,0h0V27.64a4,4,0,0,1,3.63-4V51.55a5.64,5.64,0,0,0,5.64,5.64h40.3a5.64,5.64,0,0,0,5.64-5.64V23.64a4,4,0,0,1,3.63,4V61.76H10.58V45.07a1.34,1.34,0,1,0-2.68,0h0V61.76H7A1.34,1.34,0,0,0,5.61,63.1V65a6.73,6.73,0,0,0,6.72,6.72H67.67A6.73,6.73,0,0,0,74.39,65V63.1A1.35,1.35,0,0,0,73,61.76ZM19.85,11h40.3a3,3,0,0,1,3,2.95v4H16.9v-4A3,3,0,0,1,19.85,11Zm40.3,43.52H19.85a3,3,0,0,1-3-3V20.66H63.1V51.55a3,3,0,0,1-3,3ZM71.7,65a4,4,0,0,1-4,4H12.33a4,4,0,0,1-4-4v-.53H71.7Z"></path><path id="a62144b0-d82d-47fc-941f-581260682522" data-name="Path 8014" class="b7799244-f671-4bc6-b670-0ec8e72783d1" d="M42.42,65.39H37.57a1.34,1.34,0,1,0,0,2.68h4.86a1.34,1.34,0,1,0,0-2.68Z"></path><path id="bdb4af0c-de7e-4781-b2e6-7df99a9fa825" data-name="Path 8015" class="b7799244-f671-4bc6-b670-0ec8e72783d1" d="M9.24,40.74A1.35,1.35,0,1,0,7.9,39.4a1.37,1.37,0,0,0,.39,1A1.34,1.34,0,0,0,9.24,40.74Z"></path><path id="e220b03c-a6a7-4759-8127-21c9e6c135c8" data-name="Path 8016" class="b7799244-f671-4bc6-b670-0ec8e72783d1" d="M36.63,15.82H59.08a1.34,1.34,0,1,0,0-2.68H36.63a1.34,1.34,0,1,0,0,2.68Z"></path><path id="b68b5351-8f99-4697-a791-5d67bd70e06b" data-name="Path 8017" class="b7799244-f671-4bc6-b670-0ec8e72783d1" d="M24.89,15.82a1.34,1.34,0,1,0-1.34-1.34,1.36,1.36,0,0,0,.39.95A1.37,1.37,0,0,0,24.89,15.82Z"></path><path id="b0719dc4-18ea-4b49-830b-6fdbf83ff5a5" data-name="Path 8018" class="b7799244-f671-4bc6-b670-0ec8e72783d1" d="M20.92,15.82a1.33,1.33,0,1,0-1-.39A1.34,1.34,0,0,0,20.92,15.82Z"></path><path id="afcaec43-0e34-4e80-9cc7-235121e0363c" data-name="Path 8019" class="b7799244-f671-4bc6-b670-0ec8e72783d1" d="M28.87,15.82a1.33,1.33,0,1,0-.95-.39A1.34,1.34,0,0,0,28.87,15.82Z"></path><path id="b9979c71-8ea9-4060-b77f-637e29aff381" data-name="Path 8020" class="b7799244-f671-4bc6-b670-0ec8e72783d1" d="M30.88,36.34a1.35,1.35,0,0,0,1.9,0,1.33,1.33,0,0,0,0-1.9l0,0L29.2,30.85l3.58-3.58a1.34,1.34,0,0,0-1.9-1.9L26.35,29.9a1.35,1.35,0,0,0,0,1.9Z"></path><path id="bd8b76c5-4273-47ae-ba3f-721156b75539" data-name="Path 8021" class="b7799244-f671-4bc6-b670-0ec8e72783d1" d="M47.22,36.34a1.35,1.35,0,0,0,1.9,0l4.53-4.54a1.35,1.35,0,0,0,0-1.9l-4.53-4.53a1.34,1.34,0,0,0-1.9,1.9l3.58,3.58-3.58,3.59a1.33,1.33,0,0,0,0,1.9Z"></path><path id="b03c3315-bde1-48ff-8337-572d9dc26dd2" data-name="Path 8022" class="b7799244-f671-4bc6-b670-0ec8e72783d1" d="M36.12,37.46A1.34,1.34,0,0,0,38,37h0l6.4-10.89a1.34,1.34,0,1,0-2.25-1.46.61.61,0,0,0-.07.1l-6.4,10.89A1.35,1.35,0,0,0,36.12,37.46Z"></path><path id="a5ab5eff-8af5-496e-a25e-acbdd47e6ad2" data-name="Path 8023" class="b7799244-f671-4bc6-b670-0ec8e72783d1" d="M32.78,42.69A1.34,1.34,0,0,0,34.12,44H56.45a1.34,1.34,0,1,0,0-2.68H34.12A1.34,1.34,0,0,0,32.78,42.69Z"></path><path id="bf3890c1-7bde-4e72-9d28-efd210f19ee1" data-name="Path 8024" class="b7799244-f671-4bc6-b670-0ec8e72783d1" d="M22.29,44h6.58a1.34,1.34,0,1,0,0-2.68H22.29a1.34,1.34,0,1,0,0,2.68Z"></path><path id="a6dded14-6db6-442b-921b-ac6f17c982f9" data-name="Path 8025" class="b7799244-f671-4bc6-b670-0ec8e72783d1" d="M51.31,47.79h-29a1.35,1.35,0,1,0,0,2.69h29a1.35,1.35,0,0,0,0-2.69Z"></path><path id="a958366a-8c3d-4500-8349-214902431ff6" data-name="Path 8026" class="b7799244-f671-4bc6-b670-0ec8e72783d1" d="M56.45,47.79a1.35,1.35,0,1,0,.95.4A1.31,1.31,0,0,0,56.45,47.79Z"></path></g></svg>