<svg xmlns="http://www.w3.org/2000/svg" id="f8ffe031-05f2-47b2-a19f-a3970698fa99" data-name="Layer 1" width="80" height="80" viewBox="0 0 80 80"><defs><style>.a90f6077-d0c8-4bad-bbf6-9923a03705d2{fill:#fff;}.a8f1dbf5-0e19-4ffc-a774-b876f9520837{fill:#e57070;}</style></defs><g id="a8891274-6ea7-4fe0-933e-d32cabcdb2ba" data-name="EnterpriseMobility"><rect class="a90f6077-d0c8-4bad-bbf6-9923a03705d2" x="17.9" y="17.4" width="41.43" height="45.1"></rect><path class="a8f1dbf5-0e19-4ffc-a774-b876f9520837" d="M23.41,61.24H19.26V30.34a1.26,1.26,0,0,0-2.51,0V67.71a5.39,5.39,0,0,0,5.4,5.41H55.27a5.39,5.39,0,0,0,5.41-5.41V12.29a5.39,5.39,0,0,0-5.41-5.41H22.06a5.39,5.39,0,0,0-5.41,5.41V37.88c0,.67.58-.68,1.25-.68a1.28,1.28,0,0,0,1.26-1.26V18.76H58V61.24H53.83M19.26,16.15V12.29a2.9,2.9,0,0,1,2.89-2.9H55.27a2.9,2.9,0,0,1,2.9,2.9v3.86ZM51.41,61.24H26m29.25,9.37H22.06a2.9,2.9,0,0,1-2.9-2.9V63.85H58v3.86a2.75,2.75,0,0,1-2.71,2.9Z"></path><path class="a8f1dbf5-0e19-4ffc-a774-b876f9520837" d="M31.91,29.86a.79.79,0,0,0-.39.58v2.22a.61.61,0,0,0,.39.58l1.25.48.19.49-.58,1.06a.66.66,0,0,0,0,.58,8,8,0,0,0,1.74,1.74.65.65,0,0,0,.58,0l1.06-.49c.2.1.39.1.58.2l.39,1.15a.79.79,0,0,0,.58.39h2.22a.61.61,0,0,0,.58-.39l.39-1.15c.19-.1.38-.1.58-.2l1.06.49a.66.66,0,0,0,.58,0,8,8,0,0,0,1.74-1.74.65.65,0,0,0,0-.58l-.49-1.16c.1-.19.1-.39.2-.58l1.15-.39a.76.76,0,0,0,.39-.58V30.34a.61.61,0,0,0-.39-.58l-1.44-.38c-.1-.2-.1-.39-.2-.58l.49-1.06a.66.66,0,0,0,0-.58,7.56,7.56,0,0,0-1.74-1.74.59.59,0,0,0-.58,0L41.18,26c-.2-.1-.39-.1-.58-.19l-.39-1.16a.79.79,0,0,0-.58-.39H37.41a.61.61,0,0,0-.58.39l-.48,1.25L36,26l-1.16-.48a.6.6,0,0,0-.58,0,14.11,14.11,0,0,0-1.73,1.73.59.59,0,0,0,0,.58L33,28.9l-.1.57Zm1.83.48c.1,0,.19-.09.39-.38l.48-.87c.1-.1,0-.39,0-.48L34,27.74a11.83,11.83,0,0,1,1.06-1.07l1.06.49a.48.48,0,0,0,.49,0l.87-.49.38-.38.39-1.06h1.45l.38,1.06a.42.42,0,0,0,.39.38,2.48,2.48,0,0,1,.87.39.42.42,0,0,0,.48,0l1.06-.48A10.64,10.64,0,0,1,44,27.64L43.4,28.7a.42.42,0,0,0,0,.48,5.36,5.36,0,0,0,.38.87.42.42,0,0,0,.39.39l1.06.39v1.44l-1.06.39a.42.42,0,0,0-.39.39,2.37,2.37,0,0,1-.38.87.42.42,0,0,0,0,.48l.48,1.06a10.6,10.6,0,0,1-1.06,1.06L41.76,36a.44.44,0,0,0-.49,0,6,6,0,0,0-.87.39.41.41,0,0,0-.38.38l-.39,1.07H38.18l-.38-1.07a.42.42,0,0,0-.39-.38,2.48,2.48,0,0,1-.87-.39.42.42,0,0,0-.48,0l-.87.48a9.64,9.64,0,0,1-1.06-1.06l.48-1.06a.42.42,0,0,0,0-.48l-.39-.87-.38-.39-1.07-.39V30.83Z"></path><path class="a8f1dbf5-0e19-4ffc-a774-b876f9520837" d="M38.67,35.08a3.58,3.58,0,1,0-3.58-3.58,3.64,3.64,0,0,0,3.58,3.58m0-6.09a2.51,2.51,0,1,1-2.52,2.51A2.56,2.56,0,0,1,38.67,29"></path><path class="a8f1dbf5-0e19-4ffc-a774-b876f9520837" d="M31.42,24.36l-3.28.58.19,1.15,1.84-.38a10.53,10.53,0,0,0,1,13.32l.78-.77a9.32,9.32,0,0,1,0-12.94.84.84,0,0,0,.09-.67.8.8,0,0,0-.58-.29"></path><path class="a8f1dbf5-0e19-4ffc-a774-b876f9520837" d="M46.2,24.65l-.78.77a9.32,9.32,0,0,1,0,12.94.58.58,0,0,0-.09.67.54.54,0,0,0,.48.2h.1l3.28-1.06L48.8,37.1l-1.54.49A10.46,10.46,0,0,0,49,31.79a9.24,9.24,0,0,0-2.8-7.14"></path><path class="a8f1dbf5-0e19-4ffc-a774-b876f9520837" d="M37.51,48.5H28.72V46.28c0-.2-.1-.49-.39-.49a.61.61,0,0,0-.58.1l-5.5,4.93a.54.54,0,0,0-.19.48,1,1,0,0,0,.19.48l5.5,4.93c.1.09.2.09.39.09h.19a.8.8,0,0,0,.39-.48V54.58h8.79a.51.51,0,0,0,.58-.58V49.08a.56.56,0,0,0-.58-.58m-.58,5H28.14a.51.51,0,0,0-.58.58v1.06l-4.15-3.77,4.15-3.76v1.45a.51.51,0,0,0,.58.58h8.79Z"></path><path class="a8f1dbf5-0e19-4ffc-a774-b876f9520837" d="M49.48,40.39a.58.58,0,0,0-.58-.1.91.91,0,0,0-.39.48v1.74H39.73a.51.51,0,0,0-.58.58V48a.51.51,0,0,0,.58.58h8.78v2.23c0,.19.1.48.39.48h.19a.71.71,0,0,0,.39-.1L55,46.28a.58.58,0,0,0,.2-.49,1,1,0,0,0-.2-.48Zm.19,9.17V48.11a.51.51,0,0,0-.58-.58H40.31V43.67h8.78a.51.51,0,0,0,.58-.58V42l4.16,3.76Z"></path><rect class="a8f1dbf5-0e19-4ffc-a774-b876f9520837" x="39.82" y="53.52" width="4.92" height="1.16"></rect><rect class="a8f1dbf5-0e19-4ffc-a774-b876f9520837" x="39.82" y="50.72" width="4.92" height="1.16"></rect><rect class="a8f1dbf5-0e19-4ffc-a774-b876f9520837" x="45.81" y="50.72" width="1.16" height="1.16"></rect><rect class="a8f1dbf5-0e19-4ffc-a774-b876f9520837" x="45.81" y="53.52" width="1.16" height="1.16"></rect><rect class="a8f1dbf5-0e19-4ffc-a774-b876f9520837" x="32.58" y="42.41" width="4.92" height="1.16"></rect><rect class="a8f1dbf5-0e19-4ffc-a774-b876f9520837" x="32.58" y="45.31" width="4.92" height="1.16"></rect><rect class="a8f1dbf5-0e19-4ffc-a774-b876f9520837" x="30.46" y="45.31" width="1.16" height="1.16"></rect><path class="a8f1dbf5-0e19-4ffc-a774-b876f9520837" d="M42,11.51H35.38a1.26,1.26,0,0,0,0,2.51H42a1.28,1.28,0,0,0,1.25-1.25A1.16,1.16,0,0,0,42,11.51Z"></path><path class="a8f1dbf5-0e19-4ffc-a774-b876f9520837" d="M29.88,11.51a.94.94,0,0,0-.87.39,1.45,1.45,0,0,0-.39.87,1,1,0,0,0,.39.87,1.44,1.44,0,0,0,.87.38,1.05,1.05,0,0,0,.87-.38,1.05,1.05,0,0,0,.38-.87.93.93,0,0,0-.38-.87,1,1,0,0,0-.87-.39Z"></path><path class="a8f1dbf5-0e19-4ffc-a774-b876f9520837" d="M47.45,11.51a1,1,0,0,0-.87.39,1.44,1.44,0,0,0-.38.87.94.94,0,0,0,.38.87,1.47,1.47,0,0,0,.87.38.93.93,0,0,0,.87-.38,1.48,1.48,0,0,0,.39-.87.94.94,0,0,0-.39-.87,1,1,0,0,0-.87-.39Z"></path><path class="a8f1dbf5-0e19-4ffc-a774-b876f9520837" d="M41.47,65.59H35.86a1.26,1.26,0,0,0,0,2.51h5.61a1.26,1.26,0,0,0,0-2.51Z"></path></g></svg>