<svg xmlns="http://www.w3.org/2000/svg" id="bed64e27-4d4d-4a36-943d-e13e2b777064" data-name="Layer 1" width="80" height="80" viewBox="0 0 80 80"><defs><style>.f098b83f-cc43-4bab-a6d3-7338539940e3{fill:#61c1d1;}</style></defs><g id="b0ddeb1a-1055-4006-9300-85c264eba26f" data-name="BusinessIntelligence"><g id="a47709cc-dca4-4193-9a78-a4ecd1e16e6b" data-name="brain"><path id="eca40eb6-8991-430b-a81c-600e19a48029" data-name="Path 7979" class="f098b83f-cc43-4bab-a6d3-7338539940e3" d="M46.49,20.26a1.26,1.26,0,0,0,1.3-1.3,1.21,1.21,0,0,0-1.3-1.3,1.26,1.26,0,0,0-1.3,1.3h0A1.4,1.4,0,0,0,46.49,20.26Z"></path><path id="ac05868a-9d37-42d4-bce8-1ef98a3d080f" data-name="Path 7980" class="f098b83f-cc43-4bab-a6d3-7338539940e3" d="M33.59,20.26a1.3,1.3,0,1,0-1.3-1.3h0A1.4,1.4,0,0,0,33.59,20.26Z"></path><path id="ee7fd43d-a93f-423f-981e-b67c6a24064c" data-name="Path 7981" class="f098b83f-cc43-4bab-a6d3-7338539940e3" d="M10.39,50.66a8.85,8.85,0,0,0,2.7,6.4c-.9,5.3,3.3,10.8,8.9,10.8h.1a10.08,10.08,0,0,0,13.8,3.8,10.36,10.36,0,0,0,4.1-4.2A10.22,10.22,0,0,0,53.69,72a8.8,8.8,0,0,0,4.2-4.1H58a9.25,9.25,0,0,0,9-9.4,5.7,5.7,0,0,0-.1-1.3A8.86,8.86,0,0,0,68,45.66a9.9,9.9,0,0,0,1.6-5.6,8.82,8.82,0,0,0-3.3-6.9,10.39,10.39,0,0,0,.7-3.5,9.48,9.48,0,0,0-5.2-8.5,7.61,7.61,0,0,0-5.8-8.4A9.36,9.36,0,0,0,47.69,7a9.13,9.13,0,0,0-7.7,4.6A9.13,9.13,0,0,0,32.29,7a9.18,9.18,0,0,0-8.2,5.7,7.52,7.52,0,0,0-5.8,8.4,9.48,9.48,0,0,0-5.2,8.5,10.9,10.9,0,0,0,.7,3.5,8.82,8.82,0,0,0-3.3,6.9,10.37,10.37,0,0,0,1.6,5.6A8.24,8.24,0,0,0,10.39,50.66Zm37.4-41.2a6.63,6.63,0,0,1,5.3,3.1,8.81,8.81,0,0,0-4.2,2.1,1.34,1.34,0,0,0,1.9,1.9h0a5.19,5.19,0,0,1,7.3,0,5.33,5.33,0,0,1,1.5,3.6v.1a5.28,5.28,0,0,0-1.3-.1,9.25,9.25,0,0,0-9,9.4,1.25,1.25,0,1,0,2.5.1h0a6.89,6.89,0,0,1,6.5-6.8,6.82,6.82,0,0,1,6.5,6.8,6.9,6.9,0,0,1-.8,3.2,1.25,1.25,0,0,0,.4,1.7,6.42,6.42,0,0,1,3.1,5.4,6.75,6.75,0,0,1-6.5,6.8,1.23,1.23,0,0,0-1.2,1.3,1.16,1.16,0,0,0,1.2,1.2,8.54,8.54,0,0,0,5.4-2,5.69,5.69,0,0,1,.9,3.3,6.31,6.31,0,0,1-2.4,4.9,1.25,1.25,0,0,0-.4,1.3,6.64,6.64,0,0,0,.3,1.5c0,4-3.6,7.2-6.9,6.8h-.3a1.44,1.44,0,0,0-1.3.8,7.66,7.66,0,0,1-7,4.5,8,8,0,0,1-7.7-8.1,7.77,7.77,0,0,1,7.7-7.7,1.23,1.23,0,0,0,1.2-1.3,1.16,1.16,0,0,0-1.2-1.2,10.32,10.32,0,0,0-7.7,3.5V30.86a2.47,2.47,0,0,1,2.5-2.5,1.23,1.23,0,0,0,1.2-1.3,1.16,1.16,0,0,0-1.2-1.2,4.9,4.9,0,0,0-2.5.7V16.36A6.47,6.47,0,0,1,47.79,9.46ZM16,34.46a1.28,1.28,0,0,0,.4-1.7,6.6,6.6,0,0,1-.8-3.2,6.75,6.75,0,0,1,6.5-6.8,6.82,6.82,0,0,1,6.5,6.8,1.25,1.25,0,1,0,2.5.1h0c0-5-4.1-9.4-9-9.4a6.15,6.15,0,0,0-1.3.1v-.1a5.23,5.23,0,0,1,5.2-5.2,4.91,4.91,0,0,1,3.6,1.5,1.34,1.34,0,0,0,1.9-1.9h0a6.78,6.78,0,0,0-4.2-2.1,6.74,6.74,0,0,1,5.3-3.1,6.82,6.82,0,0,1,6.5,6.8v10.1a5.9,5.9,0,0,0-2.5-.7,1.25,1.25,0,1,0-.1,2.5h0a2.47,2.47,0,0,1,2.5,2.5v24.6a10.87,10.87,0,0,0-7.7-3.5,1.23,1.23,0,0,0-1.2,1.3,1.16,1.16,0,0,0,1.2,1.2A7.77,7.77,0,0,1,39,62a8.06,8.06,0,0,1-7.7,8.1,7.56,7.56,0,0,1-7-4.5,1.56,1.56,0,0,0-1.3-.8h-.3c-3.7.5-7.8-3.6-6.6-8.2a1.31,1.31,0,0,0-.4-1.3,6.46,6.46,0,0,1-2.4-4.9,6.29,6.29,0,0,1,.9-3.3,8.6,8.6,0,0,0,5.4,2,1.25,1.25,0,1,0,.1-2.5h0a6.82,6.82,0,0,1-6.5-6.8A5.68,5.68,0,0,1,16,34.46Z"></path><path id="aafc0140-33cc-4ccd-a2cd-c73726112a25" data-name="Path 7982" class="f098b83f-cc43-4bab-a6d3-7338539940e3" d="M28.29,38.46a3.87,3.87,0,0,1-3.7,2.7,1.25,1.25,0,0,0-.1,2.5h0a6.73,6.73,0,0,0,6.4-5.2,9,9,0,0,0,4.8-2.3,1.35,1.35,0,1,0-1.8-2h0a6.59,6.59,0,0,1-9.2-.5,6.14,6.14,0,0,1-1.6-4.2,1.23,1.23,0,0,0-1.3-1.2,1.16,1.16,0,0,0-1.2,1.2A9.15,9.15,0,0,0,28.29,38.46Z"></path><path id="a2d09017-8d2c-42b0-8946-87a0196bc842" data-name="Path 7983" class="f098b83f-cc43-4bab-a6d3-7338539940e3" d="M22.09,57a1.25,1.25,0,0,0-.1,2.5h0a6.82,6.82,0,0,1,6.5,6.8,1.23,1.23,0,0,0,1.3,1.2,1.16,1.16,0,0,0,1.2-1.2A9.2,9.2,0,0,0,22.09,57Z"></path><path id="e188f8c2-4ada-42cc-8829-f310e499e494" data-name="Path 7984" class="f098b83f-cc43-4bab-a6d3-7338539940e3" d="M32.29,46.66a11.84,11.84,0,0,0-10.1,5.8,1.23,1.23,0,1,0,2.1,1.3h0a9,9,0,0,1,7.8-4.5,1.24,1.24,0,0,0,1.3-1.2,1.13,1.13,0,0,0-1.1-1.4Z"></path><path id="e25819b5-f2e1-4b3a-b83b-9f3b0ed2032b" data-name="Path 7985" class="f098b83f-cc43-4bab-a6d3-7338539940e3" d="M44.19,34.46a1.4,1.4,0,0,0,.1,1.9,9.78,9.78,0,0,0,4.8,2.3,6.29,6.29,0,0,0,6.4,5.2,1.23,1.23,0,0,0,1.2-1.3,1.16,1.16,0,0,0-1.2-1.2,3.87,3.87,0,0,1-3.7-2.7,9,9,0,0,0,7.6-8.9,1.23,1.23,0,0,0-1.3-1.2,1.16,1.16,0,0,0-1.2,1.2,6.49,6.49,0,0,1-6.5,6.5,5.81,5.81,0,0,1-4.2-1.6C45.49,33.86,44.79,33.86,44.19,34.46Z"></path><path id="bbe2088d-fe89-4c09-8f86-8d2d01337019" data-name="Path 7986" class="f098b83f-cc43-4bab-a6d3-7338539940e3" d="M58,57a9.25,9.25,0,0,0-9,9.4,1.23,1.23,0,0,0,1.3,1.2,1.16,1.16,0,0,0,1.2-1.2,6.89,6.89,0,0,1,6.5-6.8,1.24,1.24,0,0,0,1.3-1.2A1.34,1.34,0,0,0,58,57Z"></path><path id="e9554e25-12a9-463e-91f4-83f1a175335d" data-name="Path 7987" class="f098b83f-cc43-4bab-a6d3-7338539940e3" d="M55.59,53.86a1.13,1.13,0,0,0,1.7.4,1.42,1.42,0,0,0,.5-1.7,11.63,11.63,0,0,0-10.1-5.8,1.23,1.23,0,0,0-1.2,1.3,1.16,1.16,0,0,0,1.2,1.2A9.12,9.12,0,0,1,55.59,53.86Z"></path></g></g></svg>