<svg xmlns="http://www.w3.org/2000/svg" id="f0cda092-f35a-494b-8fe5-3bd281f7ace4" data-name="Layer 1" width="80" height="80" viewBox="0 0 80 80"><defs><style>.ad56744a-cdfe-460b-b246-868be72c7ad9{fill:#d2ae55;}</style></defs><g id="b2585886-1618-4d8a-b1e7-c61ceac337e1" data-name="04_TechnologyConsulting"><path class="ad56744a-cdfe-460b-b246-868be72c7ad9" d="M60.58,34.43a1.27,1.27,0,0,1-.88-.35L59.63,34a1.29,1.29,0,1,1,.95.41Zm-2.47-2a1.28,1.28,0,0,1-.72-.23,19.11,19.11,0,0,0-2-1.16A14.79,14.79,0,0,0,44.22,30a1.29,1.29,0,1,1-.76-2.46,17.26,17.26,0,0,1,13.12,1.25,20.2,20.2,0,0,1,2.26,1.33,1.29,1.29,0,0,1-.73,2.36Zm0,0"></path><path class="ad56744a-cdfe-460b-b246-868be72c7ad9" d="M50.46,73H32A1.31,1.31,0,0,1,31,72.51a1.28,1.28,0,0,1-.18-1.15c.19-.6.5-1.38.86-2.3.54-1.36,1.15-2.9,1.55-4.29a5.08,5.08,0,0,0,.36-2.51,23,23,0,0,1-7.91-15.75,1.29,1.29,0,0,1,1.19-1.38,1.3,1.3,0,0,1,1.39,1.19,20.41,20.41,0,0,0,7.06,14c1.8,1.55.62,5-1.24,9.67l-.18.44H50.05A14.64,14.64,0,0,0,50.43,69a12.39,12.39,0,0,1,.87-2.83,2.76,2.76,0,0,1,2.88-1.71c2,0,3.62.1,5,.17,4,.23,5.16.21,6.44-1.64.6-.86.49-2.91.39-4.72a23.23,23.23,0,0,1,0-4.34c.14-1,1.1-1.66,2.21-2.42a12.69,12.69,0,0,0,1.21-.9,23.92,23.92,0,0,0-1.16-2.69c-1.27-2.66-2-4.35-1.51-5.57a9.72,9.72,0,0,0-1.28-9.27c-3.37-5-10.55-8.84-16.7-8.84a20.47,20.47,0,0,0-11,3.22,1.29,1.29,0,0,1-1.39-2.18,23.11,23.11,0,0,1,12.44-3.62c7.05,0,15,4.2,18.84,10,2.52,3.77,3.07,7.88,1.56,11.6a16.23,16.23,0,0,0,1.42,3.56c.9,1.89,1.45,3.09,1.45,4,0,1.2-1.15,2-2.37,2.82a12,12,0,0,0-1.14.86,23.37,23.37,0,0,0,0,3.64c.13,2.44.25,4.75-.85,6.33-2.16,3.11-4.62,3-8.7,2.75-1.39-.08-3-.17-4.9-.17h-.27c-.35.2-.71,1.83-.87,2.53a12.87,12.87,0,0,1-.53,2,2.1,2.1,0,0,1-2,1.56Zm0,0"></path><path class="ad56744a-cdfe-460b-b246-868be72c7ad9" d="M30.49,38.77H24a1.29,1.29,0,0,1-1.29-1.18,2.13,2.13,0,0,0-1.25-2,11.06,11.06,0,1,1,11.53,0,2.17,2.17,0,0,0-1.25,2,1.28,1.28,0,0,1-1.28,1.18Zm-3.23-2.58h2.15a4.67,4.67,0,0,1,2.27-2.76,8.47,8.47,0,1,0-8.84,0,4.71,4.71,0,0,1,2.27,2.76Zm0,0"></path><path class="ad56744a-cdfe-460b-b246-868be72c7ad9" d="M31.83,29.7a1.38,1.38,0,0,1-.7-.2,1.29,1.29,0,0,1-.39-1.78,4,4,0,0,0,.36-2.67,2.59,2.59,0,0,0-1.43-1.65,1.29,1.29,0,0,1-.56-1.74,1.3,1.3,0,0,1,1.74-.56,5.17,5.17,0,0,1,2.74,3.28,6.46,6.46,0,0,1-.67,4.72,1.3,1.3,0,0,1-1.09.6Zm0,0"></path><path class="ad56744a-cdfe-460b-b246-868be72c7ad9" d="M27.26,13.22A1.29,1.29,0,0,1,26,11.93V8.25a1.29,1.29,0,0,1,2.58,0v3.68a1.29,1.29,0,0,1-1.29,1.29Zm0,0"></path><path class="ad56744a-cdfe-460b-b246-868be72c7ad9" d="M12.94,27.54H9.26a1.29,1.29,0,0,1,0-2.58h3.68a1.29,1.29,0,1,1,0,2.58Zm0,0"></path><path class="ad56744a-cdfe-460b-b246-868be72c7ad9" d="M20.1,15.14A1.28,1.28,0,0,1,19,14.49l-1.84-3.18A1.29,1.29,0,0,1,19.38,10l1.84,3.18A1.3,1.3,0,0,1,20.74,15a1.33,1.33,0,0,1-.64.17Zm0,0"></path><path class="ad56744a-cdfe-460b-b246-868be72c7ad9" d="M14.86,20.38a1.26,1.26,0,0,1-.65-.17L11,18.37a1.29,1.29,0,1,1,1.29-2.24L15.5,18A1.29,1.29,0,0,1,16,19.74a1.28,1.28,0,0,1-1.11.64Zm0,0"></path><path class="ad56744a-cdfe-460b-b246-868be72c7ad9" d="M39.66,20.38A1.29,1.29,0,0,1,39,18l3.18-1.84a1.29,1.29,0,0,1,1.29,2.24l-3.18,1.84a1.29,1.29,0,0,1-.65.17Zm0,0"></path><path class="ad56744a-cdfe-460b-b246-868be72c7ad9" d="M11.67,36.54A1.29,1.29,0,0,1,11,34.13l3.18-1.84a1.29,1.29,0,1,1,1.29,2.24l-3.18,1.84a1.29,1.29,0,0,1-.65.17Zm0,0"></path><path class="ad56744a-cdfe-460b-b246-868be72c7ad9" d="M18.26,43.13a1.4,1.4,0,0,1-.65-.17,1.31,1.31,0,0,1-.47-1.77l1.58-2.72A1.29,1.29,0,0,1,21,39.76l-1.57,2.72a1.29,1.29,0,0,1-1.12.65Zm0,0"></path><path class="ad56744a-cdfe-460b-b246-868be72c7ad9" d="M34.42,15.14a1.4,1.4,0,0,1-.65-.17,1.31,1.31,0,0,1-.47-1.77L35.14,10a1.29,1.29,0,0,1,2.24,1.29l-1.84,3.18a1.29,1.29,0,0,1-1.12.65Zm0,0"></path><path class="ad56744a-cdfe-460b-b246-868be72c7ad9" d="M30.49,43.24H24A1.29,1.29,0,0,1,22.74,42V37.48A1.29,1.29,0,0,1,24,36.19h6.46a1.29,1.29,0,0,1,1.29,1.29V42a1.29,1.29,0,0,1-1.29,1.29Zm-5.17-2.58H29.2V38.77H25.32Zm0,0"></path><path class="ad56744a-cdfe-460b-b246-868be72c7ad9" d="M29.16,47.71H25.35a2.61,2.61,0,0,1-2.61-2.61V42a1.29,1.29,0,1,1,2.58,0V45.1l0,0h3.81a0,0,0,0,0,0,0V42a1.29,1.29,0,1,1,2.58,0V45.1a2.61,2.61,0,0,1-2.62,2.61Zm0,0"></path></g></svg>