<svg xmlns="http://www.w3.org/2000/svg" id="Layer_1" data-name="Layer 1" width="80" height="80" viewBox="0 0 80 80"><defs><style>.cls-1{fill:#fff;}.cls-2{fill:#d2ae55;}</style></defs><path id="Path_7993" data-name="Path 7993" class="cls-1" d="M38.58,42.5V40.71a6.5,6.5,0,0,1,3.89-6,6.3,6.3,0,0,0-2.63-.55h-.32A6.5,6.5,0,0,0,33,40.71h0V42.5A6.51,6.51,0,0,0,39.52,49h.32a6.63,6.63,0,0,0,2.63-.55A6.5,6.5,0,0,1,38.58,42.5Z"></path><path id="Path_7996" data-name="Path 7996" class="cls-2" d="M72.36,60.29A1.32,1.32,0,0,0,73.68,59v-46A6.58,6.58,0,0,0,67.1,6.35H12.9a6.58,6.58,0,0,0-6.58,6.57V61.87a6.58,6.58,0,0,0,6.58,6.57H60.32L63.91,72A5.72,5.72,0,0,0,72,63.94L59,51a1.32,1.32,0,0,0-1.86,0L55,53.15,53.63,51.8A18.49,18.49,0,0,0,45.18,22a1.32,1.32,0,0,0-1.63.9,1.3,1.3,0,0,0,.84,1.61,15.86,15.86,0,1,1-9.59,0,1.31,1.31,0,1,0-.74-2.52l-.06,0A18.49,18.49,0,1,0,51.77,53.66L53.12,55,50.93,57.2a1.32,1.32,0,0,0,0,1.86l6.76,6.75H12.9a3.94,3.94,0,0,1-4-3.94V18.44h62.1V59A1.32,1.32,0,0,0,72.36,60.29ZM55.91,55.93h0l2.19-2.18,12.05,12a3.09,3.09,0,1,1-4.38,4.37l-8.38-8.38,2.19-2.19a1.32,1.32,0,0,0-1.86-1.86l-2.19,2.19-1.8-1.8ZM9.08,15.82H9V12.92A4,4,0,0,1,12.9,9H67.1a4,4,0,0,1,4,3.94v2.9Z"></path><path id="Path_7997" data-name="Path 7997" class="cls-2" d="M65.26,11.08H35.54a1.32,1.32,0,1,0-.07,2.63H65.26a1.32,1.32,0,0,0,0-2.63Z"></path><path id="Path_7998" data-name="Path 7998" class="cls-2" d="M20,11.08a1.32,1.32,0,1,0,1.32,1.32A1.33,1.33,0,0,0,20,11.08Z"></path><path id="Path_7999" data-name="Path 7999" class="cls-2" d="M14.74,11.08a1.32,1.32,0,1,0,1.32,1.32,1.29,1.29,0,0,0-.39-.93A1.31,1.31,0,0,0,14.74,11.08Z"></path><path id="Path_8000" data-name="Path 8000" class="cls-2" d="M25.27,11.08a1.31,1.31,0,1,0,.93.39A1.32,1.32,0,0,0,25.27,11.08Z"></path><path id="Path_8001" data-name="Path 8001" class="cls-2" d="M39.7,23.82h0a1.32,1.32,0,0,0,0-2.63h-.05a1.32,1.32,0,1,0-.07,2.63h.11Z"></path><path id="Path_8002" data-name="Path 8002" class="cls-2" d="M13.42,59.5a1.32,1.32,0,0,0,1.32,1.31h9a1.32,1.32,0,0,0,0-2.63h-9A1.32,1.32,0,0,0,13.42,59.5Z"></path><path id="Path_8003" data-name="Path 8003" class="cls-2" d="M20.54,52.92h-5.8a1.32,1.32,0,0,0-.07,2.63h5.87a1.32,1.32,0,0,0,.07-2.63Z"></path><path id="Path_8004" data-name="Path 8004" class="cls-2" d="M29.66,60.43a1.32,1.32,0,1,0-1.86,0,1.33,1.33,0,0,0,1.86,0Z"></path><path id="Path_8005" data-name="Path 8005" class="cls-2" d="M65.26,21.87H55a1.32,1.32,0,0,0,0,2.63H65.26a1.32,1.32,0,1,0,.06-2.63Z"></path><path id="Path_8006" data-name="Path 8006" class="cls-2" d="M65.26,27.13h-5.1a1.32,1.32,0,0,0-.06,2.63h5.16a1.32,1.32,0,0,0,.07-2.63Z"></path><path id="Path_8007" data-name="Path 8007" class="cls-2" d="M39.87,29.25h-.38a3.62,3.62,0,0,0-3.61,3.61v.92a8,8,0,0,0-3,2.78l-1.24-1.24a1.32,1.32,0,1,0-1.92,1.8l.05.05,2.06,2.07a7.21,7.21,0,0,0-.13,1h-2a1.32,1.32,0,0,0,0,2.63h2A7.17,7.17,0,0,0,31.84,44L29.79,46a1.31,1.31,0,1,0,1.86,1.85l1.24-1.24a7.84,7.84,0,0,0,6.64,3.69h.32a7.81,7.81,0,0,0,6.62-3.66l1.2,1.21a1.32,1.32,0,0,0,1.92-1.8l-.05,0-2-2a8,8,0,0,0,.13-1.08h2a1.32,1.32,0,0,0,0-2.63h-2a7.91,7.91,0,0,0-.13-1.09l2-2a1.32,1.32,0,0,0-1.87-1.85l-1.21,1.22a7.8,7.8,0,0,0-3-2.76v-.92A3.62,3.62,0,0,0,39.87,29.25Zm-1.36,3.63v0a1,1,0,0,1,1-1h.38a1,1,0,0,1,1,1v0ZM45,40.71v1.78a5.2,5.2,0,0,1-5.2,5.2h-.32a5.21,5.21,0,0,1-5.2-5.2V40.71a5.21,5.21,0,0,1,5.2-5.2h.32a5.2,5.2,0,0,1,5.2,5.2Z"></path></svg>