<svg xmlns="http://www.w3.org/2000/svg" id="Layer_1" data-name="Layer 1" width="80" height="80" viewBox="0 0 80 80"><defs><style>.cls-1{fill:#61c1d1;}.cls-2{fill:none;}</style></defs><path class="cls-1" d="M59.45,22.79a1.23,1.23,0,0,0,.87-.36,1.24,1.24,0,0,0,.36-.87,1.23,1.23,0,0,0-1.23-1.23,1.24,1.24,0,0,0-.87.36,1.23,1.23,0,0,0-.36.87,1.23,1.23,0,0,0,1.23,1.23Zm0,0"></path><path class="cls-1" d="M40.06,52.49a1.29,1.29,0,0,0-.87.36,1.24,1.24,0,0,0-.36.87,1.23,1.23,0,0,0,.36.87,1.23,1.23,0,0,0,1.74,0,1.23,1.23,0,0,0,.36-.87,1.24,1.24,0,0,0-.36-.87,1.29,1.29,0,0,0-.87-.36Zm0,0"></path><path class="cls-2" d="M25.77,28.94c-.08-.23-.16-.46-.23-.69H23.39a1.09,1.09,0,0,1-1.09-1.09V22L11.8,27.79l5.69,5.7Z"></path><path class="cls-2" d="M27.43,26.9c.08.33.17.66.28,1a11.92,11.92,0,0,0,1,2.26c.08.14.16.29.25.43a1.09,1.09,0,0,1-.16,1.34l-1.33,1.34,3.1,3.1L31.9,35a1.08,1.08,0,0,1,1.33-.16,12.73,12.73,0,0,0,3.68,1.52,1.09,1.09,0,0,1,.83,1.06v1.89h4.39V37.44A1.1,1.1,0,0,1,43,36.38a12.56,12.56,0,0,0,3.67-1.52A1.09,1.09,0,0,1,48,35l1.33,1.33,3.11-3.1-1.33-1.34a1.08,1.08,0,0,1-.16-1.34c.09-.16.19-.32.28-.49a12.56,12.56,0,0,0,1-2.26c.1-.3.18-.61.26-.92a1.08,1.08,0,0,1,1.06-.83h1.88V21.68H53.51a1.09,1.09,0,0,1-1.06-.84,12.72,12.72,0,0,0-.7-2.08,13.26,13.26,0,0,0-.82-1.59,1.09,1.09,0,0,1,.15-1.34l.16-.16,1.18-1.18-.7-.7-2.41-2.4L48,12.72a1.08,1.08,0,0,1-1.34.16A12.83,12.83,0,0,0,43,11.36a1.09,1.09,0,0,1-.84-1.06V8.42H37.74V10.3a1.08,1.08,0,0,1-.83,1.06,12.89,12.89,0,0,0-3.68,1.52,1.06,1.06,0,0,1-1.33-.16l-1.34-1.33-2.4,2.4-.7.7,1.22,1.23.11.11A1.09,1.09,0,0,1,29,17.17a13.88,13.88,0,0,0-.86,1.67,13,13,0,0,0-.66,2,1.1,1.1,0,0,1-1.06.84H24.48v4.39h1.89A1.09,1.09,0,0,1,27.43,26.9Zm8.11-7.1a5.78,5.78,0,0,1,1.88-1.59,5.69,5.69,0,0,1,8.31,5,5.25,5.25,0,0,1-.09,1,5.75,5.75,0,0,1-1,2.29,5.67,5.67,0,1,1-9.15-6.71Z"></path><path class="cls-2" d="M40.05,26.59a3.36,3.36,0,0,0,3.35-3.35c0-.08,0-.17,0-.26a3.39,3.39,0,0,0-2.58-3,3.84,3.84,0,0,0-.76-.08,3.33,3.33,0,0,0-.84.1,3.37,3.37,0,0,0-2,1.48,3.25,3.25,0,0,0-.49,1.45c0,.1,0,.21,0,.31a3.35,3.35,0,0,0,3.35,3.35Z"></path><path class="cls-2" d="M54.73,32.48a1.08,1.08,0,0,1,0,1.54l-4.64,4.64a1.09,1.09,0,0,1-.77.32,1.06,1.06,0,0,1-.77-.32L47,37.15a15,15,0,0,1-2.72,1.12v2.15a1.09,1.09,0,0,1-1.09,1.09H36.65a1.09,1.09,0,0,1-1.09-1.09V38.27a14.88,14.88,0,0,1-2.71-1.12l-1.52,1.51a1.06,1.06,0,0,1-.77.32,1.07,1.07,0,0,1-.77-.32L25.15,34a1.07,1.07,0,0,1-.32-.77,1.06,1.06,0,0,1,.32-.77l.87-.87L19.83,35,40,46.08,60.17,35l-6.46-3.55Z"></path><polygon class="cls-2" points="37.97 47.77 17.49 36.53 11.8 42.22 32.28 53.47 37.97 47.77"></polygon><polygon class="cls-2" points="42.03 47.77 47.72 53.47 68.2 42.22 62.51 36.53 42.03 47.77"></polygon><path class="cls-2" d="M47.51,56.22a1.24,1.24,0,0,1-.87-.36L40,49.22l-6.64,6.64a1.24,1.24,0,0,1-.87.36,1.26,1.26,0,0,1-.59-.15L18.5,48.71V59.24L38.77,70.36V57.8a1.23,1.23,0,0,1,2.46,0V70.36L61.5,59.24V48.71L48.1,56.07A1.26,1.26,0,0,1,47.51,56.22Z"></path><path class="cls-1" d="M64.46,35l6.64-6.64a1.25,1.25,0,0,0,.35-1,1.27,1.27,0,0,0-.63-.91l-8-4.38a1.23,1.23,0,0,0-1.18,2.16l6.54,3.59-5.69,5.7-8.38-4.61.21-.64h2.14a1.08,1.08,0,0,0,1.09-1.08V20.59a1.09,1.09,0,0,0-1.09-1.09H54.34a15,15,0,0,0-1.13-2.72h0l1.5-1.51a1.09,1.09,0,0,0,.06-1.47l-.06-.07L50.09,9.08a1.1,1.1,0,0,0-1.55,0L47,10.6a15,15,0,0,0-2.72-1.13V7.33a1.09,1.09,0,0,0-1.09-1.09H36.65a1.09,1.09,0,0,0-1.09,1.09V9.47a14.63,14.63,0,0,0-2.71,1.13L31.33,9.08a1.1,1.1,0,0,0-.77-.32,1.12,1.12,0,0,0-.77.32l-4.64,4.64-.07.07a1.08,1.08,0,0,0,.07,1.47l1.51,1.52,0,.06L9.18,26.42a1.27,1.27,0,0,0-.63.91,1.25,1.25,0,0,0,.35,1L15.54,35,8.9,41.64a1.23,1.23,0,0,0,.28,2l6.87,3.77V60A1.24,1.24,0,0,0,16.68,61L39.41,73.52a1.24,1.24,0,0,0,1.18,0L63.32,61A1.24,1.24,0,0,0,64,60V47.36l6.87-3.77a1.23,1.23,0,0,0,.28-2Zm-4.29,0L40,46.08,19.83,35,26,31.61l-.87.87a1.06,1.06,0,0,0-.32.77,1.07,1.07,0,0,0,.32.77l4.64,4.64a1.07,1.07,0,0,0,.77.32,1.06,1.06,0,0,0,.77-.32l1.52-1.51a14.88,14.88,0,0,0,2.71,1.12v2.15a1.09,1.09,0,0,0,1.09,1.09h6.57a1.09,1.09,0,0,0,1.09-1.09V38.27A15,15,0,0,0,47,37.15l1.52,1.51a1.06,1.06,0,0,0,.77.32,1.09,1.09,0,0,0,.77-.32L54.73,34a1.08,1.08,0,0,0,0-1.54l-1-1ZM24.48,21.68h1.89a1.1,1.1,0,0,0,1.06-.84,13,13,0,0,1,.66-2A13.88,13.88,0,0,1,29,17.17a1.09,1.09,0,0,0-.16-1.34l-.11-.11-1.22-1.23.7-.7,2.4-2.4,1.34,1.33a1.06,1.06,0,0,0,1.33.16,12.89,12.89,0,0,1,3.68-1.52,1.08,1.08,0,0,0,.83-1.06V8.42h4.39V10.3A1.09,1.09,0,0,0,43,11.36a12.83,12.83,0,0,1,3.67,1.52A1.08,1.08,0,0,0,48,12.72l1.33-1.33,2.41,2.4.7.7-1.18,1.18-.16.16a1.09,1.09,0,0,0-.15,1.34,13.26,13.26,0,0,1,.82,1.59,12.72,12.72,0,0,1,.7,2.08,1.09,1.09,0,0,0,1.06.84h1.88v4.39H53.51a1.08,1.08,0,0,0-1.06.83c-.08.31-.16.62-.26.92a12.56,12.56,0,0,1-1,2.26c-.09.17-.19.33-.28.49a1.08,1.08,0,0,0,.16,1.34l1.33,1.34-3.11,3.1L48,35a1.09,1.09,0,0,0-1.34-.16A12.56,12.56,0,0,1,43,36.38a1.1,1.1,0,0,0-.84,1.06v1.89H37.74V37.44a1.09,1.09,0,0,0-.83-1.06,12.73,12.73,0,0,1-3.68-1.52A1.08,1.08,0,0,0,31.9,35l-1.34,1.33-3.1-3.1,1.33-1.34A1.09,1.09,0,0,0,29,30.57c-.09-.14-.17-.29-.25-.43a11.92,11.92,0,0,1-1-2.26c-.11-.32-.2-.65-.28-1a1.09,1.09,0,0,0-1.06-.83H24.48ZM11.8,27.79,22.3,22v5.14a1.09,1.09,0,0,0,1.09,1.09h2.15c.07.23.15.46.23.69l-8.28,4.55Zm0,14.43,5.69-5.69L38,47.77l-5.69,5.7Zm49.7,17L41.23,70.36V57.8a1.23,1.23,0,0,0-2.46,0V70.36L18.5,59.24V48.71l13.4,7.36a1.26,1.26,0,0,0,.59.15,1.24,1.24,0,0,0,.87-.36L40,49.22l6.64,6.64a1.24,1.24,0,0,0,.87.36,1.26,1.26,0,0,0,.59-.15l13.4-7.36ZM47.72,53.47,42,47.77,62.51,36.53l5.69,5.69Z"></path><path class="cls-1" d="M35.38,26.47a5.67,5.67,0,0,0,9.31,0,5.75,5.75,0,0,0,1-2.29,5.25,5.25,0,0,0,.09-1,5.69,5.69,0,0,0-8.31-5,5.78,5.78,0,0,0-1.88,1.59,5.67,5.67,0,0,0-.16,6.67Zm1.34-3.54a3.25,3.25,0,0,1,.49-1.45,3.37,3.37,0,0,1,2-1.48,3.33,3.33,0,0,1,.84-.1,3.84,3.84,0,0,1,.76.08,3.39,3.39,0,0,1,2.58,3c0,.09,0,.18,0,.26a3.35,3.35,0,0,1-6.7,0C36.7,23.14,36.71,23,36.72,22.93Z"></path></svg>