<svg xmlns="http://www.w3.org/2000/svg" id="Layer_1" data-name="Layer 1" width="80" height="80" viewBox="0 0 80 80"><defs><style>.cls-1{fill:#fff;}.cls-2{fill:#e57070;}</style></defs><circle class="cls-1" cx="40.02" cy="30.61" r="3.6"></circle><g id="_07_LegacyAppMigration" data-name="07_LegacyAppMigration"><path class="cls-2" d="M69.56,41.38a1.65,1.65,0,0,0-2.34,0l-4,4a1.65,1.65,0,0,0,2.34,2.34l1.2-1.2V68.44H57.79a1.66,1.66,0,0,0,0,3.31h10.6a1.66,1.66,0,0,0,1.66-1.66V46.55l1.2,1.2a1.65,1.65,0,0,0,2.34-2.34Z"></path><path class="cls-2" d="M10.44,38.62a1.64,1.64,0,0,0,2.34,0l4-4a1.65,1.65,0,1,0-2.34-2.34l-1.2,1.2V11.56h8.94a1.66,1.66,0,1,0,0-3.31H11.61A1.66,1.66,0,0,0,10,9.91V33.45l-1.2-1.2a1.67,1.67,0,0,0-2.34,0,1.65,1.65,0,0,0,0,2.34Z"></path><path class="cls-2" d="M43.7,19.11H36.29a1.5,1.5,0,1,0,0,3H43.7a1.5,1.5,0,1,0,0-3Zm0,0"></path><path class="cls-2" d="M25,38.65a1.52,1.52,0,0,0,1.06-.44,1.5,1.5,0,0,0,.44-1.06,1.52,1.52,0,0,0-.44-1.06,1.52,1.52,0,0,0-2.12,0,1.52,1.52,0,0,0-.44,1.06A1.5,1.5,0,0,0,24,38.21a1.52,1.52,0,0,0,1.06.44Zm0,0"></path><path class="cls-2" d="M49.7,14.53H30.3a6.79,6.79,0,0,0-6.78,6.78v9.85a1.5,1.5,0,1,0,3,0V26.7h27V54h-27V43.15a1.5,1.5,0,0,0-3,0V58.69a6.79,6.79,0,0,0,6.78,6.78H49.7a6.79,6.79,0,0,0,6.78-6.78V21.31a6.79,6.79,0,0,0-6.78-6.78ZM26.52,23.7V21.31a3.78,3.78,0,0,1,3.78-3.78H49.7a3.78,3.78,0,0,1,3.78,3.78V23.7ZM49.7,62.47H30.3a3.78,3.78,0,0,1-3.78-3.78V57h27v1.74a3.78,3.78,0,0,1-3.78,3.78Zm0,0"></path><path class="cls-2" d="M40,58.18h0a1.5,1.5,0,1,0,0,3h0a1.5,1.5,0,1,0,0-3Zm0,0"></path><path class="cls-2" d="M31.91,46.47A4.5,4.5,0,0,0,36.4,51h7.19a4.5,4.5,0,1,0,0-9H36.4a4.5,4.5,0,0,0-4.49,4.5Zm13.18,0A1.5,1.5,0,0,1,43.59,48H36.4a1.5,1.5,0,0,1,0-3h7.19a1.5,1.5,0,0,1,1.5,1.5Zm0,0"></path><path class="cls-2" d="M41.51,35.93v-4a1.5,1.5,0,0,0-3,0v4a1.5,1.5,0,0,0,3,0Zm0,0"></path><path class="cls-2" d="M46.31,38.52l2.06-2.05a1.5,1.5,0,1,0-2.11-2.12l-2.06,2A1.5,1.5,0,0,0,45.26,39a1.44,1.44,0,0,0,1.05-.44Zm0,0"></path><path class="cls-2" d="M33.74,34.36a1.5,1.5,0,1,0-2.11,2.12l2,2a1.48,1.48,0,0,0,1.06.44,1.5,1.5,0,0,0,1.06-2.56Zm0,0"></path></g></svg>