<svg xmlns="http://www.w3.org/2000/svg" id="Layer_1" data-name="Layer 1" width="80" height="80" viewBox="0 0 80 80"><defs><style>.cls-1{fill:#fff;}.cls-2{fill:#7ec67f;}</style></defs><path class="cls-1" d="M39.75,47.7,46,46.2l-1.34-.33H35.3L27.61,47.7a11.13,11.13,0,0,0-8.54,10.83v7.39H31.21V58.53A11.13,11.13,0,0,1,39.75,47.7Z"></path><polygon class="cls-1" points="21.83 39.07 18.54 39.07 18.54 42.54 22.03 50.91 23.68 46.97 21.83 42.54 21.83 39.07"></polygon><polygon class="cls-1" points="57.76 39.07 54.47 39.07 54.47 42.53 57.97 50.91 59.61 46.97 57.76 42.53 57.76 39.07"></polygon><path class="cls-1" d="M39.67,43.15V42.06h-4.1v1.09A4.13,4.13,0,0,1,35,45.27l5,11.36,2-4.64-3-6.72A4.14,4.14,0,0,0,39.67,43.15Z"></path><path class="cls-2" d="M7,61.9H17.73v4a1.34,1.34,0,0,0,1.34,1.35H33.79a1.35,1.35,0,0,0,0-2.69h-6v-5.9a1.35,1.35,0,0,0-2.69,0v5.9h-4.7v-6A9.76,9.76,0,0,1,27.93,49l6.59-1.59,4.25,9.66a1.32,1.32,0,0,0,1.22.8h0a1.33,1.33,0,0,0,1.23-.8l4.24-9.64L52,49a9.77,9.77,0,0,1,7.52,9.53V60a1.36,1.36,0,0,0-.11.53,1.27,1.27,0,0,0,.11.52v3.5H54.89v-5.9a1.35,1.35,0,0,0-2.69,0v5.9H45.63a1.35,1.35,0,0,0,0,2.69H60.9a1.34,1.34,0,0,0,1.34-1.35v-4H73a1.34,1.34,0,0,0,1.34-1.34v-9a9.31,9.31,0,0,0-7.17-9.08l-4.48-1.07V39.62a8.84,8.84,0,0,0,4.14-7.49v-5a8.84,8.84,0,0,0-15.47-5.86A11.83,11.83,0,0,0,40,12.73h0a11.84,11.84,0,0,0-11.35,8.56,8.84,8.84,0,0,0-15.49,5.84v5a8.84,8.84,0,0,0,4.14,7.49v1.77l-4.48,1.07a9.31,9.31,0,0,0-7.17,9.08v9A1.34,1.34,0,0,0,7,61.9Zm22.5-25A11.84,11.84,0,0,0,34,41.63v2a9.3,9.3,0,0,0-2.74-1.14l-4.49-1.08V39.62A9,9,0,0,0,29.5,36.86Zm23.77,2.76v1.76l-4.49,1.08A9,9,0,0,0,46,43.61v-2a11.92,11.92,0,0,0,4.49-4.77A8.77,8.77,0,0,0,53.27,39.62ZM49.13,28.94v2.87a9.12,9.12,0,0,1-18.24-.31V28.4h3.78a12.82,12.82,0,0,0,9.06-3.75l5.4,3.17v1.12ZM27.3,46.4a12.41,12.41,0,0,0-2.27.78l1.31-3.13,4.25,1a6.32,6.32,0,0,1,1,.31ZM40,53.21l-3.35-7.63V42.81A11.74,11.74,0,0,0,40,43.3a11.41,11.41,0,0,0,3.33-.48v2.77Zm8.43-7.82a6.73,6.73,0,0,1,1-.32l4.24-1L55,47.19a12.47,12.47,0,0,0-2.3-.79Zm23.23,6.15v7.68H69v-6a1.34,1.34,0,0,0-2.68,0v6H62.24v-.68a12.44,12.44,0,0,0-2.74-7.82l2.78-6.67,4.27,1A6.63,6.63,0,0,1,71.65,51.54ZM60,42.52,58,47.43l-2-4.84c0-.05,0-.1,0-.15V40.75a9,9,0,0,0,4,0v1.7A.15.15,0,0,0,60,42.52ZM58,38.3a6.18,6.18,0,0,1-6.17-6.17v-.22c0-.13,0-.27,0-.41V28.31a19.3,19.3,0,0,0,8.49,2h3.84v1.85A6.18,6.18,0,0,1,58,38.3ZM58,21a6.18,6.18,0,0,1,6.17,6.17v.47H60.31a16.6,16.6,0,0,1-8.25-2.2A6.18,6.18,0,0,1,58,21ZM30.89,24.54a9.12,9.12,0,0,1,18.24,0v.17l-5-2.92a1.35,1.35,0,0,0-1.71.29,10.11,10.11,0,0,1-7.78,3.63H30.89V24.54Zm-15,2.59A6.17,6.17,0,0,1,27.94,25.4a16.6,16.6,0,0,1-8.25,2.2H15.85v-.47Zm0,3.15h3.84a19.25,19.25,0,0,0,8.5-2v3.83a6.17,6.17,0,1,1-12.34,0ZM22,41a8.93,8.93,0,0,0,2-.23v1.69s0,.09,0,.13l-2,4.86-2-4.88a.34.34,0,0,0,0-.1v-1.7A9,9,0,0,0,22,41ZM8.35,51.54a6.63,6.63,0,0,1,5.1-6.47l4.26-1,2.77,6.64a12.49,12.49,0,0,0-2.75,7.83v.69h-4v-6a1.34,1.34,0,0,0-2.68,0v6H8.35Z"></path><path class="cls-2" d="M36.74,30.44a1,1,0,0,0-.12-.23,1.2,1.2,0,0,0-.17-.21,1,1,0,0,0-.2-.16L36,29.71a1,1,0,0,0-.25-.07,1.14,1.14,0,0,0-.52,0,1,1,0,0,0-.25.07,1.71,1.71,0,0,0-.23.13.83.83,0,0,0-.21.16,1.36,1.36,0,0,0-.39.95,1.09,1.09,0,0,0,0,.26,1,1,0,0,0,.07.25c0,.08.08.16.13.24a1,1,0,0,0,.16.2,1.2,1.2,0,0,0,.21.17,1.67,1.67,0,0,0,.23.12l.25.08.26,0a1.36,1.36,0,0,0,1-.39,1.63,1.63,0,0,0,.17-.2,1.34,1.34,0,0,0,.12-.24,1.83,1.83,0,0,0,.08-.25,1.7,1.7,0,0,0,0-.52A1.83,1.83,0,0,0,36.74,30.44Z"></path><path class="cls-2" d="M43.52,30a.83.83,0,0,0-.16.21,1.71,1.71,0,0,0-.13.23,1,1,0,0,0-.07.25,1.14,1.14,0,0,0,0,.52,1,1,0,0,0,.07.25c0,.08.08.16.13.24a1,1,0,0,0,.16.2,1.2,1.2,0,0,0,.21.17,1.67,1.67,0,0,0,.23.12l.25.08.26,0,.26,0,.25-.08a1.67,1.67,0,0,0,.23-.12,1.2,1.2,0,0,0,.21-.17,1.35,1.35,0,0,0,0-1.9.83.83,0,0,0-.21-.16,1.71,1.71,0,0,0-.23-.13,1,1,0,0,0-.25-.07,1.14,1.14,0,0,0-.52,0,1,1,0,0,0-.25.07,1.71,1.71,0,0,0-.23.13A.83.83,0,0,0,43.52,30Z"></path><path class="cls-2" d="M40.68,34.52a1,1,0,0,1-1.43,0,1.34,1.34,0,0,0-1.9,1.89,3.68,3.68,0,0,0,5.23,0,1.34,1.34,0,0,0-1.9-1.89Z"></path><path class="cls-2" d="M20.18,32a1.62,1.62,0,0,0-.1-.18,1,1,0,0,0-.13-.16,1.07,1.07,0,0,0-.16-.14,1.11,1.11,0,0,0-.19-.09l-.2-.07a1.48,1.48,0,0,0-.42,0l-.2.07a1.51,1.51,0,0,0-.18.09,1.17,1.17,0,0,0-.48.89,1.49,1.49,0,0,0,0,.21l.06.2c0,.07.07.13.1.19a1.07,1.07,0,0,0,.14.16l.16.13.18.1.2.06a.75.75,0,0,0,.21,0,1.08,1.08,0,0,0,.76-.31,1,1,0,0,0,.13-.16,1.14,1.14,0,0,0,.1-.19.66.66,0,0,0,.06-.2,1.11,1.11,0,0,0,0-.42A.89.89,0,0,0,20.18,32Z"></path><path class="cls-2" d="M25.84,32a1.62,1.62,0,0,0-.1-.18,1,1,0,0,0-.13-.16l-.17-.14-.18-.09-.2-.07a1.48,1.48,0,0,0-.42,0l-.2.07a1,1,0,0,0-.18.09l-.17.14a1.06,1.06,0,0,0-.31.75,1.49,1.49,0,0,0,0,.21l.06.2A1.14,1.14,0,0,0,24,33a1,1,0,0,0,.13.16,1.09,1.09,0,0,0,.17.13,1,1,0,0,0,.18.1.76.76,0,0,0,.2.06.75.75,0,0,0,.21,0,1.08,1.08,0,0,0,.76-.31,1,1,0,0,0,.13-.16,1.14,1.14,0,0,0,.1-.19.66.66,0,0,0,.06-.2,1.11,1.11,0,0,0,0-.42A.89.89,0,0,0,25.84,32Z"></path><path class="cls-2" d="M22.32,35.47a.44.44,0,0,1-.6,0,.54.54,0,0,0-.78,0,.56.56,0,0,0,0,.78,1.55,1.55,0,0,0,2.16,0,.56.56,0,0,0,0-.78A.54.54,0,0,0,22.32,35.47Z"></path><path class="cls-2" d="M56.26,32a1.51,1.51,0,0,0-.09-.18,1.6,1.6,0,0,0-.3-.3,1.51,1.51,0,0,0-.18-.09l-.2-.07a1.48,1.48,0,0,0-.42,0l-.2.07a1.11,1.11,0,0,0-.19.09,1.07,1.07,0,0,0-.16.14,1.06,1.06,0,0,0-.31.75.75.75,0,0,0,0,.21.66.66,0,0,0,.06.2.69.69,0,0,0,.1.19.65.65,0,0,0,.13.16l.16.13.19.1a.66.66,0,0,0,.2.06.75.75,0,0,0,.21,0,1.06,1.06,0,0,0,.75-.31,1.07,1.07,0,0,0,.14-.16,1.11,1.11,0,0,0,.09-.19.66.66,0,0,0,.06-.2.75.75,0,0,0,0-.42A.89.89,0,0,0,56.26,32Z"></path><path class="cls-2" d="M61.92,32a1.62,1.62,0,0,0-.1-.18,1,1,0,0,0-.13-.16,1.07,1.07,0,0,0-.16-.14,1.11,1.11,0,0,0-.19-.09l-.2-.07a1.48,1.48,0,0,0-.42,0l-.2.07a1.51,1.51,0,0,0-.18.09,1.17,1.17,0,0,0-.48.89,1.49,1.49,0,0,0,0,.21l.06.2A1.14,1.14,0,0,0,60,33a1.07,1.07,0,0,0,.14.16l.16.13.18.1.2.06a.75.75,0,0,0,.21,0,1.08,1.08,0,0,0,.76-.31,1,1,0,0,0,.13-.16,1.14,1.14,0,0,0,.1-.19.66.66,0,0,0,.06-.2,1.11,1.11,0,0,0,0-.42A.89.89,0,0,0,61.92,32Z"></path><path class="cls-2" d="M58.4,35.47a.42.42,0,0,1-.59,0,.55.55,0,0,0-.78.78,1.51,1.51,0,0,0,1.07.44,1.55,1.55,0,0,0,1.08-.44.55.55,0,0,0-.78-.78Z"></path><path class="cls-2" d="M38.85,66.67a1.63,1.63,0,0,0,.17.2l.2.17a1,1,0,0,0,.23.12,1.21,1.21,0,0,0,.25.08,1.24,1.24,0,0,0,.27,0,1.34,1.34,0,0,0,.94-.4,1.63,1.63,0,0,0,.17-.2,1,1,0,0,0,.12-.23,1.21,1.21,0,0,0,.08-.25,1.24,1.24,0,0,0,0-.27,1.22,1.22,0,0,0,0-.26,1.21,1.21,0,0,0-.08-.25,1,1,0,0,0-.12-.23,1.63,1.63,0,0,0-.17-.2,1.35,1.35,0,0,0-1.21-.37,1.21,1.21,0,0,0-.25.08,1,1,0,0,0-.23.12A1.06,1.06,0,0,0,39,65a1.63,1.63,0,0,0-.17.2,1,1,0,0,0-.12.23,1.21,1.21,0,0,0-.08.25,1.22,1.22,0,0,0,0,.26,1.24,1.24,0,0,0,0,.27,1.21,1.21,0,0,0,.08.25A1,1,0,0,0,38.85,66.67Z"></path></svg>