<svg xmlns="http://www.w3.org/2000/svg" id="Layer_1" data-name="Layer 1" width="80" height="80" viewBox="0 0 80 80"><defs><style>.cls-1{fill:#80c680;}</style></defs><path class="cls-1" d="M18,46.15a1.23,1.23,0,0,0,1.23-1.23v-.11a1.24,1.24,0,1,0-2.47,0v.11A1.23,1.23,0,0,0,18,46.15Z"></path><path class="cls-1" d="M18,58.46a1.23,1.23,0,0,0,1.23-1.23V48.55a1.24,1.24,0,0,0-2.47,0v8.68A1.23,1.23,0,0,0,18,58.46Z"></path><path class="cls-1" d="M62,43.57a1.23,1.23,0,0,0-1.23,1.24v.11a1.24,1.24,0,0,0,2.47,0v-.11A1.23,1.23,0,0,0,62,43.57Z"></path><path class="cls-1" d="M62,47.32a1.23,1.23,0,0,0-1.23,1.23v8.68a1.24,1.24,0,0,0,2.47,0V48.55A1.23,1.23,0,0,0,62,47.32Z"></path><path class="cls-1" d="M64.63,39V35.54h.12A1.23,1.23,0,0,0,66,34.31a26,26,0,1,0-52,0,1.24,1.24,0,0,0,1.24,1.23h.13V39a13.73,13.73,0,0,0,1.44,24.7,5.45,5.45,0,0,0,5.4,4.75H35.63A4.58,4.58,0,1,0,35.56,66H22.21a3,3,0,0,1-2.55-1.44,13.53,13.53,0,0,0,2.39.21h.37a1.24,1.24,0,0,0,1.24-1.24v-25a1.24,1.24,0,0,0-.36-.87,1.27,1.27,0,0,0-.88-.36H21.8V35.54h1.37a1.23,1.23,0,0,0,1.24-1.23,15.59,15.59,0,0,1,31.18,0,1.23,1.23,0,0,0,1.23,1.23H58.2v1.74h-.62a1.27,1.27,0,0,0-.88.36,1.24,1.24,0,0,0-.36.87v25a1.24,1.24,0,0,0,1.24,1.24H58A13.74,13.74,0,0,0,64.63,39ZM40,65a2.11,2.11,0,1,1-2.11,2.11A2.11,2.11,0,0,1,40,65ZM21.18,62.25a11.26,11.26,0,0,1,0-22.46ZM19.33,37.52l-1.49.32v-2.3h1.49ZM40,16.24A18.08,18.08,0,0,0,22,33.07H16.51a23.52,23.52,0,0,1,47,0H58A18.09,18.09,0,0,0,40,16.24Zm20.67,19.3h1.49v2.4a12.54,12.54,0,0,0-1.49-.39ZM58.82,62.25V39.79a11.26,11.26,0,0,1,0,22.46Z"></path></svg>