<svg xmlns="http://www.w3.org/2000/svg" width="51" height="49" viewBox="0 0 51 49" fill="none"><path d="M1 9C1 4.58172 4.58172 1 9 1H41.206C45.6243 1 49.206 4.58172 49.206 9V40C49.206 44.4183 45.6243 48 41.206 48H8.99999C4.58171 48 1 44.4183 1 40V9Z" fill="url(#paint0_radial)" stroke="#FF7F18" stroke-width="2"></path><path d="M33.9191 18.8444C33.9191 18.6613 33.9875 18.5696 34.193 18.5696H37.7758C37.9583 18.5696 38.0496 18.6383 38.0496 18.8444V36.9104C38.0496 37.0934 38.004 37.1851 37.7758 37.1851H34.2386C34.0104 37.1851 33.9419 37.0706 33.9419 36.8875V18.8444H33.9191ZM33.6681 13.6468C33.6681 12.1813 34.695 11.3113 35.9959 11.3113C37.3879 11.3113 38.3235 12.25 38.3235 13.6468C38.3235 15.1579 37.3423 15.9822 35.9502 15.9822C34.6265 15.9823 33.6681 15.1579 33.6681 13.6468ZM23.3987 26.3776C22.7598 23.836 21.2536 18.2949 20.683 15.6159H20.6374C20.1581 18.2949 18.9486 22.8285 17.9902 26.3776H23.3987ZM17.0545 30.087L15.2516 36.9562C15.206 37.1392 15.1375 37.185 14.9093 37.185H11.5547C11.3265 37.185 11.2808 37.1163 11.3265 36.8416L17.8076 14.0817C17.9217 13.6696 17.9901 13.3033 18.0358 12.1813C18.0358 12.0211 18.1042 11.9524 18.2183 11.9524H23.0107C23.1704 11.9524 23.2389 11.9982 23.2846 12.1813L30.5416 36.8874C30.5872 37.0705 30.5416 37.185 30.359 37.185H26.5707C26.3882 37.185 26.274 37.1392 26.2285 36.9791L24.3571 30.087H17.0545Z" fill="#FF7F18"></path><defs><radialGradient id="paint0_radial" cx="0" cy="0" r="1" gradientUnits="userSpaceOnUse" gradientTransform="translate(16.5354 10.9809) scale(38.1565 37.066)"><stop stop-color="#423325" stop-opacity="0.98"></stop><stop offset="1" stop-color="#1C0A00"></stop></radialGradient></defs></svg>