<svg xmlns="http://www.w3.org/2000/svg" width="80" height="80" viewBox="0 0 80 80" fill="none"><circle cx="40" cy="40" r="40" fill="#222222"></circle><path d="M41.6875 53.9987L42.0238 55.0361H43.1144H44.2001L44.2003 55.0361H44.3964C44.8639 55.0361 45.2797 55.3392 45.4229 55.7841L45.4229 55.7841L45.4247 55.79C45.5698 56.2345 45.4111 56.7227 45.0336 56.9957L45.0298 56.9985L43.9936 57.753L43.1148 58.393L43.4495 59.4273L43.8449 60.6495L43.8461 60.6531C43.9906 61.096 43.8339 61.5837 43.4526 61.8606L43.4526 61.8606L43.4481 61.8639C43.2638 61.9988 43.0444 62.0679 42.8147 62.0679C42.588 62.0679 42.3663 61.999 42.1794 61.8632C42.1794 61.8632 42.1794 61.8632 42.1794 61.8632L41.1407 61.1087L40.261 60.4698L39.38 61.1069L38.3404 61.8588L38.3404 61.8588L38.3364 61.8618C37.959 62.1366 37.4481 62.1379 37.0666 61.8596L37.0662 61.8594C36.6841 61.581 36.5273 61.0912 36.6711 60.6499L36.672 60.6469L37.0675 59.4248L37.4021 58.3904L36.5233 57.7504L35.4871 56.9959L35.4852 56.9945C35.107 56.7201 34.948 56.2297 35.0924 55.7868L35.0925 55.7863C35.2383 55.3384 35.6555 55.0361 36.1239 55.0361H37.4058H38.4963L38.8327 53.9987L39.2276 52.7807C39.2276 52.7805 39.2277 52.7803 39.2278 52.7802C39.3737 52.3326 39.7907 52.0305 40.259 52.0305C40.7264 52.0305 41.1449 52.332 41.2929 52.7817C41.2931 52.7822 41.2933 52.7828 41.2935 52.7833L41.6875 53.9987Z" stroke="#56A8F7" stroke-width="3"></path><path d="M25.148 54.115L25.4843 55.1524H26.5748H27.5611L27.5612 55.1524H27.8595C28.3283 55.1524 28.7425 55.4541 28.8857 55.8998L28.8857 55.8998L28.8878 55.9063C29.0329 56.3508 28.8741 56.839 28.4966 57.1121L28.4966 57.1121L28.4929 57.1148L27.4567 57.8693L26.5779 58.5093L26.9125 59.5437L27.3079 60.7658L27.3091 60.7694C27.4529 61.2101 27.2964 61.6996 26.914 61.9781C26.5333 62.2554 26.0195 62.2544 25.6436 61.9807L25.6406 61.9785L24.5992 61.224L23.718 60.5855L22.8376 61.225L21.7988 61.9795C21.6119 62.1153 21.3906 62.1842 21.1636 62.1842C20.9385 62.1842 20.7189 62.1163 20.5304 61.9781L20.5271 61.9757C20.145 61.6973 19.9882 61.2075 20.132 60.7662L20.1331 60.7628L20.5281 59.5406L20.8623 58.5065L19.9837 57.8667L18.9476 57.1122L18.9456 57.1108C18.5675 56.8364 18.4085 56.346 18.5528 55.9031L18.553 55.9026C18.6988 55.4547 19.1159 55.1524 19.5844 55.1524H20.8685H21.959L22.2954 54.115L22.6902 52.897C22.6903 52.8968 22.6904 52.8966 22.6904 52.8964C22.8364 52.4489 23.2534 52.1469 23.7217 52.1469C24.1907 52.1469 24.6075 52.4494 24.7529 52.8965L25.148 54.115Z" stroke="#56A8F7" stroke-width="3"></path><path d="M61.9641 55.7885L61.9711 55.8101C62.1042 56.2468 61.945 56.7256 61.5712 56.9961L61.5677 56.9987L60.5315 57.7532L59.6527 58.3931L59.9873 59.4275L60.3828 60.6497L60.3839 60.6533C60.5277 61.0939 60.3712 61.5835 59.9888 61.8619C59.6081 62.1393 59.0943 62.1383 58.7184 61.8645L58.7154 61.8623L57.674 61.1078L56.7929 60.4694L55.9124 61.1089L54.8737 61.8634C54.6867 61.9992 54.4654 62.0681 54.2384 62.0681C54.0086 62.0681 53.7892 61.999 53.605 61.8641L53.6023 61.8621C53.2203 61.5837 53.0634 61.0939 53.2072 60.6527L53.2082 60.6497L53.6036 59.4275L53.9383 58.3932L53.0594 57.7532L52.0233 56.9987L52.0213 56.9973C51.6432 56.7228 51.4842 56.2325 51.6285 55.7895L51.6287 55.789C51.7744 55.3412 52.1916 55.0389 52.6601 55.0389H53.9419H55.0325L55.3688 54.0015L55.7637 52.7835C55.7638 52.7833 55.7639 52.783 55.764 52.7827C55.91 52.3353 56.327 52.0333 56.7951 52.0333C57.2641 52.0333 57.6809 52.3358 57.8263 52.7827C57.8263 52.7828 57.8263 52.7829 57.8264 52.783L58.2214 54.0015L58.5578 55.0389H59.6483H60.9328C61.4019 55.0389 61.8187 55.3414 61.9641 55.7885Z" stroke="#56A8F7" stroke-width="3"></path><path d="M28.3804 44.5109L28.5939 42.8226C28.9571 39.952 29.9335 37.0569 31.8216 34.8519C33.7513 32.5985 36.5456 31.174 40.2588 31.174L28.3804 44.5109ZM28.3804 44.5109H30.0821M28.3804 44.5109H30.0821M30.0821 44.5109H50.4354H50.4358H52.1375M30.0821 44.5109H52.1375M52.1375 44.5109L51.924 42.8226M52.1375 44.5109L51.924 42.8226M51.924 42.8226C51.5608 39.952 50.5844 37.0568 48.6963 34.8518M51.924 42.8226L48.6963 34.8518M48.6963 34.8518C46.7666 32.5983 43.9722 31.1737 40.2589 31.174L48.6963 34.8518ZM26.2526 45.595V45.5177C26.2731 38.4069 29.1295 33.2065 33.5035 30.7162L35.163 29.7714L33.852 28.3829C32.3473 26.7893 31.421 24.6732 31.421 22.3369C31.421 17.4645 35.3855 13.5 40.2579 13.5C45.1304 13.5 49.0949 17.4645 49.0949 22.3369C49.0949 24.6735 48.1689 26.7894 46.6641 28.3827L45.3526 29.7713L47.0125 30.7162C51.4017 33.2151 54.2631 38.4442 54.2631 45.595C54.2631 46.1946 53.7779 46.6791 53.179 46.6791H27.3367C26.7377 46.6791 26.2526 46.1946 26.2526 45.595ZM40.2591 15.6677C36.58 15.6677 33.5904 18.6573 33.5904 22.3364C33.5904 26.0154 36.58 29.0051 40.2591 29.0051C43.9381 29.0051 46.9277 26.0154 46.9277 22.3364C46.9277 18.6573 43.9381 15.6677 40.2591 15.6677Z" stroke="#56A8F7" stroke-width="3"></path></svg>