<svg xmlns="http://www.w3.org/2000/svg" width="51" height="49" viewBox="0 0 51 49" fill="none"><path d="M1 9C1 4.58172 4.58172 1 9 1H41.206C45.6243 1 49.206 4.58172 49.206 9V40C49.206 44.4183 45.6243 48 41.206 48H8.99999C4.58171 48 1 44.4183 1 40V9Z" fill="url(#paint0_radial)" stroke="#D8A1FF" stroke-width="2"></path><path d="M36.7615 24.2938C37.9253 24.2938 38.3361 24.2938 38.4502 24.248C38.4502 24.0877 38.4958 23.9732 38.4958 23.8587C38.4958 22.6222 37.9025 20.3325 35.5291 20.3325C33.3383 20.3325 32.4027 22.2558 32.1745 24.2938H36.7615ZM32.1289 27.4306C32.1745 30.5218 33.6351 32.6054 37.1038 32.6054C38.4503 32.6054 39.6141 32.4224 40.8237 31.8957C40.9834 31.827 41.0976 31.8499 41.0976 32.056V34.9181C41.0976 35.147 41.0291 35.2616 40.8694 35.3761C39.6599 35.9713 38.1536 36.2461 36.2824 36.2461C30.2578 36.2461 27.9984 31.7812 27.9984 26.8126C27.9984 21.4088 30.7827 16.9897 35.6891 16.9897C40.6641 16.9897 42.3985 21.1799 42.3985 24.5916C42.3985 25.6907 42.33 26.5836 42.2159 27.0187C42.1703 27.2019 42.1019 27.2706 41.9192 27.3164C41.4628 27.3851 40.1163 27.4766 38.1081 27.4766H32.1289V27.4306ZM19.897 25.0952C19.258 22.5535 17.7061 17.0124 17.1356 14.3335H17.0899C16.6108 17.0124 15.3555 21.546 14.4199 25.0952H19.897ZM13.4842 28.8045L11.6814 35.6508C11.6358 35.8339 11.5673 35.9026 11.339 35.9026H7.98435C7.75617 35.9026 7.71045 35.834 7.75617 35.5592L14.2373 12.8223C14.3514 12.4102 14.4198 12.0896 14.4654 10.9448C14.4654 10.7845 14.5339 10.7158 14.648 10.7158H19.4404C19.6001 10.7158 19.6685 10.7616 19.7143 10.9448L26.9713 35.605C27.0169 35.7881 26.9713 35.9026 26.7887 35.9026H23.0233C22.8408 35.9026 22.7266 35.834 22.681 35.6738L20.8096 28.8046L13.4842 28.8045Z" fill="#D8A1FF"></path><defs><radialGradient id="paint0_radial" cx="0" cy="0" r="1" gradientUnits="userSpaceOnUse" gradientTransform="translate(16.5354 10.9809) scale(38.1565 37.066)"><stop stop-color="#442F55" stop-opacity="0.98"></stop><stop offset="1" stop-color="#12002C"></stop></radialGradient></defs></svg>