<svg xmlns="http://www.w3.org/2000/svg" width="80" height="80" viewBox="0 0 80 80" fill="none"><circle cx="40" cy="40" r="40" fill="#222222"></circle><path d="M31.8548 42.5314C31.8548 43.581 31.0037 44.4322 29.954 44.4322C28.904 44.4322 28.0532 43.581 28.0532 42.5314C28.0532 41.4813 28.904 40.6306 29.954 40.6306C31.0037 40.6306 31.8548 41.4813 31.8548 42.5314Z" fill="#3EDB85"></path><path d="M52.7474 42.5314C52.7474 43.581 51.8966 44.4322 50.8466 44.4322C49.7969 44.4322 48.9458 43.581 48.9458 42.5314C48.9458 41.4813 49.7969 40.6306 50.8466 40.6306C51.8967 40.6306 52.7474 41.4813 52.7474 42.5314Z" fill="#3EDB85"></path><path d="M16.1455 50.5136H64.6536C63.9863 39.9385 53.3639 31.5056 40.3996 31.5056C27.4362 31.5056 16.8131 39.939 16.1455 50.5136ZM50.8464 38.5176C53.06 38.5176 54.8591 40.3183 54.8591 42.5292C54.8591 44.7427 53.0596 46.5429 50.8464 46.5429C48.6329 46.5429 46.8327 44.7422 46.8327 42.5292C46.8327 40.3183 48.6334 38.5176 50.8464 38.5176ZM29.9537 38.5176C32.1672 38.5176 33.9664 40.3183 33.9664 42.5292C33.9664 44.7427 32.1657 46.5429 29.9537 46.5429C27.7412 46.5429 25.9409 44.7422 25.9409 42.5292C25.9406 40.3183 27.7412 38.5176 29.9537 38.5176Z" fill="#3EDB85"></path><path d="M58.3444 35.3242L66.5064 26.7865C66.9097 26.3651 66.8939 25.6966 66.4736 25.2934C66.0512 24.8901 65.3827 24.9037 64.9805 25.3273L56.6074 34.0848C57.2081 34.4771 57.7879 34.8903 58.3444 35.3242L58.3444 35.3242Z" fill="#3EDB85"></path><path d="M22.4553 35.324C23.0118 34.8901 23.5915 34.4773 24.1915 34.0843L15.8196 25.3268C15.4163 24.9055 14.7478 24.8896 14.3265 25.2929C13.9051 25.6951 13.8893 26.3647 14.2926 26.786L22.4553 35.324Z" fill="#3EDB85"></path></svg>