<svg xmlns="http://www.w3.org/2000/svg" xmlns:xlink="http://www.w3.org/1999/xlink" width="279px" height="57px" viewBox="0 0 279 57"><title>AWS-EC2</title><desc>Created with Sketch.</desc><g id="181023" stroke="none" stroke-width="1" fill="none" fill-rule="evenodd"><g id="AWS-Services-New" transform="translate(-326.000000, -3936.000000)"><g id="Technologies" transform="translate(120.000000, 3534.000000)"><g id="1" transform="translate(206.000000, 376.000000)"><g id="AWS-EC2" transform="translate(0.000000, 26.100001)"><g id="aws"><path d="M35.3973245,26.2080363 L31.9486684,25.3802163 C32.2937284,23.5865523 32.9835244,22.2076083 33.9490444,21.3104523 C34.9145645,20.4829563 36.3634925,20.0001963 38.2258445,20.0001963 C39.9501725,20.0001963 41.2607525,20.2762443 42.0882486,20.8280163 C42.9160686,21.3794643 43.5365286,22.0008963 43.8822366,22.8277443 C44.2269726,23.6555643 44.3653206,25.1038443 44.3653206,27.3115804 L44.3653206,33.1059964 C44.3653206,34.7616365 44.4340086,36.0022325 44.5023726,36.8303765 C44.6410446,37.5891845 44.9164446,38.4170045 45.1931406,39.3138365 L41.3987765,39.3138365 C41.3297645,38.9681285 41.1917405,38.4863405 41.0543645,37.8645845 C40.9856765,37.5888605 40.9160165,37.3831205 40.9160165,37.2431525 C40.2265445,38.0706485 39.5364245,38.6927285 38.7776165,39.1058285 C38.0191325,39.5199005 37.1913125,39.7266125 36.3634925,39.7266125 C34.8455525,39.7266125 33.6736444,39.2451485 32.8458244,38.2102925 C31.9489924,37.1057765 31.5352444,35.7958445 31.5352444,34.1402045 C31.5352444,33.1059964 31.7422804,32.1398284 32.0866924,31.3120084 C32.5007644,30.4845124 33.0528604,29.8634044 33.7429804,29.3806444 C34.5011405,28.9668964 35.5359965,28.5528244 36.8465765,28.2077644 C38.6395925,27.7946644 39.8814845,27.3805924 40.5709565,27.0361804 L40.5709565,26.4834364 C40.5709565,25.5172683 40.4335805,24.8968083 40.0195085,24.4827363 C39.6744485,24.0696363 38.9846525,23.8629243 37.9497965,23.8629243 C37.2600005,23.8629243 36.7082285,23.9999763 36.3634925,24.3453603 C35.9494205,24.6907443 35.6733725,25.3112043 35.3973245,26.2080363 L35.3973245,26.2080363 Z M40.5706325,30.2778004 C40.0878725,30.4848364 39.3293885,30.7608844 38.2258445,31.0366084 C37.1913125,31.3123324 36.5015165,31.5883804 36.1564565,31.8641044 C35.6046845,32.3471884 35.3976485,32.9673244 35.3976485,33.6571204 C35.3976485,34.3465925 35.6050085,34.9683485 36.0187565,35.4498125 C36.3634925,36.0022325 36.9155885,36.2092685 37.5357245,36.2092685 C38.2258445,36.2092685 38.9153165,35.9341925 39.5364245,35.3811245 C40.0195085,34.8996605 40.2952325,34.3465925 40.4335805,33.7261324 C40.5709565,33.2436964 40.5709565,32.4845644 40.5709565,31.2433204 L40.5709565,30.2778004 L40.5706325,30.2778004 Z" id="Shape" fill="#000000" fill-rule="nonzero"></path><path d="M48.9855606,20.4829563 L52.5735367,20.4829563 L52.5735367,23.0354283 C53.8834687,21.0350523 55.4010847,20.0001963 57.1254128,20.0001963 C58.0912568,20.0001963 58.8497408,20.2762443 59.5398608,20.7583563 C60.2293328,21.2417643 60.7814288,22.0005723 61.2638648,23.0354283 C61.8849728,22.0008963 62.5747688,21.2417643 63.3329288,20.7583563 C64.0914128,20.2759203 64.8508689,20.0001963 65.6783649,20.0001963 C66.7822329,20.0001963 67.6787409,20.2762443 68.4378729,20.8970283 C69.1960329,21.4488003 69.7484529,22.2769443 70.0928649,23.3801643 C70.3689129,24.1392963 70.5066129,25.4495523 70.5066129,27.2425684 L70.5066129,39.3141605 L66.6442089,39.3141605 L66.6442089,28.5531484 C66.6442089,26.6907964 66.5061849,25.4492283 66.2304609,24.8971323 C65.8854009,24.2079843 65.3336289,23.8632483 64.5748209,23.8632483 C64.0233728,23.8632483 63.5402888,24.0699603 63.0572048,24.4830603 C62.5747688,24.8971323 62.2290608,25.5175923 62.0223488,26.3460603 C61.8153128,27.1735564 61.6779368,28.4844604 61.6779368,30.2778004 L61.6779368,39.3141605 L57.8148848,39.3141605 L57.8148848,28.9672204 C57.8148848,27.1735564 57.7458728,25.9323123 57.6081728,25.4495523 C57.4698248,24.8974563 57.2627888,24.4833843 56.9873888,24.2079843 C56.7110168,24.0003003 56.2972687,23.8635723 55.8151567,23.8635723 C55.1937247,23.8635723 54.7109647,24.0702843 54.2282047,24.4833843 C53.7447967,24.8974563 53.4003847,25.5179163 53.1933487,26.2773723 C52.9859887,27.0368284 52.8486127,28.3461124 52.8486127,30.1397764 L52.8486127,39.3141605 L48.9855606,39.3141605 L48.9855606,20.4829563 L48.9855606,20.4829563 Z" id="Path" fill="#000000" fill-rule="nonzero"></path><path d="M77.198185,26.2080363 L73.679869,25.3802163 C74.093941,23.5865523 74.783737,22.2076083 75.749581,21.3104523 C76.715425,20.4829563 78.163381,20.0001963 80.0260571,20.0001963 C81.7507091,20.0001963 83.0612891,20.2762443 83.8887851,20.8280163 C84.7172531,21.3794643 85.3373891,22.0008963 85.6824491,22.8277443 C86.0275091,23.6555643 86.1648851,25.1038443 86.1648851,27.3115804 L86.0965211,33.1059964 C86.0965211,34.7616365 86.1648851,36.0022325 86.3029091,36.8303765 C86.4415811,37.5891845 86.6482931,38.4170045 86.9933532,39.3138365 L83.1999611,39.3138365 C83.0616131,38.9681285 82.9922771,38.4863405 82.7855651,37.8645845 C82.7855651,37.5888605 82.7172011,37.3831205 82.7172011,37.2431525 C82.0270811,38.0706485 81.3376091,38.6927285 80.5784771,39.1058285 C79.8190211,39.5199005 78.992173,39.7266125 78.163705,39.7266125 C76.645765,39.7266125 75.473857,39.2451485 74.577349,38.2102925 C73.749205,37.1057765 73.335133,35.7958445 73.335133,34.1402045 C73.335133,33.1059964 73.542493,32.1398284 73.887553,31.3120084 C74.300977,30.4845124 74.853073,29.8634044 75.542869,29.3806444 C76.232665,28.9668964 77.267197,28.5528244 78.647113,28.2077644 C80.4401291,27.7946644 81.6820211,27.3805924 82.3721411,27.0361804 L82.3721411,26.4834364 C82.3721411,25.5172683 82.1644571,24.8968083 81.8200451,24.4827363 C81.4756331,24.0696363 80.7848651,23.8629243 79.7513051,23.8629243 C79.060861,23.8629243 78.509089,23.9999763 78.164029,24.3453603 C77.749309,24.6907443 77.473261,25.3112043 77.198185,26.2080363 L77.198185,26.2080363 Z M82.3714931,30.2778004 C81.8880851,30.4848364 81.1292771,30.7608844 80.0257331,31.0366084 C78.991525,31.3123324 78.232069,31.5883804 77.956345,31.8641044 C77.404249,32.3471884 77.197861,32.9673244 77.197861,33.6571204 C77.197861,34.3465925 77.404249,34.9683485 77.749309,35.4498125 C78.163057,36.0022325 78.715153,36.2092685 79.3356131,36.2092685 C80.0257331,36.2092685 80.6461931,35.9341925 81.3366371,35.3811245 C81.7500611,34.8996605 82.0951211,34.3465925 82.2331451,33.7261324 C82.3021571,33.2436964 82.3714931,32.4845644 82.3714931,31.2433204 L82.3714931,30.2778004 L82.3714931,30.2778004 Z" id="Shape" fill="#000000" fill-rule="nonzero"></path><path d="M104.950405,29.6570164 C104.950405,27.9323644 105.225157,26.3460603 105.846265,24.8287683 C106.536709,23.2421403 107.432569,22.0692603 108.537085,21.2420883 C109.709317,20.4139443 111.019573,20.0001963 112.468825,20.0001963 C114.675266,20.0001963 116.469578,20.9660403 117.848522,22.8280683 C119.296802,24.6910683 119.98595,27.0368284 119.98595,29.8640524 C119.98595,32.6922484 119.296802,35.0373605 117.848522,36.9684005 C116.399594,38.8310765 114.606578,39.7272605 112.468825,39.7272605 C111.157273,39.7272605 109.848313,39.3831725 108.675433,38.5553525 C107.432893,37.7965445 106.536709,36.6243125 105.846589,35.1753845 C105.225157,33.6574444 104.950405,31.7957404 104.950405,29.6570164 L104.950405,29.6570164 Z M108.881497,29.8637284 C108.881497,31.7954164 109.226233,33.1746844 109.916029,34.2095405 C110.606149,35.1750605 111.434617,35.6591165 112.468501,35.6591165 C113.433698,35.6591165 114.330854,35.1753845 115.020326,34.2095405 C115.710446,33.1750084 115.985522,31.7260804 115.985522,29.8637284 C115.985522,28.0013764 115.710122,26.5527724 115.020326,25.5875763 C114.330854,24.6214083 113.433698,24.0699603 112.468501,24.0699603 C111.434617,24.0699603 110.606149,24.6214083 109.916029,25.5875763 C109.226233,26.5527724 108.881497,28.0013764 108.881497,29.8637284 L108.881497,29.8637284 Z" id="Shape" fill="#000000" fill-rule="nonzero"></path><path d="M135.897914,39.3141605 L132.034538,39.3141605 L132.034538,29.7260284 C132.034538,27.6566404 131.96585,26.3460603 131.82815,25.7252763 C131.620466,25.1735043 131.345066,24.6907443 130.999682,24.3456843 C130.654946,24.0003003 130.171862,23.8632483 129.689102,23.8632483 C128.998982,23.8632483 128.378846,24.0699603 127.896734,24.5523963 C127.345286,25.0348323 126.999902,25.6559403 126.792218,26.4150723 C126.58583,27.2425684 126.44813,28.6914964 126.44813,30.7612084 L126.44813,39.3141605 L122.65409,39.3141605 L122.65409,20.4829563 L126.172082,20.4829563 L126.172082,23.2418163 C127.482662,21.1034163 129.068966,20.0001963 130.999358,20.0001963 C131.896514,20.0001963 132.654998,20.2072323 133.344794,20.6209803 C134.034914,21.0350523 134.586362,21.5178123 134.931422,22.1385963 C135.34517,22.7597043 135.552206,23.4485283 135.689258,24.2079843 C135.828254,25.0351563 135.897266,26.1390243 135.897266,27.5879524 L135.897266,39.3141605 L135.897914,39.3141605 Z" id="Path" fill="#000000" fill-rule="nonzero"></path><polygon id="Path" fill="#000000" fill-rule="nonzero" points="138.449738 39.3141605 138.449738 35.6474525 141.30191 35.6474525 141.30191 39.3141605"></polygon><path d="M152.187338,32.2571164 L154.653302,32.6799364 C154.37207,34.8653165 153.667046,36.6265805 152.539202,37.8956885 C151.412006,39.1631765 150.072914,39.7272605 148.451942,39.7272605 C146.407826,39.7272605 144.786854,38.8822685 143.51807,37.1903405 C142.249286,35.4294005 141.685526,32.9621404 141.685526,29.7198724 C141.685526,27.6764044 141.897098,25.8435363 142.461182,24.2928723 C142.954634,22.7425323 143.800274,21.5447043 144.857486,20.7693723 C145.984358,19.9933923 147.183158,19.5708963 148.451942,19.5708963 C150.072914,19.5708963 151.412006,20.1349803 152.399234,21.1915443 C153.456446,22.2487563 154.089542,23.7291123 154.372394,25.7016243 L151.975118,26.1957243 C151.693238,24.9266163 151.271066,23.9400363 150.706982,23.2353363 C150.143222,22.6009443 149.367566,22.3190643 148.52225,22.3190643 C147.254438,22.3190643 146.266886,22.8825003 145.422218,24.0809763 C144.646562,25.2088203 144.223418,27.1116724 144.223418,29.6489164 C144.223418,32.2567924 144.646886,34.1596445 145.422218,35.2878125 C146.196902,36.4862885 147.183806,37.0487525 148.381634,37.0487525 C149.36789,37.0487525 150.214178,36.6972125 150.918878,35.9228525 C151.552622,35.0752685 151.974794,33.8787364 152.187338,32.2571164 L152.187338,32.2571164 Z" id="Path" fill="#000000" fill-rule="nonzero"></path><path d="M155.850806,29.6489164 C155.850806,26.1254163 156.626786,23.4472323 158.177126,21.7556283 C159.445262,20.3462283 160.996574,19.5708963 162.828794,19.5708963 C164.873234,19.5708963 166.563866,20.4871683 167.903606,22.1784483 C169.172066,23.9403603 169.806458,26.3366643 169.806458,29.4376684 C169.806458,31.9042804 169.524578,33.8074564 168.961142,35.2878125 C168.396734,36.6972125 167.550446,37.8250565 166.424222,38.5990925 C165.366686,39.3753965 164.16821,39.7269365 162.828794,39.7269365 C160.784354,39.7269365 159.093722,38.8819445 157.825586,37.1900165 C156.485846,35.4294005 155.850806,32.9618164 155.850806,29.6489164 L155.850806,29.6489164 Z M158.459006,29.6489164 C158.459006,32.1161764 158.88215,34.0180565 159.727466,35.2165325 C160.57343,36.4862885 161.560334,37.0484285 162.828794,37.0484285 C164.09855,37.0484285 165.154466,36.4862885 166.00043,35.2165325 C166.84607,34.0180565 167.198906,32.1161764 167.198906,29.5786084 C167.198906,27.1823044 166.84607,25.3500843 166.00043,24.1519323 C165.154466,22.9537803 164.09855,22.3193883 162.828794,22.3193883 C161.560334,22.3193883 160.57343,22.9537803 159.727466,24.1519323 C158.88215,25.3504083 158.459006,27.1823044 158.459006,29.6489164 L158.459006,29.6489164 Z" id="Shape" fill="#000000" fill-rule="nonzero"></path><path d="M172.766846,39.3047645 L172.766846,20.0643483 L175.020914,20.0643483 L175.020914,22.7425323 C175.51469,21.8259363 176.149082,21.0509283 176.924414,20.4871683 C177.700394,19.8527763 178.616666,19.5708963 179.602598,19.5708963 C180.660782,19.5708963 181.576406,19.9230843 182.280782,20.4871683 C182.986778,21.0509283 183.479906,21.8968923 183.761138,22.9541043 C184.958642,20.6984163 186.50963,19.5712203 188.412806,19.5712203 C189.892839,19.5712203 191.021007,20.1353043 191.796015,21.1918683 C192.571023,22.2490803 192.993519,23.8707003 192.993519,26.0547843 L192.993519,39.3050885 L190.456275,39.3050885 L190.456275,27.1829524 C190.456275,25.8438603 190.385643,24.9275883 190.245027,24.3641523 C190.033131,23.7997443 189.751251,23.3062923 189.328755,22.9544283 C188.905611,22.6015923 188.412806,22.4616243 187.84937,22.4616243 C186.79151,22.4616243 185.87459,22.8834723 185.241494,23.7997443 C184.537118,24.7163403 184.184282,26.1260643 184.184282,28.0995484 L184.184282,39.3050885 L181.64639,39.3050885 L181.64639,26.7601324 C181.64639,25.3507323 181.435142,24.2225643 181.012322,23.5178643 C180.589826,22.8134883 179.95511,22.4616243 179.038838,22.4616243 C178.26383,22.4616243 177.62879,22.6722243 177.06503,23.1663243 C176.431286,23.6597763 176.008142,24.3644763 175.72691,25.2804243 C175.444706,26.1966963 175.303118,27.5351404 175.303118,29.2977004 L175.303118,39.3054125 L172.766846,39.3054125 L172.766846,39.3047645 Z" id="Path" fill="#000000" fill-rule="nonzero"></path><path d="M46.4573886,42.5570766 C44.1816126,41.0138645 45.7089486,40.2621845 47.5103886,40.7938685 C56.6627408,43.4918166 64.2320289,47.1630606 72.880561,47.2599366 C80.3678771,47.3419086 86.3978411,45.0596526 94.2749292,43.6298406 C97.2648013,43.0861686 97.2686893,44.9582406 95.2009213,46.1133006 C87.5810892,50.3683927 80.8749371,51.9670087 72.358921,51.8659207 C62.0907128,51.7411807 55.3560487,48.5909286 46.4573886,42.5570766 L46.4573886,42.5570766 Z M97.5547813,45.2352606 C97.6649413,44.9271366 98.5024813,43.1357406 97.9296493,42.6902406 C97.1433013,42.0788526 96.1528333,42.1378206 93.6078132,42.3448566 C92.6247972,42.4248846 90.8405292,42.9377766 90.6474252,41.9699886 C90.3921132,40.6934285 92.3276892,40.1938205 93.5643972,39.8685245 C95.8356373,39.2688005 100.222273,37.8214925 101.701657,39.6433445 C103.234177,41.5322646 98.7850093,50.1681607 96.7788013,50.1681607 C95.1147373,50.1678367 96.9945853,46.8027726 97.5547813,45.2352606 L97.5547813,45.2352606 Z" id="Shape" fill="#F3A02D"></path><path d="M91.0206732,38.7769685 L91.0206732,35.4501365 L96.4693813,27.3119044 C97.3671853,26.0016483 98.0556853,25.0351563 98.4697573,24.4833843 C98.0560093,24.5527203 97.4352253,24.5527203 96.7460773,24.5527203 L91.5721212,24.6217323 L91.5721212,20.4832803 L103.643389,20.4832803 L103.643389,24.0006243 L98.0560093,32.2785004 L96.0556333,35.0376845 C97.1604733,34.9689965 97.8496213,34.9689965 98.0560093,34.9689965 L104.057461,34.9689965 L104.057461,39.3144845 L103.942765,39.3144845 C103.911337,38.7678965 103.780117,38.3204525 103.528045,38.0087645 C101.547433,35.5671005 95.6703973,37.5059165 92.6293332,38.3094365 C92.1410652,38.4367685 91.5711492,38.5858085 91.0206732,38.7769685 L91.0206732,38.7769685 Z" id="Path" fill="#000000" fill-rule="nonzero"></path><g id="Group" transform="translate(6.804000, 23.976000)" fill="#EEA20D"><polygon id="Path" points="6.11258408 13.1754602 0.266328004 11.0778841 0.266328004 2.50905603 6.11258408 4.50100806"></polygon><polygon id="Path" points="7.1847001 13.1754602 13.0309562 11.0778841 13.0309562 2.50905603 7.1847001 4.50100806"></polygon><polygon id="Path" points="0.867024011 1.86818402 6.78391209 0.202500003 12.2702042 1.97154003 6.78391209 3.83421605"></polygon></g><g id="Group" transform="translate(0.000000, 11.988000)" fill="#EEA20D"><polygon id="Path" points="5.95641608 13.1923082 0.110160001 11.0953801 0.110160001 2.52622803 5.95641608 4.51785606"></polygon><polygon id="Path" points="7.02853209 13.1923082 12.8751122 11.0953801 12.8751122 2.52622803 7.02853209 4.51785606"></polygon><polygon id="Path" points="0.710856009 1.88503202 6.62806809 0.219672003 12.1143602 1.98871203 6.62806809 3.85106405"></polygon></g><g id="Group" transform="translate(13.608000, 11.988000)" fill="#EEA20D"><polygon id="Path" points="5.98978808 13.1923082 0.143532002 11.0953801 0.143532002 2.52622803 5.98978808 4.51785606"></polygon><polygon id="Path" points="7.06190409 13.1923082 12.9084842 11.0953801 12.9084842 2.52622803 7.06190409 4.51785606"></polygon><polygon id="Path" points="0.74455201 1.88503202 6.66144009 0.219672003 12.1477322 1.98871203 6.66144009 3.85106405"></polygon></g><g id="Group" transform="translate(20.412000, 0.000000)" fill="#EEA20D"><polygon id="Path" points="6.14595608 13.2091562 0.299700004 11.1122281 0.299700004 2.54307603 6.14595608 4.53470406"></polygon><polygon id="Path" points="7.2180721 13.2091562 13.0646522 11.1122281 13.0646522 2.54307603 7.2180721 4.53470406"></polygon><polygon id="Path" points="0.900396012 1.90188003 6.81760809 0.236520003 12.3039002 2.00556003 6.81760809 3.86791205"></polygon></g><g id="Group" transform="translate(34.344000, 0.000000)" fill="#EEA20D"><polygon id="Path" points="5.85532808 13.2091562 0.00907200012 11.1122281 0.00907200012 2.54307603 5.85532808 4.53470406"></polygon><polygon id="Path" points="6.92744409 13.2091562 12.7740242 11.1122281 12.7740242 2.54307603 6.92744409 4.53470406"></polygon><polygon id="Path" points="0.610092008 1.90188003 6.52698009 0.236520003 12.0132722 2.00556003 6.52698009 3.86791205"></polygon></g><g id="Group" transform="translate(104.328001, 43.740001)" fill="#000000" fill-rule="nonzero" stroke="#000000" stroke-width="0.5"><polygon id="Path" points="10.8876961 3.17001604 8.47454411 11.5535162 7.4254321 11.5535162 5.54688007 5.32656007 3.82384805 11.5535162 2.75464804 11.5535162 0.246564003 3.17001604 1.54353602 3.17001604 3.37024804 9.41706012 5.10948007 3.17001604 6.06625208 3.17001604 7.95679211 9.43747213 9.83469613 3.17001604"></polygon><path d="M17.5633922,9.05256012 L18.7783922,9.30171612 C18.5571002,10.0187281 18.1261802,10.6122961 17.4859562,11.0817721 C16.8447602,11.5515722 16.0908122,11.7864722 15.2237882,11.7864722 C14.0803922,11.7864722 13.1550482,11.3837402 12.4480802,10.5776281 C11.7407882,9.77184013 11.3876282,8.71527612 11.3876282,7.4079361 C11.3876282,6.07273208 11.7550442,4.99413607 12.4895522,4.17150006 C13.2240602,3.34886404 14.1468122,2.93738404 15.2574842,2.93738404 C16.3516322,2.93738404 17.2312922,3.31614004 17.8967882,4.07365205 C18.5622842,4.83116406 18.9034563,5.96419208 18.9203043,7.4733841 L12.8352602,7.4733841 C12.8352602,8.74119612 13.0999682,9.59623213 13.6303562,10.0391401 C14.1600962,10.4820481 14.7206162,10.7033401 15.3112682,10.7033401 C16.3765802,10.7030161 17.1269642,10.1528641 17.5633922,9.05256012 Z M17.4924362,6.50106009 C17.4814202,6.03126008 17.4043082,5.61362407 17.2604522,5.24847607 C17.1165962,4.88332806 16.8739202,4.57261206 16.5314522,4.31503206 C16.1889842,4.05810005 15.7778282,3.92947205 15.2973362,3.92947205 C14.6512802,3.92947205 14.1030722,4.16210406 13.6533602,4.62639606 C13.2036482,5.09068807 12.9509282,5.71568408 12.8955242,6.50106009 L17.4924362,6.50106009 L17.4924362,6.50106009 Z" id="Shape"></path><path d="M21.2637963,11.5535162 L20.6358843,11.5535162 L20.6358843,0.233604003 L21.9419283,0.233604003 L21.9419283,4.56710406 C22.5380883,3.48040805 23.3600763,2.93706004 24.4085403,2.93706004 C25.3685523,2.93706004 26.1727203,3.31646404 26.8213684,4.07559605 C27.4696924,4.83472806 27.7940164,5.93697608 27.7940164,7.3823401 C27.7940164,8.62909211 27.4752004,9.67431613 26.8372444,10.5193081 C26.1989643,11.3639762 25.3692003,11.7864722 24.3469803,11.7864722 C23.2090923,11.7864722 22.3365603,11.2463641 21.7290603,10.1664721 L21.2637963,11.5535162 Z M21.9422523,8.26686011 C22.0031643,9.12740412 22.2669003,9.75207613 22.7337843,10.1405521 C23.2006683,10.5290281 23.6944443,10.7234281 24.2138163,10.7234281 C24.8770443,10.7234281 25.4116443,10.4353921 25.8179403,9.85964413 C26.2242363,9.28389612 26.4273844,8.49495611 26.4273844,7.4925001 C26.4273844,6.41293208 26.2313643,5.56437607 25.8390003,4.94683207 C25.4463123,4.32961206 24.9016683,4.02084005 24.2057163,4.02084005 C23.6584803,4.02084005 23.1650283,4.24083606 22.7256843,4.67985606 C22.2863403,5.11952407 22.0251963,5.68749608 21.9422523,6.38409608 L21.9422523,8.26686011 Z" id="Shape"></path><path d="M32.3685724,9.38077212 L33.6140284,9.12351612 C33.8907244,10.1765161 34.7655245,10.7030161 36.2377805,10.7030161 C36.7801565,10.7030161 37.2395885,10.5818401 37.6157525,10.3388401 C37.9922405,10.0961641 38.1804845,9.75402013 38.1804845,9.31240812 C38.1804845,8.65598411 37.7012885,8.23932011 36.7432205,8.06274011 L34.9774205,7.7267521 C34.2856805,7.5939121 33.7358524,7.3337401 33.3263164,6.94656009 C32.9174284,6.55938009 32.7126604,6.04746008 32.7126604,5.41080007 C32.7126604,4.70836806 32.9916244,4.12063205 33.5502004,3.64726805 C34.1084525,3.17422804 34.8601325,2.93770804 35.8055645,2.93770804 C37.6241765,2.93770804 38.7468365,3.64856405 39.1725725,5.06995207 L37.9776605,5.32720807 C37.6348685,4.45629606 36.9308165,4.02116405 35.8645325,4.02116405 C35.3338205,4.02116405 34.8990125,4.13002805 34.5591365,4.34743206 C34.2192605,4.56483606 34.0494845,4.86874806 34.0494845,5.25981607 C34.0494845,5.87606408 34.4839685,6.26421608 35.3522885,6.42394809 L36.9846005,6.72429609 C38.6930525,7.03436409 39.5474405,7.8634801 39.5474405,9.21002412 C39.5474405,9.98017213 39.2295965,10.6025761 38.5929365,11.0762641 C37.9569245,11.5502762 37.1103125,11.7871202 36.0534245,11.7871202 C34.0673045,11.7864722 32.8386964,10.9842481 32.3685724,9.38077212 Z" id="Path"></path><path d="M46.6491966,9.05256012 L47.8641966,9.30171612 C47.6432286,10.0187281 47.2123086,10.6122961 46.5714366,11.0817721 C45.9308886,11.5515722 45.1766166,11.7864722 44.3095926,11.7864722 C43.1661966,11.7864722 42.2405286,11.3837402 41.5338846,10.5776281 C40.8265925,9.77184013 40.4734325,8.71527612 40.4734325,7.4079361 C40.4734325,6.07273208 40.8408485,4.99413607 41.5756806,4.17150006 C42.3105126,3.34886404 43.2329406,2.93738404 44.3436126,2.93738404 C45.4371126,2.93738404 46.3174206,3.31614004 46.9829166,4.07365205 C47.6484126,4.83116406 47.9895846,5.96419208 48.0061086,7.4733841 L41.9210646,7.4733841 C41.9210646,8.74119612 42.1860966,9.59623213 42.7158366,10.0391401 C43.2462246,10.4820481 43.8060966,10.7033401 44.3970726,10.7033401 C45.4617366,10.7030161 46.2130926,10.1528641 46.6491966,9.05256012 Z M46.5782406,6.50106009 C46.5672246,6.03126008 46.4897886,5.61362407 46.3462566,5.24847607 C46.2027246,4.88332806 45.9600486,4.57261206 45.6175806,4.31503206 C45.2751126,4.05810005 44.8636326,3.92947205 44.3831406,3.92947205 C43.7370846,3.92947205 43.1888766,4.16210406 42.7391646,4.62639606 C42.2894526,5.09068807 42.0364086,5.71568408 41.9813286,6.50106009 L46.5782406,6.50106009 L46.5782406,6.50106009 Z" id="Shape"></path><path d="M51.0277327,11.5535162 L49.7216887,11.5535162 L49.7216887,3.17001604 L50.8657327,3.17001604 L50.8657327,5.12406007 C51.2691127,4.20876006 51.6741127,3.61551605 52.0804087,3.34432804 C52.4867047,3.07281604 52.9027207,2.93706004 53.3284567,2.93706004 C53.4609727,2.93706004 53.6323687,2.94710404 53.8426447,2.96751604 L53.8426447,4.21297206 L53.5779367,4.21297206 C52.8602767,4.21297206 52.2641167,4.47962406 51.7894567,5.01292807 C51.3147967,5.54623207 51.0611047,6.24704408 51.0277327,7.11536409 L51.0277327,11.5535162 Z" id="Path"></path><polygon id="Path" points="61.6435928 3.17001604 58.7486528 11.5535162 57.3953048 11.5535162 54.4041367 3.17001604 55.8488527 3.17001604 58.1758208 9.98406013 60.4849688 3.17001604"></polygon><path d="M64.2401289,0.233928003 L64.2401289,1.68188402 L62.8430408,1.68188402 L62.8430408,0.233928003 L64.2401289,0.233928003 Z M64.2099969,3.17001604 L64.2099969,11.5535162 L62.9039528,11.5535162 L62.9039528,3.17001604 L64.2099969,3.17001604 Z" id="Shape"></path><path d="M71.5003209,8.61742811 L72.674821,8.82478812 C72.508933,9.75110413 72.141517,10.4765401 71.5719249,11.0004481 C71.0023329,11.5246802 70.2921249,11.7867962 69.4406529,11.7867962 C68.2852689,11.7867962 67.4046369,11.3604122 66.7994049,10.5073201 C66.1938489,9.65422813 65.8912329,8.61289211 65.8912329,7.3826641 C65.8912329,6.10869608 66.2103729,5.04954007 66.8489769,4.20454806 C67.4875809,3.35955604 68.3568729,2.93738404 69.4571769,2.93738404 C70.3695609,2.93738404 71.1005049,3.21051604 71.6509809,3.75645605 C72.201133,4.30239606 72.542305,5.00742007 72.675145,5.87217608 L71.5006449,6.09606008 C71.2796769,4.71225606 70.6112649,4.02051605 69.4954089,4.02051605 C68.7774249,4.02051605 68.2250049,4.32572406 67.8384729,4.93646407 C67.4519409,5.54752807 67.2585129,6.33938408 67.2585129,7.3120321 C67.2585129,8.38447211 67.4503209,9.21747612 67.8342609,9.81169213 C68.2182009,10.4059081 68.7583089,10.7030161 69.4542609,10.7030161 C70.5309129,10.7030161 71.2129329,10.0080361 71.5003209,8.61742811 Z" id="Path"></path><path d="M79.7286251,9.05256012 L80.9436251,9.30171612 C80.7226571,10.0187281 80.2917371,10.6122961 79.6508651,11.0817721 C79.010317,11.5515722 78.256045,11.7864722 77.389021,11.7864722 C76.245625,11.7864722 75.319957,11.3837402 74.613313,10.5776281 C73.906021,9.77184013 73.552861,8.71527612 73.552861,7.4079361 C73.552861,6.07273208 73.920277,4.99413607 74.655109,4.17150006 C75.389941,3.34886404 76.312369,2.93738404 77.423041,2.93738404 C78.516541,2.93738404 79.3968491,3.31614004 80.0623451,4.07365205 C80.7278411,4.83116406 81.0690131,5.96419208 81.0855371,7.4733841 L75.000493,7.4733841 C75.000493,8.74119612 75.265525,9.59623213 75.795265,10.0391401 C76.325653,10.4820481 76.885525,10.7033401 77.476501,10.7033401 C78.541489,10.7030161 79.2925211,10.1528641 79.7286251,9.05256012 Z M79.6576691,6.50106009 C79.6466531,6.03126008 79.5692171,5.61362407 79.4256851,5.24847607 C79.2821531,4.88332806 79.039477,4.57261206 78.697009,4.31503206 C78.354541,4.05810005 77.943061,3.92947205 77.462569,3.92947205 C76.816513,3.92947205 76.268305,4.16210406 75.818593,4.62639606 C75.368881,5.09068807 75.115837,5.71568408 75.060757,6.50106009 L79.6576691,6.50106009 L79.6576691,6.50106009 Z" id="Shape"></path><path d="M81.6674411,9.38077212 L82.9128971,9.12351612 C83.1895931,10.1765161 84.0643931,10.7030161 85.5366491,10.7030161 C86.0790251,10.7030161 86.5384571,10.5818401 86.9146212,10.3388401 C87.2911092,10.0961641 87.4793532,9.75402013 87.4793532,9.31240812 C87.4793532,8.65598411 87.0001572,8.23932011 86.0420891,8.06274011 L84.2762891,7.7267521 C83.5845491,7.5939121 83.0347211,7.3337401 82.6251851,6.94656009 C82.2162971,6.55938009 82.0115291,6.04746008 82.0115291,5.41080007 C82.0115291,4.70836806 82.2904931,4.12063205 82.8490691,3.64726805 C83.4073211,3.17422804 84.1590011,2.93770804 85.1044331,2.93770804 C86.9230452,2.93770804 88.0457052,3.64856405 88.4714412,5.06995207 L87.2765292,5.32720807 C86.9337372,4.45629606 86.2296851,4.02116405 85.1634011,4.02116405 C84.6326891,4.02116405 84.1978811,4.13002805 83.8580051,4.34743206 C83.5181291,4.56483606 83.3483531,4.86874806 83.3483531,5.25981607 C83.3483531,5.87606408 83.7828371,6.26421608 84.6511571,6.42394809 L86.2834691,6.72429609 C87.9919212,7.03436409 88.8463092,7.8634801 88.8463092,9.21002412 C88.8463092,9.98017213 88.5284652,10.6025761 87.8918052,11.0762641 C87.2557932,11.5502762 86.4091811,11.7871202 85.3522931,11.7871202 C83.3658491,11.7864722 82.1375651,10.9842481 81.6674411,9.38077212 Z" id="Path"></path></g></g><g id="EC2" transform="translate(203.148003, 0.324000)" fill="#000000"><rect id="Rectangle" x="0" y="0" width="1.29600002" height="55.7280007"></rect><path d="M29.9177934,45.3600006 L29.9177934,40.3323052 L17.1824416,40.3323052 L17.1824416,31.2071489 L28.0130277,31.2071489 L28.0130277,26.1794535 L17.1824416,26.1794535 L17.1824416,18.161719 L29.8734965,18.161719 L29.8734965,13.1118752 L10.8701369,13.1118752 L10.8701369,45.3600006 L29.9177934,45.3600006 Z M43.3840435,45.8251178 C46.7210748,45.8251178 49.2459967,44.9244147 50.9588093,43.1230084 C52.6716218,41.3216021 53.5132624,38.6490239 53.4837312,35.1052739 L53.4837312,35.1052739 L53.4172859,34.9723833 L47.3486139,34.9723833 C47.422442,37.0986333 47.1603522,38.6010357 46.5623444,39.4795904 C45.9643365,40.3581451 44.9049029,40.7974224 43.3840435,40.7974224 C41.8336529,40.7974224 40.6560943,40.2437115 39.8513677,39.1362896 C39.0466411,38.0288677 38.6442779,36.3382036 38.6442779,34.0642973 L38.6442779,34.0642973 L38.6442779,24.38543 C38.6442779,22.141055 39.0208013,20.4651565 39.7738482,19.3577346 C40.5268951,18.2503127 41.6121685,17.6966018 43.0296685,17.6966018 C44.6834186,17.6966018 45.8425201,18.161719 46.5069733,19.0919534 C47.1714264,20.0221878 47.4593561,21.5430472 47.3707623,23.6545316 L47.3707623,23.6545316 L53.4394343,23.6545316 L53.5058796,23.5216409 C53.4468171,19.933594 52.5424226,17.2241018 50.792696,15.3931643 C49.0429694,13.5622267 46.4552936,12.646758 43.0296685,12.646758 C39.7959966,12.646758 37.2157036,13.6766603 35.2887895,15.7364651 C33.3618754,17.7962698 32.3984184,20.6940237 32.3984184,24.4297269 L32.3984184,24.4297269 L32.3984184,34.0642973 C32.3984184,37.8147661 33.3950981,40.7125201 35.3884575,42.7575592 C37.3818169,44.8025982 40.0470122,45.8251178 43.3840435,45.8251178 Z M75.7429112,45.3600006 L75.7429112,40.3323052 L64.8458798,40.3323052 L69.0540829,34.3079301 C71.2098642,31.5910551 72.7491807,29.390977 73.6720322,27.7076957 C74.5948838,26.0244144 75.0563096,24.1934769 75.0563096,22.2148831 C75.0563096,19.2617581 74.2294346,16.9287893 72.5756846,15.2159768 C70.9219345,13.5031642 68.618497,12.646758 65.665372,12.646758 C62.7713094,12.646758 60.4678719,13.6618947 58.7550594,15.6921682 C57.0422468,17.7224416 56.2153718,20.1993753 56.2744343,23.1229691 L56.2744343,23.1229691 L56.3187312,23.2337112 L62.4538485,23.2337112 C62.4538485,21.5799612 62.730704,20.2436721 63.2844149,19.224844 C63.8381258,18.2060159 64.6317782,17.6966018 65.665372,17.6966018 C66.6694345,17.6966018 67.437247,18.1174221 67.9688095,18.9590628 C68.500372,19.8007034 68.7661533,20.9081253 68.7661533,22.2813284 C68.7661533,23.2853909 68.5114462,24.4001956 68.0020322,25.6257425 C67.4926181,26.8512894 66.6546689,28.2909379 65.4881845,29.9446879 L65.4881845,29.9446879 L56.6952547,41.0853521 L56.6952547,45.3600006 L75.7429112,45.3600006 Z" fill-rule="nonzero"></path></g></g></g></g></g></g></svg>