<svg xmlns="http://www.w3.org/2000/svg" width="80" height="80" viewBox="0 0 80 80" fill="none"><circle cx="40" cy="40" r="40" fill="#222222"></circle><path d="M39.6978 17C33.961 17 29.2866 21.6745 29.2866 27.4112C29.2866 33.148 33.9611 37.8224 39.6978 37.8224C45.4346 37.8224 50.109 33.1479 50.109 27.4112C50.1086 21.6744 45.4345 17 39.6978 17Z" fill="#76D079"></path><path d="M49.3122 41.5405H30.0834C25.1436 41.5405 21 45.5244 21 50.6239V59.0166H30.8269C30.4549 58.0073 30.1896 56.8921 30.1896 55.7764C30.1896 50.7303 34.4391 46.587 39.6446 46.587C44.8501 46.587 49.0997 50.6772 49.0997 55.7764C49.0997 56.945 48.8874 58.0074 48.4624 59.0166H58.2892L58.2889 50.6239C58.3952 45.5244 54.4113 41.5405 49.3118 41.5405H49.3122Z" fill="#76D079"></path><path d="M39.6981 48.2335C35.5548 48.2335 32.1553 51.58 32.1553 55.7763C32.1553 59.9195 35.5018 63.319 39.6981 63.319C43.8942 63.319 47.2409 59.9725 47.2409 55.7763C47.2409 51.633 43.8413 48.2335 39.6981 48.2335ZM36.8828 57.7947L34.2799 55.6702L36.9358 53.7579L37.5731 54.6079L36.0858 55.7236L37.6261 56.9452L36.8828 57.7947ZM39.1667 59.176L38.1574 58.804L40.3886 52.3769L41.3979 52.7489L39.1667 59.176ZM42.5132 57.7947L41.8226 56.9448L43.3628 55.7231L41.8755 54.6075L42.5128 53.7575L45.1687 55.6697L42.5132 57.7947Z" fill="#76D079"></path></svg>