<svg xmlns="http://www.w3.org/2000/svg" width="80" height="80" viewBox="0 0 80 80" fill="none"><circle cx="40" cy="40" r="40" fill="#222222"></circle><path d="M20 60.9298H37.9038V53.6907H53.2949V47.1754H69" stroke="#56A8F7" stroke-width="3" stroke-linecap="round"></path><path d="M32.3461 22.6224C32.3466 22.6331 32.3467 22.6388 32.3467 22.6388L32.345 22.6406L32.3437 22.642L32.3413 22.6447L32.3328 22.6538L32.3003 22.689L32.1773 22.8224L31.7376 23.2987L30.4003 24.7476L29.0552 26.2049L28.6059 26.6919L28.4767 26.8319C28.4576 26.8526 28.4454 26.8658 28.4387 26.873L28.7298 27.141L32.3461 22.6224ZM32.3461 22.6224L32.6497 22.8949M32.3461 22.6224L26.138 32.1718L26.501 32.3416L28.1827 28.0077C28.3154 27.6681 28.4838 27.4085 28.73 27.1412C28.7714 27.096 32.6497 22.8949 32.6497 22.8949M32.6497 22.8949L32.3457 22.6143C32.345 22.6018 32.344 22.5849 32.3424 22.5637L34.462 21.389L34.4443 21.4086L33.9191 21.9913C33.2845 22.1752 32.8661 22.6497 32.6856 22.8544C32.6723 22.8694 32.6604 22.883 32.6497 22.8949ZM45.9016 32.4611C46.3736 31.7582 46.649 30.8898 46.649 29.9398C46.649 28.8498 46.2708 27.8135 45.5849 27.0219M45.9016 32.4611L40.3721 24.4552C40.1174 23.3952 39.5973 22.1325 38.5009 21.1545C38.3873 21.0531 38.2676 20.9549 38.1413 20.8602L38.1412 20.8602C38.1383 20.8579 38.1353 20.8557 38.1324 20.8535C38.2657 20.7693 38.3939 20.6783 38.5167 20.5812C39.7538 19.6027 40.4441 18.0068 40.4443 16.4936C40.4443 16.4934 40.4443 16.4931 40.4443 16.4929C40.4443 14.0825 38.6919 11.4624 35.7683 11.4623C35.7682 11.4623 35.7682 11.4623 35.7681 11.4623C32.8443 11.4623 31.092 14.0826 31.092 16.4929C31.092 16.4931 31.092 16.4934 31.092 16.4936C31.0921 17.5719 31.4427 18.6923 32.0919 19.6013C32.1757 19.7185 32.2644 19.8322 32.358 19.9419C32.2256 20.0121 32.1024 20.0855 31.9885 20.1594C31.917 20.2059 31.8492 20.2526 31.7852 20.2988C31.7128 20.3512 31.6441 20.4037 31.5791 20.4558C31.5041 20.3545 31.4217 20.2554 31.3313 20.1601L31.7754 19.8338L31.4489 19.3349C30.9692 18.508 30.6906 17.5355 30.6906 16.4936C30.6906 13.5033 32.9684 11.0702 35.7683 11.0702C38.5682 11.0702 40.846 13.5033 40.846 16.4936C40.846 17.5754 40.547 18.5825 40.0335 19.4281L38.7469 20.8774L40.1373 22.6662C40.4045 23.179 40.6146 23.7458 40.7637 24.3674C40.8602 24.7677 40.9341 25.1416 40.9904 25.5032C41.5824 25.5251 42.096 25.5439 42.2572 25.5497C43.5823 25.5523 44.7643 26.0753 45.5849 27.0219M45.9016 32.4611C45.7951 32.3842 45.6846 32.3087 45.57 32.2347C46.0437 31.5225 46.2472 30.7012 46.2477 29.9398C46.2477 29.8972 46.2471 29.8547 46.2459 29.8125C46.2221 28.9998 45.9587 28.0621 45.2851 27.2818L45.5849 27.0219M45.9016 32.4611L42.2565 25.9408C43.4025 25.9436 44.4668 26.3745 45.2274 27.2164C45.247 27.2381 45.2662 27.2598 45.285 27.2817L45.5849 27.0219M35.7449 37.5929C35.6963 37.6092 35.6466 37.6258 35.5959 37.6428L35.7449 37.5929ZM35.7449 37.5929C35.7668 37.5855 35.7884 37.5782 35.8099 37.571L35.7449 37.5929ZM35.8181 37.5776L35.8125 37.5702L36.0868 37.4781L35.8722 37.5501C35.9463 37.5253 36.0178 37.5013 36.0868 37.4781L36.3001 37.5693L37.9582 38.2782C37.8443 38.6145 37.6312 38.9921 37.241 39.3101L37.1281 39.3385L35.8471 37.6166L35.845 37.6138L35.8181 37.5776ZM35.8181 37.5776C35.8176 37.5785 35.817 37.5793 35.8165 37.5801L35.8181 37.5776ZM29.7821 21.7314C29.7658 21.749 29.7494 21.7669 29.7327 21.7849C29.8238 21.8766 29.9227 21.9644 30.0301 22.047L30.2061 21.8562L30.646 21.3797L30.7406 21.2772L30.4519 21.0058C30.3475 21.1188 30.1018 21.385 29.7821 21.7314ZM30.5066 20.9464L30.8038 21.2082C30.7999 21.2127 30.7967 21.2163 30.7943 21.2191L30.5066 20.9464ZM35.4417 19.5348C35.4411 19.5347 35.4406 19.5345 35.4401 19.5344L35.2417 20.3293L35.4417 19.5348ZM36.7935 41.8525C36.8453 41.8614 36.8952 41.8699 36.9433 41.8781V41.8781L36.7935 41.8525L36.7935 41.8525ZM39.4625 39.9836L38.6922 39.9758L38.6922 39.9758L39.4625 39.9836Z" stroke="#56A8F7" stroke-width="5"></path></svg>