<svg xmlns="http://www.w3.org/2000/svg" width="61" height="49" viewBox="0 0 61 49" fill="none"><path d="M48.862 35.9933C46.4249 38.4797 43.0161 39.8856 39.3236 39.8906C35.6286 39.898 32.2172 38.5019 29.7802 36.0229C28.5888 34.8143 27.7157 33.428 27.173 31.9456C26.6427 30.4903 26.4404 28.9339 26.5761 27.3922C26.7068 25.8876 27.1508 24.4249 27.8834 23.1028C28.5962 21.8103 29.5755 20.6436 30.7841 19.6569C33.1521 17.7256 36.1663 16.6822 39.3236 16.6773C42.4808 16.6723 45.4926 17.7108 47.863 19.6323C49.0691 20.6164 50.0484 21.7782 50.7588 23.0683C51.4914 24.3904 51.9378 25.8506 52.0686 27.3552C52.2042 28.8993 51.9995 30.4533 51.4692 31.9111C50.9265 33.3911 50.0509 34.7798 48.862 35.9933Z" fill="white"></path><path d="M31.4478 27.5503C31.5588 25.54 32.5455 23.7665 34.0304 22.511C35.4881 21.2753 37.4516 20.5229 39.5901 20.5229C41.7311 20.5254 43.6921 21.2777 45.1499 22.511C46.6348 23.769 47.6214 25.54 47.7349 27.5503C47.8483 29.6174 47.0171 31.5388 45.5593 32.9621C44.0744 34.41 41.9581 35.3202 39.5901 35.3202C37.2222 35.3202 35.1033 34.41 33.6184 32.9621C32.1631 31.5388 31.3344 29.6174 31.4478 27.5503Z" fill="#005385"></path><path d="M18.4748 31.6202C18.4896 32.4046 18.7411 33.9338 19.1161 35.1302C19.9079 37.6584 21.2497 39.9993 23.1194 42.0613C25.0384 44.1802 27.3965 45.8821 30.1246 47.0883C32.9933 48.3586 36.0987 49.0073 39.3226 48.9999C42.5465 48.995 45.6519 48.3364 48.5181 47.0562C51.2437 45.8353 53.6018 44.1284 55.5184 42.0046C57.3856 39.9327 58.725 37.5894 59.5168 35.0611C59.9114 33.8007 60.1655 32.5007 60.2691 31.186C60.3677 29.9034 60.3258 28.6109 60.1458 27.3357C59.7906 24.8345 58.9248 22.4888 57.5928 20.3502C56.3718 18.3868 54.8031 16.6651 52.9358 15.2147L52.9383 15.2122L34.0983 0.748006C34.0835 0.735673 34.0662 0.720873 34.0514 0.70854C32.8107 -0.23864 30.7338 -0.236174 29.3747 0.71594C27.9984 1.67792 27.843 3.26889 29.0639 4.2728L29.059 4.27527L36.9176 10.6687L12.9594 10.6934H12.9273C10.9491 10.6959 9.04489 11.9958 8.66749 13.6361C8.2827 15.3084 9.62701 16.6947 11.6866 16.7045L11.6842 16.7119L23.8273 16.6873L2.1581 33.3197C2.13096 33.3419 2.10136 33.3616 2.0767 33.3813C0.0343401 34.9452 -0.626713 37.5499 0.658394 39.1976C1.9657 40.8724 4.74311 40.8749 6.81013 39.205L18.6351 29.5285C18.6351 29.5285 18.4624 30.8358 18.4748 31.6202ZM48.8635 35.9935C46.4264 38.4798 43.0176 39.8858 39.3251 39.8907C35.6301 39.8981 32.2187 38.502 29.7817 36.0231C28.5903 34.8144 27.7172 33.4282 27.1745 31.9458C26.6442 30.4905 26.4419 28.934 26.5776 27.3924C26.7083 25.8878 27.1523 24.425 27.8849 23.1029C28.5977 21.8104 29.577 20.6437 30.7856 19.6571C33.1536 17.7257 36.1678 16.6823 39.3251 16.6774C42.4823 16.6725 45.4941 17.7109 47.8645 19.6324C49.0707 20.6166 50.0499 21.7784 50.7603 23.0684C51.4929 24.3905 51.9393 25.8508 52.0701 27.3554C52.2057 28.8995 52.001 30.4535 51.4707 31.9112C50.928 33.3912 50.0524 34.7799 48.8635 35.9935Z" fill="#FF7021"></path></svg>