<svg xmlns="http://www.w3.org/2000/svg" id="Layer_1" data-name="Layer 1" width="80" height="80" viewBox="0 0 80 80"><defs><style>.cls-1{fill:#e57070;}</style></defs><path class="cls-1" d="M24.69,16.31h8.86a1.21,1.21,0,1,0,0-2.42H24.69a1.21,1.21,0,0,0,0,2.42Zm0,0"></path><path class="cls-1" d="M48,39.64a1.2,1.2,0,0,0-1.21,1.21A1.21,1.21,0,0,0,48,42.06a1.18,1.18,0,0,0,.85-.36,1.2,1.2,0,0,0,.36-.85A1.21,1.21,0,0,0,48,39.64Zm0,0"></path><path class="cls-1" d="M19.92,27.1A13.06,13.06,0,0,0,19,44.58h0l8.41,10.77a2.2,2.2,0,0,0,3.46,0l8.36-10.71,0-.07A13.05,13.05,0,0,0,19.92,27.1Zm19.83,9.27a10.64,10.64,0,0,1-2.43,6.77l-.09.12L29.12,53.65,20.91,43.13l0-.05a10.63,10.63,0,1,1,18.87-6.71Zm0,0"></path><path class="cls-1" d="M26.16,32.45h-.87a1.21,1.21,0,0,0,0,2.42h.87a1.21,1.21,0,0,0,0-2.42Zm0,0"></path><path class="cls-1" d="M32,34.87h.87a1.21,1.21,0,1,0,0-2.42H32a1.21,1.21,0,1,0,0,2.42Zm0,0"></path><path class="cls-1" d="M22.82,36H22a1.21,1.21,0,1,0,0,2.42h.87a1.21,1.21,0,0,0,0-2.42Zm0,0"></path><path class="cls-1" d="M27.38,37.23a1.21,1.21,0,0,0,1.21,1.21h.87a1.21,1.21,0,1,0,0-2.42h-.87a1.21,1.21,0,0,0-1.21,1.21Zm0,0"></path><path class="cls-1" d="M35.24,38.44h.87a1.21,1.21,0,1,0,0-2.42h-.87a1.21,1.21,0,0,0,0,2.42Zm0,0"></path><path class="cls-1" d="M65.05,55.24H62.57l-2.94-6.92a5,5,0,0,0-4.57-3H42.86a5,5,0,0,0-4.56,3l-2.94,6.92H34.28A5.9,5.9,0,0,0,29,58.62H11.47V20.91h35.3V36.57a1.21,1.21,0,0,0,2.42,0V15.1a6.05,6.05,0,0,0-6-6h-28a6.05,6.05,0,0,0-6,6V64.9a6.05,6.05,0,0,0,6,6h28a6,6,0,0,0,5.37-3.27H58a4.47,4.47,0,0,0,8.61,0h3.11A1.21,1.21,0,0,0,71,66.48V61.14a5.9,5.9,0,0,0-5.9-5.9Zm-7.65-6,2.54,6H50.17V47.71h4.89a2.53,2.53,0,0,1,2.34,1.55Zm-16.88,0a2.54,2.54,0,0,1,2.34-1.55h4.89v7.53H38Zm-6.24,8.39H47.75v7.61H42.63a4.48,4.48,0,0,0-8.62,0H30.8V61.14a3.49,3.49,0,0,1,3.48-3.49Zm2,8.82a2.06,2.06,0,1,1,2.06,2.06,2.05,2.05,0,0,1-2.06-2.06Zm-21.16-55h28a3.64,3.64,0,0,1,3.63,3.63v3.39H11.47V15.1a3.64,3.64,0,0,1,3.63-3.63ZM11.47,64.9V61H28.39a.31.31,0,0,0,0,.1v5.34a1.21,1.21,0,0,0,1.21,1.21H34a4.19,4.19,0,0,0,.34.85H15.1a3.64,3.64,0,0,1-3.63-3.63Zm31.67,3.63h-.85a4.86,4.86,0,0,0,.34-.85h2.85a3.61,3.61,0,0,1-2.34.85Zm19.19,0a2.06,2.06,0,1,1,2.06-2.06,2.06,2.06,0,0,1-2.06,2.06Zm6.2-3.26H66.64a4.48,4.48,0,0,0-8.62,0H50.17V57.65H65.05a3.49,3.49,0,0,1,3.48,3.49Zm0,0"></path><path class="cls-1" d="M54.36,59.72H53a1.21,1.21,0,0,0,0,2.42h1.43a1.21,1.21,0,0,0,0-2.42Zm0,0"></path></svg>