<svg xmlns="http://www.w3.org/2000/svg" id="Layer_1" data-name="Layer 1" width="80" height="80" viewBox="0 0 80 80"><defs><style>.cls-1{fill:#7ec67f;}</style></defs><path class="cls-1" d="M71.27,68.48H65.68V65.42a13.26,13.26,0,0,0-9.77-12.77l-9-2.45v-3a1.39,1.39,0,0,0-.08-.46l0,0a13.39,13.39,0,0,0,5.93-6.93h2.37a4.29,4.29,0,0,0,4.29-4.28V30A4.24,4.24,0,0,0,58,26.86a18,18,0,0,0-36-.05A4.27,4.27,0,0,0,20.52,30v5.45a4.29,4.29,0,0,0,4.29,4.28h2.45a13.39,13.39,0,0,0,5.93,6.93h0a1.29,1.29,0,0,0-.1.48v3l-9,2.45a13.26,13.26,0,0,0-9.77,12.77v3.06H8.73a1.27,1.27,0,0,0,0,2.54H71.27a1.27,1.27,0,1,0,0-2.54ZM28.93,27a.86.86,0,0,0,0-.16,11.05,11.05,0,0,1,21.5-3.63l-3.07,2.12A9.37,9.37,0,0,1,42,27Zm27.94,8.45a1.74,1.74,0,0,1-1.74,1.74H53.44a13.06,13.06,0,0,0,.18-2.17V28.28h1.51A1.74,1.74,0,0,1,56.87,30ZM40,11.52A15.5,15.5,0,0,1,55.42,25.75H53.58a.75.75,0,0,0,0-.16,13.59,13.59,0,0,0-27.08.16H24.58A15.5,15.5,0,0,1,40,11.52ZM24.81,37.22a1.74,1.74,0,0,1-1.74-1.74V30a1.74,1.74,0,0,1,1.74-1.75H26.4v6.77a13.06,13.06,0,0,0,.18,2.17Zm4.13-2.17V29.58H42a12,12,0,0,0,6.81-2.12L51,25.94c0,.31,0,.61,0,.93a1.15,1.15,0,0,0,0,.26v7.92A10.72,10.72,0,0,1,50,39.74H45a2.75,2.75,0,0,0-2.73-2.4H39.33a2.76,2.76,0,0,0-2.76,2.76v1.32a2.76,2.76,0,0,0,2.76,2.76h2.94a2.77,2.77,0,0,0,2.62-1.9H48.3a10.74,10.74,0,0,1-2.72,2.19,11.36,11.36,0,0,1-11.14,0h0A10.85,10.85,0,0,1,28.94,35.05Zm13.55,6.37a.21.21,0,0,1-.22.21H39.33a.21.21,0,0,1-.22-.21V40.1a.22.22,0,0,1,.22-.22h2.94a.22.22,0,0,1,.22.22ZM40,48.48a13.78,13.78,0,0,0,4.31-.69V51L40,65.24,35.67,51v-3.2A13.65,13.65,0,0,0,40,48.48ZM16.86,65.42A10.72,10.72,0,0,1,24.75,55.1l8.79-2.38,4.78,15.76H16.86Zm24.82,3.06,4.77-15.76,8.79,2.38a10.72,10.72,0,0,1,7.9,10.32v3.06Z"></path><path class="cls-1" d="M58.15,62.37a1.3,1.3,0,1,0,.89.38A1.26,1.26,0,0,0,58.15,62.37Z"></path><path class="cls-1" d="M35.91,34.3a1.29,1.29,0,0,0,.38-.9,1.27,1.27,0,0,0-.38-.9,1.27,1.27,0,0,0-1.79,0,1.27,1.27,0,0,0-.38.9,1.27,1.27,0,0,0,2.17.9Z"></path><path class="cls-1" d="M45,34.67a1.31,1.31,0,0,0,.9-.37,1.28,1.28,0,0,0,.37-.9A1.26,1.26,0,0,0,45,32.13a1.28,1.28,0,0,0-.9.37,1.31,1.31,0,0,0-.37.9A1.26,1.26,0,0,0,45,34.67Z"></path><path class="cls-1" d="M53.86,62.37h-5a1.28,1.28,0,0,0,0,2.55h5a1.28,1.28,0,0,0,0-2.55Z"></path></svg>