<svg xmlns="http://www.w3.org/2000/svg" id="Layer_1" data-name="Layer 1" width="80" height="80" viewBox="0 0 80 80"><defs><style>.cls-1{fill:#cfd0d0;}.cls-2{fill:#d2ae55;}</style></defs><rect class="cls-1" x="15.33" y="35.89" width="49.33" height="2.06"></rect><path class="cls-2" d="M70.33,26.78,40.52,9.31a1,1,0,0,0-1,0L9.69,25.75a1,1,0,0,0-.52.89V69.8a1,1,0,0,0,1,1h5.13a1,1,0,0,0,1-1V42.05H63.64V69.8a1,1,0,0,0,1,1H69.8a1,1,0,0,0,1-1V27.66A1,1,0,0,0,70.33,26.78Zm-6.69,9.11H16.36V33.83H63.64ZM16.36,40V37.94H63.64V40ZM68.78,68.77H65.69v-36a1,1,0,0,0-1-1H15.33a1,1,0,0,0-1,1v36H11.22V27.24L40,11.38,68.78,28.25Z"></path><path class="cls-2" d="M48.22,70.83H60.55a1,1,0,0,0,1-1V45.14a1,1,0,0,0-1-1H48.22a1,1,0,0,0-1,1v11.3H35.89a1,1,0,0,0-1,1V69.8a1,1,0,0,0,1,1Zm11.31-2.06H49.25V58.5h2v3.08a1,1,0,0,0,1,1h4.11a1,1,0,0,0,1-1V58.5h2.06ZM53.36,58.5h2.06v2H53.36Zm0-12.34h2.06v2.06H53.36Zm-4.11,0h2v3.09a1,1,0,0,0,1,1h4.11a1,1,0,0,0,1-1V46.16h2.06V56.44H49.25ZM41,58.5h2v2H41Zm-4.11,0h2v3.08a1,1,0,0,0,1,1h4.11a1,1,0,0,0,1-1V58.5h2V68.77H36.92Z"></path><path class="cls-2" d="M33.83,24.58v4.11a1,1,0,0,0,1,1H45.14a1,1,0,0,0,1-1V24.58a1,1,0,0,0-1-1H34.86A1,1,0,0,0,33.83,24.58Zm2.06,1h8.22v2.05H35.89Z"></path></svg>