<svg xmlns="http://www.w3.org/2000/svg" id="Layer_1" data-name="Layer 1" width="80" height="80" viewBox="0 0 80 80"><defs><style>.cls-1{fill:#f99c26;}.cls-2{fill:#61c1d1;}</style></defs><path class="cls-1" d="M51.71,38.89h0A5.89,5.89,0,0,1,45.89,33c0,.22,0,.43,0,.65a5.88,5.88,0,0,0,5.85,5.24Zm0,0"></path><path class="cls-1" d="M39.93,38.89h0A5.89,5.89,0,0,1,34.11,33a4.73,4.73,0,0,1,0,.65,5.89,5.89,0,0,0,5.86,5.24Zm0,0"></path><path class="cls-1" d="M63.49,38.89h0A5.89,5.89,0,0,1,57.68,33c0,.22,0,.44,0,.65a5.88,5.88,0,0,0,5.85,5.24Zm0,0"></path><path class="cls-1" d="M57.64,33.65c0-.21,0-.43,0-.65a5.89,5.89,0,0,1-5.85,5.89h0a5.89,5.89,0,0,0,5.86-5.24Zm0,0"></path><path class="cls-1" d="M45.86,33.65a4.73,4.73,0,0,1,0-.65A5.89,5.89,0,0,1,40,38.89h0a5.89,5.89,0,0,0,5.86-5.24Zm0,0"></path><path class="cls-1" d="M34.07,33.65c0-.22,0-.43,0-.65a5.89,5.89,0,0,1-5.86,5.89h0a5.88,5.88,0,0,0,5.85-5.24Zm0,0"></path><path class="cls-2" d="M70.53,29.51,64.76,18.16V13.65a1.19,1.19,0,0,0-1.19-1.19H16.43a1.19,1.19,0,0,0-1.19,1.19v4.51L9.47,29.51a1.31,1.31,0,0,0-.13.55V33a7.11,7.11,0,0,0,5.9,7V65.15H14a1.2,1.2,0,1,0,0,2.39H66a1.2,1.2,0,1,0,0-2.39H64.76V40a7.11,7.11,0,0,0,5.9-7V30.06a1.31,1.31,0,0,0-.13-.55ZM56.48,33a4.7,4.7,0,1,1-9.39,0V30.06a.57.57,0,0,0,0-.13L46,19.64h7.21l3.23,10.59ZM44.69,33a4.69,4.69,0,1,1-9.38,0V30.12l1.06-10.48h7.26l1.06,10.48ZM32.91,30.06V33a4.7,4.7,0,1,1-9.39,0V30.23l3.23-10.59H34l-1,10.29a.57.57,0,0,0,0,.13ZM17.63,14.85H62.37v2.4H17.63ZM11.74,33V30.34l5.43-10.7h7.07L21.18,29.71a1,1,0,0,0-.05.35V33a4.7,4.7,0,1,1-9.39,0Zm5.89,7a7.17,7.17,0,0,0,4.7-3.05,7.08,7.08,0,0,0,11.78,0,7.08,7.08,0,0,0,11.78,0,7.08,7.08,0,0,0,11.78,0A7.17,7.17,0,0,0,62.37,40V65.15H60V44.79a1.19,1.19,0,0,0-1.19-1.2H49.2a1.2,1.2,0,0,0-1.2,1.2V65.15H17.63V40ZM50.39,65.15V56.77h1.2a1.2,1.2,0,0,0,0-2.4h-1.2V46h7.19V65.15ZM68.26,33a4.7,4.7,0,1,1-9.39,0V30.06a1,1,0,0,0,0-.35L55.76,19.64h7.07l5.43,10.7Zm0,0"></path><path class="cls-2" d="M10.57,65.15h0a1.2,1.2,0,1,0,0,2.39h0a1.2,1.2,0,1,0,0-2.39Zm0,0"></path><path class="cls-2" d="M69.46,65.15h0a1.2,1.2,0,1,0,0,2.39h0a1.2,1.2,0,1,0,0-2.39Zm0,0"></path><path class="cls-2" d="M43.59,46.62v0s0-.08,0-.12v0s0-.05,0-.08l0,0s0,0,0-.06l0-.07,0,0-.06-.1,0,0,0-.07h0a6.65,6.65,0,0,0-6.64-2.18,6.39,6.39,0,0,0-3.86,2.73A6.34,6.34,0,0,0,29,43.78,6.65,6.65,0,0,0,22.32,46h0l0,.07,0,0-.06.1s0,0,0,0l0,.07s0,0,0,.06l0,0s0,.05,0,.08v0s0,.08,0,.12V59.16a1.2,1.2,0,0,0,1.2,1.2H42.4a1.19,1.19,0,0,0,1.19-1.2V46.72h0v-.1ZM24.43,58V56.77a4.35,4.35,0,0,1,3-1.2A4,4,0,0,1,31.14,58Zm3-4.79a6.81,6.81,0,0,0-3,.7V47.2a4.3,4.3,0,0,1,4-1.1,4.5,4.5,0,0,1,3.22,3.63v5l-.16-.14a6.32,6.32,0,0,0-4-1.42ZM34,54.73v-5a4.5,4.5,0,0,1,3.22-3.63,4.3,4.3,0,0,1,4,1.1v6.67a6.81,6.81,0,0,0-3-.7,6.32,6.32,0,0,0-4,1.42l-.16.14ZM41.2,58H34.49a4,4,0,0,1,3.72-2.39,4.35,4.35,0,0,1,3,1.2Zm0,0"></path></svg>