<svg xmlns="http://www.w3.org/2000/svg" id="Layer_1" data-name="Layer 1" width="80" height="80" viewBox="0 0 80 80"><defs><style>.cls-1{fill:#7fc67f;}</style></defs><path class="cls-1" d="M19.63,42.6h.65v.64a1.26,1.26,0,1,0,2.51,0V42.6h.65a1.26,1.26,0,0,0,0-2.51h-.65v-.65a1.26,1.26,0,0,0-2.51,0v.65h-.65a1.26,1.26,0,0,0,0,2.51Zm0,0"></path><path class="cls-1" d="M36.87,40.09h-3.8a1.26,1.26,0,0,0,0,2.51h3.8a1.26,1.26,0,1,0,0-2.51Zm0,0"></path><path class="cls-1" d="M37.76,58.48l-1-1,1-1A1.26,1.26,0,0,0,36,54.68l-1,1-1-1a1.26,1.26,0,0,0-1.77,1.78l1,1-1,1a1.26,1.26,0,0,0,.88,2.15,1.27,1.27,0,0,0,.89-.37l1-1,1,1a1.26,1.26,0,0,0,1.77-1.78Zm0,0"></path><path class="cls-1" d="M24.32,54.68a1.25,1.25,0,0,0-1.77,0l-3.8,3.8a1.26,1.26,0,1,0,1.77,1.78l3.8-3.8a1.26,1.26,0,0,0,0-1.78Zm0,0"></path><path class="cls-1" d="M50.3,46.12H46.53a1.26,1.26,0,1,0,0,2.51H50.3a1.26,1.26,0,0,0,0-2.51Zm0,0"></path><path class="cls-1" d="M50.3,50.18H46.53a1.26,1.26,0,1,0,0,2.52H50.3a1.26,1.26,0,0,0,0-2.52Zm0,0"></path><path class="cls-1" d="M19.87,10.35h0a1.26,1.26,0,1,0,0-2.52h0a1.26,1.26,0,0,0,0,2.52Zm0,0"></path><path class="cls-1" d="M71.41,21.19A11.33,11.33,0,0,0,61,9.91a3.78,3.78,0,0,0-3.37-2.08H24.92a1.26,1.26,0,0,0,0,2.52h32a11.32,11.32,0,0,0-4.79,2.86H17.33A3.77,3.77,0,0,0,13.56,17v8.41a3.77,3.77,0,0,0,3.77,3.77H52.09a11.29,11.29,0,0,0,6.76,3.26v36a1.26,1.26,0,0,1-1.26,1.25H12.36A1.25,1.25,0,0,1,11.1,68.4V11.6a1.25,1.25,0,0,1,1.26-1.25h3.9a1.26,1.26,0,0,0,0-2.52h-3.9A3.78,3.78,0,0,0,8.59,11.6V68.4a3.78,3.78,0,0,0,3.77,3.77H57.59a3.78,3.78,0,0,0,3.77-3.77v-36a11.31,11.31,0,0,0,10-11.23ZM17.33,26.65a1.27,1.27,0,0,1-1.26-1.26V17a1.27,1.27,0,0,1,1.26-1.26H50.21a11.3,11.3,0,0,0,0,10.93ZM60.1,30a8.8,8.8,0,1,1,8.8-8.79A8.8,8.8,0,0,1,60.1,30Zm0,0"></path><path class="cls-1" d="M63.47,19.93H56.74a.76.76,0,0,1-.54-.23.71.71,0,0,1-.22-.53.77.77,0,0,1,.76-.77H63a1.26,1.26,0,1,0,0-2.51H61.36v-1a1.26,1.26,0,0,0-2.51,0v1H56.74a3.28,3.28,0,0,0-3.28,3.28,3.28,3.28,0,0,0,3.28,3.27h2.11V24H57.21a1.26,1.26,0,0,0,0,2.51h1.64v1a1.26,1.26,0,0,0,2.51,0v-1h2.11a3.28,3.28,0,0,0,0-6.55Zm0,4H61.36V22.44h2.11a.77.77,0,0,1,0,1.53Zm0,0"></path><path class="cls-1" d="M40.31,64.28a1.26,1.26,0,1,0,0,2.51H52.62A3.77,3.77,0,0,0,56.39,63V35.79A3.78,3.78,0,0,0,52.62,32H17.33a3.78,3.78,0,0,0-3.77,3.77V63a3.77,3.77,0,0,0,3.77,3.77H30.77a1.26,1.26,0,0,0,0-2.51H29.51V50.66H40.44V64.28Zm-23-29.74H27V48.15H16.07V35.79a1.26,1.26,0,0,1,1.26-1.25Zm0,29.74A1.27,1.27,0,0,1,16.07,63V50.66H27V64.28ZM29.51,48.15V34.54H40.44V48.15ZM43,34.54h9.67a1.26,1.26,0,0,1,1.26,1.25V63a1.27,1.27,0,0,1-1.26,1.26H43Zm0,0"></path><path class="cls-1" d="M36.7,64.28h0a1.26,1.26,0,0,0,0,2.51h0a1.26,1.26,0,0,0,0-2.51Zm0,0"></path></svg>