<svg xmlns="http://www.w3.org/2000/svg" id="Layer_1" data-name="Layer 1" width="80" height="80" viewBox="0 0 80 80"><defs><style>.cls-1{fill:#7ec67f;}</style></defs><path class="cls-1" d="M42.87,37.59a.52.52,0,0,0,.41-.52V35a.54.54,0,0,0-.41-.53l-.93-.23-.47-1.12.5-.83a.54.54,0,0,0-.08-.66l-1.45-1.45a.54.54,0,0,0-.66-.08l-.83.5-1.12-.47-.23-.93a.54.54,0,0,0-.53-.42H35a.53.53,0,0,0-.52.42l-.24.93-1.12.47-.83-.5a.55.55,0,0,0-.66.08l-1.44,1.45a.54.54,0,0,0-.09.66l.5.83-.46,1.12-.94.23a.55.55,0,0,0-.41.53v2a.53.53,0,0,0,.41.52l.94.24L30.63,39l-.5.83a.55.55,0,0,0,.09.66l1.44,1.44a.55.55,0,0,0,.66.09l.83-.5,1.12.46.24.94a.53.53,0,0,0,.52.41h2a.55.55,0,0,0,.53-.41l.23-.94L39,41.47l.83.5a.55.55,0,0,0,.66-.09l1.45-1.44a.55.55,0,0,0,.08-.66l-.5-.83.47-1.12Zm-1.46-.75a.54.54,0,0,0-.37.32l-.67,1.63a.51.51,0,0,0,0,.48l.42.7-.84.85-.7-.42a.56.56,0,0,0-.49,0L37.16,41a.53.53,0,0,0-.31.37l-.2.79h-1.2l-.19-.79a.52.52,0,0,0-.32-.37l-1.63-.68a.54.54,0,0,0-.48,0l-.7.42L31.28,40l.42-.7a.54.54,0,0,0,0-.48l-.68-1.63a.52.52,0,0,0-.37-.32l-.79-.19v-1.2l.79-.2a.52.52,0,0,0,.37-.32l.68-1.62a.56.56,0,0,0,0-.49l-.42-.7.85-.84.7.42a.51.51,0,0,0,.48,0l1.63-.67a.54.54,0,0,0,.32-.37l.19-.79h1.2l.2.79a.55.55,0,0,0,.31.37l1.63.67a.53.53,0,0,0,.49,0l.7-.42.84.84-.42.7a.53.53,0,0,0,0,.49L41,34.93a.54.54,0,0,0,.37.32l.79.2v1.2Z"></path><path class="cls-1" d="M36.05,32.26a.54.54,0,0,0,0,1.08,2.71,2.71,0,1,1-2.71,2.71,2.45,2.45,0,0,1,.13-.81.54.54,0,0,0-.36-.68.55.55,0,0,0-.68.35,4,4,0,0,0-.17,1.14,3.79,3.79,0,1,0,3.79-3.79Z"></path><path class="cls-1" d="M34.19,33.93a.57.57,0,0,0,.31-.1.55.55,0,0,0,.13-.76.54.54,0,0,0-.75-.13h0a.54.54,0,0,0-.12.76A.56.56,0,0,0,34.19,33.93Z"></path><path class="cls-1" d="M44.94,36.05v0a.53.53,0,0,0,.54.54h0a.54.54,0,0,0,.54-.54v0a.54.54,0,1,0-1.08,0Z"></path><path class="cls-1" d="M53.27,50.13,46.85,43.7a.55.55,0,0,0-.72,0l-1.9-1.9a10.11,10.11,0,0,0,1.47-3.19.54.54,0,1,0-1.05-.27,8.89,8.89,0,1,1,0-4.57.56.56,0,0,0,.67.39.55.55,0,0,0,.38-.67A10,10,0,1,0,41.79,44.2l1.9,1.89a.55.55,0,0,0,0,.76l2.58,2.58H44.72a.55.55,0,0,0-.54.55v2.76h-1.3V47.21a.54.54,0,0,0-.54-.54H38.87a.54.54,0,0,0-.54.54v5.53H37V49.49a.55.55,0,0,0-.54-.55H33a.55.55,0,0,0-.54.55v3.25h-1.3V46.09a.55.55,0,0,0-.55-.54H27.17a.54.54,0,0,0-.54.54v6.65a.54.54,0,1,0,0,1.08H49.38a.54.54,0,0,0,.54-.54.48.48,0,0,0-.09-.29l.29.29a2.22,2.22,0,0,0,1.56.64h0a2.19,2.19,0,0,0,1.57-.65A2.22,2.22,0,0,0,53.27,50.13Zm-5.91-4.38-1.61,1.62-.9-.9,1.61-1.62Zm-3.81-3.14,1.81,1.81-.9.91-1.81-1.81A8.6,8.6,0,0,0,43.55,42.61ZM27.71,52.74v-6.1h2.38v6.1Zm5.85,0V50h2.38v2.71Zm8.23,0H39.41v-5h2.38m3.47,5V50.52h2.1l.28.29v1.94Zm4.12,0h-.65v-.86l.94.94A.55.55,0,0,0,49.38,52.74Zm3.12-.24a1.19,1.19,0,0,1-.81.34h0a1.11,1.11,0,0,1-.79-.33l-4.38-4.38,1.62-1.61,4.38,4.38A1.13,1.13,0,0,1,52.5,52.5Z"></path><path class="cls-1" d="M34.63,13.77H45.35a1.34,1.34,0,0,0,0-2.68H34.63a1.34,1.34,0,0,0,0,2.68Zm0,0"></path><path class="cls-1" d="M56.31,5.74H23.69A6.7,6.7,0,0,0,17,12.43V67.57a6.7,6.7,0,0,0,6.69,6.69H56.31A6.7,6.7,0,0,0,63,67.57V12.43a6.7,6.7,0,0,0-6.69-6.69ZM19.68,19.12H60.32V60.88H19.68Zm4-10.71H56.31a4,4,0,0,1,4,4v4H19.68v-4a4,4,0,0,1,4-4ZM56.31,71.59H23.69a4,4,0,0,1-4-4v-4H60.32v4a4,4,0,0,1-4,4Zm0,0"></path><path class="cls-1" d="M40,65.74h0a1.34,1.34,0,1,0,0,2.68h0a1.34,1.34,0,1,0,0-2.68Zm0,0"></path></svg>