<svg xmlns="http://www.w3.org/2000/svg" id="Layer_1" data-name="Layer 1" width="80" height="80" viewBox="0 0 80 80"><defs><style>.cls-1{fill:#e57070;}</style></defs><path class="cls-1" d="M73,37.4l-4.89-2.65L54.68,20.06a1.32,1.32,0,0,0-1-.41H40.93a1.28,1.28,0,0,0,0,2.56h2.56V34.5H20.58a1.28,1.28,0,1,0,0,2.56H43.49v13.7a.49.49,0,0,0,0,.12H28.92a6.92,6.92,0,0,0-11.29-2.35v-1A3.56,3.56,0,0,0,14.07,44H10.94l-.22,0V23a.83.83,0,0,1,.83-.83H29.11a1.28,1.28,0,0,0,0-2.56H11.55A3.39,3.39,0,0,0,8.16,23v27a3.39,3.39,0,0,0,3.39,3.39h4a6.91,6.91,0,0,0,13.82,0h23a6.92,6.92,0,0,0,13.83,0h6.14a1.28,1.28,0,0,0,1.28-1.28V38.53A1.3,1.3,0,0,0,73,37.4ZM10.72,50.05V46.51l.22,0h3.13a1,1,0,0,1,1,1v3.35H11.55a.83.83,0,0,1-.83-.83ZM22.5,57.79a4.35,4.35,0,1,1,4.35-4.35,4.35,4.35,0,0,1-4.35,4.35ZM71.14,40.9H69.47a.85.85,0,0,1-.85-.85V37.93l2.52,1.36Zm-6.71-6.4h-9.8A3.46,3.46,0,0,1,51.17,31V22.21h2ZM59.36,57.79a4.35,4.35,0,1,1,4.36-4.35,4.35,4.35,0,0,1-4.36,4.35Zm6.42-6.91a6.91,6.91,0,0,0-12.83,0h-6.9V22.21h2.56V31a6,6,0,0,0,6,6H66.06v3a3.41,3.41,0,0,0,3.41,3.41h1.67v7.42Zm0,0"></path><path class="cls-1" d="M34.83,22.21a1.26,1.26,0,0,0,.9-.38,1.27,1.27,0,0,0,0-1.81,1.25,1.25,0,0,0-.9-.37,1.29,1.29,0,0,0-.91.37,1.29,1.29,0,0,0,0,1.81,1.3,1.3,0,0,0,.91.38Zm0,0"></path><path class="cls-1" d="M14.81,34.87a1.28,1.28,0,1,0,1.81,1.81,1.28,1.28,0,0,0-1.81-1.81Zm0,0"></path><path class="cls-1" d="M51.73,38.68H49.89a1.28,1.28,0,0,0,0,2.56h1.84a1.28,1.28,0,0,0,0-2.56Zm0,0"></path></svg>