<svg xmlns="http://www.w3.org/2000/svg" id="Layer_1" data-name="Layer 1" width="80" height="80" viewBox="0 0 80 80"><defs><style>.cls-1{fill:#62c1d1;}</style></defs><path class="cls-1" d="M57.45,54.31a1.21,1.21,0,1,0,0,2.42,1.21,1.21,0,0,0,0-2.42Z"></path><path class="cls-1" d="M66.17,9H13.83A4.86,4.86,0,0,0,9,13.83V51.88a4.85,4.85,0,0,0,4.85,4.85h19v6.08a7,7,0,0,0-6.34,7A1.21,1.21,0,0,0,27.72,71H52.28a1.21,1.21,0,0,0,1.21-1.21,7,7,0,0,0-6.58-7V56.73h5.65a1.21,1.21,0,1,0,0-2.42H13.83a2.43,2.43,0,0,1-2.43-2.43V13.83a2.42,2.42,0,0,1,2.43-2.42H66.17a2.42,2.42,0,0,1,2.43,2.42V51.88a2.43,2.43,0,0,1-2.43,2.43H61.94a1.21,1.21,0,0,0,0,2.42h4.23A4.85,4.85,0,0,0,71,51.88V13.83A4.86,4.86,0,0,0,66.17,9ZM50.9,68.6H29.1a4.6,4.6,0,0,1,4.44-3.4H46.46A4.6,4.6,0,0,1,50.9,68.6Zm-6.42-5.82H35.27V56.73h9.21Z"></path><path class="cls-1" d="M39,50.78a1.23,1.23,0,1,0,.86-.35A1.25,1.25,0,0,0,39,50.78Z"></path><path class="cls-1" d="M65,49a1.22,1.22,0,0,0,1.21-1.22V15.05A1.21,1.21,0,0,0,65,13.84H15a1.21,1.21,0,0,0-1.21,1.21V47.76A1.22,1.22,0,0,0,15,49ZM16.25,16.26h47.5V46.55H42.42v-2A8,8,0,0,0,36,36.72a5.51,5.51,0,0,0,1.11-3.33V31.88a5.6,5.6,0,0,0-11.2,0v1.51A5.57,5.57,0,0,0,27,36.72a8,8,0,0,0-6.41,7.83v2H16.25Zm12.1,17.13V31.88a3.17,3.17,0,0,1,6.34,0v1.51a3.17,3.17,0,0,1-6.34,0ZM23,46.55v-2A5.56,5.56,0,0,1,28.6,39h5.84A5.57,5.57,0,0,1,40,44.55v2Z"></path><path class="cls-1" d="M43.15,33.71h.53v2.37a1.21,1.21,0,0,0,.74,1.12,1.27,1.27,0,0,0,.47.09,1.2,1.2,0,0,0,.85-.35L49,33.71h7.75a3.64,3.64,0,0,0,3.64-3.63V23.29a3.64,3.64,0,0,0-3.64-3.63H43.15a3.64,3.64,0,0,0-3.63,3.63v6.79A3.64,3.64,0,0,0,43.15,33.71ZM41.94,23.29a1.21,1.21,0,0,1,1.21-1.21H56.72a1.21,1.21,0,0,1,1.21,1.21v6.79a1.21,1.21,0,0,1-1.21,1.21H48.47a1.25,1.25,0,0,0-.86.35L46.1,33.16V32.5a1.21,1.21,0,0,0-1.21-1.21H43.15a1.21,1.21,0,0,1-1.21-1.21Z"></path><path class="cls-1" d="M45.15,27.76a1.2,1.2,0,1,0-.86-.35A1.25,1.25,0,0,0,45.15,27.76Z"></path><path class="cls-1" d="M49.94,27.76a1.21,1.21,0,1,0-.86-.35A1.23,1.23,0,0,0,49.94,27.76Z"></path><path class="cls-1" d="M54.72,27.76a1.2,1.2,0,1,0-.86-.35A1.25,1.25,0,0,0,54.72,27.76Z"></path></svg>