<svg xmlns="http://www.w3.org/2000/svg" id="Layer_1" data-name="Layer 1" width="80" height="80" viewBox="0 0 80 80"><defs><style>.cls-1{fill:#80c680;}</style></defs><path class="cls-1" d="M46.42,28.25a1.21,1.21,0,0,0-1.69.28l0,0a1.2,1.2,0,0,0,1,1.9,1.18,1.18,0,0,0,1-.51l0,0A1.21,1.21,0,0,0,46.42,28.25Z"></path><path class="cls-1" d="M42,31.5a15,15,0,0,1-5.67,2.92,1.2,1.2,0,0,0,.31,2.37,1.1,1.1,0,0,0,.31,0,17.27,17.27,0,0,0,6.58-3.38A1.21,1.21,0,0,0,42,31.5Z"></path><path class="cls-1" d="M67.31,36.43a3.64,3.64,0,0,0-3.63,3.63v.6a10.28,10.28,0,0,1-8.52,10.12,5.79,5.79,0,0,0,1-3.26v-.84a5.83,5.83,0,0,0-11.65,0v.84a5.74,5.74,0,0,0,1,3.19,10.29,10.29,0,0,1-8.14-10.05v-.6a3.63,3.63,0,1,0-7.25,0v.6a17.45,17.45,0,0,0,1.46,7H23.32V35.51a1.2,1.2,0,0,0-.88-1.16,15.19,15.19,0,0,1-11-14.53v-.6a1.21,1.21,0,0,1,2.42,0v.6A12.7,12.7,0,0,0,26.59,32.51H32.4A12.7,12.7,0,0,0,45.09,19.82v-.6a1.21,1.21,0,0,1,2.42,0v.6a15,15,0,0,1-1,5.39,1.21,1.21,0,0,0,2.26.87,17.54,17.54,0,0,0,1.15-6.26v-.6a3.63,3.63,0,1,0-7.25,0v.6a10.28,10.28,0,0,1-8.52,10.12,5.79,5.79,0,0,0,1-3.26v-.84a5.83,5.83,0,0,0-11.65,0v.84a5.74,5.74,0,0,0,1,3.19,10.29,10.29,0,0,1-8.14-10v-.6a3.63,3.63,0,1,0-7.25,0v.6a17.34,17.34,0,0,0,3.6,10.64,17.74,17.74,0,0,0,8.23,5.93V48.88a1.21,1.21,0,0,0,1.21,1.21h.22V69.72a1.21,1.21,0,0,0,2.42,0V50.09h8.09c.26.41.54.82.84,1.21.08.1.17.2.25.31V69.72a1.21,1.21,0,0,0,2.42,0V54.08a17.51,17.51,0,0,0,5.56,3.15V69.72a1.21,1.21,0,0,0,2.42,0V56.35a1.2,1.2,0,0,0-.88-1.16,15.19,15.19,0,0,1-11-14.53v-.6a1.21,1.21,0,1,1,2.42,0v.6A12.7,12.7,0,0,0,47.6,53.35h5.81A12.7,12.7,0,0,0,66.1,40.66v-.6a1.21,1.21,0,1,1,2.42,0v.6a15.14,15.14,0,0,1-11.21,14.6,1.21,1.21,0,0,0-.9,1.16v8.75a1.21,1.21,0,1,0,2.42,0V57.33a17.55,17.55,0,0,0,12.1-16.67v-.6A3.63,3.63,0,0,0,67.31,36.43ZM25.92,25.84a3.41,3.41,0,1,1,6.81,0v.84a3.41,3.41,0,1,1-6.81,0Zm21,20.84a3.41,3.41,0,1,1,6.81,0v.84a3.41,3.41,0,1,1-6.81,0Z"></path><path class="cls-1" d="M57.62,68.52a1.25,1.25,0,0,0-.86.35,1.23,1.23,0,0,0-.35.85,1.2,1.2,0,0,0,1.21,1.21,1.21,1.21,0,0,0,1.21-1.21,1.2,1.2,0,0,0-.36-.85A1.23,1.23,0,0,0,57.62,68.52Z"></path><path class="cls-1" d="M29.33,54.26a1.21,1.21,0,0,0-1.21,1.21V69.72a1.21,1.21,0,1,0,2.41,0V55.47A1.21,1.21,0,0,0,29.33,54.26Z"></path><path class="cls-1" d="M65.37,22.89a1.21,1.21,0,0,0,1.21-1.2V20.18a1.21,1.21,0,0,0-2.41,0v1.51A1.2,1.2,0,0,0,65.37,22.89Z"></path><path class="cls-1" d="M65.37,30.09a1.21,1.21,0,0,0,1.21-1.21v-1.5a1.21,1.21,0,1,0-2.41,0v1.5A1.21,1.21,0,0,0,65.37,30.09Z"></path><path class="cls-1" d="M68.22,25.74h1.5a1.21,1.21,0,1,0,0-2.41h-1.5a1.21,1.21,0,1,0,0,2.41Z"></path><path class="cls-1" d="M61,25.74h1.51a1.21,1.21,0,0,0,0-2.41H61a1.21,1.21,0,0,0,0,2.41Z"></path><path class="cls-1" d="M35.63,13a1.21,1.21,0,0,0,1.21-1.21v-1.5a1.21,1.21,0,1,0-2.41,0v1.5A1.21,1.21,0,0,0,35.63,13Z"></path><path class="cls-1" d="M35.63,20.18A1.21,1.21,0,0,0,36.84,19V17.47a1.21,1.21,0,0,0-2.41,0V19A1.2,1.2,0,0,0,35.63,20.18Z"></path><path class="cls-1" d="M38.48,15.83H40a1.21,1.21,0,1,0,0-2.41h-1.5a1.21,1.21,0,1,0,0,2.41Z"></path><path class="cls-1" d="M31.28,15.83h1.51a1.21,1.21,0,1,0,0-2.41H31.28a1.21,1.21,0,0,0,0,2.41Z"></path></svg>