<svg xmlns="http://www.w3.org/2000/svg" id="Layer_1" data-name="Layer 1" width="80" height="80" viewBox="0 0 80 80"><defs><style>.cls-1{fill:#d2ae55;}</style></defs><path class="cls-1" d="M63.67,19.67a9.37,9.37,0,0,0-9.27-8H17.67A9.38,9.38,0,0,0,8.3,21V42.39a9.38,9.38,0,0,0,9.37,9.37h.41v5.7a1.25,1.25,0,0,0,.76,1.15,1.36,1.36,0,0,0,.48.09,1.2,1.2,0,0,0,.87-.36l6.58-6.58H54.4a9.38,9.38,0,0,0,9.37-9.37V22.2a6.92,6.92,0,0,1,5.45,6.74V50.32a6.9,6.9,0,0,1-6.89,6.89H49.14a1.24,1.24,0,0,0-1.06.6L44,64.7l-4.11-6.89a1.26,1.26,0,0,0-1.07-.6H25.6a1.24,1.24,0,0,0,0,2.48H38.08l4.82,8.06a1.24,1.24,0,0,0,1.06.6,1.26,1.26,0,0,0,1.07-.6l4.81-8.06H62.33a9.39,9.39,0,0,0,9.37-9.37V28.94A9.4,9.4,0,0,0,63.67,19.67ZM61.29,42.39a6.91,6.91,0,0,1-6.89,6.9H26.26a1.25,1.25,0,0,0-.88.36l-4.83,4.82V50.52a1.23,1.23,0,0,0-1.23-1.23H17.67a6.91,6.91,0,0,1-6.89-6.9V21a6.91,6.91,0,0,1,6.89-6.9H54.4A6.91,6.91,0,0,1,61.29,21V42.39Z"></path><path class="cls-1" d="M58.37,41.2a5,5,0,0,0-4-4.36l-3.66-.73a.44.44,0,0,1-.35-.42v-.78l1.5-.86.07,0a3.9,3.9,0,0,0,1.68-3s0-.06,0-.1V25.78a4.76,4.76,0,0,0,1-2.93V19.69a1.6,1.6,0,0,0-2.55-1.29,1.36,1.36,0,0,1-.76.3H43.05a3.85,3.85,0,0,0-3.87,3.66.62.62,0,0,0,0,.13v2.19a2.81,2.81,0,0,0,1,2.4v4a3.93,3.93,0,0,0,1.67,3l.07,0,1.51.87v.77a.43.43,0,0,1-.35.42l-3.66.73a5,5,0,0,0-4,4.36L35.13,44a1.21,1.21,0,0,0,.31,1,1.23,1.23,0,0,0,.92.41H57.43a1.26,1.26,0,0,0,.93-.41,1.28,1.28,0,0,0,.31-1ZM41.65,22.54a1.39,1.39,0,0,1,1.4-1.36h8.26a3.46,3.46,0,0,0,.84-.11v1.78a2.32,2.32,0,0,1-2.31,2.31H42.09a1.13,1.13,0,0,1-.39-.05,1.3,1.3,0,0,1-.05-.43h0V22.54Zm1,8.34V27.63h7.19a4.69,4.69,0,0,0,1.3-.18v3.43a1.44,1.44,0,0,1-.55,1l-3.24,1.87-.07,0a.68.68,0,0,1-.77,0l-.06,0-3.26-1.87A1.47,1.47,0,0,1,42.65,30.88Zm-4.91,12,.15-1.38a2.52,2.52,0,0,1,2-2.2l3.67-.73a2.9,2.9,0,0,0,2.28-2.3,3,3,0,0,0,2.09,0,2.92,2.92,0,0,0,2.29,2.3l3.66.73a2.51,2.51,0,0,1,2,2.2l.15,1.38Z"></path><path class="cls-1" d="M16.23,23H35.88a1.24,1.24,0,1,0,0-2.48H16.23a1.24,1.24,0,0,0,0,2.48Z"></path><path class="cls-1" d="M16.23,29.64H35.88a1.24,1.24,0,0,0,0-2.48H16.23a1.24,1.24,0,1,0,0,2.48Z"></path><path class="cls-1" d="M16.23,36.24H35.88a1.24,1.24,0,1,0,0-2.47H16.23a1.24,1.24,0,1,0,0,2.47Z"></path><path class="cls-1" d="M26.35,40.37H16.23a1.24,1.24,0,1,0,0,2.48H26.35a1.24,1.24,0,0,0,0-2.48Z"></path><path class="cls-1" d="M31.6,40.37h0a1.24,1.24,0,1,0,1.25,1.24A1.24,1.24,0,0,0,31.59,40.37Z"></path></svg>