<svg xmlns="http://www.w3.org/2000/svg" id="Layer_1" data-name="Layer 1" width="80" height="80" viewBox="0 0 80 80"><defs><style>.cls-1{fill:#61c1d1;}</style></defs><path class="cls-1" d="M17.21,63.82a7.27,7.27,0,0,0,7.25,7.26H61.75A7.26,7.26,0,0,0,69,63.82V59.68a3.11,3.11,0,0,0-3.1-3.11h-1V16.18a7.26,7.26,0,0,0-7.25-7.26H18.25A7.26,7.26,0,0,0,11,16.18v4.14a3.11,3.11,0,0,0,3.1,3.11h3.11ZM65.9,58.65a1,1,0,0,1,1,1v4.14A5.18,5.18,0,0,1,61.75,69H30.56a7.21,7.21,0,0,0,2.19-5.18V59.68a1,1,0,0,1,1-1ZM14.1,21.35a1,1,0,0,1-1-1V16.18A5.18,5.18,0,0,1,18.25,11H57.61a5.18,5.18,0,0,1,5.18,5.18V56.57h-29a3.11,3.11,0,0,0-3.1,3.11v4.14A5.19,5.19,0,0,1,25.5,69h-1a5.19,5.19,0,0,1-5.18-5.18V16.18a1,1,0,1,0-2.07,0v5.17Z"></path><path class="cls-1" d="M38.84,23.55a1,1,0,0,0,1.46,0l.74-.73.73.73a1,1,0,0,0,1.75-.46,1,1,0,0,0-.29-1l-.73-.74.73-.73a1,1,0,0,0,.29-1,1.06,1.06,0,0,0-.74-.74,1,1,0,0,0-1,.29l-.73.73-.74-.73a1,1,0,0,0-1.74.45,1,1,0,0,0,.28,1l.73.73-.73.74A1,1,0,0,0,38.84,23.55Z"></path><path class="cls-1" d="M43.23,48.16a1,1,0,0,0-1.46,0l-.73.73-.74-.73a1,1,0,0,0-1.74.46,1,1,0,0,0,.28,1l.73.73-.73.73a1,1,0,0,0,.46,1.75,1.06,1.06,0,0,0,1-.28l.74-.74.73.74a1,1,0,0,0,1.46-1.47l-.73-.73.73-.73A1,1,0,0,0,43.23,48.16Z"></path><path class="cls-1" d="M28.71,26.64h1v1a1,1,0,1,0,2.08,0v-1h1a1,1,0,1,0,0-2.07h-1v-1a1,1,0,1,0-2.08,0v1h-1a1,1,0,1,0,0,2.07Z"></path><path class="cls-1" d="M53.36,45.08h-1V44a1,1,0,1,0-2.07,0v1h-1a1,1,0,1,0,0,2.07h1v1a1,1,0,1,0,2.07,0v-1h1a1,1,0,1,0,0-2.07Z"></path><path class="cls-1" d="M24.34,38.05a1,1,0,0,0,1.46,0l.73-.73.74.73A1,1,0,0,0,29,37.6a1,1,0,0,0-.28-1L28,35.86l.73-.74a1,1,0,0,0,.28-1,1,1,0,0,0-.74-.74,1,1,0,0,0-1,.28l-.74.73-.73-.73a1,1,0,0,0-1.75.46,1,1,0,0,0,.29,1l.73.74-.73.73A1,1,0,0,0,24.34,38.05Z"></path><path class="cls-1" d="M53.34,33.66a1,1,0,0,0,0,1.46l.73.74-.73.73a1,1,0,0,0-.28,1,1,1,0,0,0,.74.74,1.06,1.06,0,0,0,1-.29l.73-.73.73.73A1,1,0,0,0,58,37.6a1.07,1.07,0,0,0-.28-1L57,35.86l.74-.74a1.06,1.06,0,0,0,.28-1,1,1,0,0,0-1.75-.46l-.73.73-.73-.73A1.05,1.05,0,0,0,53.34,33.66Z"></path><path class="cls-1" d="M32.85,45.08h-1V44a1,1,0,0,0-2.08,0v1h-1a1,1,0,1,0,0,2.07h1v1a1,1,0,1,0,2.08,0v-1h1a1,1,0,1,0,0-2.07Z"></path><path class="cls-1" d="M49.22,26.64h1v1a1,1,0,1,0,2.07,0v-1h1a1,1,0,1,0,0-2.07h-1v-1a1,1,0,1,0-2.07,0v1h-1a1,1,0,1,0,0,2.07Z"></path><path class="cls-1" d="M35.19,36.94H36v.8a2.43,2.43,0,0,1-.46,0,1.22,1.22,0,0,1-1.29-1.36,1.24,1.24,0,0,1,1.36-1.35,2.06,2.06,0,0,1,1,.25l.24-.83a2.74,2.74,0,0,0-1.23-.28,2.17,2.17,0,0,0-2.33,2.23,2.11,2.11,0,0,0,2.22,2.19,4,4,0,0,0,1.41-.28V36.11H35.19Zm0,0"></path><path class="cls-1" d="M39.11,34.22a7,7,0,0,0-1.29.12v4.21a8.57,8.57,0,0,0,1.13.07,2.25,2.25,0,0,0,2.5-2.29,2.1,2.1,0,0,0-2.34-2.11Zm1.39,2.12a1.29,1.29,0,0,1-1.45,1.44h-.29V35.07l.37,0a1.24,1.24,0,0,1,1.37,1.29Zm0,0"></path><path class="cls-1" d="M43.44,34.22a6.64,6.64,0,0,0-1.18.11v4.26h.93V37.05h.19a1.54,1.54,0,0,0,1.71-1.48c0-.93-.81-1.36-1.65-1.36Zm.72,1.38c0,.51-.42.62-.77.62h-.2V35.06h.26c.47,0,.71.19.71.55Zm0,0"></path><path class="cls-1" d="M48.86,38.27a8.74,8.74,0,0,1-.28-1,1.44,1.44,0,0,0-.36-.73,1.23,1.23,0,0,0,.53-1c0-.94-.86-1.28-1.65-1.28a5.83,5.83,0,0,0-1.18.12v4.25h.93V36.9h.26c.31,0,.47.1.57.59a4.27,4.27,0,0,0,.35,1.1h1Zm-1-2.71c0,.33-.25.52-.67.52h-.3v-1l.28,0c.69,0,.69.39.69.52Zm0,0"></path></svg>