<svg xmlns="http://www.w3.org/2000/svg" id="Layer_1" data-name="Layer 1" width="80" height="80" viewBox="0 0 80 80"><defs><style>.cls-1{fill:#61c1d1;}</style></defs><path class="cls-1" d="M70.79,8.31H20.68a3.46,3.46,0,0,0-3.46,3.46V17h-8a3.47,3.47,0,0,0-3.46,3.46V65a6.75,6.75,0,0,0,6.69,6.73H48a1,1,0,1,0,0-2H17.28A6.69,6.69,0,0,0,19.23,65V41.49a1,1,0,0,0-2,0V65a4.73,4.73,0,0,1-4.7,4.72h0A4.73,4.73,0,0,1,7.76,65V20.47A1.45,1.45,0,0,1,9.21,19h8V37.75a1,1,0,0,0,2,0v-26a1.45,1.45,0,0,1,1.45-1.45H70.79a1.45,1.45,0,0,1,1.45,1.45V65a4.73,4.73,0,0,1-4.73,4.72H51.73a1,1,0,1,0,0,2H67.51A6.75,6.75,0,0,0,74.25,65V11.77a3.47,3.47,0,0,0-3.46-3.46Zm0,0"></path><path class="cls-1" d="M27.74,48.34H41.5A2.38,2.38,0,0,0,43.87,46V32.21a2.38,2.38,0,0,0-2.37-2.38H27.74a2.39,2.39,0,0,0-2.38,2.38V46a2.38,2.38,0,0,0,2.38,2.37Zm-.37-16.13a.36.36,0,0,1,.37-.37H41.5a.36.36,0,0,1,.36.37V46a.36.36,0,0,1-.36.36H27.74a.36.36,0,0,1-.37-.36Zm0,0"></path><path class="cls-1" d="M47.52,31.84H66.14a1,1,0,0,0,0-2H47.52a1,1,0,1,0,0,2Zm0,0"></path><path class="cls-1" d="M47.52,40.09H66.14a1,1,0,0,0,0-2H47.52a1,1,0,1,0,0,2Zm0,0"></path><path class="cls-1" d="M47.52,48.34H66.14a1,1,0,0,0,0-2H47.52a1,1,0,1,0,0,2Zm0,0"></path><path class="cls-1" d="M26.36,56.59H66.14a1,1,0,0,0,0-2H26.36a1,1,0,0,0,0,2Zm0,0"></path><path class="cls-1" d="M26.36,64.84H66.14a1,1,0,1,0,0-2H26.36a1,1,0,0,0,0,2Zm0,0"></path><path class="cls-1" d="M25.39,24.7V14.1a.53.53,0,0,1,.31-.5,1.6,1.6,0,0,1,.75-.17,1.62,1.62,0,0,1,.9.21,2.72,2.72,0,0,1,.68.92l3.16,6.09V14.08a.52.52,0,0,1,.31-.49,1.54,1.54,0,0,1,.75-.16,1.6,1.6,0,0,1,.75.16.52.52,0,0,1,.31.49V24.7a.55.55,0,0,1-.32.49,1.47,1.47,0,0,1-.74.18A1.27,1.27,0,0,1,31,24.7l-3.51-6.57V24.7a.55.55,0,0,1-.32.49,1.63,1.63,0,0,1-1.49,0,.54.54,0,0,1-.31-.49Zm0,0"></path><path class="cls-1" d="M35.27,24.7V14.1a.55.55,0,0,1,.28-.49,1.15,1.15,0,0,1,.65-.18H42a.53.53,0,0,1,.49.28,1.11,1.11,0,0,1,.18.63,1.2,1.2,0,0,1-.18.67.56.56,0,0,1-.49.28H37.39v3.27h2.49a.57.57,0,0,1,.49.25,1,1,0,0,1,.18.6,1,1,0,0,1-.18.56.55.55,0,0,1-.49.25H37.39v3.29H42a.56.56,0,0,1,.49.28,1.16,1.16,0,0,1,.18.66,1.14,1.14,0,0,1-.18.64.53.53,0,0,1-.49.28H36.2a1.15,1.15,0,0,1-.65-.18.55.55,0,0,1-.28-.49Zm0,0"></path><path class="cls-1" d="M43.75,14.28a.73.73,0,0,1,.44-.6,1.79,1.79,0,0,1,.91-.25c.4,0,.63.14.71.42l2.58,8.86L49.78,17c.09-.39.44-.59,1-.59s.93.2,1,.59l1.39,5.69,2.58-8.86c.08-.28.31-.42.7-.42a1.82,1.82,0,0,1,.92.25.73.73,0,0,1,.44.6.63.63,0,0,1,0,.19L54.61,24.75c-.16.48-.63.72-1.39.72a2,2,0,0,1-.88-.19.79.79,0,0,1-.47-.53l-1-4.41-1.06,4.41a.81.81,0,0,1-.47.53,2,2,0,0,1-.89.19,2,2,0,0,1-.89-.19.82.82,0,0,1-.49-.53L43.78,14.47a.63.63,0,0,1,0-.19Zm0,0"></path><path class="cls-1" d="M58.42,23.49a1.28,1.28,0,0,1,.28-.76.82.82,0,0,1,.65-.38.87.87,0,0,1,.48.2c.18.14.35.29.52.45a2.66,2.66,0,0,0,1.78.65,2.24,2.24,0,0,0,1.3-.36A1.18,1.18,0,0,0,64,22.23a1.41,1.41,0,0,0-.28-.87,2.24,2.24,0,0,0-.75-.64c-.31-.17-.65-.33-1-.49s-.75-.33-1.12-.53a7,7,0,0,1-1-.66,2.67,2.67,0,0,1-.75-1,3.27,3.27,0,0,1-.29-1.4,3.37,3.37,0,0,1,.35-1.55,2.71,2.71,0,0,1,.94-1,4.43,4.43,0,0,1,1.26-.55,5.47,5.47,0,0,1,1.42-.17,7.28,7.28,0,0,1,.9.06,6.71,6.71,0,0,1,1,.19,2.08,2.08,0,0,1,.87.42.86.86,0,0,1,.33.67,1.49,1.49,0,0,1-.22.75.7.7,0,0,1-.62.39,3,3,0,0,1-.81-.31,3.28,3.28,0,0,0-1.45-.31,2.38,2.38,0,0,0-1.36.33,1.09,1.09,0,0,0-.09,1.75,2.8,2.8,0,0,0,1,.57c.38.15.8.34,1.26.56a8.91,8.91,0,0,1,1.25.73,3.13,3.13,0,0,1,1,1.13A3.72,3.72,0,0,1,66.08,22,3.23,3.23,0,0,1,65,24.61a4.25,4.25,0,0,1-2.82.91,5.32,5.32,0,0,1-2.66-.64c-.74-.43-1.11-.89-1.11-1.39Zm0,0"></path></svg>