<svg xmlns="http://www.w3.org/2000/svg" id="Layer_1" data-name="Layer 1" width="80" height="80" viewBox="0 0 80 80"><defs><style>.cls-1{fill:#80c680;}</style></defs><path class="cls-1" d="M60.5,60.5a1.26,1.26,0,0,0,0,1.78,1.26,1.26,0,0,0,1.78-1.78A1.26,1.26,0,0,0,60.5,60.5Z"></path><path class="cls-1" d="M19.5,19.5a1.26,1.26,0,0,0,0-1.78,1.26,1.26,0,0,0-1.78,1.78A1.26,1.26,0,0,0,19.5,19.5Z"></path><path class="cls-1" d="M61.19,39.27a40.9,40.9,0,0,0-6.1-6.53c-5-4.32-10.23-6.61-15.09-6.61s-10.08,2.29-15.09,6.61a40.9,40.9,0,0,0-6.1,6.53,1.23,1.23,0,0,0,0,1.46,40.9,40.9,0,0,0,6.1,6.53c5,4.32,10.23,6.61,15.09,6.61s10.08-2.29,15.09-6.61a40.9,40.9,0,0,0,6.1-6.53A1.23,1.23,0,0,0,61.19,39.27ZM40,51.35c-8.84,0-16.49-8.73-18.58-11.35C23.51,37.38,31.14,28.65,40,28.65S56.49,37.38,58.58,40C56.49,42.62,48.86,51.35,40,51.35Z"></path><path class="cls-1" d="M40,31.18A8.82,8.82,0,1,0,48.82,40,8.82,8.82,0,0,0,40,31.18ZM40,46.3A6.3,6.3,0,1,1,46.3,40,6.3,6.3,0,0,1,40,46.3Z"></path><path class="cls-1" d="M40,36.22A3.78,3.78,0,1,0,43.78,40,3.78,3.78,0,0,0,40,36.22Zm0,5A1.26,1.26,0,1,1,41.26,40,1.25,1.25,0,0,1,40,41.26Z"></path><path class="cls-1" d="M41.26,22.35v-5a1.26,1.26,0,1,0-2.52,0v5a1.26,1.26,0,1,0,2.52,0Z"></path><path class="cls-1" d="M41.26,62.69v-5a1.26,1.26,0,1,0-2.52,0v5a1.26,1.26,0,0,0,2.52,0Z"></path><path class="cls-1" d="M27.52,28.78a1.23,1.23,0,0,0,.89-.37,1.26,1.26,0,0,0,0-1.78l-3.56-3.57a1.27,1.27,0,1,0-1.79,1.79l3.57,3.56A1.25,1.25,0,0,0,27.52,28.78Z"></path><path class="cls-1" d="M53.37,51.59a1.26,1.26,0,0,0-1.78,1.78l3.56,3.57a1.27,1.27,0,0,0,1.79,0,1.27,1.27,0,0,0,0-1.79Z"></path><path class="cls-1" d="M24.85,56.94l3.56-3.57a1.26,1.26,0,0,0-1.78-1.78l-3.57,3.56a1.27,1.27,0,0,0,0,1.79,1.27,1.27,0,0,0,1.79,0Z"></path><path class="cls-1" d="M53.37,28.41l3.57-3.56a1.27,1.27,0,1,0-1.79-1.79l-3.56,3.57a1.26,1.26,0,0,0,0,1.78,1.23,1.23,0,0,0,.89.37A1.25,1.25,0,0,0,53.37,28.41Z"></path><path class="cls-1" d="M63,17a31.53,31.53,0,0,0-39.47-4.14A1.26,1.26,0,0,0,25,14.94a29,29,0,0,1,44.8,24.3,29.34,29.34,0,0,1-.91,7.25,1.26,1.26,0,0,0,.9,1.54,1.17,1.17,0,0,0,.32,0,1.27,1.27,0,0,0,1.22-1A31.59,31.59,0,0,0,63,17Z"></path><path class="cls-1" d="M68,51.46a1.26,1.26,0,0,0-1.67.62,30.73,30.73,0,0,1-2.06,3.73,1.26,1.26,0,0,0,.37,1.75,1.31,1.31,0,0,0,.68.2,1.25,1.25,0,0,0,1.06-.57,32.69,32.69,0,0,0,2.24-4.06A1.26,1.26,0,0,0,68,51.46Z"></path><path class="cls-1" d="M55.05,65.06a29,29,0,0,1-44.8-24.3,29.34,29.34,0,0,1,.91-7.25,1.26,1.26,0,1,0-2.44-.63,31.53,31.53,0,0,0,47.71,34.3,1.26,1.26,0,0,0-1.38-2.12Z"></path><path class="cls-1" d="M12,28.54a1.23,1.23,0,0,0,.53.11,1.25,1.25,0,0,0,1.14-.73,30.73,30.73,0,0,1,2.06-3.73,1.26,1.26,0,1,0-2.11-1.38,32.69,32.69,0,0,0-2.24,4.06A1.26,1.26,0,0,0,12,28.54Z"></path></svg>