<svg xmlns="http://www.w3.org/2000/svg" id="Layer_1" data-name="Layer 1" width="80" height="80" viewBox="0 0 80 80"><defs><style>.cls-1{fill:#e57070;}</style></defs><path class="cls-1" d="M17.19,30.47h17a1.25,1.25,0,0,0,1.26-1.25v-10a1.26,1.26,0,0,0-1.26-1.26h-17a1.27,1.27,0,0,0-1.26,1.26v10a1.26,1.26,0,0,0,1.26,1.25Zm1.25-10H33V28H18.44Zm0,0"></path><path class="cls-1" d="M41.13,30.47H51.28a1.26,1.26,0,0,0,0-2.51H41.13a1.26,1.26,0,1,0,0,2.51Zm0,0"></path><path class="cls-1" d="M34.25,38A1.25,1.25,0,0,0,33,39.24a1.27,1.27,0,0,0,.36.89,1.26,1.26,0,0,0,1.78,0,1.27,1.27,0,0,0,.36-.89A1.25,1.25,0,0,0,34.25,38Zm0,0"></path><path class="cls-1" d="M17.19,40.5H29.11a1.26,1.26,0,1,0,0-2.51H17.19a1.26,1.26,0,1,0,0,2.51Zm0,0"></path><path class="cls-1" d="M34.25,58H22.7a1.26,1.26,0,0,0,0,2.51H34.25a1.26,1.26,0,0,0,0-2.51Zm0,0"></path><path class="cls-1" d="M17.33,58a1.26,1.26,0,0,0-.88.37,1.28,1.28,0,0,0-.37.89,1.26,1.26,0,0,0,.37.88,1.22,1.22,0,0,0,.88.37,1.24,1.24,0,0,0,.89-.37,1.26,1.26,0,0,0,.37-.88A1.26,1.26,0,0,0,17.33,58Zm0,0"></path><path class="cls-1" d="M17.19,50.52h17a1.25,1.25,0,1,0,0-2.5h-17a1.25,1.25,0,1,0,0,2.5Zm0,0"></path><path class="cls-1" d="M71.4,40.54,60.56,35.07V22.22a1.3,1.3,0,0,0-.37-.89l-13-13a1.26,1.26,0,0,0-.88-.37H13.18a5.27,5.27,0,0,0-5.27,5.27V66.82a5.27,5.27,0,0,0,5.27,5.27H55.43a1.2,1.2,0,0,0,.59-.15s3.89-2.1,7.74-4.36c4.33-2.53,8.33-5.71,8.33-11.85V41.66a1.27,1.27,0,0,0-.69-1.12ZM47.52,12.2,56.27,21h-6a2.77,2.77,0,0,1-2.76-2.76ZM10.42,66.82V13.18a2.77,2.77,0,0,1,2.76-2.76H45v7.51H41.13a1.26,1.26,0,1,0,0,2.51h4.39a5.26,5.26,0,0,0,4.76,3h7.77V33.8l-2.06-1a1.43,1.43,0,0,0-.46-.13h-.12a1.25,1.25,0,0,0-.48.1l-.08,0-15.4,7.78a1.27,1.27,0,0,0-.69,1.12V55.73c0,6.14,4,9.32,8.32,11.85,1.2.7,2.4,1.39,3.49,2H13.18a2.77,2.77,0,0,1-2.76-2.76ZM69.58,55.73c0,4.62-2.71,7.13-7.08,9.69-2.93,1.71-5.86,3.32-7.08,4-1.21-.67-4.14-2.28-7.07-4-4.37-2.56-7.08-5.07-7.08-9.69V42.43l14.15-7.14,14.16,7.14Zm0,0"></path><path class="cls-1" d="M54.86,38.38l-10.4,5.25a1.24,1.24,0,0,0-.68,1.12v11c0,3.45,2,5.31,5.84,7.53,2,1.14,3.9,2.23,5.2,2.95a1.22,1.22,0,0,0,1.21,0c1.3-.72,3.25-1.81,5.2-2.95C65,61,67.07,59.18,67.07,55.73v-11a1.23,1.23,0,0,0-.69-1.12L56,38.38a1.25,1.25,0,0,0-1.13,0Zm9.71,7.14V55.73c0,1.81-.69,3.07-4.6,5.36-1.65,1-3.3,1.9-4.55,2.59-1.24-.69-2.89-1.62-4.54-2.59-3.91-2.29-4.6-3.55-4.6-5.36V45.52l9.15-4.62Zm0,0"></path><path class="cls-1" d="M52.34,50.81a1.26,1.26,0,0,0-1.78,1.78l2.57,2.57a1.28,1.28,0,0,0,1.78,0l5.37-5.38A1.25,1.25,0,0,0,58.51,48L54,52.5Zm0,0"></path></svg>