<svg xmlns="http://www.w3.org/2000/svg" id="Layer_1" data-name="Layer 1" width="80" height="80" viewBox="0 0 80 80"><defs><style>.cls-1{fill:#80c680;}</style></defs><path class="cls-1" d="M67.06,59.85l-46.76,0a5.14,5.14,0,0,0-2.64.61l-7.57,3.38a1.35,1.35,0,0,0-.83,1.25,1.4,1.4,0,0,0,.82,1.26l7.57,3.38a5.05,5.05,0,0,0,2.46.57H38.44a.9.9,0,0,0,0-1.8H21.22V66H61v2.52H42.91a.9.9,0,0,0,0,1.8H67.06a3.68,3.68,0,0,0,3.68-3.67V63.53a3.68,3.68,0,0,0-3.68-3.68Zm-52.57,4v2.5l-2.8-1.25Zm1.8,3.31V63s2.87-1.26,3.13-1.32v6.75c-.26-.06-2.47-1-3.13-1.32Zm4.93-3V61.65H61v2.52Zm47.72,2.45a1.88,1.88,0,0,1-1.88,1.87H62.82V61.65h4.24a1.88,1.88,0,0,1,1.88,1.88Zm0,0"></path><path class="cls-1" d="M10.81,56.88h27.5a.91.91,0,0,0,0-1.81H11.06V18.33h3.6v30.1a1.49,1.49,0,0,0,1.48,1.49H53.49a1.46,1.46,0,0,0,1.37-.85,1.4,1.4,0,0,0-.38-1.54L25.21,18.33H58.34V46.88a1.53,1.53,0,0,0,1.52,1.53h4a3.33,3.33,0,1,1,0,6.66H42.44a.9.9,0,0,0,0,1.8H63.83A5.14,5.14,0,0,0,69,51.74V18a5.15,5.15,0,0,0-5.15-5.14h-4a1.52,1.52,0,0,0-1.52,1.52v2.17H23.41l-6.36-6.35a1.39,1.39,0,0,0-1.55-.37,1.44,1.44,0,0,0-.84,1.36v5.36H10.81a1.54,1.54,0,0,0-1.55,1.54V55.33a1.55,1.55,0,0,0,1.55,1.55ZM60.14,14.64h3.69A3.35,3.35,0,0,1,67.18,18V47.84a5.13,5.13,0,0,0-3.35-1.23H60.14Zm-43.68-2.5,36.05,36H44.79V46.85a.9.9,0,0,0-1.8,0v1.26H39.13V45.66a.9.9,0,1,0-1.8,0v2.45H33.46V46.85a.9.9,0,0,0-1.8,0v1.26H27.8V45.66a.91.91,0,0,0-1.81,0v2.45H22.13V46.85a.9.9,0,0,0-1.8,0v1.26H16.46Zm0,0"></path><path class="cls-1" d="M24.21,41.56h10a1.29,1.29,0,0,0,1.35-.65c.26-.64-.2-1.09-.54-1.43l-9.87-9.86c-.34-.33-.8-.79-1.44-.53A1.29,1.29,0,0,0,23,30.43v10a1.09,1.09,0,0,0,1.17,1.17Zm.63-9.67,7.88,7.87H24.84Zm0,0"></path></svg>