<svg xmlns="http://www.w3.org/2000/svg" id="Layer_1" data-name="Layer 1" width="80" height="80" viewBox="0 0 80 80"><defs><style>.cls-1{fill:#e57070;}</style></defs><path class="cls-1" d="M46.55,60.46H41.42a1.32,1.32,0,0,0,0,2.64h5.13a1.44,1.44,0,1,1,0,2.88H32.74a6.93,6.93,0,0,1-5.35-2.52l-3.31-4A9.57,9.57,0,0,0,17,56V48.23h4.87a9.16,9.16,0,0,1,6.4,2.58l7.13,6.88a1.31,1.31,0,0,1,.05,1.82,1.3,1.3,0,0,1-1.83.07L28,54.45a1.32,1.32,0,0,0-1.78,1.95l5.59,5.13a3.91,3.91,0,0,0,2.67,1,3.94,3.94,0,0,0,2.74-6.78l-7.13-6.88a11.79,11.79,0,0,0-8.24-3.33H16.71a3.26,3.26,0,0,0-3-2H7.47A1.32,1.32,0,0,0,6.15,44.9v9.67a1.32,1.32,0,1,0,2.64,0V46.22h4.9a.64.64,0,0,1,.64.63v10.6a.64.64,0,0,1-.64.63H12.32a1.33,1.33,0,0,0,0,2.65h1.37a3.27,3.27,0,0,0,3-2.06,7,7,0,0,1,5.32,2.52l3.3,4a9.57,9.57,0,0,0,7.39,3.47H46.55a4.08,4.08,0,1,0,0-8.16Z"></path><path class="cls-1" d="M72.53,23.59a1.33,1.33,0,0,0-1.32,1.33v8.86h-4.9a.64.64,0,0,1-.64-.63V22.55a.64.64,0,0,1,.64-.63h1.27a1.33,1.33,0,0,0,0-2.65H66.31a3.27,3.27,0,0,0-3,2.06A7,7,0,0,1,58,18.81l-3.3-4a9.57,9.57,0,0,0-7.39-3.47H33.45a4.08,4.08,0,0,0,0,8.16h5.64a1.32,1.32,0,1,0,0-2.64H33.45a1.44,1.44,0,1,1,0-2.88H47.26a6.93,6.93,0,0,1,5.35,2.52l3.31,4A9.57,9.57,0,0,0,63,24v7.81H58.16a9.16,9.16,0,0,1-6.4-2.58l-7.13-6.88a1.31,1.31,0,0,1-.05-1.82,1.3,1.3,0,0,1,1.83-.07L52,25.55a1.32,1.32,0,0,0,1.78-1.95L48.2,18.47a3.94,3.94,0,0,0-5.41,5.74l7.13,6.88a11.79,11.79,0,0,0,8.24,3.33h5.12a3.29,3.29,0,0,0,3,2h6.22a1.32,1.32,0,0,0,1.32-1.32V24.92A1.33,1.33,0,0,0,72.53,23.59Z"></path><path class="cls-1" d="M47.09,55.69a1.32,1.32,0,0,0-.68,1.74,1.3,1.3,0,0,0,1.21.79,1.26,1.26,0,0,0,.53-.11h0a1.32,1.32,0,1,0-1.09-2.41Z"></path><path class="cls-1" d="M50.27,53.84A1.33,1.33,0,0,0,50,55.69a1.3,1.3,0,0,0,1.07.54,1.34,1.34,0,0,0,.78-.25h0a1.31,1.31,0,0,0,.27-1.85A1.33,1.33,0,0,0,50.27,53.84Z"></path><path class="cls-1" d="M43.58,56.81a1.32,1.32,0,0,0,.26,2.62l.25,0h0a1.32,1.32,0,0,0-.54-2.59Z"></path><path class="cls-1" d="M54.89,51.25a1.33,1.33,0,0,0-1.87.09l0,0a1.32,1.32,0,0,0,.14,1.86,1.3,1.3,0,0,0,.86.32,1.33,1.33,0,0,0,.9-2.31Zm-.74,1.11L54,52.23l.16.14Z"></path><path class="cls-1" d="M58.25,44.08a1.33,1.33,0,1,0,.88,1.67v0A1.33,1.33,0,0,0,58.25,44.08Z"></path><path class="cls-1" d="M59.94,37.21a1.32,1.32,0,1,0-1.3,1.6,1,1,0,0,0,.24,0A1.32,1.32,0,0,0,60,37.26Z"></path><path class="cls-1" d="M58.73,40.13a1.31,1.31,0,0,0-1.43,1.2v.05a1.32,1.32,0,0,0,1.24,1.4h.08a1.33,1.33,0,0,0,.11-2.65Z"></path><path class="cls-1" d="M57,47.84a1.32,1.32,0,0,0-1.8.5l0,0a1.31,1.31,0,0,0,.53,1.79,1.3,1.3,0,0,0,1.79-.52L56.31,49l1.15.66A1.34,1.34,0,0,0,57,47.84Z"></path><path class="cls-1" d="M31.79,24.58a1.42,1.42,0,0,0,.6-.14,1.33,1.33,0,1,0-1.19-2.37h0a1.32,1.32,0,0,0,.6,2.5Z"></path><path class="cls-1" d="M35.5,23.2a1.24,1.24,0,0,0,.33,0,1.32,1.32,0,0,0-.62-2.57h0a1.32,1.32,0,0,0,.32,2.6Z"></path><path class="cls-1" d="M28.44,26.73a1.31,1.31,0,0,0,.83-.29h0a1.32,1.32,0,1,0-1.66-2.06l.82,1-.82-1a1.32,1.32,0,0,0-.21,1.86A1.3,1.3,0,0,0,28.44,26.73Z"></path><path class="cls-1" d="M21.77,36.55a1.1,1.1,0,0,0,.31,0,1.33,1.33,0,1,0-1.27-1.68v0A1.32,1.32,0,0,0,21.77,36.55Z"></path><path class="cls-1" d="M21.47,40.52h0a1.33,1.33,0,1,0-1.32-1.41v0A1.33,1.33,0,0,0,21.47,40.52Z"></path><path class="cls-1" d="M22.89,32.73a1.37,1.37,0,0,0,.58.14,1.33,1.33,0,1,0-1.16-1.95l0,0A1.33,1.33,0,0,0,22.89,32.73Z"></path><path class="cls-1" d="M24.81,29.25A1.33,1.33,0,0,0,26.66,29a1.32,1.32,0,1,0-2-1.68l0,0A1.33,1.33,0,0,0,24.81,29.25Z"></path><path class="cls-1" d="M21.55,41.84a1.33,1.33,0,0,0-1.07,1.54h0a1.32,1.32,0,0,0,1.3,1.08,1,1,0,0,0,.24,0,1.33,1.33,0,0,0-.47-2.61Z"></path><path class="cls-1" d="M31.71,43.73l0,0,7.54,6a1.34,1.34,0,0,0,1.64,0l7.86-6.26.11-.1a6.14,6.14,0,1,0-8.79-8.58,6.14,6.14,0,1,0-8.38,8.95Zm3.93-8.21a3.51,3.51,0,0,1,3.23,2.16,1.32,1.32,0,0,0,1.22.82,1.34,1.34,0,0,0,1.22-.82,3.5,3.5,0,1,1,5.75,3.76l-7,5.55-6.7-5.3a3.49,3.49,0,0,1,2.25-6.17Z"></path><circle class="cls-1" cx="7.47" cy="59.41" r="1.32"></circle><circle class="cls-1" cx="72.53" cy="20.59" r="1.32"></circle></svg>