<svg xmlns="http://www.w3.org/2000/svg" id="Layer_1" data-name="Layer 1" width="80" height="80" viewBox="0 0 80 80"><defs><style>.cls-1{font-size:10px;fill:#231f20;font-family:MyriadPro-Regular, Myriad Pro;}.cls-2{letter-spacing:0em;}.cls-3{letter-spacing:0.01em;}.cls-4{letter-spacing:0em;}.cls-5{fill:#d2ae55;}</style></defs><text class="cls-1" transform="translate(12.12 -13.76)">Engageme<tspan class="cls-2" x="44.83" y="0">n</tspan><tspan x="50.34" y="0">t </tspan><tspan class="cls-3"><tspan x="12.6" y="12">M</tspan><tspan class="cls-4" x="20.7" y="12">odels</tspan></tspan></text><path class="cls-5" d="M58.31,24.73A1,1,0,0,0,59.19,23c-2.27-1.13-6.51-1.14-6.69-1.14a1,1,0,0,0,0,1.95C53.59,23.79,56.77,24,58.31,24.73Z"></path><path class="cls-5" d="M72.29,52.05H66.4A4.09,4.09,0,0,0,67,49.9V40.79a4.12,4.12,0,0,0-3-3.94l-3.51-1a1.11,1.11,0,0,1-.81-1.07V34a8.45,8.45,0,0,0,.94-.76A7.21,7.21,0,0,0,62.85,28V26.17l.39-.78a6.15,6.15,0,0,0,.65-2.76v-5a1,1,0,0,0-1-1H53.54a6.18,6.18,0,0,0-6.18,6.18v.06a5.25,5.25,0,0,0,.54,2.3l.5,1v1.59a7.63,7.63,0,0,0,3.12,6.15v.87a1.12,1.12,0,0,1-.8,1.07l-3.51,1a4.12,4.12,0,0,0-3,3.95v.83h-.06a2,2,0,0,0-2,2v8.4H37.24a4.08,4.08,0,0,0,.61-2.15V40.79a4.11,4.11,0,0,0-3-3.94l-3.52-1-.11,0a28,28,0,0,0,3.9-1.06,2,2,0,0,0,1.22-2.57,38.26,38.26,0,0,1-1.65-8.3c-.33-4.73-3.88-8.29-8.26-8.29s-7.93,3.56-8.27,8.29a37.62,37.62,0,0,1-1.64,8.3,2,2,0,0,0,.07,1.53,2,2,0,0,0,1.15,1,28,28,0,0,0,3.9,1.06l-.12,0-3.51,1a4.11,4.11,0,0,0-3,3.94V49.9a4.08,4.08,0,0,0,.61,2.15h-8a1,1,0,1,0,0,2H8.82v9.44a1,1,0,0,0,1.95,0V58.16h8.46v5.28a1,1,0,0,0,1.95,0V60.25H31.73v3.19a1,1,0,0,0,1.95,0V58.16H69.23v5.28a1,1,0,0,0,2,0V54h1.11a1,1,0,1,0,0-2ZM50.35,27.76V25.94a1.13,1.13,0,0,0-.1-.44l-.61-1.2a3.22,3.22,0,0,1-.33-1.43v-.06a4.24,4.24,0,0,1,4.23-4.23h8.4v4a4.31,4.31,0,0,1-.44,1.9l-.5,1a1.13,1.13,0,0,0-.1.44V28a5.26,5.26,0,0,1-5.44,5.27A5.44,5.44,0,0,1,50.35,27.76Zm7.59,8-.79.8a2.16,2.16,0,0,1-3,0l-.8-.8a2.92,2.92,0,0,0,.17-.88,6.86,6.86,0,0,0,1.93.34h.23a7.37,7.37,0,0,0,2.15-.33A3,3,0,0,0,57.94,35.78Zm-11.76,5a2.15,2.15,0,0,1,1.56-2.06l3.52-1a2.92,2.92,0,0,0,.84-.39l.63.63a4.09,4.09,0,0,0,5.79,0l.63-.63a2.92,2.92,0,0,0,.84.39l3.52,1a2.15,2.15,0,0,1,1.56,2.06V49.9a2.16,2.16,0,0,1-2.15,2.15H58.68V49.83h3.19a1,1,0,0,0,1-1V42.6a1,1,0,0,0-2,0v5.28H58.68V43.65a2,2,0,0,0-2-2H46.18v-.84ZM44.1,43.65a.07.07,0,0,1,.07-.07h12.5a.07.07,0,0,1,.06.07V52a.07.07,0,0,1-.06.07H44.17A.07.07,0,0,1,44.1,52ZM18.42,32.91l0,0v0A41,41,0,0,0,20.14,24a7.37,7.37,0,0,1,2-4.61,6,6,0,0,1,8.69,0,7.44,7.44,0,0,1,2,4.61,40.3,40.3,0,0,0,1.75,8.84s0,0,0,0l0,0a24.66,24.66,0,0,1-8,1.43A24.74,24.74,0,0,1,18.42,32.91Zm.81,23.3H10.77V54h8.46Zm12.5,2.09H21.18V44.69a1.11,1.11,0,0,1,1.11-1.11h8.33a1.11,1.11,0,0,1,1.11,1.11V58.3Zm-1.1-16.67H22.29a3.07,3.07,0,0,0-3.06,3.06v7.36h-.06A2.15,2.15,0,0,1,17,49.9V40.79a2.15,2.15,0,0,1,1.56-2.06l3.51-1A3,3,0,0,0,24,36.16a23.72,23.72,0,0,0,5,0,3,3,0,0,0,1.89,1.56l3.51,1A2.15,2.15,0,0,1,35.9,40.8v9.1a2.15,2.15,0,0,1-2.15,2.15h-.07V44.69A3.06,3.06,0,0,0,30.63,41.63Zm38.6,14.58H33.68V54H69.23v2.21Z"></path><circle class="cls-5" cx="50.4" cy="47.8" r="0.97"></circle></svg>