<svg xmlns="http://www.w3.org/2000/svg" width="80" height="80" viewBox="0 0 80 80" fill="none"><circle cx="40" cy="40" r="40" fill="#222222"></circle><path d="M49.3543 35.1127C48.3294 35.1117 47.4956 34.2779 47.4956 33.2534C47.4956 32.2287 48.3293 31.3946 49.3543 31.3946C50.3783 31.3946 51.212 32.2284 51.212 33.2534C51.212 34.278 50.378 35.1118 49.3543 35.1127ZM49.3543 31.9704C48.6481 31.9714 48.0724 32.5471 48.0714 33.2534C48.0724 33.9596 48.6481 34.5353 49.3543 34.5371C50.0596 34.535 50.6343 33.9593 50.6363 33.2534C50.6342 32.5471 50.0596 31.9714 49.3543 31.9704Z" stroke="#56A8F7"></path><path d="M34.8909 57.6593C34.7326 57.6593 34.603 57.5297 34.603 57.3714V48.3549C34.603 48.1966 34.7326 48.067 34.8909 48.067C35.0502 48.067 35.1787 48.1966 35.1787 48.3549V57.3714C35.1787 57.5294 35.0499 57.6593 34.8909 57.6593Z" stroke="#56A8F7"></path><path d="M30.1777 57.6593C30.0184 57.6593 29.8899 57.5298 29.8899 57.3714C29.8899 57.2131 30.0184 57.0836 30.1777 57.0836H45.9229L45.7522 52.3169C45.7484 52.2093 45.7464 52.1048 45.7464 52.005C45.7464 51.4369 45.8039 50.8989 45.9115 50.4486C46.0267 49.9795 46.1706 49.656 46.3663 49.4315C46.6696 49.0833 47.0188 48.8414 47.4334 48.6906C47.7874 48.5621 48.1983 48.5025 48.677 48.5063C49.0022 48.5063 49.3353 48.5282 49.6873 48.5522C50.021 48.5751 50.3665 48.5981 50.7283 48.6039C50.7667 48.6039 50.804 48.605 50.8407 48.605C51.8866 48.6022 52.5956 48.3555 53.0071 47.8507C53.3313 47.4535 53.4889 46.8576 53.4879 46.0277C53.4879 45.9002 53.4841 45.7628 53.4762 45.6072C53.4725 45.5304 53.4992 45.4568 53.5503 45.3999C53.602 45.3423 53.6729 45.3087 53.7497 45.306C53.909 45.2964 54.0434 45.4201 54.0509 45.5784C54.0595 45.7405 54.0636 45.8865 54.0636 46.0277C54.0626 46.4776 54.0232 46.8566 53.9426 47.1866C53.8439 47.5917 53.6836 47.9275 53.4543 48.2133C52.9351 48.8551 52.062 49.1803 50.8588 49.1803H50.8407C50.8013 49.1803 50.7612 49.1793 50.7197 49.1793C50.3321 49.1724 49.9751 49.1484 49.6296 49.1255C49.2928 49.1025 48.9744 49.0802 48.6835 49.0802H48.6766C47.8946 49.0871 47.3371 49.2087 46.7981 49.8115C46.7079 49.9095 46.5678 50.1703 46.4718 50.5818C46.3738 50.9896 46.3221 51.481 46.3221 52.004C46.3221 52.0979 46.3241 52.1959 46.3279 52.2956L46.5082 57.3608C46.5109 57.4385 46.4821 57.5153 46.4286 57.5708C46.3738 57.6263 46.2991 57.6592 46.2213 57.6592L30.1777 57.6593ZM29.9581 55.8503C29.8066 55.8503 29.6808 55.7324 29.6712 55.5806C29.6616 55.4223 29.7826 55.2852 29.9409 55.2756C30.1003 55.265 30.2363 55.388 30.2459 55.5453C30.2507 55.6221 30.2257 55.6961 30.174 55.7536C30.1232 55.8112 30.053 55.8458 29.9762 55.8506C29.9704 55.8503 29.9646 55.8503 29.9581 55.8503H29.9581ZM29.8398 53.9354C29.6884 53.9354 29.5626 53.8175 29.553 53.6657L29.0935 46.2113C29.0332 45.2412 28.8834 44.3297 28.659 43.5747C28.4575 42.8897 28.183 42.3264 27.9068 42.0289C27.193 41.2527 26.547 40.4196 25.9888 39.5533C25.4343 38.6935 24.9594 37.7916 24.5773 36.8735C24.1945 35.9544 23.9019 35.0101 23.7062 34.0659C23.5085 33.1133 23.4077 32.1527 23.4077 31.2094C23.4067 29.5638 23.7089 27.9738 24.3059 26.4828C24.9316 24.9215 25.872 23.4939 27.1018 22.2408C28.2302 21.0904 29.6013 20.1528 31.1787 19.4534C32.6745 18.7903 34.3115 18.3596 36.0444 18.1715H36.0465C36.2038 18.155 36.345 18.2702 36.3621 18.4268C36.3631 18.4364 36.3631 18.446 36.3631 18.4566C36.3642 18.6043 36.2549 18.7273 36.1078 18.7445H36.1068C36.103 18.7445 36.0993 18.7455 36.0962 18.7455C32.6584 19.1187 29.6109 20.5034 27.5134 22.6439C25.2057 24.9995 23.9844 27.9616 23.9835 31.2096C23.9824 34.8883 25.5262 38.5919 28.33 41.6385C28.6775 42.0185 28.9739 42.6144 29.2118 43.4108C29.4479 44.2072 29.6052 45.163 29.6675 46.1762L30.1281 53.6306C30.1377 53.7889 30.0167 53.926 29.8584 53.9356H29.8399L29.8398 53.9354ZM53.6023 43.9688C53.4508 43.9688 53.3251 43.8509 53.3155 43.6991C53.3059 43.5408 53.4258 43.4037 53.5841 43.3941C53.7445 43.3845 53.8795 43.5055 53.8901 43.6628C53.8949 43.7395 53.8699 43.8136 53.8192 43.8711C53.7685 43.9287 53.6982 43.9633 53.6215 43.9681C53.615 43.9688 53.6081 43.9688 53.6023 43.9688H53.6023ZM54.0293 42.1745C53.9371 42.1745 53.8528 42.1324 53.798 42.0573C53.7606 42.0073 53.7404 41.948 53.7404 41.8856C53.7414 41.7935 53.7836 41.7102 53.8576 41.6554C53.9371 41.5957 54.0265 41.546 54.1235 41.5066C54.2942 41.4384 54.4018 41.4182 54.5382 41.3925C54.5776 41.3857 54.6177 41.3781 54.6639 41.3685C55.2828 41.2438 55.7499 41.0865 56.0158 40.9148C56.2519 40.7555 56.2988 40.6547 56.3047 40.5129C56.3074 40.3727 56.2173 40.1568 56.0562 39.92C55.8739 39.6493 55.5967 39.332 55.3489 39.0565C55.2694 38.9681 55.1886 38.88 55.1032 38.7857C54.5755 38.2032 53.9768 37.5442 53.5105 36.79C53.0595 36.0501 53.0201 35.08 53.0163 33.9807C53.0163 33.7676 53.0184 33.551 53.0201 33.3214C53.0221 33.0843 53.0249 32.8396 53.0249 32.5901C53.0249 30.9466 52.9221 29.1684 52.1785 27.2985C51.3033 25.1022 49.7098 23.1945 47.3062 21.4646C45.2508 19.987 42.6824 19.0457 39.8759 18.7444C39.8001 18.7369 39.7309 18.6992 39.683 18.6389C39.634 18.5792 39.612 18.5045 39.6206 18.4278C39.637 18.2715 39.781 18.1554 39.9372 18.1725C41.3545 18.325 42.7274 18.6389 44.0189 19.1069C45.3488 19.5888 46.5674 20.2248 47.6421 20.9972C48.9518 21.9385 50.0552 22.9615 50.9198 24.0378C51.6847 24.9898 52.2881 26.0154 52.713 27.0852C53.4923 29.0447 53.5995 30.8886 53.6005 32.5901C53.6005 32.8454 53.5978 33.0918 53.5957 33.3316C53.5937 33.5581 53.592 33.772 53.592 33.9803C53.5882 34.9419 53.6351 35.911 53.9998 36.4874C54.4267 37.1809 55.0083 37.8232 55.5216 38.3882C55.9102 38.8173 56.2776 39.222 56.5339 39.5982C56.7028 39.8525 56.8766 40.1606 56.8804 40.5136C56.8862 40.8569 56.6837 41.1804 56.3266 41.4C55.9842 41.617 55.4928 41.7866 54.779 41.9326C54.7139 41.9459 54.6628 41.9555 54.6227 41.9634C54.5038 41.9853 54.4596 41.9932 54.3376 42.0422C54.2869 42.0624 54.2427 42.0864 54.2006 42.118C54.1502 42.1543 54.0909 42.1745 54.0292 42.1745L54.0293 42.1745ZM37.9911 18.6437C37.8318 18.6437 37.7033 18.5141 37.7033 18.3548C37.7033 18.1964 37.8328 18.0679 37.9911 18.0679H37.9932C38.1505 18.069 38.279 18.1975 38.279 18.3558C38.279 18.5141 38.1494 18.6436 37.9911 18.6436L37.9911 18.6437Z" stroke="#56A8F7"></path><path d="M56.7201 59.1296H33.0086C32.8502 59.1296 32.7207 59.0011 32.7207 58.8417C32.7207 58.6834 32.8502 58.5539 33.0086 58.5539H56.7201C56.8785 58.5539 57.008 58.6834 57.008 58.8417C57.0076 59.0011 56.8781 59.1296 56.7198 59.1296H56.7201Z" stroke="#56A8F7"></path><path d="M42.8352 60.713H26.4295C26.2701 60.713 26.1416 60.5835 26.1416 60.4252C26.1416 60.2658 26.2701 60.1373 26.4295 60.1373H42.8352C42.9945 60.1373 43.123 60.2658 43.123 60.4252C43.1234 60.5835 42.9949 60.713 42.8355 60.713H42.8352Z" stroke="#56A8F7"></path><path d="M24.7498 60.713H22.6985C22.5391 60.713 22.4106 60.5835 22.4106 60.4252C22.4106 60.2658 22.5391 60.1373 22.6985 60.1373H24.7498C24.9081 60.1373 25.0366 60.2658 25.0366 60.4252C25.037 60.5835 24.9081 60.713 24.7498 60.713Z" stroke="#56A8F7"></path><path d="M57.6539 60.6271H49.8792C49.7208 60.6271 49.5913 60.4986 49.5913 60.3392C49.5913 60.1809 49.7208 60.0524 49.8792 60.0524H57.6539C57.8133 60.0524 57.9418 60.1809 57.9418 60.3392C57.9418 60.4986 57.8133 60.6271 57.6539 60.6271Z" stroke="#56A8F7"></path><path d="M55.4213 34.9013C55.3206 34.9013 55.2284 34.8506 55.1756 34.7649C54.7264 34.025 54.6863 33.0569 54.6825 31.9583C54.6825 31.7445 54.6845 31.5276 54.6873 31.2973C54.6893 31.0602 54.6911 30.8148 54.6911 30.5643C54.6911 28.9208 54.5883 27.1426 53.8446 25.2716C52.9705 23.0764 51.3766 21.1686 48.9731 19.4398C46.4068 17.5927 43.0868 16.5757 39.6259 16.5757H39.6238C39.2427 16.5757 38.8582 16.5891 38.4799 16.6141C38.3189 16.6257 38.1845 16.5027 38.1739 16.3465C38.1691 16.2697 38.1941 16.1957 38.2438 16.1374C38.2945 16.0798 38.3648 16.0452 38.4416 16.0394C38.8291 16.0134 39.2273 16 39.6238 16C41.376 16.001 43.0982 16.2522 44.7438 16.7505C46.4315 17.26 47.9678 18.0074 49.309 18.9728C50.6188 19.9131 51.7211 20.936 52.5867 22.0123C53.3516 22.9643 53.9551 23.9899 54.38 25.0597C55.1592 27.0192 55.2664 28.8631 55.2664 30.5646C55.2664 30.8199 55.2644 31.0683 55.2627 31.3082C55.2599 31.5357 55.2579 31.7496 55.2579 31.9586C55.2551 32.9191 55.3021 33.8862 55.6656 34.4629C55.7061 34.5281 55.7184 34.6048 55.7013 34.6799C55.6831 34.7546 55.6379 34.819 55.5717 34.8594C55.5265 34.8868 55.4737 34.9012 55.421 34.9012L55.4213 34.9013Z" stroke="#56A8F7"></path><path d="M39.5877 38.2094C39.4293 38.2094 39.2998 38.0809 39.2998 37.9216V33.9129C39.2998 33.8372 39.3307 33.7632 39.3841 33.7094C39.4379 33.6556 39.5116 33.6251 39.5877 33.6251H43.3068C43.4651 33.6261 43.5936 33.7546 43.5936 33.9129C43.5936 34.0723 43.4641 34.2008 43.3058 34.2008H39.8755V37.9216C39.8755 38.081 39.746 38.2095 39.5877 38.2095L39.5877 38.2094ZM34.628 38.2094C34.4687 38.2094 34.3402 38.0809 34.3402 37.9216V34.2008H30.9099C30.7506 34.2008 30.6221 34.0723 30.6221 33.9129C30.6221 33.7546 30.7506 33.6251 30.9099 33.6251H34.628C34.7038 33.6251 34.7778 33.6559 34.8316 33.7094C34.8854 33.7632 34.9159 33.8368 34.9159 33.9129V37.9216C34.9159 38.0809 34.7863 38.2094 34.628 38.2094L34.628 38.2094ZM30.9099 29.4035C30.7506 29.4035 30.6221 29.275 30.6221 29.1156C30.6221 28.9573 30.7506 28.8278 30.9099 28.8278H34.3402V25.1086C34.3402 24.9493 34.4687 24.8208 34.6281 24.8208C34.7864 24.8208 34.9159 24.9493 34.9159 25.1086V29.1156C34.9159 29.1913 34.8851 29.2653 34.8316 29.3191C34.7778 29.3729 34.7041 29.4034 34.6281 29.4034L30.9099 29.4035ZM43.3057 29.4035H39.5876C39.5118 29.4035 39.4378 29.3726 39.384 29.3192C39.3302 29.2654 39.2997 29.1917 39.2997 29.1156V25.1086V25.1066C39.3007 24.9482 39.4293 24.8208 39.5876 24.8208C39.7459 24.8208 39.8754 24.9493 39.8754 25.1086V28.8278H43.3057C43.464 28.8278 43.5935 28.9573 43.5935 29.1156C43.5935 29.275 43.464 29.4035 43.3057 29.4035L43.3057 29.4035Z" stroke="#56A8F7"></path><path d="M38.037 34.2003C37.8776 34.2003 37.7491 34.0718 37.7491 33.9125V32.4136C37.7491 32.3378 37.78 32.2628 37.8327 32.2093C37.8865 32.1566 37.9612 32.1257 38.037 32.1257H39.4282C39.5865 32.1257 39.715 32.2542 39.715 32.4136C39.715 32.5719 39.5865 32.7014 39.4282 32.7014H38.3248V33.9125C38.3248 34.0718 38.1953 34.2003 38.0369 34.2003L38.037 34.2003ZM36.1793 34.2003C36.0199 34.2003 35.8914 34.0718 35.8914 33.9125V32.7014H34.7859C34.6276 32.7014 34.498 32.5719 34.498 32.4136C34.498 32.2542 34.6276 32.1257 34.7859 32.1257H36.1793C36.255 32.1257 36.329 32.1565 36.3828 32.2093C36.4356 32.2631 36.4664 32.3378 36.4664 32.4136V33.9114C36.4674 33.9114 36.4674 33.9124 36.4674 33.9124C36.4671 34.0718 36.3376 34.2003 36.1792 34.2003L36.1793 34.2003ZM39.4282 30.9044H38.037C37.9612 30.9044 37.8862 30.8736 37.8334 30.8201C37.7796 30.7674 37.7491 30.6927 37.7491 30.6166V29.116C37.7491 28.9577 37.8776 28.8282 38.037 28.8282C38.1953 28.8282 38.3248 28.9577 38.3248 29.116V30.3287H39.4282C39.5866 30.3287 39.7151 30.4583 39.7151 30.6166C39.7151 30.7759 39.5866 30.9044 39.4282 30.9044L39.4282 30.9044ZM36.1793 30.9044H34.7859C34.6276 30.9044 34.4981 30.7759 34.4981 30.6166C34.4981 30.4583 34.6276 30.3287 34.7859 30.3287H35.8914V29.116C35.8914 28.9577 36.0199 28.8282 36.1793 28.8282C36.3376 28.8282 36.4661 28.9577 36.4661 29.116V30.6166C36.4661 30.6923 36.4353 30.7673 36.3825 30.8201C36.329 30.8739 36.255 30.9044 36.1793 30.9044L36.1793 30.9044Z" stroke="#56A8F7"></path><path d="M37.9843 40.6342H36.2332C36.1554 40.6342 36.0835 40.6044 36.029 40.5496L30.6712 35.1928C30.5588 35.0804 30.5588 34.8974 30.6712 34.785C30.7795 34.6767 30.9696 34.6767 31.0779 34.785L36.3525 40.0585H37.8658L45.6522 32.2721L45.6515 30.7571L37.8654 22.9706H36.3504L28.564 30.7571V32.2272C28.564 32.3865 28.4355 32.515 28.2761 32.515C28.1178 32.515 27.9883 32.3865 27.9883 32.2272V30.6382C27.9883 30.5625 28.0191 30.4874 28.0726 30.4346L36.028 22.4793C36.0818 22.4255 36.1554 22.395 36.2315 22.395H37.9846C38.0604 22.395 38.1354 22.4258 38.1882 22.4793L46.1436 30.4346C46.1984 30.4884 46.2279 30.5614 46.2279 30.6382V32.3913C46.2279 32.4681 46.1981 32.54 46.1436 32.5949L38.1882 40.5503C38.1341 40.6044 38.0611 40.6342 37.9843 40.6342L37.9843 40.6342ZM29.5177 33.9197C29.4409 33.9197 29.3679 33.8899 29.3141 33.8354C29.2017 33.724 29.2017 33.5407 29.3131 33.4287C29.4224 33.3204 29.6116 33.3204 29.7209 33.4287C29.7747 33.4835 29.8052 33.5554 29.8052 33.6322C29.8052 33.709 29.7754 33.782 29.7209 33.8358C29.6664 33.8899 29.5944 33.9197 29.5177 33.9197L29.5177 33.9197Z" stroke="#56A8F7"></path></svg>