<svg xmlns="http://www.w3.org/2000/svg" width="33" height="49" viewBox="0 0 33 49" fill="none"><path d="M8.16667 49.0001C12.6747 49.0001 16.3333 45.3414 16.3333 40.8334V32.6667H8.16667C3.65867 32.6667 0 36.3254 0 40.8334C0 45.3414 3.65867 49.0001 8.16667 49.0001Z" fill="#0EC878"></path><path d="M0 24.4999C0 19.9919 3.65867 16.3333 8.16667 16.3333H16.3333V32.6666H8.16667C3.65867 32.6666 0 29.0079 0 24.4999Z" fill="#974FFF"></path><path d="M0 8.16667C0 3.65867 3.65867 0 8.16667 0H16.3333V16.3333H8.16667C3.65867 16.3333 0 12.6747 0 8.16667Z" fill="#F0441C"></path><path d="M16.334 0H24.5006C29.0086 0 32.6673 3.65867 32.6673 8.16667C32.6673 12.6747 29.0086 16.3333 24.5006 16.3333H16.334V0Z" fill="#FF6657"></path><path d="M32.6673 24.4999C32.6673 29.0079 29.0086 32.6666 24.5006 32.6666C19.9927 32.6666 16.334 29.0079 16.334 24.4999C16.334 19.9919 19.9927 16.3333 24.5006 16.3333C29.0086 16.3333 32.6673 19.9919 32.6673 24.4999Z" fill="#18B4FE"></path></svg>