<svg xmlns="http://www.w3.org/2000/svg" width="80" height="80" viewBox="0 0 80 80" fill="none"><circle cx="40" cy="40" r="40" fill="#222222"></circle><path d="M43.9998 17C43.7346 17.0001 43.4803 17.1054 43.2928 17.293L22.2928 38.293C22.1053 38.4805 22 38.7348 22 39C22 39.2652 22.1053 39.5195 22.2928 39.707L28.2928 45.707C28.4803 45.8945 28.7346 45.9998 28.9998 45.9998C29.265 45.9998 29.5193 45.8945 29.7068 45.707L56.7068 18.707C56.8466 18.5672 56.9418 18.389 56.9803 18.195C57.0189 18.0011 56.9991 17.8001 56.9234 17.6174C56.8477 17.4347 56.7196 17.2786 56.5552 17.1687C56.3908 17.0588 56.1975 17.0001 55.9998 17H43.9998ZM44.4139 19H53.5857L28.9998 43.5859L24.4139 39L44.4139 19ZM44.9998 36C44.7346 36.0001 44.4803 36.1054 44.2928 36.293L32.2928 48.293C32.1053 48.4805 32 48.7348 32 49C32 49.2652 32.1053 49.5195 32.2928 49.707L38.2928 55.707L44.2928 61.707C44.4803 61.8946 44.7346 62 44.9998 62H56.9998C57.1975 61.9999 57.3908 61.9412 57.5552 61.8313C57.7196 61.7214 57.8477 61.5653 57.9234 61.3826C57.9991 61.1999 58.0189 60.9989 57.9803 60.805C57.9418 60.611 57.8466 60.4328 57.7068 60.293L46.4139 49L57.7068 37.707C57.8466 37.5672 57.9418 37.389 57.9803 37.195C58.0189 37.0011 57.9991 36.8001 57.9234 36.6174C57.8477 36.4347 57.7196 36.2786 57.5552 36.1687C57.3908 36.0588 57.1975 36.0001 56.9998 36H44.9998ZM45.4139 38H54.5857L38.9998 53.5859L34.4139 49L45.4139 38ZM44.9998 50.4141L54.5857 60H45.4139L40.4139 55L44.9998 50.4141Z" fill="white"></path></svg>