<svg xmlns="http://www.w3.org/2000/svg" width="73.004" height="72.998" viewBox="0 0 73.004 72.998"><g id="fresher" transform="translate(0 -0.001)"><path id="Path_402" data-name="Path 402" d="M348.6,403.4H277.808A1.106,1.106,0,0,0,276.7,404.5v70.784a1.106,1.106,0,0,0,1.106,1.107h29.864a1.106,1.106,0,0,0,0-2.213H278.915V405.606H347.49v68.576H318.735a1.106,1.106,0,1,0,0,2.213H348.6a1.107,1.107,0,0,0,1.107-1.107V404.5A1.112,1.112,0,0,0,348.6,403.4Z" transform="translate(-276.702 -403.396)" fill="#1a171b"></path><path id="Path_403" data-name="Path 403" d="M321.317,408.912a1.093,1.093,0,0,0,.321-.785,1.077,1.077,0,0,0-.321-.776,1.142,1.142,0,0,0-1.56,0,1.087,1.087,0,0,0,0,1.56,1.066,1.066,0,0,0,.776.321A1.092,1.092,0,0,0,321.317,408.912Z" transform="translate(-254.45 -401.496)" fill="#1a171b"></path><path id="Path_404" data-name="Path 404" d="M317.638,408.136a1.106,1.106,0,1,0-1.106,1.106A1.1,1.1,0,0,0,317.638,408.136Z" transform="translate(-256.534 -401.504)" fill="#1a171b"></path><path id="Path_405" data-name="Path 405" d="M313.317,408.913a1.093,1.093,0,0,0,.321-.785,1.077,1.077,0,0,0-.321-.776,1.131,1.131,0,0,0-1.559,0,1.084,1.084,0,0,0,0,1.56,1.06,1.06,0,0,0,.774.321A1.092,1.092,0,0,0,313.317,408.913Z" transform="translate(-258.616 -401.497)" fill="#1a171b"></path><path id="Path_406" data-name="Path 406" d="M339.032,465.955a1.106,1.106,0,0,0,1.107-1.107V411.774a1.106,1.106,0,0,0-1.107-1.106H317.414a7.756,7.756,0,0,0-6.652,3.787,7.756,7.756,0,0,0-6.652-3.787H282.491a1.107,1.107,0,0,0-1.107,1.106v53.074a1.107,1.107,0,0,0,1.107,1.107H304.11a5.553,5.553,0,0,1,5.546,5.545,1.106,1.106,0,1,0,2.213,0,5.553,5.553,0,0,1,5.545-5.545Zm-29.375.126a7.738,7.738,0,0,0-5.546-2.337H283.6V412.881h20.513a5.554,5.554,0,0,1,5.546,5.546Zm2.211,0V418.427a5.553,5.553,0,0,1,5.545-5.546h20.513v50.863H317.414A7.727,7.727,0,0,0,311.869,466.081Z" transform="translate(-274.264 -399.609)" fill="#1a171b"></path><path id="Path_407" data-name="Path 407" d="M302.179,415.761H286.7a1.106,1.106,0,1,0,0,2.213h15.484a1.106,1.106,0,1,0,0-2.213Z" transform="translate(-272.074 -396.956)" fill="#1a171b"></path><path id="Path_408" data-name="Path 408" d="M298.769,420.758h-5.528a1.106,1.106,0,1,0,0,2.213h5.528a1.106,1.106,0,1,0,0-2.213Z" transform="translate(-268.665 -394.353)" fill="#1a171b"></path><path id="Path_409" data-name="Path 409" d="M286.7,422.97h4.421a1.106,1.106,0,1,0,0-2.213H286.7a1.106,1.106,0,1,0,0,2.213Z" transform="translate(-272.074 -394.354)" fill="#1a171b"></path><path id="Path_410" data-name="Path 410" d="M286.7,427.968h9.954a1.107,1.107,0,1,0,0-2.214H286.7a1.107,1.107,0,0,0,0,2.214Z" transform="translate(-272.074 -391.751)" fill="#1a171b"></path><path id="Path_411" data-name="Path 411" d="M298.769,430.751h-5.528a1.106,1.106,0,1,0,0,2.213h5.528a1.106,1.106,0,1,0,0-2.213Z" transform="translate(-268.665 -389.149)" fill="#1a171b"></path><path id="Path_412" data-name="Path 412" d="M286.7,432.963h4.421a1.106,1.106,0,1,0,0-2.213H286.7a1.106,1.106,0,1,0,0,2.213Z" transform="translate(-272.074 -389.149)" fill="#1a171b"></path><path id="Path_413" data-name="Path 413" d="M286.7,437.961h13.274a1.107,1.107,0,0,0,0-2.214H286.7a1.107,1.107,0,0,0,0,2.214Z" transform="translate(-272.074 -386.547)" fill="#1a171b"></path><path id="Path_414" data-name="Path 414" d="M302.179,440.745H286.7a1.107,1.107,0,0,0,0,2.214h15.484a1.107,1.107,0,0,0,0-2.214Z" transform="translate(-272.074 -383.944)" fill="#1a171b"></path><path id="Path_415" data-name="Path 415" d="M312.558,417.973h4.423a1.106,1.106,0,0,0,0-2.213h-4.423a1.106,1.106,0,1,0,0,2.213Z" transform="translate(-258.604 -396.956)" fill="#1a171b"></path><path id="Path_416" data-name="Path 416" d="M305.285,417.973h5.528a1.106,1.106,0,1,0,0-2.213h-5.528a1.106,1.106,0,1,0,0,2.213Z" transform="translate(-262.393 -396.956)" fill="#1a171b"></path><path id="Path_417" data-name="Path 417" d="M305.285,422.97H320.77a1.106,1.106,0,0,0,0-2.213H305.285a1.106,1.106,0,1,0,0,2.213Z" transform="translate(-262.393 -394.354)" fill="#1a171b"></path><path id="Path_418" data-name="Path 418" d="M317.36,425.755h-5.53a1.107,1.107,0,1,0,0,2.214h5.53a1.107,1.107,0,0,0,0-2.214Z" transform="translate(-258.983 -391.751)" fill="#1a171b"></path><path id="Path_419" data-name="Path 419" d="M305.285,427.968h4.423a1.107,1.107,0,0,0,0-2.214h-4.423a1.107,1.107,0,1,0,0,2.214Z" transform="translate(-262.393 -391.751)" fill="#1a171b"></path><path id="Path_420" data-name="Path 420" d="M305.285,432.963h13.272a1.106,1.106,0,1,0,0-2.213H305.285a1.106,1.106,0,1,0,0,2.213Z" transform="translate(-262.393 -389.149)" fill="#1a171b"></path><path id="Path_421" data-name="Path 421" d="M317.738,435.748H311.1a1.107,1.107,0,0,0,0,2.214h6.635a1.107,1.107,0,0,0,0-2.214Z" transform="translate(-259.361 -386.546)" fill="#1a171b"></path><path id="Path_422" data-name="Path 422" d="M305.285,437.961H308.6a1.107,1.107,0,1,0,0-2.214h-3.317a1.107,1.107,0,1,0,0,2.214Z" transform="translate(-262.393 -386.547)" fill="#1a171b"></path><path id="Path_423" data-name="Path 423" d="M316.346,441.852a1.106,1.106,0,0,0-1.107-1.107h-9.954a1.107,1.107,0,1,0,0,2.214h9.954A1.107,1.107,0,0,0,316.346,441.852Z" transform="translate(-262.393 -383.944)" fill="#1a171b"></path></g></svg>