<svg xmlns="http://www.w3.org/2000/svg" width="80" height="80" viewBox="0 0 80 80" fill="none"><circle cx="40" cy="40" r="40" fill="#222222"></circle><path d="M21.5195 30.5528H47.6558C48.2487 30.3529 48.8644 30.2329 49.4877 30.1952C49.721 30.1952 49.9368 30.1676 50.1792 30.1676C51.5381 30.1561 52.8752 30.5189 54.0494 31.2179C54.6291 31.5473 55.1597 31.9597 55.6253 32.4421V24.1872C55.6197 23.3439 55.289 22.5365 54.7049 21.9401C54.1211 21.3435 53.3306 21.0061 52.505 21H21.1203C20.2916 21.0061 19.4986 21.3465 18.9142 21.9466C18.3294 22.5471 18.0009 23.359 18 24.2057V52.6394C18.0103 53.4798 18.3433 54.2824 18.9268 54.8749C19.5099 55.4673 20.2976 55.8026 21.1203 55.8083H35.0616V55.4276C35.0619 54.2795 35.4067 53.1592 36.0494 52.2175H21.5204L21.5195 30.5528ZM32.3355 24.1734C32.7542 24.1737 33.156 24.3439 33.4517 24.6465C33.7474 24.9495 33.9127 25.3602 33.9115 25.788C33.9102 26.2157 33.7427 26.6252 33.4451 26.9265C33.1479 27.2275 32.7455 27.3954 32.3267 27.3929C31.908 27.3906 31.5074 27.2179 31.2133 26.9134C30.9192 26.6088 30.7561 26.1971 30.7598 25.7694C30.7633 25.3449 30.9308 24.9389 31.2259 24.6401C31.5212 24.3414 31.9199 24.1734 32.3355 24.1734L32.3355 24.1734ZM27.657 24.1734C28.0757 24.1737 28.4772 24.3439 28.7729 24.6465C29.0685 24.9495 29.2342 25.3602 29.233 25.788C29.2317 26.2157 29.0638 26.6252 28.7666 26.9265C28.4691 27.2275 28.0666 27.3954 27.6479 27.3929C27.2292 27.3906 26.8286 27.2179 26.5348 26.9134C26.2407 26.6088 26.0775 26.1971 26.081 25.7694C26.0847 25.3449 26.2523 24.9389 26.5473 24.6401C26.8427 24.3414 27.2414 24.1734 27.657 24.1734L27.657 24.1734ZM22.9785 24.1734C23.3972 24.1737 23.7987 24.3439 24.0944 24.6465C24.39 24.9495 24.5557 25.3602 24.5544 25.788C24.5532 26.2157 24.3853 26.6252 24.0881 26.9265C23.7906 27.2275 23.3881 27.3954 22.9694 27.3929C22.5506 27.3906 22.1501 27.2179 21.8563 26.9134C21.5622 26.6088 21.399 26.1971 21.4025 25.7694C21.4062 25.3449 21.5738 24.9389 21.8688 24.6401C22.1642 24.3414 22.5628 24.1734 22.9785 24.1734L22.9785 24.1734ZM41.6967 36.9784C41.4774 37.893 41.4211 38.8405 41.5307 39.7759C40.7853 41.3674 41.2704 43.1285 41.4499 43.7657C41.6704 44.7091 42.0731 45.5977 42.635 46.3796C42.7067 46.609 42.7922 46.8383 42.8865 47.0584C42.1592 47.4759 41.2657 48.0168 40.2958 48.6637H24.9899V34.098H43.0122C42.3908 34.9592 41.9436 35.9381 41.6968 36.9781L41.6967 36.9784ZM62 55.4234V57.5057C61.9991 57.8883 61.8497 58.2549 61.5847 58.5258C61.3194 58.7964 60.9605 58.949 60.5859 58.95H39.5097C39.1351 58.949 38.7759 58.7964 38.5109 58.5258C38.246 58.2549 38.0966 57.8882 38.0956 57.5057V55.4234C38.0931 54.6691 38.4229 53.9535 38.9935 53.4743C41.1452 51.7049 43.4769 50.1767 45.9483 48.9157C45.9812 48.8997 46.0022 48.8658 46.0022 48.8287V46.5356C45.6818 45.9749 45.4588 45.3623 45.3423 44.7241C44.9874 44.6095 44.6689 44.027 44.3723 42.9447C44.0985 41.9588 44.0938 41.3168 44.3723 40.9867V40.9863C44.485 40.8513 44.6476 40.7701 44.8214 40.7618C44.7616 40.5663 44.7133 40.367 44.6776 40.1655C44.4979 39.3718 44.4979 38.5468 44.6776 37.7531C44.9063 36.8097 45.3867 35.9492 46.0651 35.2675C46.4444 34.8551 46.8728 34.493 47.3401 34.1897C47.705 33.9108 48.1052 33.684 48.5299 33.5157C48.8979 33.3868 49.2819 33.311 49.6706 33.2908H50.1554C50.9848 33.2806 51.8012 33.501 52.5172 33.9284C53.065 34.2313 53.5285 34.6715 53.8643 35.208C54.2887 35.2809 54.6713 35.5132 54.9373 35.8593C55.5928 36.7121 55.7635 38.1523 55.4403 40.1428V40.1424C55.4043 40.3443 55.3563 40.5433 55.2965 40.7387C55.47 40.7471 55.6326 40.8283 55.7453 40.9636C56.0147 41.2938 56.0103 41.9313 55.7453 42.9217C55.4444 43.9994 55.1258 44.5865 54.7753 44.701H54.7757C54.6585 45.3319 54.4352 45.9371 54.1154 46.4896V48.8239C54.1154 48.8613 54.1364 48.8953 54.1693 48.9112C56.6332 50.1749 58.9574 51.7046 61.1019 53.4743C61.6725 53.9535 62.0023 54.6691 61.9998 55.4235L62 55.4234Z" fill="#5C9DEE"></path></svg>