<svg xmlns="http://www.w3.org/2000/svg" width="80" height="80" viewBox="0 0 80 80" fill="none"><circle cx="40" cy="40" r="40" fill="#222222"></circle><path d="M59.7649 48.0161C60.3138 49.1271 59.8689 50.4778 58.7713 51.0331L41.9874 59.5252C40.7363 60.1583 39.2637 60.1583 38.0126 59.5252L21.2287 51.0331C20.1311 50.4778 19.6862 49.1271 20.2351 48.0161C20.7838 46.9053 22.1186 46.455 23.2164 47.0105L39.9995 55.5026L56.7826 47.0105C57.8805 46.455 59.2153 46.9053 59.7639 48.0161H59.7649ZM59.7649 39.0211C60.3138 40.1319 59.8689 41.4829 58.7713 42.0381L41.9874 50.5302C40.7363 51.1633 39.2637 51.1633 38.0126 50.5302L21.2287 42.0381C20.1311 41.4828 19.6862 40.1318 20.2351 39.0211C20.7838 37.9103 22.1186 37.46 23.2164 38.0155L39.9995 46.5076L56.7826 38.0155C57.8805 37.46 59.2153 37.9103 59.7639 39.0211H59.7649ZM41.8056 20.3876L56.3338 26.9218C57.3391 27.3738 58.1432 28.1875 58.5899 29.205C59.5868 31.4748 58.5766 34.1327 56.3338 35.1414L41.8056 41.6757C40.6563 42.1924 39.3445 42.1924 38.1953 41.6757L23.6671 35.1414C22.6617 34.6894 21.8577 33.8757 21.4109 32.8582C20.414 30.5884 21.4242 27.9305 23.6671 26.9218L38.1953 20.3876C39.3446 19.8708 40.6564 19.8708 41.8056 20.3876Z" fill="#41BFAD"></path></svg>