<svg xmlns="http://www.w3.org/2000/svg" width="80" height="80" viewBox="0 0 80 80" fill="none"><circle cx="40" cy="40" r="40" fill="#222222"></circle><path d="M40 17.0001C39.9668 16.9997 39.9336 17.001 39.9004 17.004C36.2853 17.0211 33.6203 17.9371 31.8594 18.877C30.4393 19.635 29.9956 20.1634 29.7012 20.459C29.1602 20.2445 28.6269 20.0001 28 20.0001C25.2505 20.0001 23 22.2505 23 25.0001C23 27.0278 24.2528 28.7184 26 29.4981V38.879L23.4395 41.4395C22.8535 42.0255 22.8535 42.9746 23.4395 43.5606C23.7325 43.8536 24.116 44.0001 24.5 44.0001C24.884 44.0001 25.2676 43.8536 25.5606 43.5606L25.7344 43.3868C25.6637 43.8409 25.5981 44.2916 25.5157 44.7657C25.2632 46.2175 25 47.9445 25 51.0001C25 53.8376 26.3484 56.7806 28.836 59.043L27.4395 60.4395C26.8535 61.0255 26.8535 61.9746 27.4395 62.5606C27.7325 62.8536 28.116 63.0001 28.5 63.0001C28.884 63.0001 29.2686 62.8536 29.5606 62.5606L31.2989 60.8223C33.6105 62.1473 36.5029 62.9818 39.9122 62.9962C39.918 62.9969 39.9239 62.9975 39.9297 62.9981C39.9537 62.9982 39.976 63.0001 40 63.0001C40.0339 63.0005 40.0678 62.9992 40.1016 62.9962C43.5048 62.9796 46.3927 62.1455 48.7012 60.8223L50.4395 62.5606C50.7315 62.8536 51.116 63.0001 51.5 63.0001C51.884 63.0001 52.2676 62.8536 52.5606 62.5606C53.1466 61.9746 53.1466 61.0255 52.5606 60.4395L51.1622 59.0411C53.6488 56.7788 55 53.837 55 51.0001C55 47.9445 54.7369 46.2175 54.4844 44.7657C54.402 44.2916 54.3364 43.8409 54.2657 43.3868L54.4395 43.5606C54.7325 43.8536 55.116 44.0001 55.5 44.0001C55.884 44.0001 56.2676 43.8536 56.5606 43.5606C57.1466 42.9746 57.1466 42.0255 56.5606 41.4395L54 38.879V29.4981C55.7473 28.7184 57 27.0278 57 25.0001C57 22.2505 54.7496 20.0001 52 20.0001C51.3732 20.0001 50.8399 20.2445 50.2989 20.459C50.0045 20.1634 49.5608 19.635 48.1407 18.877C46.3749 17.9345 43.7009 17.0142 40.0704 17.002C40.047 17.0005 40.0235 16.9999 40 17.0001ZM40 19.0001C43.3325 19.0001 45.6813 19.8304 47.1993 20.6407C48.7173 21.4509 49.3399 22.1778 49.3399 22.1778C49.4918 22.3507 49.6987 22.4659 49.9258 22.504C50.1528 22.5421 50.386 22.5007 50.586 22.3868C51.0182 22.1404 51.488 22.0001 52 22.0001C53.6685 22.0001 55 23.3316 55 25.0001C55 26.4052 54.0431 27.5628 52.75 27.8965C52.5356 27.9519 52.3457 28.0769 52.2099 28.2519C52.0742 28.4268 52.0004 28.6419 52 28.8633V40.0001C52 42.3246 52.2682 43.6865 52.5157 45.1094C52.7632 46.5324 53 48.0556 53 51.0001C53 55.4724 48.5647 61.0001 40 61.0001C31.4354 61.0001 27 55.4724 27 51.0001C27 48.0556 27.2369 46.5324 27.4844 45.1094C27.7319 43.6865 28 42.3246 28 40.0001V28.8633C27.9997 28.6419 27.9259 28.4268 27.7902 28.2519C27.6544 28.0769 27.4645 27.9519 27.25 27.8965C25.957 27.5628 25 26.4052 25 25.0001C25 23.3316 26.3316 22.0001 28 22.0001C28.5121 22.0001 28.9819 22.1404 29.4141 22.3868C29.6141 22.5007 29.8473 22.5421 30.0743 22.504C30.3013 22.4659 30.5083 22.3507 30.6602 22.1778C30.6602 22.1778 31.2828 21.4509 32.8008 20.6407C34.3188 19.8304 36.6676 19.0001 40 19.0001ZM34.5 23.0001C32.0266 23.0001 30 25.0266 30 27.5001C30 29.9735 32.0266 32.0001 34.5 32.0001C36.9735 32.0001 39 29.9735 39 27.5001C39 25.0266 36.9735 23.0001 34.5 23.0001ZM45.4981 23.002C43.0252 23.002 41 25.0272 41 27.5001C41 29.9729 43.0252 31.9981 45.4981 31.9981C47.971 31.9981 49.9981 29.9729 49.9981 27.5001C49.9981 25.0272 47.971 23.002 45.4981 23.002ZM28 24.0001C27.448 24.0001 27 24.4481 27 25.0001C27 25.5521 27.448 26.0001 28 26.0001C28.068 26.0001 28.1275 25.974 28.1915 25.961C28.3255 25.414 28.5222 24.8903 28.7852 24.4063C28.6022 24.1653 28.326 24.0001 28 24.0001ZM52 24.0001C51.674 24.0001 51.3979 24.1653 51.2149 24.4063C51.4779 24.8903 51.6746 25.414 51.8086 25.961C51.8726 25.974 51.932 26.0001 52 26.0001C52.552 26.0001 53 25.5521 53 25.0001C53 24.4481 52.552 24.0001 52 24.0001ZM34.5 25.0001C35.8926 25.0001 37 26.1075 37 27.5001C37 28.8926 35.8926 30.0001 34.5 30.0001C33.6756 30.0001 32.9579 29.6057 32.504 29.0001C32.9011 28.999 33.2816 28.8405 33.5621 28.5593C33.8425 28.2781 34 27.8972 34 27.5001C34 27.1029 33.8425 26.722 33.5621 26.4408C33.2816 26.1596 32.9011 26.0011 32.504 26.0001C32.9579 25.3944 33.6756 25.0001 34.5 25.0001ZM45.4981 25.002C46.8901 25.002 47.9981 26.1081 47.9981 27.5001C47.9981 28.8921 46.8901 29.9981 45.4981 29.9981C44.6741 29.9981 43.9574 29.605 43.504 29.0001C43.9011 28.999 44.2816 28.8405 44.5621 28.5593C44.8426 28.2781 45 27.8972 45 27.5001C45 27.1029 44.8426 26.722 44.5621 26.4408C44.2816 26.1596 43.9011 26.0011 43.504 26.0001C43.9574 25.3951 44.6741 25.002 45.4981 25.002ZM40 31.0001C39.3125 31.0003 38.6459 31.1579 38.1119 31.4466C37.5779 31.7353 37.2088 32.1376 37.0665 32.586C36.7647 32.7722 36.4788 32.9822 36.2305 33.2305C35.5109 33.9502 35 34.9167 35 36.0001C35 36.2501 35.0577 37.2534 35.8418 37.9395C36.3334 38.3696 37.0418 38.6605 38 38.8301V40.0001C37.9982 40.1326 38.0227 40.2641 38.0721 40.3871C38.1215 40.5101 38.1948 40.622 38.2879 40.7164C38.3809 40.8107 38.4918 40.8857 38.6141 40.9368C38.7363 40.988 38.8675 41.0143 39 41.0143C39.1326 41.0143 39.2638 40.988 39.386 40.9368C39.5083 40.8857 39.6192 40.8107 39.7122 40.7164C39.8053 40.622 39.8786 40.5101 39.928 40.3871C39.9774 40.2641 40.0019 40.1326 40 40.0001C39.9982 40.1326 40.0227 40.2641 40.0721 40.3871C40.1215 40.5101 40.1948 40.622 40.2879 40.7164C40.3809 40.8107 40.4918 40.8857 40.6141 40.9368C40.7363 40.988 40.8675 41.0143 41 41.0143C41.1326 41.0143 41.2638 40.988 41.386 40.9368C41.5083 40.8857 41.6192 40.8107 41.7122 40.7164C41.8053 40.622 41.8786 40.5101 41.928 40.3871C41.9774 40.2641 42.0019 40.1326 42 40.0001V38.8301C42.9583 38.6605 43.6667 38.3696 44.1583 37.9395C44.9424 37.2534 45 36.2501 45 36.0001C45 34.9167 44.4892 33.9502 43.7696 33.2305C43.5209 32.9818 43.234 32.7723 42.9317 32.586C42.7894 32.1378 42.4206 31.7357 41.887 31.447C41.3534 31.1584 40.6873 31.0006 40 31.0001ZM37.9043 34.4278C38.4639 34.7938 39.2162 34.9992 40 35.0001C40.7842 35 41.5372 34.7953 42.0977 34.4297C42.1863 34.4965 42.2751 34.5642 42.3555 34.6446C42.7609 35.05 43 35.5834 43 36.0001C43 36.2501 43.0577 36.2467 42.8418 36.4356C42.626 36.6245 41.875 37.0001 40 37.0001C38.125 37.0001 37.3741 36.6245 37.1582 36.4356C36.9424 36.2467 37 36.2501 37 36.0001C37 35.5834 37.2392 35.05 37.6446 34.6446C37.7257 34.5635 37.815 34.495 37.9043 34.4278Z" fill="#87BFE0"></path></svg>