<svg xmlns="http://www.w3.org/2000/svg" xmlns:xlink="http://www.w3.org/1999/xlink" id="Layer_1" data-name="Layer 1" width="80" height="80" viewBox="0 0 80 80"><defs><style>.cls-1{fill:none;}.cls-2{fill:#61c1d1;}.cls-3{clip-path:url(#clip-path);}</style><clipPath id="clip-path"><rect class="cls-1" x="8.76" y="4.06" width="62.48" height="71.88"></rect></clipPath></defs><path class="cls-2" d="M52.57,65.15a23.89,23.89,0,0,0,11.3-20.3,23.61,23.61,0,0,0-.37-4.14.57.57,0,0,0,0-.18,23.9,23.9,0,0,0-7.89-13.77,1.46,1.46,0,0,0,.56-.46A1.4,1.4,0,0,0,56.32,25l-1.81-5.26,1.81-5.26A1.4,1.4,0,0,0,55,12.64H51.65a1.38,1.38,0,0,0-1.06.49l-2.32,2.68-3.92-.12,1.48-10a1.4,1.4,0,0,0-.32-1.12,1.42,1.42,0,0,0-1.07-.49h-4a1.4,1.4,0,0,0-1.27.8l-5,10.61-2.78,0L28,15.33a4.4,4.4,0,0,0-4.49,4.44,4.48,4.48,0,0,0,1.25,3.11,4.27,4.27,0,0,0,3.13,1.33,24.28,24.28,0,0,0-6.47,5.53,23.83,23.83,0,0,0-2.73,4.18,1,1,0,0,0-.12.23A23.9,23.9,0,0,0,33.7,67.92l.16,0a23.9,23.9,0,0,0,18.43-2.64,2.2,2.2,0,0,0,.28-.18Zm-.58-3a3.8,3.8,0,0,1-.9-3.43c.32-2.11.27-4-3.44-7.58l-.22-.24c-1.06-1.13-1.89-2-2-2.85-.06-.3-.22-1.22,1.79-3.4A1.82,1.82,0,0,1,48.34,44c.81,0,1.92,1,2.81,1.91,1.34,1.28,3,2.89,4.87,1.79a6.61,6.61,0,0,0,2.35-3.2c.83-1.78,1.28-2.57,2.5-2.45a22.21,22.21,0,0,1,.19,2.84A21.06,21.06,0,0,1,52,62.17ZM26.81,20.93a1.68,1.68,0,0,1-.47-1.16,1.61,1.61,0,0,1,1.59-1.64l3.4.11h0l3.69,0h0a1.41,1.41,0,0,0,1.27-.8l5-10.61h1.46l-1.48,10a1.36,1.36,0,0,0,.31,1.1,1.39,1.39,0,0,0,1,.51l6.17.19a1.39,1.39,0,0,0,1.1-.49l2.34-2.7H53l-1.33,3.86a1.45,1.45,0,0,0,0,.92L53,24.08h-.73L50,21.38a1.39,1.39,0,0,0-1.1-.48l-6.17.19a1.38,1.38,0,0,0-1,.5,1.4,1.4,0,0,0-.32,1v0a.09.09,0,0,0,0,.05l1.48,10H41.36L36.36,22a1.41,1.41,0,0,0-1.3-.81l-4.29.08h0l-2.82.1a1.48,1.48,0,0,1-1.12-.48ZM18.87,44.85a20.76,20.76,0,0,1,1.46-7.67,12.4,12.4,0,0,0,4.94,1.07,12.77,12.77,0,0,1,3.25.5c.61.25.71.5.7,1,0,1-1.22,1.94-2.49,2.93-1.95,1.51-4.37,3.39-3.63,6.66s3.53,3.55,5.54,3.66a8.89,8.89,0,0,1,3.53.69,5.07,5.07,0,0,1,2.49,3.1c.5,1.59.64,4.24-1.23,8.14A21.13,21.13,0,0,1,18.87,44.85ZM36.2,65.61c2-4.45,1.77-7.68,1.14-9.67a7.86,7.86,0,0,0-3.91-4.77,11.12,11.12,0,0,0-4.63-1c-2.22-.13-2.68-.26-3-1.48-.31-1.38.6-2.26,2.61-3.83C30.1,43.59,32,42.14,32,39.8a3.62,3.62,0,0,0-2.48-3.66,14.37,14.37,0,0,0-4.06-.69c-1.52-.12-3.2-.25-3.95-.83A21.18,21.18,0,0,1,34.41,24.5L39.2,34.67a1.41,1.41,0,0,0,1.27.81h4a1.41,1.41,0,0,0,1.4-1.41,1.36,1.36,0,0,0,0-.29L44.4,24.23a21.09,21.09,0,0,1,15.89,15c-2.65.18-3.75,2.54-4.46,4.07a6.24,6.24,0,0,1-1.14,1.9,9.19,9.19,0,0,1-1.59-1.34c-1.27-1.22-2.87-2.74-4.84-2.69a4.48,4.48,0,0,0-3.14,1.61c-2,2.23-2.82,4-2.49,5.82.3,1.63,1.43,2.85,2.75,4.25l.25.27,0,0c3,2.88,2.83,3.89,2.63,5.16a6.45,6.45,0,0,0,1.27,5.31A20.87,20.87,0,0,1,40,66a21.2,21.2,0,0,1-3.76-.34Zm0,0"></path><path class="cls-2" d="M61.48,26.33a1.42,1.42,0,0,0,1.07.49,1.37,1.37,0,0,0,.91-.34,1.4,1.4,0,0,0,.15-2c-.5-.59-1-1.16-1.58-1.71a1.4,1.4,0,1,0-2,2c.5.5,1,1,1.44,1.56Zm0,0"></path><path class="cls-2" d="M67.83,35.71a1.43,1.43,0,0,0,.5-.09,1.4,1.4,0,0,0,.82-1.81c-.28-.72-.58-1.44-.91-2.14a1.4,1.4,0,0,0-2.54,1.18c.29.64.57,1.3.82,2a1.4,1.4,0,0,0,1.31.9Zm0,0"></path><path class="cls-2" d="M71.05,42.13a1.41,1.41,0,0,0-2.8.25c.06.7.1,1.41.1,2.12a1.41,1.41,0,0,0,1.41,1.38h0a1.4,1.4,0,0,0,1.38-1.42c0-.77,0-1.56-.11-2.33Zm0,0"></path><path class="cls-2" d="M69.11,51.21a1.4,1.4,0,0,0-1.72,1c-.18.68-.39,1.36-.63,2A1.41,1.41,0,0,0,67.63,56a1.48,1.48,0,0,0,.46.08,1.4,1.4,0,0,0,1.32-1q.39-1.09.69-2.22a1.4,1.4,0,0,0-1-1.72Zm0,0"></path><path class="cls-2" d="M65.18,60.79a1.41,1.41,0,0,0-2,.35c-.4.58-.83,1.14-1.28,1.69A1.4,1.4,0,0,0,63,65.12a1.38,1.38,0,0,0,1.08-.51c.49-.6,1-1.23,1.41-1.86a1.41,1.41,0,0,0-.34-2Zm0,0"></path><path class="cls-2" d="M56.25,68.11c-.58.41-1.18.79-1.78,1.15a1.41,1.41,0,0,0,1.43,2.42c.67-.4,1.33-.82,2-1.27a1.4,1.4,0,0,0-1.61-2.3Zm0,0"></path><path class="cls-2" d="M47.31,72.28c-.68.18-1.37.34-2.07.47a1.4,1.4,0,0,0-1.11,1.64,1.38,1.38,0,0,0,1.37,1.14,1.23,1.23,0,0,0,.27,0c.76-.14,1.52-.32,2.27-.52a1.4,1.4,0,0,0-.73-2.71Zm0,0"></path><path class="cls-2" d="M37.49,73.14c-.7-.06-1.41-.15-2.11-.27a1.41,1.41,0,0,0-.45,2.78c.77.12,1.54.22,2.31.29h.13a1.4,1.4,0,0,0,.12-2.8Zm0,0"></path><path class="cls-2" d="M28,70.59c-.64-.3-1.27-.63-1.88-1a1.41,1.41,0,1,0-1.38,2.45c.68.38,1.37.73,2.08,1.06a1.37,1.37,0,0,0,.59.13A1.4,1.4,0,0,0,28,70.59Zm0,0"></path><path class="cls-2" d="M18.44,63.38a1.4,1.4,0,0,0-2.13,1.83c.51.58,1,1.16,1.59,1.71a1.4,1.4,0,1,0,2-2c-.49-.5-1-1-1.44-1.55Zm0,0"></path><g class="cls-3"><path class="cls-2" d="M13.4,54.9a1.4,1.4,0,1,0-2.62,1c.27.73.58,1.45.9,2.15a1.41,1.41,0,0,0,1.28.81,1.37,1.37,0,0,0,.59-.13,1.41,1.41,0,0,0,.68-1.87c-.3-.64-.58-1.29-.83-2Zm0,0"></path><path class="cls-2" d="M11.68,47.33c-.07-.7-.1-1.42-.11-2.12a1.41,1.41,0,0,0-1.4-1.39h0a1.41,1.41,0,0,0-1.39,1.42c0,.78.05,1.56.12,2.33a1.4,1.4,0,0,0,1.4,1.28h.12a1.42,1.42,0,0,0,1.28-1.52Zm0,0"></path></g><path class="cls-2" d="M10.82,38.5a1.47,1.47,0,0,0,.36,0,1.41,1.41,0,0,0,1.36-1c.18-.68.39-1.36.62-2a1.4,1.4,0,1,0-2.65-.93c-.26.73-.49,1.48-.69,2.23a1.42,1.42,0,0,0,1,1.72Zm0,0"></path><path class="cls-2" d="M16.7,28.57c.41-.58.84-1.15,1.28-1.69a1.4,1.4,0,1,0-2.17-1.78Q15.08,26,14.4,27a1.4,1.4,0,0,0,.35,1.95,1.38,1.38,0,0,0,.8.25,1.39,1.39,0,0,0,1.15-.59Zm0,0"></path><path class="cls-2" d="M49.08,31.5a16,16,0,0,1,3.54,3.29,1.44,1.44,0,0,0,1.1.53,1.35,1.35,0,0,0,.87-.31,1.4,1.4,0,0,0,.23-2,18.79,18.79,0,0,0-4.15-3.86,1.41,1.41,0,0,0-1.59,2.32Zm0,0"></path><path class="cls-2" d="M54.58,37.92l0,.07a1.41,1.41,0,0,0,1.27.8,1.37,1.37,0,0,0,.59-.13,1.4,1.4,0,0,0,.68-1.87l0-.07a1.4,1.4,0,1,0-2.54,1.2Zm0,0"></path></svg>