<svg xmlns="http://www.w3.org/2000/svg" xmlns:xlink="http://www.w3.org/1999/xlink" xmlns:serif="http://www.serif.com/" width="100%" height="100%" viewBox="0 0 512 512" xml:space="preserve" style="fill-rule:evenodd;clip-rule:evenodd;stroke-linejoin:round;stroke-miterlimit:2;">    <g transform="matrix(0.800774,0,0,0.800774,60.4002,60.0035)">        <g id="Page-1">            <g id="_008---Dekstop-Wordprocessing" serif:id="008---Dekstop-Wordprocessing">                <path id="Shape" d="M51.2,426.667L162.133,426.667L162.133,452.267C138.581,452.295 119.495,471.381 119.467,494.933C119.467,504.359 127.108,512 136.533,512L341.333,512C350.759,512 358.4,504.359 358.4,494.933C358.372,471.381 339.286,452.295 315.733,452.267L315.733,426.667L426.667,426.667C445.518,426.667 460.8,411.385 460.8,392.533L460.8,145.067C460.8,140.354 456.979,136.533 452.267,136.533C447.554,136.533 443.733,140.354 443.733,145.067L443.733,341.333L34.133,341.333L34.133,145.067C34.133,135.641 41.774,128 51.2,128L59.733,128L59.733,315.733C59.733,320.446 63.554,324.267 68.267,324.267C72.979,324.267 76.8,320.446 76.8,315.733L76.8,42.667C76.8,37.954 80.621,34.133 85.333,34.133L381.389,34.133L337.758,64.307L169.54,180.642C168.582,181.252 167.759,182.054 167.125,182.997L112.64,262.869C108.66,268.703 108.683,276.385 112.699,282.193C116.715,288.002 123.893,290.738 130.756,289.075L224.708,266.3C225.802,265.987 226.839,265.503 227.78,264.866L401.067,145.015L401.067,315.733C401.067,320.446 404.887,324.267 409.6,324.267C414.313,324.267 418.133,320.446 418.133,315.733L418.133,133.214L480.205,90.283C495.71,79.561 499.588,58.3 488.866,42.795L469.461,14.72C458.723,-0.759 437.485,-4.633 421.973,6.059L406.067,17.067L85.333,17.067C71.195,17.067 59.733,28.528 59.733,42.667L59.733,110.933L51.2,110.933C32.349,110.933 17.067,126.215 17.067,145.067L17.067,392.533C17.067,411.385 32.349,426.667 51.2,426.667ZM393.301,129.638L354.475,73.489L375.526,58.931L414.362,115.081L393.301,129.638ZM340.48,83.2L379.315,139.349L224.87,246.135L186.027,189.978L340.48,83.2ZM173.073,261.257L153.6,233.105L174.208,202.889L208.614,252.638L173.073,261.257ZM126.746,272.486L143.3,248.209L155.307,265.566L126.746,272.486ZM431.684,20.096C439.437,14.739 450.065,16.68 455.424,24.431L474.837,52.497C480.178,60.257 478.244,70.874 470.511,76.254L428.373,105.37L389.538,49.22L431.684,20.096ZM341.333,494.933L136.533,494.933C136.533,480.795 147.995,469.333 162.133,469.333L315.733,469.333C329.872,469.333 341.333,480.795 341.333,494.933ZM298.667,452.267L179.2,452.267L179.2,426.667L298.667,426.667L298.667,452.267ZM443.733,358.4L443.733,392.533C443.733,401.959 436.092,409.6 426.667,409.6L51.2,409.6C41.774,409.6 34.133,401.959 34.133,392.533L34.133,358.4L443.733,358.4Z" style="fill:rgb(210,174,85);fill-rule:nonzero;"></path>                <path id="Shape1" serif:id="Shape" d="M230.4,392.533L256,392.533C260.713,392.533 264.533,388.713 264.533,384C264.533,379.287 260.713,375.467 256,375.467L230.4,375.467C225.687,375.467 221.867,379.287 221.867,384C221.867,388.713 225.687,392.533 230.4,392.533Z" style="fill:rgb(210,174,85);fill-rule:nonzero;"></path>                <path id="Shape2" serif:id="Shape" d="M110.933,76.8L287.061,76.8C291.774,76.8 295.595,72.979 295.595,68.267C295.595,63.554 291.774,59.733 287.061,59.733L110.933,59.733C106.221,59.733 102.4,63.554 102.4,68.267C102.4,72.979 106.221,76.8 110.933,76.8Z" style="fill:rgb(210,174,85);fill-rule:nonzero;"></path>                <path id="Shape3" serif:id="Shape" d="M110.933,119.467L225.365,119.467C230.078,119.467 233.899,115.646 233.899,110.933C233.899,106.221 230.078,102.4 225.365,102.4L110.933,102.4C106.221,102.4 102.4,106.221 102.4,110.933C102.4,115.646 106.221,119.467 110.933,119.467Z" style="fill:rgb(210,174,85);fill-rule:nonzero;"></path>                <path id="Shape4" serif:id="Shape" d="M110.933,162.133L163.669,162.133C168.382,162.133 172.203,158.313 172.203,153.6C172.203,148.887 168.382,145.067 163.669,145.067L110.933,145.067C106.221,145.067 102.4,148.887 102.4,153.6C102.4,158.313 106.221,162.133 110.933,162.133Z" style="fill:rgb(210,174,85);fill-rule:nonzero;"></path>                <path id="Shape5" serif:id="Shape" d="M366.933,273.067L248.576,273.067C243.863,273.067 240.043,276.887 240.043,281.6C240.043,286.313 243.863,290.133 248.576,290.133L366.933,290.133C371.646,290.133 375.467,286.313 375.467,281.6C375.467,276.887 371.646,273.067 366.933,273.067Z" style="fill:rgb(210,174,85);fill-rule:nonzero;"></path>                <path id="Shape6" serif:id="Shape" d="M366.933,230.4L310.272,230.4C305.559,230.4 301.739,234.221 301.739,238.933C301.739,243.646 305.559,247.467 310.272,247.467L366.933,247.467C371.646,247.467 375.467,243.646 375.467,238.933C375.467,234.221 371.646,230.4 366.933,230.4Z" style="fill:rgb(210,174,85);fill-rule:nonzero;"></path>            </g>        </g>    </g></svg>