<svg xmlns="http://www.w3.org/2000/svg" id="Layer_1" data-name="Layer 1" width="80" height="80" viewBox="0 0 80 80"><defs><style>.cls-1{fill:#d2ae55;}</style></defs><path class="cls-1" d="M59.63,67.91H52.38a1.29,1.29,0,1,1,0-2.58h6V40.8H20V65.33H40.13a1.29,1.29,0,0,1,0,2.58H18.69a1.29,1.29,0,0,1-1.29-1.29V39.51a1.3,1.3,0,0,1,1.29-1.3H59.63a1.3,1.3,0,0,1,1.29,1.3V66.62A1.29,1.29,0,0,1,59.63,67.91Z"></path><path class="cls-1" d="M46,67.91a1,1,0,0,1-.25,0l-.25-.07-.22-.12a1.16,1.16,0,0,1-.36-.36l-.12-.22a1.82,1.82,0,0,1-.07-.25,1,1,0,0,1,0-.25,1.07,1.07,0,0,1,0-.25,2.17,2.17,0,0,1,.07-.24L45,65.9a1.46,1.46,0,0,1,.16-.19,1,1,0,0,1,.2-.16.94.94,0,0,1,.22-.12,1,1,0,0,1,.25-.08,1.4,1.4,0,0,1,.5,0,1.13,1.13,0,0,1,.24.08,1.45,1.45,0,0,1,.42.28,1,1,0,0,1,.16.19,1,1,0,0,1,.12.23,2.25,2.25,0,0,1,.08.24,2.11,2.11,0,0,1,0,.25,2,2,0,0,1,0,.25,1.83,1.83,0,0,1-.08.25,1.19,1.19,0,0,1-.12.22,1,1,0,0,1-.16.2,1.08,1.08,0,0,1-.2.16l-.22.12-.24.07A1.06,1.06,0,0,1,46,67.91Z"></path><path class="cls-1" d="M67.76,20.72v0h0a1.28,1.28,0,0,0-.93-1.49h0L17,6.94a1.28,1.28,0,0,0-1.56.95l-1.7,6.9a1.29,1.29,0,0,0,.93,1.49h0l17.25,4.24h0l7.32,1.8L54.14,26H13.51a1.3,1.3,0,0,0-1.3,1.29V71.8a1.3,1.3,0,0,0,1.3,1.3h51.3a1.3,1.3,0,0,0,1.3-1.3V27.44l1.64-6.69ZM63.52,33H61.23l2.29-2.29Zm-21,0L47,28.57h6.83L49.39,33ZM57.5,28.57H62L57.57,33H53.05Zm-14-7.86,5.39-3.26,6.63,1.63-5.39,3.26ZM25.4,16.26,30.79,13l6.63,1.63L32,17.89Zm1.84-4.14-5.39,3.27-4.39-1.08L22.85,11Zm18.12,4.46L40,19.84l-4.39-1.08L41,15.5Zm8.34,6.64L59.09,20,63.48,21,58.09,24.3l-3.88-1Zm10.17,2.5-2.23-.55,2.77-1.68ZM19.29,10.17l-2.08,1.27.41-1.68Zm24.07,18.4L38.91,33H34.39l4.45-4.46ZM23.91,33l4.45-4.46h6.83L30.73,33Zm.79-4.46L20.25,33H15.73l4.45-4.46Zm-8.17,0L14.8,30.3V28.57Zm47,41.94H14.8V35.62H63.52Z"></path><path class="cls-1" d="M46.07,62.57a1.31,1.31,0,0,1-.43-.08l-5.64-2-5.64,2a1.27,1.27,0,0,1-1.19-.17,1.28,1.28,0,0,1-.54-1.08l.17-6-3.65-4.75a1.3,1.3,0,0,1-.21-1.19,1.33,1.33,0,0,1,.87-.84l5.74-1.69,3.38-4.94a1.3,1.3,0,0,1,2.14,0l3.38,4.94,5.74,1.69a1.33,1.33,0,0,1,.87.84,1.3,1.3,0,0,1-.21,1.19L47.2,55.26l.17,6a1.28,1.28,0,0,1-.54,1.08A1.3,1.3,0,0,1,46.07,62.57ZM40,57.82a1.26,1.26,0,0,1,.43.08l4.3,1.53-.13-4.56a1.37,1.37,0,0,1,.27-.83l2.78-3.61-4.37-1.29a1.24,1.24,0,0,1-.7-.51L40,44.87l-2.58,3.76a1.24,1.24,0,0,1-.7.51l-4.37,1.29L35.13,54a1.37,1.37,0,0,1,.27.83l-.13,4.56,4.3-1.53A1.26,1.26,0,0,1,40,57.82Z"></path></svg>