<svg xmlns="http://www.w3.org/2000/svg" id="Layer_1" data-name="Layer 1" width="80" height="80" viewBox="0 0 80 80"><defs><style>.cls-1{fill:#fff;}.cls-2{fill:#e57070;}</style></defs><polygon class="cls-1" points="43.81 49.23 50.73 52.02 50.73 15.58 43.81 18.37 43.81 49.23"></polygon><path class="cls-2" d="M43.81,40.83a1.55,1.55,0,1,0,0,3.1,1.52,1.52,0,0,0,1.09-.45,1.53,1.53,0,0,0,0-2.19A1.53,1.53,0,0,0,43.81,40.83Z"></path><path class="cls-2" d="M52.28,27V15.58a1.54,1.54,0,0,0-.68-1.28,1.51,1.51,0,0,0-1.44-.15L23.45,24.9H14.84a8.91,8.91,0,0,0,0,17.81h1V64.42A1.55,1.55,0,0,0,17.42,66h6.33a1.56,1.56,0,0,0,1.55-1.55v-21l24.86,10a1.42,1.42,0,0,0,.57.12,1.52,1.52,0,0,0,.87-.27A1.54,1.54,0,0,0,52.28,52V40.61a7,7,0,0,0,0-13.62ZM9,33.81A5.81,5.81,0,0,1,14.84,28H22.2V39.61H14.84A5.81,5.81,0,0,1,9,33.81ZM19,62.87V42.71H22.2V62.87ZM49.18,49.72,25.3,40.11V27.5l17-6.83V36.05a1.55,1.55,0,1,0,3.1,0V19.42l3.83-1.54V49.72Zm3.1-12.36V30.24a3.88,3.88,0,0,1,0,7.12Z"></path><path class="cls-2" d="M72.51,32.3H63.73a1.55,1.55,0,1,0,0,3.1h8.78a1.55,1.55,0,0,0,0-3.1Z"></path><path class="cls-2" d="M61.19,26.61a1.55,1.55,0,0,0,1.09-.45l3-3a1.55,1.55,0,1,0-2.19-2.19l-3,3a1.57,1.57,0,0,0,0,2.2A1.55,1.55,0,0,0,61.19,26.61Z"></path><path class="cls-2" d="M62.3,41.29a1.55,1.55,0,0,0-2.2,2.19l3.13,3.13a1.57,1.57,0,0,0,1.1.45,1.55,1.55,0,0,0,1.09-2.64Z"></path></svg>