<svg xmlns="http://www.w3.org/2000/svg" id="Layer_1" data-name="Layer 1" width="80" height="80" viewBox="0 0 80 80"><defs><style>.cls-1{fill:none;}.cls-2{fill:#e57070;}</style></defs><path class="cls-1" d="M17.42,63.29h.81a8,8,0,0,1-.81-.5Z"></path><path class="cls-2" d="M26.72,53.46V54h.78A8.07,8.07,0,0,1,26.72,53.46Z"></path><path class="cls-1" d="M43.3,12.89l3.81-2.47L44,8.38,19.18,24.51h6.27L40,15A4.68,4.68,0,0,1,43.3,12.89Z"></path><rect class="cls-1" x="16.41" y="26.84" width="7.24" height="2.34"></rect><rect class="cls-1" x="21.08" y="31.52" width="7.24" height="2.34"></rect><rect class="cls-1" x="57.53" y="31.52" width="7.24" height="2.34"></rect><rect class="cls-1" x="57.53" y="51.61" width="7.24" height="2.34"></rect><rect class="cls-1" x="59.86" y="36.19" width="4.67" height="13.08"></rect><path class="cls-2" d="M44,24.51a1.17,1.17,0,1,0,1.17,1.17A1.17,1.17,0,0,0,44,24.51Z"></path><path class="cls-2" d="M68,36.19A1.17,1.17,0,0,0,69.21,35v-3.5h3.5a1.17,1.17,0,0,0,1.17-1.17V25.66a1.16,1.16,0,0,0-.52-1h0L44.61,6a1.13,1.13,0,0,0-1.27,0L14.6,24.7a1.18,1.18,0,0,0-.53,1v4.67a1.17,1.17,0,0,0,1.17,1.17h3.5V35a1.17,1.17,0,0,0,1.17,1.17h1.17v6a14.28,14.28,0,0,1,2.31.68h0V36.19h4.67V43l.4-.18a14.26,14.26,0,0,1,1.94-.6V36.19h1.16A1.17,1.17,0,0,0,32.76,35v-3.5H55.19V35a1.17,1.17,0,0,0,1.17,1.17h1.17V49.27H56.36a1.17,1.17,0,0,0-1.17,1.17V54H52.86V35a1.18,1.18,0,0,0-1.17-1.17H36.27A1.17,1.17,0,0,0,35.1,35v6.65h.37c.66,0,1.32,0,2,.08V36.19h5.37V43a6.26,6.26,0,0,1,2.34,1.66V36.19h5.37V54H45.77v1.16h19V54H57.53V51.61h7.24V50.44H68v4.67h2.34v4.68h2.33v4.67H45.77v.43a2.68,2.68,0,0,1-.13.74H72.71a1.17,1.17,0,0,0,1.17-1.17V59.79a1.17,1.17,0,0,0-1.17-1.17H71.55V55.11A1.17,1.17,0,0,0,70.38,54H69.21V50.44A1.17,1.17,0,0,0,68,49.27H66.87V36.19Zm-3.5,13.08H59.86V36.19h4.68ZM65.71,35h-.94V33.85H57.53V31.52h7.24V30.35H31.59V35H28.32V33.85H21.08V31.52h7.24V30.35H23.65V29.18H16.41V26.84h7.24V25.68l1.8-1.17H19.18L44,8.38l3.13,2,1.07-.7,24.53,16v4.67H68V35H65.71Z"></path><path class="cls-2" d="M68,35V30.35h4.67V25.68l-24.53-16-1.07.7L68.78,24.51H48.65a1.17,1.17,0,1,0,0,2.33h22.9v2.34H23.65v1.17h4.67v1.17h2.11v2.33H28.32V35h3.27V30.35H64.77v1.17h2.1v2.33h-2.1V35H68Z"></path><path class="cls-2" d="M40.47,25.68a1.17,1.17,0,0,0-1.17-1.17H25.45l-1.8,1.17v1.16H39.3A1.16,1.16,0,0,0,40.47,25.68Z"></path><path class="cls-2" d="M36,63.33c.23,0,.46,0,.69,0H36Z"></path><path class="cls-2" d="M52.86,56.28v2.34H45.77V61H71.55v2.34H45.77v1.17H72.71V59.79H70.38V55.11H68V50.44H64.77v1.17h2.1V54h-2.1v1.16h-19v1.17Zm2.33,0h14v2.34h-14Z"></path><path class="cls-2" d="M40,15l3.27-2.13A4.68,4.68,0,0,0,40,15Z"></path><path class="cls-2" d="M39.3,17.5a4.68,4.68,0,0,0,9.35,0,2.18,2.18,0,0,0,0-.25A4.65,4.65,0,0,0,44,12.83a5.05,5.05,0,0,0-.68.06L40,15A4.68,4.68,0,0,0,39.3,17.5ZM44,15.16a2.33,2.33,0,0,1,2.33,2.22h0v.11A2.34,2.34,0,1,1,44,15.16Z"></path><path class="cls-2" d="M25.94,63.34c.44,0,.85,0,1.27-.05H24.67C25.09,63.32,25.51,63.34,25.94,63.34Z"></path><path class="cls-2" d="M35.49,58.7c.6,0,1.2,0,1.79-.08H35.42Z"></path><path class="cls-2" d="M42.81,43.85V43l-.37-.16a17.61,17.61,0,0,0-5-1.11v.78A15.57,15.57,0,0,1,42.81,43.85Z"></path><path class="cls-2" d="M26,46.3a1.61,1.61,0,0,1,.08-.48v3.45h.68v-.46a5.84,5.84,0,0,0,.74.46h.63V47.86c-.87-.5-1.37-1.06-1.37-1.56s.5-1,1.37-1.55V43a6.61,6.61,0,0,0-2.15,1.45,6.82,6.82,0,0,0-2.52-1.62v.84C25,44.39,26,45.3,26,46.3Z"></path><path class="cls-2" d="M18.85,58.62a9.78,9.78,0,0,1,2.31-.89v-.89l-1.39.07-1,1v.68Z"></path><path class="cls-2" d="M32.31,43.45v-.79a20.66,20.66,0,0,1,2.79-.21v-.78a21.31,21.31,0,0,0-4.67.58v1.59A16.85,16.85,0,0,1,32.31,43.45Z"></path><path class="cls-2" d="M38.74,68.52v-.8A20.05,20.05,0,0,1,36,68V65.63H35.1v4.61c-.8,1.8-4.59,3.17-9.14,3.17a19.52,19.52,0,0,1-4.8-.56v-.8a11.32,11.32,0,0,1-1.49-.49c-1.41-.59-2.25-1.34-2.25-2v-2.1a5.46,5.46,0,0,0,.59.38A11.91,11.91,0,0,0,21.16,69V67.4a6.74,6.74,0,0,1-3.42-1.77H16.59v3.13h-.15c-.38,0-.74,0-1.1-.05v.05a.77.77,0,0,1-.46.71c.33,0,.66,0,1,.06h0c0,2.65,4.32,4.64,10.06,4.64S36,72.19,36,69.54h0a18.8,18.8,0,0,0,6.43-1.18c1.75-.71,2.85-1.66,3.2-2.72h-.81C44.18,67,41.8,68.06,38.74,68.52Z"></path><path class="cls-2" d="M26.72,54v-.49a8.07,8.07,0,0,0,.78.49h.82V52.62a3.91,3.91,0,0,1-1.33-1H26V54Z"></path><path class="cls-2" d="M30.43,48.77v.5h1.16a1.14,1.14,0,0,1,.72.27v-.38A16.85,16.85,0,0,1,30.43,48.77Z"></path><path class="cls-2" d="M45.77,54V46.3a2.64,2.64,0,0,0-.62-1.63V54Z"></path><path class="cls-2" d="M21.16,62.76a11.32,11.32,0,0,1-1.49-.49,4.82,4.82,0,0,1-2-1.32H16.59v2.34h.83v-.5a8,8,0,0,0,.81.5h2.93Z"></path><path class="cls-2" d="M13.8,68.76a1,1,0,0,1,0-.17c-.4,0-.81-.09-1.19-.16v-.79A13.79,13.79,0,0,1,10,66.91c-1.45-.58-2.35-1.36-2.35-2V62.75a8.36,8.36,0,0,0,1.77,1,15.68,15.68,0,0,0,3.2.87V63A13.77,13.77,0,0,1,10,62.26c-1.45-.58-2.35-1.35-2.35-2V58.11a8.35,8.35,0,0,0,1.77.94,15.68,15.68,0,0,0,3.2.87V58.35A14.57,14.57,0,0,1,10,57.62c-1.45-.59-2.35-1.36-2.35-2V53.46a8.36,8.36,0,0,0,1.77.95,15.86,15.86,0,0,0,3.2.87V53.7A13.79,13.79,0,0,1,10,53c-1.45-.58-2.35-1.36-2.35-2V48.81a8.36,8.36,0,0,0,1.77.95,15.85,15.85,0,0,0,3.2.88V49.06A13.77,13.77,0,0,1,10,48.32c-1.45-.58-2.35-1.35-2.35-2s.9-1.43,2.35-2a13.77,13.77,0,0,1,2.62-.74v-.79a21.68,21.68,0,0,1,3.8-.33,20.86,20.86,0,0,1,4.64.51v-.77a21.6,21.6,0,0,0-4.66-.51,19.2,19.2,0,0,0-7,1.19c-2.14.86-3.32,2.09-3.32,3.45V64.89c0,1.37,1.18,2.59,3.32,3.46a17.54,17.54,0,0,0,4.76,1.08A.76.76,0,0,1,13.8,68.76Z"></path><path class="cls-2" d="M38.74,63.29v-.21q-1,.15-2,.21Z"></path><path class="cls-2" d="M45.77,58.62V56.28H45v2.34Z"></path><rect class="cls-2" x="35.1" y="60.95" width="0.91" height="2.34"></rect><path class="cls-2" d="M31.28,56.28H26v.56h6.27V56.6l-.11,0C31.91,56.45,31.59,56.37,31.28,56.28Z"></path><path class="cls-2" d="M30.43,53.42A11.41,11.41,0,0,1,29.07,53c-.27-.11-.52-.23-.75-.35V54h2.11Z"></path><path class="cls-2" d="M45,63.29h.76V61H45Z"></path><path class="cls-2" d="M26.72,51.61a1.35,1.35,0,0,1-.2-.66V49.27H26v2.34Z"></path><path class="cls-2" d="M18.23,63.29a12,12,0,0,0,2.93,1.07V63.29Z"></path><path class="cls-2" d="M45,46.3v8.81h.76V54h-.62V44.67A6.26,6.26,0,0,0,42.81,43v.84C44.18,44.52,45,45.37,45,46.3Z"></path><rect class="cls-2" x="26.04" y="53.95" width="0.68" height="1.17"></rect><path class="cls-2" d="M45.77,64.46H45v.43a1.79,1.79,0,0,1-.18.74h.81a2.68,2.68,0,0,0,.13-.74Z"></path><path class="cls-2" d="M30.79,50.44h.8v.18l.72.1V49.54a1.14,1.14,0,0,0-.72-.27H30.43v-.5a11.41,11.41,0,0,1-1.36-.45,8.16,8.16,0,0,1-1-.46v1.41h-.63a8.93,8.93,0,0,0,1,.49A14.46,14.46,0,0,0,30.79,50.44Z"></path><path class="cls-2" d="M23.42,43.7v-.84h0a14.28,14.28,0,0,0-2.31-.68v.77A13.12,13.12,0,0,1,23.42,43.7Z"></path><path class="cls-2" d="M28.32,54H27.5c.25.13.53.26.82.38Z"></path><path class="cls-2" d="M38.74,64.64v-.18H35.1v1.17H36v-.75A21.82,21.82,0,0,0,38.74,64.64Z"></path><path class="cls-2" d="M17.42,60.24a.92.92,0,0,1,.09-.38,3,3,0,0,1,1.34-1.24h-.11v-.68l-2.15,2.15V61h1.12A1.18,1.18,0,0,1,17.42,60.24Z"></path><path class="cls-2" d="M31.59,55.11h.72v-1.3l-.72-.12Z"></path><path class="cls-2" d="M29.07,44.29a11.41,11.41,0,0,1,1.36-.45V42.25a14.26,14.26,0,0,0-1.94.6l-.4.18v1.72A8.16,8.16,0,0,1,29.07,44.29Z"></path><path class="cls-2" d="M35.49,42.43q1,0,1.95.09v-.78c-.65-.05-1.31-.08-2-.08H35.1v.78Z"></path><path class="cls-2" d="M17.42,63.29h-.83v2.34h1.15a1.28,1.28,0,0,1-.32-.74Z"></path><path class="cls-2" d="M45,63.29v1.17h.76V63.29Z"></path><path class="cls-2" d="M45,56.28h.76V55.11H45Z"></path><path class="cls-2" d="M45,61h.76V58.62H45Z"></path><path class="cls-2" d="M36.7,63.29c-.23,0-.46,0-.69,0v0H35.1v1.17h3.64V63.29Z"></path><path class="cls-2" d="M31.59,53.69c-.4-.08-.79-.17-1.16-.27V54H28.32v.38l.17.08a16.55,16.55,0,0,0,3.82,1v-.25h-.72Z"></path><path class="cls-2" d="M31.59,50.44h-.8c.27.06.53.13.8.18Z"></path><path class="cls-2" d="M36,60.24h0A21.8,21.8,0,0,0,38.74,60v-.75H35.1V61H36Z"></path><path class="cls-2" d="M26.72,55.61v-.5H26v1.17h5.24A20,20,0,0,0,26.72,55.61Z"></path><path class="cls-2" d="M15.88,68a19.73,19.73,0,0,1-3.24-.34v.79c.38.07.79.11,1.19.16a.76.76,0,0,1,.74-.6.77.77,0,0,1,.77.72c.36,0,.72.05,1.1.05h.15V65.63h-.71Z"></path><path class="cls-2" d="M14.07,64.46V63.21c-.49-.06-1-.13-1.43-.21v1.57c.49.08,1,.16,1.5.21A1.23,1.23,0,0,1,14.07,64.46Z"></path><path class="cls-2" d="M37.44,49.31v1.56a17.61,17.61,0,0,0,5-1.11c.14,0,.24-.11.37-.17V47.87a8.24,8.24,0,0,1-.94.45A15.89,15.89,0,0,1,37.44,49.31Z"></path><path class="cls-2" d="M22.85,69.32a.78.78,0,0,0,.77-.66.77.77,0,0,0-.65-.88,15.48,15.48,0,0,1-1.81-.38V69c.51.12,1,.23,1.58.31Z"></path><path class="cls-2" d="M37.53,54h5.28V52.52a8.24,8.24,0,0,1-.94.45A16.33,16.33,0,0,1,37.53,54Z"></path><path class="cls-2" d="M28.92,67.78A.77.77,0,0,0,29,69.32h.11a13.57,13.57,0,0,0,4.74-1.49,5.29,5.29,0,0,0,.58-.38v2.1c0,.68-.84,1.43-2.24,2a17,17,0,0,1-6.28,1.07,18.63,18.63,0,0,1-4.78-.58v.8a19.52,19.52,0,0,0,4.8.56c4.55,0,8.34-1.37,9.14-3.17V65.63h-1C33.47,66.48,31.69,67.37,28.92,67.78Z"></path><path class="cls-2" d="M14.07,59.79a1.16,1.16,0,0,1,1-1.14,18.92,18.92,0,0,1-2.44-.3v1.57c.47.08.94.15,1.43.2Z"></path><path class="cls-2" d="M41.87,66.91a14.72,14.72,0,0,1-3.13.81v.8c3.06-.46,5.44-1.55,6.09-2.89h-.94A5.45,5.45,0,0,1,41.87,66.91Z"></path><path class="cls-2" d="M32.76,54h.64l-.64-.07Z"></path><path class="cls-2" d="M32.76,50.44v.33c.76.09,1.54.15,2.34.17V49.39a19.57,19.57,0,0,1-2.79-.23v.38A1.15,1.15,0,0,1,32.76,50.44Z"></path><path class="cls-2" d="M21.16,62.76v.53h2.49V63.2A16.73,16.73,0,0,1,21.16,62.76Z"></path><path class="cls-2" d="M22.82,53a12.73,12.73,0,0,1-1.74.54V54h3.3a8.26,8.26,0,0,0,.79-.49V54H26V51.61H24.9A5.11,5.11,0,0,1,22.82,53Z"></path><path class="cls-2" d="M35.1,42.45a20.66,20.66,0,0,0-2.79.21v.79a21.13,21.13,0,0,1,2.79-.24Z"></path><path class="cls-2" d="M41.87,44.29a8.24,8.24,0,0,1,.94.45v-.89a15.57,15.57,0,0,0-5.37-1.33v.78A15.89,15.89,0,0,1,41.87,44.29Z"></path><path class="cls-2" d="M18.74,53.92l-.26,0h.26Z"></path><path class="cls-2" d="M21.16,56.84v.89a18.49,18.49,0,0,1,4.78-.58h0v-.87H20.6c-.31.09-.62.17-.91.28s-.65.25-1,.38v1l1-1Z"></path><path class="cls-2" d="M18.74,50.82v-.38a1.18,1.18,0,0,1,1.17-1.17h1.17v-.4a20.2,20.2,0,0,1-4.66.53,20.92,20.92,0,0,1-3.78-.34v1.58a23,23,0,0,0,3.78.31A21.93,21.93,0,0,0,18.74,50.82Z"></path><rect class="cls-2" x="16.41" y="60.95" width="0.18" height="2.34"></rect><path class="cls-2" d="M16.41,55.11A1.17,1.17,0,0,1,17.14,54l-.72,0a20,20,0,0,1-3.78-.35v1.58a21.78,21.78,0,0,0,3.77.32Z"></path><path class="cls-2" d="M21.08,43.74v-.8a20.86,20.86,0,0,0-4.64-.51,21.68,21.68,0,0,0-3.8.33v.79a20.92,20.92,0,0,1,3.78-.34A20.2,20.2,0,0,1,21.08,43.74Z"></path><path class="cls-2" d="M25.17,46.3c0,.57-.66,1.21-1.75,1.75v1.22h1a6,6,0,0,0,.75-.46v.46H26V45.82a1.61,1.61,0,0,0-.08.48c0-1-1-1.91-2.54-2.6v.86C24.51,45.1,25.17,45.74,25.17,46.3Z"></path><path class="cls-2" d="M23.65,63.2v.09h1C24.32,63.27,24,63.24,23.65,63.2Z"></path><path class="cls-2" d="M43.91,61a5.09,5.09,0,0,1-2,1.31,15.33,15.33,0,0,1-3.13.82v.21h4.59a7.49,7.49,0,0,0,.89-.54v.54H45V61Z"></path><path class="cls-2" d="M32.76,56.79l-.45-.19v.24H26v-.56H26v.87a15.71,15.71,0,0,1,6.77,1.32Z"></path><path class="cls-2" d="M35.42,58.62l-.32-.36v.36Z"></path><path class="cls-2" d="M41.87,57.62a16.55,16.55,0,0,1-4.59,1h6.1a6.68,6.68,0,0,0,.84-.51v.51H45V56.28H43.93A5.16,5.16,0,0,1,41.87,57.62Z"></path><path class="cls-2" d="M34.17,61a4.78,4.78,0,0,1-2,1.32,16,16,0,0,1-5,1h6.45a6.83,6.83,0,0,0,.8-.5v.5h.64V61Z"></path><path class="cls-2" d="M44.22,64.89a1.19,1.19,0,0,1-.33.74h.94a1.79,1.79,0,0,0,.18-.74v-.43h-.79Z"></path><path class="cls-2" d="M44.22,46.3c0,.51-.52,1.07-1.41,1.57v1.72a8.12,8.12,0,0,0,1.41-.78V51c0,.5-.52,1.07-1.41,1.57V54H37.53c-.67.06-1.37.1-2.06.1s-1.39,0-2.07-.1h-.64v-.07l-.45-.07v1.3H40a14.37,14.37,0,0,0,2.42-.7,8.45,8.45,0,0,0,1.78-.95v1.65H45V46.3c0-.93-.83-1.78-2.2-2.45v.89C43.7,45.24,44.22,45.8,44.22,46.3Z"></path><path class="cls-2" d="M35.47,43.21c.66,0,1.32,0,2,.09v-.78q-1-.09-1.95-.09l-.39,0v.76Z"></path><path class="cls-2" d="M25.17,51a1.15,1.15,0,0,1-.27.66H26V49.27h-.87Z"></path><path class="cls-2" d="M38.74,64.46v.18c.36,0,.72-.11,1.07-.18Z"></path><path class="cls-2" d="M30.28,64.46H23.65V63.29H21.16v1.07a20.56,20.56,0,0,0,4.78.53A21.41,21.41,0,0,0,30.28,64.46Z"></path><path class="cls-2" d="M24.42,49.27h-1V48.05a5.46,5.46,0,0,1-.6.27,14.26,14.26,0,0,1-1.74.55v.4H19.91a1.18,1.18,0,0,0-1.17,1.17v.38a17.28,17.28,0,0,0,4.65-1.06A7.59,7.59,0,0,0,24.42,49.27Z"></path><path class="cls-2" d="M22.82,44.29a5.46,5.46,0,0,1,.6.27V43.7a13.12,13.12,0,0,0-2.34-.76v.8A12.71,12.71,0,0,1,22.82,44.29Z"></path><path class="cls-2" d="M23.39,54.41c.36-.15.69-.3,1-.46h-3.3v-.44a18.07,18.07,0,0,1-2.34.41v0h-.26c-.44,0-.89.07-1.34.08a1.17,1.17,0,0,0-.73,1.08v.49h0A19.14,19.14,0,0,0,23.39,54.41Z"></path><path class="cls-2" d="M34.46,64.46v.43a1.22,1.22,0,0,1-.32.74h1V64.46Z"></path><path class="cls-2" d="M32.76,50.44a1.15,1.15,0,0,0-.45-.9v1.18l.45.05Z"></path><path class="cls-2" d="M16.41,63.29V61h.18v-.86l2.15-2.15v-1A5.76,5.76,0,0,0,16.4,58.7c-.44,0-.88,0-1.32-.05a1.16,1.16,0,0,0-1,1.14v.33c.59.06,1.19.1,1.81.12h0v3.09c-.62,0-1.22-.06-1.81-.12v1.25a1.23,1.23,0,0,0,.07.32c.56,0,1.15.09,1.74.1v.75h.71V63.29Z"></path><path class="cls-2" d="M26,55.11V54h-.87v1.66a20.11,20.11,0,0,0-4.57.67H26V55.11Z"></path><path class="cls-2" d="M35.47,51c.66,0,1.32,0,2-.08V49.31c-.65.06-1.31.09-2,.09H35.1v1.55Z"></path><path class="cls-2" d="M42.44,63.7c.32-.13.61-.27.89-.41H38.74v1.17h1.07A14.53,14.53,0,0,0,42.44,63.7Z"></path><path class="cls-2" d="M35.47,55.6A21.29,21.29,0,0,0,40,55.11H32.31v.25A21.64,21.64,0,0,0,35.47,55.6Z"></path><rect class="cls-2" x="34.46" y="63.29" width="0.64" height="1.17"></rect><rect class="cls-2" x="25.99" y="55.11" width="0.05" height="1.17"></rect><path class="cls-2" d="M44.22,55.6a1.15,1.15,0,0,1-.29.68H45V55.11h-.79Z"></path><path class="cls-2" d="M44.22,63.29v1.17H45V63.29Z"></path><path class="cls-2" d="M35.42,58.62H35.1v-.36a7,7,0,0,0-2.34-1.47v1.68a3.35,3.35,0,0,1,1.62,1.39,1.08,1.08,0,0,1,.08.38,1.12,1.12,0,0,1-.29.71h.93V59.24h3.64V60a15.52,15.52,0,0,0,3.7-.94,9.14,9.14,0,0,0,.94-.43h-6.1c-.59.05-1.19.07-1.79.08Z"></path><path class="cls-2" d="M44.22,60.24a1.14,1.14,0,0,1-.31.71H45V58.62h-.79v1.62Z"></path><path class="cls-2" d="M25.94,63.34c-.43,0-.85,0-1.27-.05h-1v1.17h6.63a12.6,12.6,0,0,0,3.38-1.17H27.21C26.79,63.32,26.38,63.34,25.94,63.34Z"></path><path class="cls-2" d="M15.34,68.76v-.05c-.52,0-1-.06-1.51-.12a1,1,0,0,0,0,.17.76.76,0,0,0,.4.67l.68,0A.77.77,0,0,0,15.34,68.76Z"></path><path class="cls-2" d="M14.57,68a.76.76,0,0,0-.74.6c.49.06,1,.1,1.51.12A.77.77,0,0,0,14.57,68Z"></path></svg>