<svg xmlns="http://www.w3.org/2000/svg" id="Layer_1" data-name="Layer 1" width="80" height="80" viewBox="0 0 80 80"><defs><style>.cls-1,.cls-2{fill:#7ec67f;}.cls-2{font-size:8.48px;font-family:Quicksand-Medium, Quicksand Medium;font-weight:500;}</style></defs><g id="retail-fmcg-it-solutions"><path class="cls-1" d="M24.15,62.86a1.33,1.33,0,1,0-1.33-1.32A1.33,1.33,0,0,0,24.15,62.86Z"></path><path class="cls-1" d="M72.5,71.18H68.14V40.91a7.7,7.7,0,0,0,5-7v-3.1a1.54,1.54,0,0,0-.36-1c-3.24-5.55-5.5-9.46-6.38-11V12.78a6.61,6.61,0,0,0-6.6-6.6H20.18a6.61,6.61,0,0,0-6.6,6.6v6c-1,1.85-3.83,6.69-6.37,11a1.51,1.51,0,0,0-.37,1V34a7.7,7.7,0,0,0,5,7V71.18H7.5a1.32,1.32,0,0,0,0,2.64h65a1.32,1.32,0,0,0,0-2.64ZM66.56,38.65l-.12,0a5.11,5.11,0,0,1-1.23.15A5.22,5.22,0,0,1,60,34V32.07H70.52V34A5.12,5.12,0,0,1,66.56,38.65ZM15.85,20.18h7.4l-2.82,9.25H10.52C12.2,26.55,14.77,22.13,15.85,20.18Zm17.7,0-.94,9.25H23.2L26,20.18Zm10.24,0,.94,9.25H35.26l.94-9.25Zm20.36,0c1,1.86,3.42,6,5.33,9.25h-9.9l-2.83-9.25ZM54,20.18l2.82,9.25H47.39l-.94-9.25ZM22.7,32.07h9.77V34a4.89,4.89,0,0,1-9.77,0Zm12.41,0h9.77V34a4.89,4.89,0,0,1-9.77,0V32.07Zm12.41,0h9.79V34a4.9,4.9,0,0,1-9.79,0ZM16.22,12.78a4,4,0,0,1,4-4H59.82a4,4,0,0,1,4,4v4.76H16.22ZM9.48,34V32.07H20.06V34a5.23,5.23,0,0,1-5.28,4.88,5.55,5.55,0,0,1-1.21-.14l-.14,0A5.11,5.11,0,0,1,9.48,34Zm5,7.52h.28a8.19,8.19,0,0,0,5.48-2.17,8.52,8.52,0,0,0,1.07-1.19,7.51,7.51,0,0,0,12.46.08,7.51,7.51,0,0,0,12.41,0,7.52,7.52,0,0,0,12.48-.08,8.09,8.09,0,0,0,6.53,3.36h.29V71.18H36V45.68a1.33,1.33,0,0,0-1.32-1.32H18.86a1.32,1.32,0,0,0-1.32,1.32v25.5h-3ZM33.39,60.21h-4a1.33,1.33,0,0,0,0,2.65h4v8.32H20.18V47H33.39Z"></path><text class="cls-2" transform="translate(39.95 59.74)">SHOP</text></g></svg>