<svg xmlns="http://www.w3.org/2000/svg" id="Layer_1" data-name="Layer 1" width="80" height="80" viewBox="0 0 80 80"><defs><style>.cls-1{fill:#fff;}.cls-2{fill:#f2f2f2;}.cls-3{fill:#7ec67f;}</style></defs><rect class="cls-1" x="34.03" y="54.19" width="11.95" height="6.83"></rect><path class="cls-2" d="M49.81,6.39h0a3,3,0,0,0-3,3V20.05h6V9.38A3,3,0,0,0,49.81,6.39Z"></path><circle class="cls-1" cx="40.03" cy="29.44" r="3.41"></circle><path class="cls-3" d="M31.89,55.59V61A2.13,2.13,0,0,0,34,63.15h3.84V73.61a2.13,2.13,0,0,0,4.26,0V63.15H46A2.13,2.13,0,0,0,48.11,61V55.59a21.57,21.57,0,0,0,13.44-20V20.05a2.13,2.13,0,0,0-2.13-2.14H54.93V9.38a5.12,5.12,0,1,0-10.24,0v8.53H35.31V9.38a5.13,5.13,0,0,0-10.25,0v8.53H20.58a2.13,2.13,0,0,0-2.13,2.14V35.63A21.57,21.57,0,0,0,31.89,55.59Zm12,3.29H36.16V56.83a21.24,21.24,0,0,0,7.68,0ZM49,9.38a.85.85,0,1,1,1.7,0v8.53H49Zm-19.63,0a.85.85,0,0,1,.85-.85.86.86,0,0,1,.86.85v8.53H29.33Zm-6.61,12.8H57.28V35.63a17.28,17.28,0,0,1-34.56,0Z"></path><path class="cls-3" d="M40,35a5.55,5.55,0,1,0-5.55-5.55A5.56,5.56,0,0,0,40,35Zm0-6.83a1.28,1.28,0,1,1-1.28,1.28A1.28,1.28,0,0,1,40,28.16Z"></path><path class="cls-3" d="M32.77,41.81H47.28a2.13,2.13,0,1,0,0-4.26H32.77a2.13,2.13,0,0,0,0,4.26Z"></path><path class="cls-3" d="M45.15,44.37H34.91a2.14,2.14,0,1,0,0,4.27H45.15a2.14,2.14,0,0,0,0-4.27Z"></path></svg>