<svg xmlns="http://www.w3.org/2000/svg" xmlns:xlink="http://www.w3.org/1999/xlink" id="Layer_1" data-name="Layer 1" width="80" height="80" viewBox="0 0 80 80"><defs><style>.cls-1{fill:none;}.cls-2{fill:#fff;}.cls-3{fill:#7ec67f;}.cls-4{clip-path:url(#clip-path);}</style><clipPath id="clip-path"><rect class="cls-1" x="6.77" y="6.77" width="66.47" height="66.47"></rect></clipPath></defs><g id="manufacturing"><rect class="cls-2" x="7.93" y="21.36" width="11.93" height="6.22"></rect><path class="cls-3" d="M26.61,52.76a1.29,1.29,0,0,0,1.29-1.29V46.36a1.3,1.3,0,1,0-2.59,0v5.11a1.3,1.3,0,0,0,1.3,1.29Zm0,0"></path><path class="cls-3" d="M33.35,52.76a1.3,1.3,0,0,0,1.3-1.29V46.36a1.3,1.3,0,0,0-2.6,0v5.11a1.3,1.3,0,0,0,1.3,1.29Zm0,0"></path><path class="cls-3" d="M40.09,52.76a1.3,1.3,0,0,0,1.3-1.29V46.36a1.3,1.3,0,1,0-2.59,0v5.11a1.29,1.29,0,0,0,1.29,1.29Zm0,0"></path><g class="cls-4"><path class="cls-3" d="M46.84,52.76a1.29,1.29,0,0,0,1.29-1.29V46.36a1.3,1.3,0,1,0-2.59,0v5.11a1.3,1.3,0,0,0,1.3,1.29Zm0,0"></path><path class="cls-3" d="M70.89,69.82a3,3,0,0,1-4.24,0,5.59,5.59,0,0,0-7.91,0,3,3,0,0,1-3.86.31V65.2a5.64,5.64,0,0,0,5.69-1.36,3,3,0,0,1,4.24,0,5.61,5.61,0,0,0,7.91,0A1.29,1.29,0,0,0,73,62.49v-9A10.06,10.06,0,0,0,63,43.46h-8.1V38a1.3,1.3,0,0,0-1.3-1.3H50.21V29.85a1.3,1.3,0,0,0-.67-1.13L38.13,22.36a1.3,1.3,0,0,0-1.93,1.13v4.15l-9.48-5.28a1.29,1.29,0,0,0-1.29,0,1.27,1.27,0,0,0-.64,1.11V36.72H21.16V21.36a1.31,1.31,0,0,0-.92-1.25V18.49a.55.55,0,0,1,.55-.55h6.44a5.14,5.14,0,0,0,0-10.28H22.65a7.52,7.52,0,0,0-6.61,0,6.37,6.37,0,0,0-9.4,5.58V72a1.3,1.3,0,0,0,1.29,1.3H53.58a1.3,1.3,0,0,0,.94-.41,5.61,5.61,0,0,0,6-1.23,3,3,0,0,1,4.24,0,5.59,5.59,0,0,0,7.91,0,1.29,1.29,0,1,0-1.83-1.83ZM58.74,62a3,3,0,0,1-3.86.32v-9h6a2.92,2.92,0,0,1,2.92,2.92v4.23a5.59,5.59,0,0,0-5,1.53Zm11.7-8.49v8.87a3.06,3.06,0,0,1-1.67.5A3,3,0,0,1,66.65,62l-.3-.27V56.24a5.52,5.52,0,0,0-4.21-5.36V46.06H63a7.46,7.46,0,0,1,7.46,7.45Zm-10.9-7.45v4.67H54.88V46.06ZM38.8,25.7l8.81,4.91v6.11H38.8Zm-11.42,0,8.82,4.91v6.11H27.38Zm24.9,13.62V58.51H21.16V39.32Zm-43,19.19V28.88h9.34V58.51Zm9.34-35.86v3.63H9.23V22.65ZM13,9.49A3.72,3.72,0,0,1,16,11a1.3,1.3,0,0,0,2.2-1.37,5.06,5.06,0,0,1,1.17-.14,4.89,4.89,0,0,1,4,2.07,1.3,1.3,0,0,0,2.23-1.3h1.64a2.55,2.55,0,0,1,0,5.09H20.79a3.15,3.15,0,0,0-3.15,3.14v1.57H9.23V13.25A3.77,3.77,0,0,1,13,9.49ZM9.23,68.1H19.39a1.3,1.3,0,0,0,0-2.59H9.23V61.1H52.28v9.6h-43Zm0,0"></path></g><path class="cls-3" d="M24.57,65.51a1.3,1.3,0,1,0,.92.38,1.3,1.3,0,0,0-.92-.38Zm0,0"></path><path class="cls-3" d="M43.33,17.94H35.81a1.3,1.3,0,0,1,0-2.59h7.52a1.3,1.3,0,1,1,0,2.59Zm0,0"></path><path class="cls-3" d="M48.52,17.94a1.34,1.34,0,0,1-.92-.38,1.3,1.3,0,0,1,.92-2.21,1.28,1.28,0,0,1,.92.38,1.29,1.29,0,0,1,0,1.83,1.32,1.32,0,0,1-.92.38Zm0,0"></path></g></svg>