<svg xmlns="http://www.w3.org/2000/svg" id="Layer_1" data-name="Layer 1" width="80" height="80" viewBox="0 0 80 80"><defs><style>.cls-1{fill:#e57070;}</style></defs><g id="healthcare"><path class="cls-1" d="M63.41,25.74a1.3,1.3,0,1,0-1.33-1.29A1.32,1.32,0,0,0,63.41,25.74Z"></path><path class="cls-1" d="M68.74,28.34a1.33,1.33,0,0,0-2.66,0,2.67,2.67,0,1,1-5.31-.29,1.33,1.33,0,0,0-2.64-.3,3.69,3.69,0,0,0,0,.58,5.33,5.33,0,0,0,10.65,0Z"></path><path class="cls-1" d="M31.79,6.82A5.27,5.27,0,0,0,26.46,12a5.27,5.27,0,0,0,5.33,5.19,5.51,5.51,0,0,0,2-.37l1.57.38a1.29,1.29,0,0,1,1,1.48l-.86,4.86h0l-2,12.09a8.45,8.45,0,0,1-16.64,0h0l-2.87-16.9a1.31,1.31,0,0,1,1-1.48l1.58-.38a5.47,5.47,0,0,0,2,.37A5.26,5.26,0,0,0,23.8,12a5.26,5.26,0,0,0-5.32-5.18,5.31,5.31,0,0,0-4.63,2.63L13,9.66A9.09,9.09,0,0,0,6.08,20L8.93,36.83A16.05,16.05,0,0,0,21.18,49.9c-.6,12.26,10.43,23.28,23.08,23.28,11.88,0,23.15-9.38,23.15-21.39V38a10.37,10.37,0,0,0,6.65-9.61,10.65,10.65,0,0,0-21.29,0A10.37,10.37,0,0,0,59.42,38V51.41c0,7.25-7.08,13.6-15.16,13.6S28.54,58,29.18,49.88a16,16,0,0,0,12.15-13L44.19,20A9.06,9.06,0,0,0,37.27,9.66l-.85-.21A5.32,5.32,0,0,0,31.79,6.82ZM29.12,12a2.67,2.67,0,1,1,2.67,2.6A2.63,2.63,0,0,1,29.12,12ZM18.48,9.41A2.6,2.6,0,1,1,15.82,12,2.63,2.63,0,0,1,18.48,9.41Zm37,18.93a8,8,0,1,1,7.85,7.77A7.89,7.89,0,0,1,55.43,28.34ZM44.26,67.61c9.07,0,17.82-7.17,17.82-16.2V38.62a11.18,11.18,0,0,0,2.67,0V51.79c0,10-9.58,18.8-20.49,18.8S23.49,61,23.83,50.32c.43,0,.87,0,1.3,0s.91,0,1.36-.06C26.14,59.74,35,67.61,44.26,67.61Zm-2.69-48L38.71,36.46v0a13.58,13.58,0,0,1-13.6,11.3A13.57,13.57,0,0,1,11.56,36.43h0L8.7,19.56a6.49,6.49,0,0,1,4.47-7.25A5.06,5.06,0,0,0,14,14.77a3.9,3.9,0,0,0-2.66,4.34L14.18,36a11,11,0,0,0,11,9.19,10.93,10.93,0,0,0,11-9.14l2-12.07.86-4.85a3.89,3.89,0,0,0-2.66-4.35,5.08,5.08,0,0,0,.82-2.46A6.49,6.49,0,0,1,41.57,19.57Z"></path></g></svg>