<svg xmlns="http://www.w3.org/2000/svg" xmlns:xlink="http://www.w3.org/1999/xlink" id="Layer_1" data-name="Layer 1" width="80" height="80" viewBox="0 0 80 80"><defs><style>.cls-1{fill:none;}.cls-2{clip-path:url(#clip-path);}.cls-3{fill:#d2ae55;}</style><clipPath id="clip-path"><rect class="cls-1" x="7.7" y="7.7" width="64.6" height="64.6"></rect></clipPath></defs><g class="cls-2"><path class="cls-3" d="M12.92,27.35,20,31.55v7.32a3.92,3.92,0,0,0,1.91,3.36L38,51.79a3.91,3.91,0,0,0,4,0l16.09-9.56A3.92,3.92,0,0,0,60,38.87V31.55l5.74-3.4v5.1a3.78,3.78,0,0,0-2.52,3.57v9.27a1.25,1.25,0,0,0,1.26,1.26h5a1.26,1.26,0,0,0,1.26-1.26V36.82a3.79,3.79,0,0,0-2.53-3.57v-8a2.4,2.4,0,0,0-1.18-2.08L41.83,8.2a3.58,3.58,0,0,0-3.66,0l-25.25,15a2.42,2.42,0,0,0,0,4.16ZM23.2,40.06a1.37,1.37,0,0,1-.68-1.19V33.05l15.65,9.29a3.77,3.77,0,0,0,.57.28v6.67Zm34.28-1.19a1.39,1.39,0,0,1-.68,1.19L41.26,49.29V42.62a3.77,3.77,0,0,0,.57-.28l15.65-9.29Zm10.78,6H65.74v-8a1.26,1.26,0,0,1,2.52,0ZM39.45,10.37a1.07,1.07,0,0,1,1.09,0l25.1,14.9-25.1,14.9a1.07,1.07,0,0,1-1.09,0L14.36,25.27Zm0,0"></path></g><path class="cls-3" d="M44.91,25.6A4.67,4.67,0,0,0,40,21.23a4.67,4.67,0,0,0-4.91,4.37A4.67,4.67,0,0,0,40,30a4.67,4.67,0,0,0,4.91-4.38Zm-7.3,0A2.21,2.21,0,0,1,40,23.75a2.2,2.2,0,0,1,2.38,1.85A2.19,2.19,0,0,1,40,27.45a2.2,2.2,0,0,1-2.39-1.85Zm0,0"></path><path class="cls-3" d="M62.59,54.57H35.84a1.27,1.27,0,1,0,0,2.53H40a7.19,7.19,0,0,1,7.18,7.18,5.5,5.5,0,0,1-5.49,5.5H20.2a8,8,0,0,0,2.19-5.5A9.66,9.66,0,0,0,19.2,57.1h5.45a1.27,1.27,0,0,0,0-2.53h-12a1.25,1.25,0,0,0-1.19,1.26,1.26,1.26,0,0,0,1.11,1.25h.15a7.19,7.19,0,0,1,7.18,7.18,5.5,5.5,0,0,1-5.49,5.5,4.15,4.15,0,0,1-4.15-4.15,3.07,3.07,0,0,1,3.06-3.06,2.2,2.2,0,0,1,2.2,2.2,1.27,1.27,0,0,0,2.53,0,4.73,4.73,0,0,0-4.73-4.72A5.58,5.58,0,0,0,7.7,65.63a6.67,6.67,0,0,0,6.67,6.67H64.28a8,8,0,0,0,8-8,9.72,9.72,0,0,0-9.71-9.71Zm1.69,15.21H47.52a8,8,0,0,0,2.19-5.5,9.66,9.66,0,0,0-3.19-7.18H62.59a7.2,7.2,0,0,1,7.19,7.18,5.51,5.51,0,0,1-5.5,5.5Zm0,0"></path><path class="cls-3" d="M29.39,54.94a1.27,1.27,0,1,0,.89-.37,1.31,1.31,0,0,0-.89.37Zm0,0"></path></svg>