<svg xmlns="http://www.w3.org/2000/svg" id="Layer_1" data-name="Layer 1" width="80" height="80" viewBox="0 0 80 80"><defs><style>.cls-1{fill:#61c1d1;}</style></defs><g id="supply_chain"><path class="cls-1" d="M36.52,17.33a1.33,1.33,0,0,0,.94-.39,1.33,1.33,0,0,0,0-1.9,1.34,1.34,0,0,0-1.89,0,1.33,1.33,0,0,0,0,1.9,1.34,1.34,0,0,0,1,.39Zm0,0"></path><path class="cls-1" d="M69.79,37.08V30.93a7.26,7.26,0,0,0-6.15-7.16,1.23,1.23,0,0,0-.47-.09H50.49a3.77,3.77,0,0,0-.83.1V17.33A2.68,2.68,0,0,0,47,14.65H42a1.34,1.34,0,0,0,0,2.68h5V50.06H8.34V46.3H24.1a1.34,1.34,0,0,0,0-2.68H8.34V17.33H31a1.34,1.34,0,0,0,0-2.68H8.34a2.69,2.69,0,0,0-2.69,2.68V56.77A1.34,1.34,0,0,0,7,58.11h6.44a7.25,7.25,0,0,0,14.49,0H52.08a7.25,7.25,0,0,0,14.49,0H70.5a3.86,3.86,0,0,0,3.85-3.85V42.83a5.91,5.91,0,0,0-4.56-5.75Zm1.63,4.51H69.81s0,0,0,0V39.9a3.28,3.28,0,0,1,1.63,1.69ZM62.54,26.37a4.56,4.56,0,0,1,4.56,4.56v6H55.83V26.37Zm-12.88.82a.83.83,0,0,1,.83-.82h2.66V38.25a1.34,1.34,0,0,0,1.34,1.34H67.1v2a2.7,2.7,0,0,0,2.71,2.7h1.85v5.79h-22ZM14,55.44l-.2,0H8.34V52.74h7.48A7.18,7.18,0,0,0,14,55.44Zm6.73,7.23a4.56,4.56,0,1,1,4.56-4.56,4.56,4.56,0,0,1-4.56,4.56Zm6.73-7.25a7.42,7.42,0,0,0-1.87-2.68H47v2.68Zm22.25,0V52.74h4.8a7.42,7.42,0,0,0-1.87,2.68Zm9.66,7.25a4.56,4.56,0,1,1,4.56-4.56,4.57,4.57,0,0,1-4.56,4.56ZM70.5,55.42H66.05a7.3,7.3,0,0,0-1.87-2.68h7.48v1.52a1.16,1.16,0,0,1-1.16,1.16Zm0,0"></path><path class="cls-1" d="M56.47,42.27h-2a1.35,1.35,0,0,0,0,2.69h2a1.35,1.35,0,0,0,0-2.69Zm0,0"></path><path class="cls-1" d="M28.45,44a1.34,1.34,0,0,0-.39,1,1.34,1.34,0,1,0,2.68,0,1.34,1.34,0,0,0-.39-1,1.35,1.35,0,0,0-1.9,0Zm0,0"></path></g></svg>