<svg xmlns="http://www.w3.org/2000/svg" xmlns:xlink="http://www.w3.org/1999/xlink" xmlns:serif="http://www.serif.com/" width="100%" height="100%" viewBox="0 0 512 512" xml:space="preserve" style="fill-rule:evenodd;clip-rule:evenodd;stroke-linejoin:round;stroke-miterlimit:2;">    <g transform="matrix(0.857422,0,0,0.857422,33,32.528)">        <path d="M153.555,207.4L173.426,207.4C177.82,207.4 181.817,209.214 184.708,212.105C187.599,214.996 189.413,218.994 189.413,223.386L189.413,258.933C197.69,260.208 206.166,261.314 214.585,262.306C223.884,263.384 233.039,264.263 241.741,264.999L241.741,255.22C241.741,249.07 244.236,243.513 248.262,239.488C252.316,235.463 257.871,232.968 263.993,232.968L335.229,232.968C341.352,232.968 346.908,235.462 350.933,239.488C354.958,243.513 357.453,249.07 357.453,255.22L357.453,265.029C391.725,262.166 433.167,256.779 462.647,247.086C472.399,243.91 497.003,235.123 497.003,222.395L497.003,138.66C497.003,137.81 496.068,137.328 495.303,137.328L103.918,137.328C103.153,137.328 102.218,137.81 102.218,138.66L102.218,173.045L107.604,173.045C114.378,173.045 120.558,175.822 125.037,180.274C127.787,183.051 129.914,186.454 131.133,190.251C137.483,190.534 143.237,193.228 147.461,197.48C150.238,200.229 152.336,203.631 153.555,207.4ZM209.539,122.332L209.539,102.037C209.539,93.135 213.169,85.086 219.008,79.246C223.373,74.881 229.015,71.734 235.279,70.43C236.441,66.434 238.596,62.862 241.487,59.971C245.91,55.549 252.032,52.799 258.779,52.799L340.446,52.799C347.192,52.799 353.315,55.549 357.737,59.971C360.6,62.862 362.783,66.434 363.945,70.43C370.21,71.735 375.822,74.881 380.187,79.246C386.056,85.086 389.684,93.135 389.684,102.037L389.684,122.332L495.304,122.332C499.811,122.332 503.949,124.119 506.983,127.037C510.073,130.014 512.001,134.125 512.001,138.66L512.001,222.394C512.001,233.365 505.084,242.294 493.575,249.55L493.575,389.015C493.575,393.55 491.733,397.662 488.757,400.638C485.752,403.615 481.642,405.484 477.107,405.484L189.413,405.484L189.413,443.214C189.413,447.607 187.599,451.605 184.708,454.495C181.816,457.386 177.819,459.2 173.426,459.2L15.987,459.2C11.593,459.2 7.597,457.385 4.706,454.495C1.786,451.605 0,447.607 0,443.215L0,350.295C0,346.156 3.373,342.783 7.512,342.783C11.651,342.783 14.995,346.156 14.995,350.295L14.995,443.215C14.995,443.725 15.449,444.178 15.987,444.178L173.425,444.178C173.935,444.178 174.417,443.725 174.417,443.215L174.417,223.387C174.417,222.877 173.935,222.424 173.425,222.424L153.554,222.424C152.335,226.194 150.238,229.596 147.46,232.346C143.009,236.825 136.829,239.602 130.026,239.602L59.387,239.602C52.584,239.602 46.405,236.825 41.925,232.346C39.175,229.596 37.077,226.194 35.859,222.424L15.987,222.424C15.449,222.424 14.995,222.877 14.995,223.387L14.995,316.307C14.995,320.446 11.65,323.819 7.512,323.819C3.374,323.819 0,320.445 0,316.307L0,223.387C0,218.994 1.786,214.996 4.706,212.106C7.598,209.215 11.594,207.401 15.987,207.401L35.858,207.401C37.077,203.631 39.174,200.229 41.924,197.479C46.177,193.227 51.931,190.534 58.28,190.25C59.5,186.453 61.625,183.051 64.375,180.273C68.854,175.822 75.033,173.044 81.809,173.044L87.195,173.044L87.195,138.66C87.195,134.125 89.122,130.014 92.24,127.037C95.245,124.119 99.412,122.332 103.919,122.332L209.539,122.332ZM235.846,85.852C233.493,86.729 231.367,88.09 229.61,89.848C226.492,92.965 224.536,97.303 224.536,102.037L224.536,122.332L374.66,122.332L374.66,102.037C374.66,97.303 372.732,92.965 369.586,89.848C367.857,88.09 365.732,86.729 363.35,85.852C362.131,89.139 360.175,92.116 357.738,94.553C353.316,99.004 347.193,101.754 340.447,101.754L258.78,101.754C252.033,101.754 245.911,99.004 241.488,94.553C239.02,92.115 237.093,89.139 235.846,85.852ZM340.445,67.793L258.778,67.793C256.17,67.793 253.817,68.871 252.088,70.6C250.359,72.301 249.311,74.682 249.311,77.262C249.311,79.785 250.303,82.166 252.088,83.951C253.817,85.68 256.17,86.758 258.778,86.758L340.445,86.758C343.052,86.758 345.406,85.68 347.134,83.951C348.835,82.222 349.912,79.869 349.912,77.262C349.912,74.682 348.835,72.301 347.134,70.6C345.406,68.871 343.053,67.793 340.445,67.793ZM241.741,280.023C232.557,279.287 222.806,278.322 212.884,277.189C205.174,276.281 197.294,275.261 189.413,274.07L189.413,390.461L477.105,390.461C477.898,390.461 478.579,389.811 478.579,389.016L478.579,257.176C475.007,258.651 471.237,260.039 467.268,261.344C436.143,271.549 392.83,277.16 357.453,280.08L357.453,295.728C357.453,301.851 354.959,307.435 350.933,311.46C346.908,315.483 341.352,317.98 335.229,317.98L316.605,317.98C312.466,317.98 309.093,314.634 309.093,310.468C309.093,306.329 312.466,302.984 316.605,302.984L335.229,302.984C337.213,302.984 339.027,302.162 340.332,300.859C341.636,299.525 342.458,297.712 342.458,295.728L342.458,255.22C342.458,253.236 341.636,251.421 340.332,250.089C339.027,248.784 337.214,247.964 335.229,247.964L263.993,247.964C262.01,247.964 260.195,248.784 258.891,250.089C257.559,251.421 256.737,253.235 256.737,255.22L256.737,295.728C256.737,297.712 257.559,299.525 258.891,300.859C260.195,302.162 262.009,302.984 263.993,302.984L282.617,302.984C286.756,302.984 290.129,306.33 290.129,310.468C290.129,314.634 286.756,317.98 282.617,317.98L263.993,317.98C257.871,317.98 252.315,315.484 248.262,311.46C244.237,307.435 241.741,301.851 241.741,295.728L241.741,280.023ZM39.969,367.529C35.83,367.529 32.457,364.183 32.457,360.045C32.457,355.879 35.83,352.533 39.969,352.533L149.445,352.533C153.584,352.533 156.958,355.879 156.958,360.045C156.958,364.184 153.584,367.529 149.445,367.529L39.969,367.529ZM62.959,421.842C58.82,421.842 55.447,418.496 55.447,414.358C55.447,410.219 58.82,406.846 62.959,406.846L126.455,406.846C130.595,406.846 133.968,410.219 133.968,414.358C133.968,418.497 130.595,421.842 126.455,421.842L62.959,421.842ZM39.969,394.685C35.83,394.685 32.457,391.339 32.457,387.201C32.457,383.062 35.83,379.689 39.969,379.689L149.445,379.689C153.584,379.689 156.958,383.062 156.958,387.201C156.958,391.34 153.584,394.685 149.445,394.685L39.969,394.685ZM82.744,322.685C83.736,326.681 81.299,330.763 77.273,331.755C74.552,332.435 71.746,332.804 68.939,332.804C58.763,332.804 49.55,328.355 42.945,321.154C36.482,314.125 32.457,304.459 32.457,293.828C32.457,283.199 36.482,273.56 42.945,266.531C49.55,259.33 58.763,254.881 68.939,254.881C71.746,254.881 74.552,255.221 77.273,255.93C81.298,256.922 83.736,260.975 82.744,265C81.723,268.996 77.671,271.463 73.645,270.443C72.114,270.074 70.499,269.875 68.939,269.875C63.1,269.875 57.828,272.455 53.944,276.65C49.947,281.015 47.453,287.082 47.453,293.828C47.453,300.574 49.947,306.67 53.944,311.006C57.828,315.201 63.1,317.811 68.939,317.811C74.014,317.81 80.761,314.777 82.744,322.685ZM95.756,267.154C94.281,263.299 96.237,258.99 100.065,257.517C103.919,256.042 108.228,257.97 109.703,261.826L126.087,304.486L142.473,261.826C143.947,257.971 148.255,256.043 152.111,257.517C155.966,258.99 157.893,263.298 156.42,267.154L133.063,327.957C132.326,329.885 130.824,331.473 128.754,332.266C124.898,333.741 120.59,331.813 119.116,327.957L95.756,267.154ZM64.631,205.217L59.387,205.217C56.723,205.217 54.314,206.322 52.556,208.08C50.798,209.838 49.693,212.248 49.693,214.912C49.693,217.576 50.798,219.986 52.556,221.744C54.314,223.502 56.723,224.607 59.387,224.607L130.028,224.607C132.693,224.607 135.102,223.502 136.86,221.744C138.617,219.986 139.722,217.576 139.722,214.912C139.722,212.248 138.617,209.838 136.86,208.08C135.102,206.322 132.693,205.217 130.028,205.217L124.783,205.217C120.644,205.217 117.271,201.873 117.271,197.735C117.271,195.071 116.194,192.661 114.436,190.903C112.679,189.118 110.241,188.04 107.605,188.04L81.81,188.04C79.173,188.04 76.736,189.118 74.978,190.903C73.22,192.661 72.143,195.071 72.143,197.735C72.143,201.873 68.77,205.217 64.631,205.217Z" style="fill:rgb(61,163,231);fill-rule:nonzero;"></path>    </g></svg>