<svg xmlns="http://www.w3.org/2000/svg" width="100" height="100" viewBox="0 0 100 100" fill="none"><path d="M30.1761 25C30.2931 25 30.4102 25 30.5338 25C30.8209 28.5538 29.4672 31.2093 27.822 33.1322C26.2077 35.0419 23.9972 36.8941 20.4219 36.6131C20.1834 33.1101 21.5393 30.6516 23.1823 28.7331C24.706 26.9451 27.4996 25.3541 30.1761 25Z" fill="white"></path><path d="M41 61.597C41 61.6324 41 61.6633 41 61.6965C39.9952 64.7459 38.562 67.3592 36.813 69.7845C35.2164 71.9863 33.2598 74.9493 29.7662 74.9493C26.7474 74.9493 24.7422 73.0042 21.6483 72.9511C18.3756 72.898 16.5758 74.5776 13.5835 75.0002C13.2412 75.0002 12.8989 75.0002 12.5632 75.0002C10.3659 74.6816 8.59264 72.9378 7.30076 71.3667C3.49138 66.7241 0.547668 60.7273 0 53.0531C0 52.3008 0 51.5506 0 50.7982C0.231875 45.3059 2.89513 40.8404 6.4351 38.6762C8.30335 37.5255 10.8716 36.5453 13.7314 36.9834C14.9571 37.1737 16.2092 37.5941 17.3067 38.0102C18.3469 38.4107 19.6476 39.121 20.8798 39.0834C21.7146 39.0591 22.5449 38.6231 23.3863 38.3155C25.8508 37.4238 28.2667 36.4014 31.4511 36.8816C35.2782 37.4614 37.9945 39.1653 39.6728 41.7941C36.4354 43.8587 33.8759 46.97 34.3132 52.2831C34.7018 57.1093 37.502 59.9329 41 61.597Z" fill="white"></path></svg>