<svg xmlns="http://www.w3.org/2000/svg" width="80" height="80" viewBox="0 0 80 80" fill="none"><circle cx="40" cy="40" r="40" fill="#222222"></circle><path d="M30.9091 20C24.895 20 20 24.895 20 30.9091V49.0909C20 55.105 24.895 60 30.9091 60H49.0909C55.105 60 60 55.105 60 49.0909V30.9091C60 24.895 55.105 20 49.0909 20H30.9091ZM30.9091 21.8182H49.0909C54.1223 21.8182 58.1818 25.8777 58.1818 30.9091V49.0909C58.1818 54.1223 54.1223 58.1818 49.0909 58.1818H30.9091C25.8777 58.1818 21.8182 54.1223 21.8182 49.0909V30.9091C21.8182 25.8777 25.8777 21.8182 30.9091 21.8182ZM27.832 33.6967C27.1929 33.6967 26.7223 34.1523 26.7223 34.7514C26.7223 35.3423 27.1929 35.7972 27.832 35.7972C28.4711 35.7972 28.9435 35.3423 28.9435 34.7514C28.9435 34.1523 28.4711 33.6967 27.832 33.6967ZM37.3065 34.2152C33.9983 34.2152 31.9212 36.532 31.9212 40.2557C31.9212 43.9711 33.9583 46.3033 37.3065 46.3033C40.6465 46.3033 42.6758 43.963 42.6758 40.2557C42.6758 36.5402 40.6301 34.2161 37.3065 34.2152ZM49.0607 34.2152C46.5444 34.2152 44.8651 35.5813 44.8651 37.6349C44.8651 39.3286 45.8158 40.3366 47.9013 40.8239L49.3874 41.1843C50.9138 41.5434 51.5856 42.0701 51.5856 42.9492C51.5856 43.9719 50.5309 44.7141 49.0927 44.7141C47.5517 44.7141 46.4808 44.0197 46.3281 42.9261H44.5526C44.6807 44.988 46.3978 46.305 48.9542 46.305C51.6869 46.305 53.3967 44.9239 53.3967 42.7184C53.3967 40.9848 52.4223 40.0253 50.0568 39.4744L48.7873 39.1619C47.2855 38.8101 46.6779 38.3387 46.6779 37.516C46.6779 36.4769 47.6213 35.799 49.0359 35.799C50.3786 35.799 51.3038 36.4604 51.4719 37.5231H53.2138C53.1101 35.5813 51.4016 34.2152 49.0607 34.2152ZM37.3065 35.8842C39.4965 35.8842 40.8469 37.5793 40.8469 40.2557C40.8469 42.9157 39.4956 44.6342 37.3065 44.6342C35.0937 44.6342 33.7518 42.9166 33.7518 40.2557C33.7518 37.5793 35.1328 35.8851 37.3065 35.8842ZM26.978 37.3242V46.0245H28.6879V37.3242H26.978Z" fill="white"></path></svg>