<svg xmlns="http://www.w3.org/2000/svg" width="80" height="80" viewBox="0 0 80 80" fill="none"><circle cx="40" cy="40" r="40" fill="#222222"></circle><path d="M53.0909 24H26.9091C25.3011 24 24 25.3011 24 26.9091V53.0909C24 54.6989 25.3011 56 26.9091 56H53.0909C54.6989 56 56 54.6989 56 53.0909V26.9091C56 25.3011 54.6989 24 53.0909 24ZM40 47.8239C40 50.4091 38.4148 51.858 35.7841 51.858C33.1818 51.858 31.5227 50.3409 31.5227 47.8807H34.3409C34.3466 48.7955 34.892 49.3693 35.733 49.3693C36.5966 49.3693 37.0625 48.8239 37.0625 47.8011V39.9943H40V47.8239ZM47.9716 51.858C45.0511 51.858 43.2102 50.483 43.1648 48.2557H45.9659C46.0341 49.0966 46.875 49.6307 48.0909 49.6307C49.1875 49.6307 49.9432 49.108 49.9432 48.3466C49.9432 47.7045 49.4375 47.358 48.1136 47.0966L46.5966 46.7955C44.483 46.392 43.3977 45.2386 43.3977 43.4261C43.3977 41.1648 45.2045 39.6875 47.9886 39.6875C50.6932 39.6875 52.5682 41.1477 52.6136 43.2898H49.9034C49.8352 42.4716 49.0625 41.9034 48.0284 41.9034C46.9943 41.9034 46.3182 42.392 46.3182 43.1591C46.3182 43.7898 46.8295 44.1591 48.0455 44.3977L49.5284 44.6875C51.8125 45.1307 52.8352 46.1591 52.8352 47.9943C52.8352 50.4034 51 51.858 47.9716 51.858Z" fill="#F1C40F"></path></svg>