<svg xmlns="http://www.w3.org/2000/svg" width="80" height="80" viewBox="0 0 80 80" fill="none"><circle cx="40" cy="40" r="40" fill="#222222"></circle><path d="M39.5567 39.4721C38.2925 37.434 37.3755 35.7443 36.105 32.5624C33.9567 27.1879 49.1707 22.3315 43.002 13C45.6759 19.4461 33.4045 23.431 32.2645 28.7991C31.222 33.7366 39.5503 39.4721 39.5567 39.4721Z" fill="#F44336"></path><path d="M39.8455 29.8099C39.6023 32.9969 42.6689 34.6955 42.7575 37.0236C42.8285 38.9185 40.9247 40.4981 40.9247 40.4981C40.9247 40.4981 44.3801 39.8191 45.4581 36.9286C46.6551 33.7189 43.135 31.5212 43.4973 28.9511C43.8355 26.4963 51.1365 21.93 51.1365 21.93C51.1365 21.93 40.3939 22.6419 39.8455 29.8099Z" fill="#F44336"></path><path d="M50.2397 39.6709C52.4615 39.1719 54.3349 40.5867 54.3349 42.2169C54.3349 45.8915 49.2416 49.3647 49.2416 49.3647C49.2416 49.3647 57.1266 48.4249 57.1266 42.3917C57.1266 38.4017 53.2544 37.4049 50.2397 39.6709ZM46.4967 42.6349C46.4967 42.6349 48.9553 40.8831 49.6102 40.2257C43.5771 41.5063 29.8021 41.6786 29.8021 40.5665C29.8021 39.5417 34.2443 38.4917 34.2443 38.4917C34.2443 38.4917 24.3985 38.3498 24.3985 41.2543C24.3985 44.2816 37.2868 44.4982 46.4967 42.6349Z" fill="#1565C0"></path><path d="M44.9843 45.3912C39.2729 47.2899 28.7533 46.6832 31.8693 44.1334C30.3518 44.1334 28.1022 45.3532 28.1022 46.5261C28.1022 48.8783 39.4794 50.6947 47.9002 47.2507L44.9843 45.3912Z" fill="#1565C0"></path><path d="M33.2689 49.404C31.1967 49.404 29.8553 50.7391 29.8553 51.7119C29.8553 54.7405 42.2179 55.0457 47.1161 51.9715L44.0027 49.9043C40.3433 51.513 31.1511 51.7347 33.2689 49.404Z" fill="#1565C0"></path><path d="M55.5559 54.3351C55.5559 53.1495 54.2196 52.5909 53.7408 52.3237C56.5629 59.1295 25.4726 58.6013 25.4726 54.5834C25.4726 53.6701 27.7615 52.7759 29.8768 53.1989L28.0781 52.1362C23.8627 51.475 21 53.3281 21 54.8228C21 61.7933 55.5559 61.4576 55.5559 54.3351Z" fill="#1565C0"></path><path d="M59 56.833C53.7484 62.02 40.4319 63.9099 27.0407 60.7052C40.4319 66.409 58.9367 63.1967 59 56.833Z" fill="#1565C0"></path></svg>