<svg xmlns="http://www.w3.org/2000/svg" id="jobs" width="73.209" height="73.209" viewBox="0 0 73.209 73.209"><path id="Path_4515" data-name="Path 4515" d="M344.239,153.157a5.447,5.447,0,0,0-4.585-2.293H324.523v-1.834A7.111,7.111,0,0,0,317.492,142H299.763a7.111,7.111,0,0,0-7.031,7.031v1.834H277.6a5,5,0,0,0-4.432,2.293,5.5,5.5,0,0,0-1.07,3.362v53.187a5.479,5.479,0,0,0,5.5,5.5h62.2a5.479,5.479,0,0,0,5.5-5.5V156.52A5.822,5.822,0,0,0,344.239,153.157Zm-49.366-4.127a4.925,4.925,0,0,1,4.891-4.891h17.729a4.925,4.925,0,0,1,4.891,4.891v1.834H294.873Zm-20.022,5.5a3.268,3.268,0,0,1,2.751-1.376h62.2a3.268,3.268,0,0,1,2.751,1.376,3.6,3.6,0,0,1,.458,3.057l-6.725,20.174a6.24,6.24,0,0,1-5.961,4.279h-1.223v-2.6a1.045,1.045,0,0,0-1.07-1.07h-8.865a1.045,1.045,0,0,0-1.07,1.07v2.6H299.458v-2.6a1.045,1.045,0,0,0-1.07-1.07h-8.865a1.045,1.045,0,0,0-1.07,1.07v2.6h-1.223a6.24,6.24,0,0,1-5.961-4.279l-6.725-20.174A3.115,3.115,0,0,1,274.851,154.533Zm51.964,25.982v4.891a3.362,3.362,0,0,1-6.725,0v-4.891Zm-29.65,0v4.891a3.362,3.362,0,0,1-6.725,0v-4.891ZM277.6,213.069a3.392,3.392,0,0,1-3.362-3.362V203.44a10.889,10.889,0,0,1,9.629,9.629Zm65.567-3.21a3.392,3.392,0,0,1-3.362,3.362H333.54a10.889,10.889,0,0,1,9.629-9.629v6.266Zm0-8.559A12.911,12.911,0,0,0,331.4,213.069h-45.24A12.781,12.781,0,0,0,274.393,201.3V164.009l4.738,14.367a8.537,8.537,0,0,0,8.1,5.808h1.223v1.07a5.5,5.5,0,1,0,11,0v-1.07h18.493v1.07a5.5,5.5,0,1,0,11,0v-1.07h1.223a8.537,8.537,0,0,0,8.1-5.808l4.738-14.367V201.3Z" transform="translate(-272.1 -142)" fill="#1a171b"></path></svg>