<svg xmlns="http://www.w3.org/2000/svg" xmlns:xlink="http://www.w3.org/1999/xlink" width="80" height="80" viewBox="0 0 80 80"><defs><clipPath id="clip-Business-Solutions-10"><rect width="80" height="80"></rect></clipPath></defs><g id="Business-Solutions-10" clip-path="url(#clip-Business-Solutions-10)"><rect width="80" height="80" fill="#fff"></rect><g id="washing-machine_2_" data-name="washing-machine (2)" transform="translate(8 8)"><path id="Path_11244" data-name="Path 11244" d="M24,21A16,16,0,1,0,40,37,16.019,16.019,0,0,0,24,21Zm0,30A14,14,0,1,1,38,37,14.015,14.015,0,0,1,24,51Z" fill="#e57070"></path><path id="Path_11245" data-name="Path 11245" d="M24,26A11,11,0,1,0,35,37,11.012,11.012,0,0,0,24,26Zm0,20a9,9,0,1,1,9-9A9.01,9.01,0,0,1,24,46Z" fill="#e57070"></path><path id="Path_11246" data-name="Path 11246" d="M30,36a1,1,0,0,0-1,1,5.006,5.006,0,0,1-5,5,1,1,0,0,0,0,2,7.009,7.009,0,0,0,7-7A1,1,0,0,0,30,36Z" fill="#e57070"></path><path id="Path_11247" data-name="Path 11247" d="M63,48H61.815A2.938,2.938,0,0,0,62,47V46a2.981,2.981,0,0,0-.78-2A2.981,2.981,0,0,0,62,42V41a3,3,0,0,0-3-3H48V6a4,4,0,0,0-4-4H4A4,4,0,0,0,0,6v8.995S0,15,0,15s0,0,0,.005V58a4,4,0,0,0,4,4H60a4,4,0,0,0,4-4V49A1,1,0,0,0,63,48ZM44,47V46a1,1,0,0,1,1-1H59a1,1,0,0,1,1,1v1a1,1,0,0,1-1,1H45A1,1,0,0,1,44,47Zm16-6v1a1,1,0,0,1-1,1H45a1,1,0,0,1-1-1V41a1,1,0,0,1,1-1H59A1,1,0,0,1,60,41ZM4,4H44a2,2,0,0,1,2,2v8H2V6A2,2,0,0,1,4,4ZM2,58V16H46V38H45a3,3,0,0,0-3,3v1a2.981,2.981,0,0,0,.78,2A2.981,2.981,0,0,0,42,46v1a2.938,2.938,0,0,0,.185,1H41a1,1,0,0,0-1,1v9a3.953,3.953,0,0,0,.557,2H4A2,2,0,0,1,2,58Zm60,0a2,2,0,0,1-2,2H44a2,2,0,0,1-2-2V50H62Z" fill="#e57070"></path><path id="Path_11248" data-name="Path 11248" d="M7,12A3,3,0,1,0,4,9,3,3,0,0,0,7,12ZM7,8A1,1,0,1,1,6,9,1,1,0,0,1,7,8Z" fill="#e57070"></path><path id="Path_11249" data-name="Path 11249" d="M41,12a3,3,0,1,0-3-3A3,3,0,0,0,41,12Zm0-4a1,1,0,1,1-1,1A1,1,0,0,1,41,8Z" fill="#e57070"></path><path id="Path_11250" data-name="Path 11250" d="M27,12h6a3,3,0,0,0,0-6H27a3,3,0,0,0,0,6Zm0-4h6a1,1,0,0,1,0,2H27a1,1,0,0,1,0-2Z" fill="#e57070"></path></g></g></svg>