<svg xmlns="http://www.w3.org/2000/svg" width="80" height="80" viewBox="0 0 80 80" fill="none"><circle cx="40" cy="40" r="40" fill="#222222"></circle><path d="M31.2218 37.1989L24.8836 40.7058C24.646 40.8363 24.5 41.0791 24.5 41.3413V48.3589C24.5 48.6212 24.646 48.8627 24.8836 48.9944L31.2231 52.5039C31.4595 52.6344 31.7527 52.6344 31.9891 52.5039L38.3273 48.9944C38.5624 48.8627 38.7083 48.6212 38.7083 48.3589V41.3413C38.7083 41.0791 38.5624 40.8376 38.3247 40.7058L31.9878 37.1989C31.869 37.1331 31.7359 37.1008 31.6042 37.1008C31.4711 37.1008 31.3394 37.1331 31.2205 37.1989H31.2218ZM63.8325 43.5165L62.776 44.1003C62.7359 44.1223 62.7127 44.1623 62.7127 44.2062V45.3765C62.7127 45.4204 62.7372 45.4604 62.776 45.4824L63.8325 46.0675C63.8726 46.0895 63.9204 46.0895 63.9604 46.0675L65.017 45.4824C65.0557 45.4604 65.0803 45.4204 65.0803 45.3765V44.2062C65.0803 44.1623 65.0558 44.1223 65.0157 44.1003L63.9591 43.5165C63.9397 43.5049 63.9178 43.4997 63.8958 43.4997C63.8739 43.4997 63.8519 43.5049 63.8325 43.5165Z" fill="#388E3C"></path><path d="M55.1784 29.7615L52.0926 28.0397C51.9957 27.9855 51.8769 27.9868 51.7813 28.0436C51.6857 28.1004 51.6263 28.2025 51.6263 28.3136L51.625 38.7141L48.7795 37.1395C48.6606 37.0737 48.5276 37.0414 48.3958 37.0414C48.2641 37.0414 48.131 37.0737 48.0122 37.1395H48.0135L41.6753 40.6464C41.4376 40.7769 41.2917 41.0197 41.2917 41.2806V48.2982C41.2917 48.5604 41.4376 48.802 41.6753 48.9337L48.0148 52.4432C48.2512 52.5737 48.5444 52.5737 48.7808 52.4432L55.119 48.9337C55.354 48.8033 55.5 48.5604 55.5 48.2982V30.3092C55.5 30.0819 55.376 29.8726 55.1784 29.7615ZM51.4519 46.6746L48.5715 48.2698C48.4643 48.3292 48.3312 48.3292 48.224 48.2698L45.3423 46.6746C45.2325 46.6152 45.1667 46.5041 45.1667 46.3853V43.1949C45.1667 43.076 45.2325 42.9662 45.341 42.9055L48.2227 41.3116H48.2215C48.2757 41.2819 48.3351 41.2677 48.3958 41.2677C48.4565 41.2677 48.516 41.2832 48.5702 41.3116L51.4506 42.9055C51.5591 42.9662 51.625 43.0773 51.625 43.1962V46.3866C51.625 46.5041 51.5591 46.6152 51.4519 46.6746Z" fill="#586870"></path><path d="M31.2218 37.1989L24.5 48.3589C24.5 48.6212 24.646 48.8627 24.8836 48.9944L31.2231 52.5039C31.4595 52.6344 31.7527 52.6344 31.9891 52.5039L38.7083 41.3413C38.7083 41.0791 38.5624 40.8376 38.3247 40.7058L31.9878 37.1989C31.869 37.1331 31.7359 37.1008 31.6042 37.1008C31.4711 37.1008 31.3394 37.1331 31.2205 37.1989" fill="#2E7D32"></path><path d="M31.2218 37.1989L24.8836 40.7058C24.646 40.8363 24.5 41.0791 24.5 41.3413L31.2218 52.5039C31.4582 52.6344 31.7514 52.6344 31.9878 52.5039L38.326 48.9944C38.5624 48.8627 38.7083 48.6212 38.7083 48.3589L31.9878 37.1989C31.869 37.1331 31.7359 37.1008 31.6042 37.1008C31.4711 37.1008 31.3394 37.1331 31.2205 37.1989" fill="#4CAF50"></path><path d="M70.6164 40.6464L64.2795 37.1395C64.1606 37.0737 64.0276 37.0414 63.8958 37.0414C63.7641 37.0414 63.631 37.0737 63.5122 37.1395H63.5135L57.1753 40.6464C56.9389 40.7769 56.7917 41.0249 56.7917 41.2961V48.2853C56.7917 48.5553 56.9389 48.8046 57.1753 48.935L63.5148 52.4445C63.7525 52.5762 64.0431 52.5762 64.2808 52.4445L67.2038 50.826C67.4712 50.6775 67.4699 50.2939 67.2012 50.1466L60.841 46.6759C60.7338 46.6152 60.6667 46.5028 60.6667 46.3814V43.1962C60.6667 43.0773 60.7313 42.9675 60.8346 42.9107L63.7215 41.3142H63.7202C63.7744 41.2845 63.8338 41.2703 63.8945 41.2703C63.9552 41.2703 64.0147 41.2858 64.0689 41.3142L66.9558 42.912C67.0591 42.9688 67.1237 43.0786 67.1237 43.1974V45.7963C67.1237 45.9074 67.1831 46.0107 67.28 46.0662C67.3769 46.1205 67.4957 46.1205 67.5926 46.0649L70.69 44.2657C70.8812 44.1546 71 43.9492 71 43.727V41.2987C71 41.0262 70.8527 40.7769 70.6164 40.6464ZM22.8247 40.6464L16.4878 37.1395C16.369 37.0737 16.2359 37.0414 16.1042 37.0414C15.9724 37.0414 15.8394 37.0737 15.7205 37.1395H15.7218L9.38362 40.6464C9.14725 40.7769 9 41.0249 9 41.2961V50.9384C9 51.0495 9.05942 51.1528 9.15629 51.2084C9.25317 51.2626 9.372 51.2626 9.46887 51.2071L12.5663 49.4078C12.7575 49.2967 12.875 49.0913 12.875 48.8692V43.1949C12.875 43.076 12.9396 42.9662 13.0429 42.9094L15.9298 41.3129C15.984 41.2832 16.0435 41.269 16.1042 41.269C16.1649 41.269 16.2243 41.2845 16.2785 41.3129L19.1654 42.9107C19.2687 42.9675 19.3333 43.0773 19.3333 43.1962V48.8704C19.3333 49.0926 19.4509 49.298 19.6433 49.4091L22.7407 51.2084C22.8376 51.2639 22.9565 51.2639 23.0533 51.2097C23.1489 51.1528 23.2083 51.0495 23.2083 50.9384V41.2974C23.2083 41.0262 23.0611 40.7769 22.8247 40.6464Z" fill="#586870"></path></svg>