<svg xmlns="http://www.w3.org/2000/svg" id="Group_5946" data-name="Group 5946" width="83.209" height="77.718" viewBox="0 0 83.209 77.718"><path id="Path_146" data-name="Path 146" d="M575.451,137.317a48.91,48.91,0,0,0-7.334-3c-1.239-.4-2.285-.709-3.243-.955a40.158,40.158,0,0,0-4-.95,9.306,9.306,0,0,1-2.258-4.321,20.448,20.448,0,0,0,6.677-10.232,3.069,3.069,0,0,0,1.641-.725,6.751,6.751,0,0,0,2.057-4.566c.262-2.935-.865-5.344-2.676-5.907,0-.222-.005-.44-.009-.653.108-.454,1.557-6.994-2.368-11.981-2.777-3.524-7.462-5.311-13.929-5.311a20.981,20.981,0,0,0-10.339,2.267,1.261,1.261,0,0,0,1.239,2.2,18.553,18.553,0,0,1,9.1-1.941c5.646,0,9.66,1.458,11.936,4.333a11.458,11.458,0,0,1,2.17,7.4c-4.141-2.494-8.731-3.4-14.279-2.824a1.261,1.261,0,0,0,.262,2.508c5.418-.56,9.776.442,13.686,3.113.016.711.022,1.7.022,2.108a1.279,1.279,0,0,0,.556,1.005,1.35,1.35,0,0,0,1.163.179c.361.036,1.141,1.232.957,3.285a4.41,4.41,0,0,1-1.153,2.85.49.49,0,0,1-.409.137,1.262,1.262,0,0,0-1.768.825,18.049,18.049,0,0,1-6.526,10.306,11.082,11.082,0,0,1-9.462,1.874,1.262,1.262,0,1,0-.667,2.434,13.2,13.2,0,0,0,3.477.468,13.515,13.515,0,0,0,6.446-1.676,11.514,11.514,0,0,0,2.515,4.481c-.244.553-1.043,1.621-3.595,3.193a1.26,1.26,0,0,0,1.323,2.146c2.449-1.508,3.962-2.931,4.58-4.318,1.007.213,2,.447,2.961.733.955.248,1.952.543,3.144.924a46.431,46.431,0,0,1,6.956,2.844,9.213,9.213,0,0,1,5.065,8.206v17.4a1.262,1.262,0,0,0,2.524,0v-17.4A11.748,11.748,0,0,0,575.451,137.317Z" transform="translate(-498.685 -88.716)" fill="#1a171b"></path><path id="Path_147" data-name="Path 147" d="M573.124,140.317a49.407,49.407,0,0,0-7.332-3c-1.243-.4-2.286-.709-3.245-.955a38.493,38.493,0,0,0-3.962-.927,9.315,9.315,0,0,1-2.3-4.344,20.46,20.46,0,0,0,6.677-10.232,3.071,3.071,0,0,0,1.64-.725,6.752,6.752,0,0,0,2.059-4.567c.262-2.933-.863-5.342-2.676-5.905,0-.279-.007-.562-.012-.823.241-1.146,1.262-7.159-2.406-11.813-2.773-3.522-7.46-5.309-13.927-5.309s-11.156,1.787-13.927,5.309c-3.633,4.612-2.664,10.554-2.414,11.778,0,.187-.007.51-.007.858-1.81.565-2.934,2.973-2.674,5.905a6.752,6.752,0,0,0,2.061,4.567,3.075,3.075,0,0,0,1.638.725A20.458,20.458,0,0,0,539,131.1a9.251,9.251,0,0,1-2.406,4.489c-2.33.4-3.763.759-3.8.771-1.005.258-2.054.565-3.29.967a48.947,48.947,0,0,0-7.32,3,11.724,11.724,0,0,0-6.425,10.438v12.2a1.262,1.262,0,0,0,2.524,0v-12.2a9.21,9.21,0,0,1,5.056-8.2,46.47,46.47,0,0,1,6.942-2.839c1.189-.385,2.189-.679,3.146-.927.042-.01,1.186-.291,3.056-.624,1.34,2.595,5.791,4.477,8.776,5.488l-3.4,3.286-4.637-4.34a1.261,1.261,0,0,0-1.725,1.841l5.514,5.157a1.266,1.266,0,0,0,1.739-.012l.355-.343.813,1-2.231,12.492A1.261,1.261,0,0,0,542.7,164.2a1.086,1.086,0,0,0,.224.021,1.262,1.262,0,0,0,1.239-1.04l2.333-13.062a1.263,1.263,0,0,0-.263-1.016l-1.314-1.615,2.734-2.643,2.737,2.645-1.31,1.614a1.256,1.256,0,0,0-.263,1.016l2.333,13.062a1.262,1.262,0,0,0,1.239,1.04,1.087,1.087,0,0,0,.224-.021,1.26,1.26,0,0,0,1.019-1.463L551.4,150.249l.813-.995.352.34a1.263,1.263,0,0,0,1.737.012l5.512-5.157a1.261,1.261,0,0,0-1.723-1.841l-4.637,4.34-.553-.537h0l-2.843-2.747c3.021-1.023,7.561-2.945,8.835-5.6,1,.2,2,.432,2.987.726.952.244,1.952.539,3.143.924a46.85,46.85,0,0,1,6.956,2.843,9.218,9.218,0,0,1,5.066,8.207v12.2a1.261,1.261,0,0,0,2.522,0v-12.2A11.759,11.759,0,0,0,573.124,140.317ZM535.7,98.573c2.274-2.877,6.288-4.335,11.936-4.335s9.662,1.458,11.936,4.335a11.6,11.6,0,0,1,2.161,7.7,32.471,32.471,0,0,0-4.552-1.511l-1.238-4.032a1.259,1.259,0,0,0-2.2-.4l-2.65,3.413c-2.427-.192-10.407-.477-17.522,3.033A11.846,11.846,0,0,1,535.7,98.573Zm-1.245,20.583a1.294,1.294,0,0,0-.725-.82,1.336,1.336,0,0,0-1.116.017.5.5,0,0,1-.336-.159,4.4,4.4,0,0,1-1.154-2.85c-.182-2.052.6-3.248,1.047-3.264a1.262,1.262,0,0,0,1.633-1.2c0-.213,0-.849.007-1.378,7.817-4.3,17.6-3.2,17.7-3.193a1.259,1.259,0,0,0,1.147-.478l1.586-2.042.738,2.409a1.264,1.264,0,0,0,.958.867,29.5,29.5,0,0,1,5.507,1.836c.012.7.021,1.589.021,1.981a1.282,1.282,0,0,0,.555,1,1.346,1.346,0,0,0,1.163.18c.359.036,1.141,1.232.959,3.285A4.414,4.414,0,0,1,563,118.2a.465.465,0,0,1-.409.137,1.26,1.26,0,0,0-1.766.825,18.066,18.066,0,0,1-6.528,10.3,11.117,11.117,0,0,1-13.317-.007A18.065,18.065,0,0,1,534.459,119.156Zm13.2,22.622c-3.983-1.167-8.258-3.253-8.958-4.742a11.636,11.636,0,0,0,2.525-4.456,13.217,13.217,0,0,0,12.853-.017,11.591,11.591,0,0,0,2.529,4.484C555.895,138.535,551.629,140.615,547.658,141.778Z" transform="translate(-515.754 -86.514)" fill="#1a171b"></path></svg>