<svg xmlns="http://www.w3.org/2000/svg" width="51" height="49" viewBox="0 0 51 49" fill="none"><path d="M1 9C1 4.58172 4.58172 1 9 1H41.206C45.6243 1 49.206 4.58172 49.206 9V40C49.206 44.4183 45.6243 48 41.206 48H8.99999C4.58172 48 1 44.4183 1 40V9Z" fill="url(#paint0_radial)" stroke="#31C5F0" stroke-width="2"></path><path d="M34.4049 21.1342C32.602 21.1342 31.9859 22.0501 31.9859 22.8057C31.9859 23.63 32.3967 24.2024 34.8157 25.4618C38.3986 27.202 39.5168 28.8734 39.5168 31.3235C39.5168 34.987 36.7327 36.9562 32.9672 36.9562C30.9818 36.9562 29.2702 36.544 28.2889 35.9716C28.1292 35.9029 28.1064 35.7885 28.1064 35.6052V32.2393C28.1064 32.0104 28.2205 31.9416 28.3803 32.0562C29.818 32.995 31.461 33.4071 32.9672 33.4071C34.7701 33.4071 35.5232 32.6515 35.5232 31.6211C35.5232 30.7968 34.9983 30.0641 32.6933 28.8734C29.4527 27.3165 28.1064 25.7366 28.1064 23.1034C28.1064 20.1496 30.4113 17.6997 34.4049 17.6997C36.3675 17.6997 37.7368 17.9974 38.4899 18.3408C38.6724 18.4553 38.718 18.6384 38.718 18.7987V21.9355C38.718 22.1187 38.6039 22.2332 38.3757 22.1645C37.3716 21.5235 35.8883 21.1342 34.4049 21.1342ZM14.7789 23.859C15.3038 23.9048 15.7146 23.9048 16.6274 23.9048C19.2976 23.9048 21.8078 22.966 21.8078 19.3254C21.8078 16.4175 20.0049 14.952 16.9698 14.952C16.057 14.952 15.1897 14.9978 14.7789 15.0207V23.859ZM10.7169 11.7006C10.7169 11.5403 11.0364 11.4258 11.2189 11.4258C12.6795 11.3571 14.8475 11.3113 17.1067 11.3113C23.4281 11.3113 25.8927 14.7916 25.8927 19.2337C25.8927 25.0496 21.6936 27.5454 16.5362 27.5454C15.669 27.5454 15.3724 27.4996 14.7561 27.4996V36.2922C14.7561 36.4753 14.6876 36.5669 14.4823 36.5669H10.9907C10.8082 36.5669 10.7168 36.4982 10.7168 36.2922L10.7169 11.7006Z" fill="#31C5F0"></path><defs><radialGradient id="paint0_radial" cx="0" cy="0" r="1" gradientUnits="userSpaceOnUse" gradientTransform="translate(16.5354 10.9809) scale(38.1565 37.066)"><stop stop-color="#34364E" stop-opacity="0.98"></stop><stop offset="1" stop-color="#0C0824"></stop></radialGradient></defs></svg>