<svg xmlns="http://www.w3.org/2000/svg" width="80" height="80" viewBox="0 0 80 80" fill="none"><circle cx="40" cy="40" r="40" fill="#222222"></circle><path d="M39.9996 52.0124C27.4761 52.0124 17.2871 46.4665 17.2871 39.6499C17.2871 32.8332 27.4761 27.2874 39.9996 27.2874C52.5231 27.2874 62.7121 32.8332 62.7121 39.6499C62.7121 46.4665 52.5231 52.0124 39.9996 52.0124Z" fill="#DCD5F2"></path><path d="M40 27.575C52.3654 27.575 62.425 32.9921 62.425 39.65C62.425 46.3079 52.3654 51.725 40 51.725C27.6346 51.725 17.575 46.3079 17.575 39.65C17.575 32.9921 27.6346 27.575 40 27.575ZM40 27C27.2977 27 17 32.6638 17 39.65C17 46.6362 27.2977 52.3 40 52.3C52.7023 52.3 63 46.6362 63 39.65C63 32.6638 52.7023 27 40 27Z" fill="#8B75A1"></path><path d="M31.4392 36.1998C32.4311 36.1998 33.2873 36.5575 33.7875 37.1808C34.2182 37.7178 34.3516 38.4291 34.1716 39.2375C33.688 41.4174 32.7519 41.9498 29.4026 41.9498H27.0221L28.0283 36.1998H31.4392ZM31.4392 35.0498H27.0623L25.0498 46.5498H26.1998L26.807 43.0998H29.4031C32.7744 43.0998 34.6086 42.5794 35.2946 39.4865C35.884 36.83 33.9255 35.0498 31.4392 35.0498ZM52.1392 36.1998C53.1311 36.1998 53.9873 36.5575 54.4875 37.1808C54.9182 37.7178 55.0516 38.4291 54.8716 39.2375C54.388 41.4174 53.4519 41.9498 50.1026 41.9498H47.7221L48.7283 36.1998H52.1392ZM52.1392 35.0498H47.7623L45.7498 46.5498H46.8998L47.507 43.0998H50.1031C53.4744 43.0998 55.3086 42.5794 55.9946 39.4865C56.584 36.83 54.6255 35.0498 52.1392 35.0498Z" fill="#36404D"></path><path d="M45.2162 35.7468C44.7108 35.25 43.8201 35.0499 42.4919 35.0499H39.3075L39.9998 31.5999H38.7923L36.5498 43.0999H37.6941L39.0672 36.1999H39.3081H42.4924C43.8368 36.1999 44.2715 36.4299 44.4101 36.5661C44.6073 36.7605 44.6539 37.2711 44.5348 37.9249L43.5188 43.0999H44.7298L45.6647 38.1376C45.8642 37.0405 45.713 36.2355 45.2162 35.7468Z" fill="#36404D"></path></svg>