<svg xmlns="http://www.w3.org/2000/svg" width="80" height="80" viewBox="0 0 80 80" fill="none"><circle cx="40" cy="40" r="40" fill="#222222"></circle><path d="M40.4845 21.0001C38.9295 21.0051 37.8515 21.1421 36.5485 21.3671C32.7005 22.0371 31.9995 23.4441 31.9995 26.0371V30.0001H40.9995V32.0001H27.3075C24.6715 32.0001 22.3645 33.2421 21.6335 36.2191C20.8075 39.6361 20.7705 41.7761 21.6335 45.3441C22.2885 48.0051 23.7315 50.0001 26.3685 50.0001H30.0005V44.8961C30.0005 41.9301 32.6865 39.0001 35.7645 39.0001H43.0005C45.5235 39.0001 48.0005 37.1381 48.0005 34.6231V26.0371C48.0005 23.5981 46.2414 21.7741 43.7824 21.3651C43.8434 21.3591 42.0265 20.9941 40.4845 21.0001ZM35.5005 25.0001C36.3215 25.0001 37.0005 25.6771 37.0005 26.5021C37.0005 27.3351 36.3215 28.0001 35.5005 28.0001C34.6635 28.0001 34.0005 27.3361 34.0005 26.5021C34.0005 25.6801 34.6635 25.0001 35.5005 25.0001Z" fill="#0277BD"></path><path d="M39.5155 59C41.0705 58.995 42.1485 58.858 43.4515 58.633C47.2995 57.963 48.0005 56.556 48.0005 53.963V50H39.0005V48H52.6935C55.3295 48 57.6365 46.758 58.3675 43.781C59.1935 40.364 59.2305 38.224 58.3675 34.656C57.7115 31.995 56.2685 30 53.6315 30H49.9995V35.104C49.9995 38.07 47.3135 41 44.2355 41H36.9995C34.4765 41 31.9995 42.862 31.9995 45.377V53.963C31.9995 56.402 33.7585 58.226 36.2175 58.635C36.1565 58.641 37.9735 59.006 39.5155 59ZM44.5005 55C43.6795 55 43.0005 54.323 43.0005 53.498C43.0005 52.665 43.6795 52 44.5005 52C45.3375 52 46.0005 52.664 46.0005 53.498C46.0005 54.32 45.3365 55 44.5005 55Z" fill="#FFC107"></path></svg>