<svg xmlns="http://www.w3.org/2000/svg" width="80" height="80" viewBox="0 0 80 80" fill="none"><circle cx="40" cy="40" r="40" fill="#222222"></circle><g clip-path="url(#clip0_746_3303)"><path d="M44.1562 39.5C44.1562 41.5211 42.5211 43.1562 40.5 43.1562C38.4789 43.1562 36.8438 41.5211 36.8438 39.5C36.8438 37.4789 38.4789 35.8438 40.5 35.8438C42.5211 35.8438 44.1562 37.4789 44.1562 39.5Z" fill="#8BB7F0"></path><path d="M40.5 43.4375C38.3293 43.4375 36.5625 41.6712 36.5625 39.5C36.5625 37.3288 38.3293 35.5625 40.5 35.5625C42.6707 35.5625 44.4375 37.3288 44.4375 39.5C44.4375 41.6712 42.6707 43.4375 40.5 43.4375ZM40.5 36.125C38.6387 36.125 37.125 37.6387 37.125 39.5C37.125 41.3613 38.6387 42.875 40.5 42.875C42.3613 42.875 43.875 41.3613 43.875 39.5C43.875 37.6387 42.3613 36.125 40.5 36.125Z" fill="#4E7AB5"></path><path d="M31.7666 59.4702C30.8042 59.4702 29.9278 59.2497 29.1611 58.8154C27.8786 58.0881 26.9921 56.8349 26.5253 55.0917C25.9824 53.0627 26.0471 50.3678 26.712 47.2853C21.3503 45.4409 18.2812 42.6109 18.2812 39.4997C18.2812 36.388 21.3497 33.5586 26.7114 31.7147C26.0466 28.6317 25.9813 25.9367 26.5241 23.9078C26.991 22.164 27.8775 20.9108 29.1594 20.184C29.9256 19.7498 30.8025 19.5293 31.7649 19.5293C34.2332 19.5293 37.3286 21.0649 40.5011 23.8594C43.6736 21.0677 46.7679 19.5332 49.2334 19.5332C50.1958 19.5332 51.0722 19.7537 51.8389 20.188C53.1197 20.9142 54.0068 22.1652 54.4736 23.9067C55.017 25.935 54.9518 28.6305 54.2863 31.7142C59.6492 33.558 62.7188 36.388 62.7188 39.4997C62.7188 42.6115 59.6492 45.4414 54.2863 47.2859C54.9512 50.3689 55.0164 53.0639 54.4731 55.0922C54.0062 56.8343 53.1202 58.0853 51.8406 58.8115C51.0733 59.2457 50.1964 59.4662 49.2345 59.4662C46.7674 59.4662 43.6719 57.9317 40.5006 55.1412C37.3281 57.9351 34.2332 59.4702 31.7666 59.4702ZM28.8771 47.9406C28.3196 50.5939 28.2572 52.8608 28.6993 54.51C29.0042 55.6497 29.5324 56.44 30.2709 56.8585C30.6945 57.0987 31.1979 57.2207 31.7666 57.2207C33.6758 57.2207 36.189 55.9371 38.8659 53.5999C37.5244 52.2488 36.2149 50.7194 34.9689 49.0487C32.814 48.8147 30.7665 48.4424 28.8771 47.9406ZM42.1346 53.5988C44.811 55.9337 47.3248 57.2162 49.2339 57.2168C49.8026 57.2168 50.3061 57.0947 50.7307 56.8545C51.4671 56.4372 51.9941 55.6485 52.2984 54.5106C52.7406 52.8602 52.6787 50.5939 52.1212 47.9412C50.2301 48.4429 48.1821 48.8153 46.0277 49.0493C44.7823 50.7199 43.4745 52.2488 42.1346 53.5988ZM38.0059 49.2833C38.8226 50.2823 39.6585 51.2144 40.5 52.062C41.3392 51.2149 42.1757 50.2829 42.9919 49.2833C42.1532 49.3232 41.3179 49.3435 40.5 49.3435C39.6816 49.3435 38.8457 49.3232 38.0059 49.2833ZM36.1963 46.9129C37.5997 47.0327 39.0471 47.0935 40.5 47.0935C41.9541 47.0935 43.3997 47.0327 44.8009 46.9135C45.6367 45.7412 46.4338 44.5127 47.1713 43.26C47.8845 42.0479 48.5556 40.7828 49.1664 39.4992C48.5573 38.2189 47.8868 36.9544 47.1718 35.7394C46.4361 34.4895 45.639 33.261 44.8009 32.086C43.4008 31.9667 41.9552 31.906 40.5 31.906C39.0442 31.906 37.5981 31.9667 36.1986 32.0865C35.3604 33.2599 34.5623 34.4884 33.8254 35.74C33.111 36.9544 32.4405 38.2189 31.8307 39.5009C32.4394 40.78 33.1099 42.0445 33.8248 43.2606C34.5583 44.5065 35.3554 45.7345 36.1963 46.9129ZM50.3387 42.1879C49.9416 42.945 49.5298 43.6875 49.1096 44.4008C48.6861 45.1219 48.2355 45.8453 47.7675 46.5585C49.1029 46.3527 50.3803 46.0889 51.5762 45.771C51.2443 44.6185 50.8286 43.4164 50.3387 42.1879ZM29.421 45.7705C30.6174 46.0877 31.8943 46.3521 33.228 46.558C32.7572 45.8402 32.3066 45.1163 31.8859 44.4008C31.4668 43.6881 31.0545 42.9467 30.6579 42.1896C30.1703 43.4125 29.7551 44.6134 29.421 45.7705ZM51.6465 39.4997C52.506 41.4072 53.2063 43.2927 53.7322 45.1118C57.8959 43.647 60.4688 41.5101 60.4688 39.4997C60.4688 37.4894 57.8959 35.3524 53.7322 33.8877C53.2074 35.7068 52.5066 37.5923 51.6465 39.4997ZM27.2655 33.8888C23.1036 35.353 20.5312 37.4899 20.5312 39.4997C20.5312 41.5101 23.1036 43.647 27.2666 45.1112C27.792 43.2915 28.4923 41.406 29.3507 39.5009C28.4918 37.5951 27.7914 35.7096 27.2655 33.8888ZM29.4204 33.229C29.7546 34.3844 30.1697 35.5859 30.6579 36.811C31.0539 36.0561 31.4657 35.3142 31.8864 34.5992C32.3094 33.8798 32.76 33.1564 33.2297 32.4415C31.8943 32.6468 30.6174 32.9112 29.4204 33.229ZM47.7686 32.4409C48.2394 33.1592 48.69 33.8826 49.1107 34.5992C49.5304 35.3119 49.9427 36.0539 50.3398 36.811C50.8286 35.5864 51.2438 34.3849 51.5779 33.2284C50.3798 32.9106 49.1029 32.6462 47.7686 32.4409ZM31.7649 21.7793C31.1963 21.7793 30.6934 21.9008 30.2704 22.1415C29.5324 22.56 29.0036 23.3504 28.6982 24.49C28.2566 26.1409 28.3185 28.4072 28.8765 31.0594C30.7665 30.5577 32.8151 30.1847 34.9706 29.9507C36.2177 28.2795 37.5272 26.7512 38.8671 25.4012C36.1896 23.0629 33.6746 21.7793 31.7649 21.7793ZM46.0282 29.9502C48.1826 30.1842 50.2307 30.5565 52.1218 31.0583C52.6798 28.4055 52.7423 26.1387 52.2996 24.4883C51.9947 23.3509 51.4671 22.5623 50.7302 22.1449C50.3061 21.9047 49.8026 21.7827 49.2334 21.7827C47.3248 21.7827 44.8121 23.0657 42.1352 25.4012C43.4739 26.7507 44.7823 28.2795 46.0282 29.9502ZM40.5 29.656C41.3179 29.656 42.1532 29.6762 42.9924 29.7162C42.1768 28.7183 41.3409 27.7868 40.5011 26.9385C39.6591 27.7879 38.8237 28.7194 38.0081 29.7162C38.8468 29.6762 39.6821 29.656 40.5 29.656Z" fill="#8BB7F0"></path><path d="M31.7649 19.8106C34.2928 19.8106 37.3877 21.4475 40.5017 24.2358C43.6151 21.4497 46.7083 19.8145 49.2339 19.8145C50.1469 19.8145 50.9771 20.0227 51.7011 20.4327C52.9138 21.1201 53.7553 22.3132 54.2019 23.9798C54.8078 26.1832 54.6806 28.8961 53.9578 31.8998C59.1452 33.6329 62.4375 36.3672 62.4375 39.4998C62.4375 42.6323 59.1452 45.3667 53.9572 47.1003C54.7116 50.3476 54.8381 53.1337 54.2014 55.0197C53.7548 56.6858 52.9138 57.8795 51.7022 58.5668C50.9771 58.9775 50.3184 59.1873 49.4061 59.1873C49.4055 59.1873 49.1721 59.1873 49.1715 59.1873C46.6448 59.1873 43.6129 57.5504 40.5 54.7655C37.3866 57.5532 34.2928 59.189 31.7661 59.189C30.8531 59.189 30.0229 58.9808 29.2989 58.5708C28.0851 57.8817 27.243 56.687 26.7969 55.0192C26.1276 52.9283 26.2626 50.18 27.0411 47.0997C21.8543 45.3661 18.5625 42.6323 18.5625 39.4998C18.5625 36.3678 21.8543 33.6335 27.0405 31.8998C26.6541 30.1792 26.4071 28.5817 26.3987 27.1248C26.3919 25.9739 26.5489 24.9035 26.7964 23.9804C27.243 22.312 28.0845 21.1173 29.2984 20.4288C30.0218 20.0182 30.852 19.8106 31.7649 19.8106ZM28.6639 31.4077C30.6197 30.8705 32.7915 30.4643 35.1231 30.2168C36.4629 28.4112 37.8652 26.7878 39.2777 25.3883C36.5372 22.9437 33.8687 21.4975 31.7649 21.4975C31.1468 21.4975 30.5977 21.6314 30.1314 21.8963C29.3254 22.3537 28.7522 23.2013 28.4265 24.4169C27.9439 26.218 28.0536 28.6525 28.6639 31.4077ZM52.3344 31.4071C52.9448 28.652 53.0544 26.2169 52.5718 24.4158C52.2467 23.2025 51.6735 22.3565 50.8691 21.9003C50.4022 21.6353 49.8516 21.5015 49.2339 21.5015C47.1319 21.5015 44.4651 22.946 41.7251 25.3883C43.137 26.7878 44.5376 28.4112 45.8764 30.2163C48.2068 30.4638 50.3786 30.8699 52.3344 31.4071ZM37.3933 30.0307C38.4069 29.9705 39.4234 29.9182 40.4803 29.9182C41.5373 29.9182 42.5925 29.971 43.6061 30.0307C42.5891 28.7487 41.5451 27.5776 40.5006 26.5409C39.456 27.5776 38.4114 28.7487 37.3933 30.0307ZM40.5 47.3748C42.0531 47.3748 43.5397 47.3067 44.9539 47.1824C45.8083 45.9916 46.6346 44.7271 47.4131 43.403C48.1742 42.1098 48.8627 40.8008 49.4775 39.4998C48.8627 38.1987 48.1742 36.8903 47.4137 35.5977C46.6346 34.273 45.8089 33.0091 44.9539 31.8183C43.5403 31.6928 42.0536 31.6248 40.5 31.6248C38.9464 31.6248 37.4591 31.6928 36.045 31.8177C35.1894 33.0085 34.3626 34.273 33.5835 35.5972C32.823 36.8903 32.1345 38.1993 31.5197 39.5003C32.1345 40.8014 32.8224 42.1098 33.5829 43.4024C34.362 44.7265 35.1883 45.991 36.0433 47.1818C37.458 47.3067 38.9458 47.3748 40.5 47.3748ZM50.3696 37.4821C51.0024 35.9583 51.5261 34.462 51.9255 33.031C50.4894 32.6362 48.9032 32.3099 47.1847 32.0708C47.763 32.9298 48.3261 33.8202 48.8677 34.7416C49.4044 35.6523 49.9033 36.568 50.3696 37.4821ZM30.6276 37.4827C31.0933 36.5686 31.5928 35.6528 32.1283 34.7416C32.6706 33.8202 33.2342 32.9303 33.813 32.0714C32.0946 32.3099 30.5083 32.6367 29.0723 33.0316C29.4716 34.4626 29.9953 35.9583 30.6276 37.4827ZM53.5432 45.4747C58.086 43.9357 60.75 41.6744 60.75 39.4998C60.75 37.3252 58.086 35.0639 53.5432 33.5249C53.0072 35.4402 52.2669 37.4528 51.3383 39.4992C52.2669 41.5462 53.0072 43.5588 53.5432 45.4747ZM27.4556 45.4741C27.9911 43.5593 28.7308 41.5467 29.6595 39.5009C28.7308 37.4545 27.9906 35.4413 27.4551 33.526C22.9129 35.065 20.25 37.3257 20.25 39.4998C20.25 41.6744 22.9134 43.9351 27.4556 45.4741ZM47.1847 46.9287C48.9032 46.6902 50.4894 46.364 51.9255 45.9685C51.5256 44.5375 51.0019 43.0413 50.3696 41.5169C49.9033 42.431 49.4038 43.3467 48.8677 44.258C48.3261 45.1793 47.763 46.0698 47.1847 46.9287ZM33.8113 46.9282C33.2331 46.0692 32.67 45.1793 32.1277 44.2585C31.5922 43.3478 31.0933 42.4327 30.6276 41.5192C29.9953 43.0424 29.4722 44.5381 29.0728 45.9685C30.5083 46.3628 32.094 46.6891 33.8113 46.9282ZM31.7666 57.5015C33.8698 57.5015 36.5372 56.0558 39.2771 53.6123C37.8636 52.2123 36.4618 50.5883 35.1214 48.7822C32.7909 48.5352 30.6202 48.1291 28.665 47.5919C28.0552 50.347 27.9456 52.7815 28.4276 54.5827C28.7528 55.7977 29.3265 56.6453 30.132 57.1027C30.5978 57.3676 31.1484 57.5015 31.7666 57.5015ZM49.2339 57.4981C49.8521 57.4981 50.4017 57.3642 50.8691 57.0993C51.6735 56.6431 52.2456 55.7971 52.5701 54.5832C53.0528 52.7815 52.9431 50.347 52.3333 47.5925C50.3775 48.1297 48.2062 48.5358 45.8752 48.7827C44.5365 50.5883 43.1353 52.2117 41.7234 53.6118C44.4634 56.053 47.1308 57.4975 49.2339 57.4981ZM40.5 52.4598C41.5446 51.4225 42.5886 50.2508 43.6061 48.9689C42.5931 49.0291 41.6042 49.1562 40.5467 49.1562C39.4886 49.1562 38.4052 49.0291 37.3916 48.9689C38.4097 50.2514 39.4549 51.4231 40.5 52.4598ZM31.5652 19.2903C30.5533 19.2903 29.8299 19.4804 29.0211 19.9388C27.6716 20.7044 26.7401 22.015 26.253 23.8347C25.713 25.8524 25.7597 28.5046 26.3857 31.5303C21.0482 33.4186 18 36.3076 18 39.4998C18 42.6925 21.0488 45.581 26.3863 47.4693C25.7603 50.495 25.7136 53.1472 26.2541 55.1648C26.7407 56.9834 27.6716 58.294 29.0222 59.0607C29.8322 59.5197 30.8053 59.7149 31.8167 59.7149C34.3406 59.7149 37.3027 58.289 40.5006 55.5153C43.6978 58.2862 46.71 59.7475 49.2334 59.7481C50.2453 59.7481 51.1689 59.5158 51.9789 59.0568C53.3273 58.2923 54.2576 56.9834 54.7442 55.166C55.2847 53.1477 55.2381 50.4955 54.612 47.4704C59.9507 45.5815 63 42.6925 63 39.4998C63 36.307 59.9512 33.418 54.6126 31.5297C55.2392 28.5035 55.2853 25.8513 54.7447 23.8336C54.2576 22.0162 53.3267 20.7072 51.9778 19.9428C51.1684 19.4843 50.2448 19.2515 49.2334 19.2515C46.7106 19.2515 43.6989 20.7134 40.5011 23.4854C37.3027 20.7112 34.2765 19.2886 31.752 19.2886L31.5652 19.2903ZM29.0925 30.7118C28.8326 29.4046 28.6582 28.1795 28.6487 27.1051C28.6402 26.1376 28.773 25.2955 28.9693 24.562C29.2545 23.4978 29.7388 22.7654 30.4087 22.3852C30.789 22.1692 31.2525 22.0229 31.7717 22.0229C33.561 22.0229 35.9156 23.248 38.4559 25.417C37.2066 26.6956 35.9854 28.1277 34.8187 29.6836C32.8022 29.9086 30.8796 30.2534 29.0925 30.7118ZM42.5464 25.4182C45.0861 23.2508 47.4463 22.064 49.2334 22.064C49.7531 22.064 50.2104 22.1737 50.5912 22.3897C51.2601 22.7688 51.7438 23.4995 52.0284 24.5615C52.5201 26.1466 52.4565 28.2537 51.9058 30.7113C50.1188 30.2534 48.1967 29.908 46.1807 29.6842C45.0146 28.1288 43.7946 26.6967 42.5464 25.4182ZM38.6286 29.4085C39.2451 28.6773 39.8711 27.9854 40.5006 27.3397C41.13 27.9854 41.7555 28.6773 42.3714 29.4085C41.742 29.386 41.1159 29.3748 40.5 29.3748C39.8841 29.3748 39.2586 29.386 38.6286 29.4085ZM36.3516 32.356C37.7044 32.2441 39.0982 32.1642 40.5 32.1642C41.9012 32.1642 43.2951 32.2441 44.6473 32.356C45.4528 33.4917 46.2201 34.6769 46.9288 35.8823C47.6162 37.0512 48.2636 38.2668 48.8543 39.4992C48.2631 40.7322 47.6156 41.9483 46.9283 43.1172C46.2189 44.3232 45.4523 45.5078 44.6468 46.6435C43.2951 46.7555 41.9012 46.9057 40.5 46.9057C39.0977 46.9057 37.7033 46.7549 36.3499 46.643C35.5438 45.5078 34.7766 44.3227 34.0672 43.1167C33.3799 41.9483 32.733 40.7328 32.1424 39.4998C32.733 38.2668 33.3804 37.0507 34.0678 35.8818C34.7777 34.6763 35.5455 33.4912 36.3516 32.356ZM50.2999 36.1383C49.9911 35.5657 49.6744 35.0032 49.3532 34.4564C49.0326 33.9113 48.6967 33.364 48.3491 32.8201C49.347 32.99 50.3094 33.193 51.2258 33.4276C50.9631 34.3085 50.6531 35.2152 50.2999 36.1383ZM29.772 33.4276C30.6883 33.193 31.6507 32.99 32.6486 32.8201C32.3004 33.364 31.9646 33.9113 31.644 34.4558C31.3228 35.0026 31.0061 35.5651 30.6973 36.1377C30.3441 35.2158 30.0347 34.309 29.772 33.4276ZM51.9553 39.4992C52.7513 37.7206 53.4105 35.96 53.9184 34.2533C57.8014 35.6703 60.1875 37.6553 60.1875 39.4998C60.1875 41.3442 57.8014 43.3293 53.9184 44.7462C53.4099 43.039 52.7513 41.2778 51.9553 39.4992ZM27.0799 44.7457C23.1981 43.3287 20.8125 41.3437 20.8125 39.4998C20.8125 37.6559 23.1981 35.6708 27.0793 34.2539C27.5873 35.9611 28.2459 37.7217 29.0419 39.5003C28.2465 41.2784 27.5878 43.039 27.0799 44.7457ZM48.3486 46.18C48.6962 45.6355 49.0326 45.0882 49.3526 44.5437C49.6744 43.997 49.9911 43.4339 50.2999 42.8613C50.6531 43.7843 50.9625 44.6917 51.2258 45.5731C50.3089 45.8065 49.3464 46.0102 48.3486 46.18ZM29.7726 45.572C30.0353 44.6911 30.3446 43.7849 30.6973 42.863C31.0056 43.435 31.3222 43.9975 31.6434 44.5437C31.9635 45.0882 32.2993 45.635 32.6475 46.1795C31.6502 46.009 30.6883 45.806 29.7726 45.572ZM31.7666 56.939C31.2469 56.939 30.7901 56.8293 30.4093 56.6133C29.7399 56.233 29.2556 55.5012 28.971 54.437C28.5036 52.8367 28.5564 50.729 29.0936 48.2872C30.8801 48.745 32.8016 49.0904 34.8171 49.3143C35.9842 50.8702 37.2054 52.3028 38.4553 53.5825C35.9156 55.7521 33.5548 56.9395 31.7666 56.939ZM46.1801 49.3154C48.1961 49.091 50.1182 48.7462 51.9053 48.2883C52.5268 50.9545 52.5758 53.0797 52.0273 54.4375C51.7433 55.5001 51.2601 56.2308 50.5918 56.6093C50.2104 56.8253 49.7537 56.935 49.2345 56.935V57.4975L49.2339 56.935C47.4452 56.935 45.0844 55.7482 42.5453 53.582C43.794 52.3034 45.0141 50.8713 46.1801 49.3154ZM40.5 51.661C39.87 51.0153 39.2434 50.3228 38.6269 49.591C39.2569 49.6135 39.8835 49.6248 40.5 49.6248C41.1159 49.6248 41.742 49.6135 42.3714 49.591C41.7555 50.3228 41.1294 51.0153 40.5 51.661Z" fill="#4E7AB5"></path></g><defs><clipPath id="clip0_746_3303"><rect width="45" height="45" fill="white" transform="translate(18 17)"></rect></clipPath></defs></svg>