<svg xmlns="http://www.w3.org/2000/svg" width="80" height="80" viewBox="0 0 80 80" fill="none"><circle cx="40" cy="40" r="40" fill="#222222"></circle><path d="M28.0625 26C27.5586 26 27.0469 26.0312 26.5117 26.0938L26.8164 27.0508C27.2852 27 27.7539 26.9844 28.2227 26.9844H28.3867L28.0625 26ZM34.2344 26.9531L34.1719 28.0195C34.707 28.1992 35.2227 28.3945 35.7383 28.6055L35.8047 27.5195C35.6602 27.4414 35.2539 27.2461 34.2344 26.9531ZM20.9336 27.5664C20.5312 27.7773 20.1094 28 19.6719 28.2617L20.4141 29.3945C20.8359 29.1328 21.2383 28.8945 21.6602 28.6836L20.9336 27.5664ZM28.2695 27.6172C27.8164 27.6211 27.3555 27.6445 26.8984 27.6914C22.1797 28.1133 16.3789 32.4102 13 38.0508C9.60156 43.7109 9.14062 48.5117 9.14062 48.5117H21.8984C21.8984 48.5117 19.4609 37.3711 27.5391 32.8516C29.2188 32.0313 34.4414 29.0703 42.9219 34.75L43.5586 34.1719C41.1602 32.1094 35.0703 27.5664 28.2695 27.6172ZM34.2031 32.0312L34.1406 33.0469C34.6758 33.0625 35.2031 33.1289 35.7383 33.2422L35.8047 32.2383C35.2578 32.125 34.7227 32.0625 34.2031 32.0312ZM30.4219 32.418C29.8711 32.5781 29.4023 32.7578 29 32.9375L29.3711 34.0508C29.8398 33.8242 30.3086 33.6289 30.7773 33.4844L30.4219 32.418ZM14.4023 32.4844C13.9805 32.8867 13.5781 33.293 13.207 33.6953L14.4492 34.7617C14.7891 34.3242 15.1641 33.8867 15.5508 33.4844L14.4023 32.4844ZM25.9766 34.875C25.6055 35.2188 25.2617 35.5859 24.9727 35.957L25.75 37.1211C26.0234 36.7188 26.3477 36.3438 26.7031 35.9727L25.9766 34.875ZM28.3008 37.1797V48.3047H31.0078V45.2305L31.3516 45.5859L33.8906 48.3047H38L34.4336 44.707L34.8594 44.668C34.9648 44.6563 37.5078 44.3867 37.5078 40.9727C37.5078 37.5508 34.3906 37.1914 34.2773 37.1797H28.3008ZM42.2188 37.2578C40.1172 37.2578 39.4102 39.1875 39.4102 40.0664V48.3047H42.1641V46.2852H45.5234V48.3047H48.1758V40.0664C48.1758 37.7773 46.0977 37.2578 45.3711 37.2578H42.2188ZM50.0156 37.2578V48.3008H52.8984V37.2578H50.0156ZM54.6367 37.2578V48.3047H61.9219V45.7461H57.5078V37.2578H54.6367ZM66.0625 37.2578C64.8789 37.2578 63.2383 38.25 63.2383 40.1133V41.1328C63.2383 43.0469 64.9258 43.9414 66.0625 43.9414L67.4961 43.9453C67.7227 43.9375 68.7539 43.9414 68.7539 43.9414V45.7617L63.3984 45.7773V48.3008H68.4883C69.5391 48.3008 71.2344 47.5391 71.293 45.4961V44.3633C71.293 42.6055 69.8672 41.5586 68.4883 41.5586H65.6523V39.8008H70.875V37.2578H66.0625ZM23.1172 39.3828C22.9063 39.9844 22.7578 40.582 22.6289 41.1641L23.9414 42.1992C24.0039 41.5703 24.1211 40.9375 24.2812 40.3047L23.1172 39.3828ZM43.3359 39.5898H44.4141C45.2578 39.5898 45.5 40.125 45.5078 40.418V43.418H42.1484V40.418C42.1484 40.4102 42.1641 39.5898 43.3359 39.5898ZM31.0117 39.668L33.7695 39.6797C33.8008 39.6953 34.5938 40.0039 34.5938 41.1797C34.5938 42.3555 33.793 42.6797 33.6836 42.707H31.0117V39.668ZM8.80859 40.0352C8.50391 40.7305 8.16016 41.5352 8 41.9727L9.85938 42.6523C10.0703 42.1016 10.4062 41.3086 10.668 40.7109L8.80859 40.0352ZM22.3867 45.2695C22.418 46.125 22.5039 46.8203 22.582 47.3047L24.5234 48C24.3789 47.3711 24.2305 46.6602 24.1328 45.8984L22.3867 45.2695Z" fill="#E74C3C"></path></svg>