<svg xmlns="http://www.w3.org/2000/svg" xmlns:xlink="http://www.w3.org/1999/xlink" width="200" viewBox="0 0 150 37.5" height="50" preserveAspectRatio="xMidYMid meet"><defs><g></g><clipPath id="id1"><path d="M 133.480469 11.101562 L 142.363281 11.101562 L 142.363281 25.90625 L 133.480469 25.90625 Z M 133.480469 11.101562 " clip-rule="nonzero"></path></clipPath></defs><g fill="#000000" fill-opacity="1"><g transform="translate(7.649899, 25.919348)"><g><path d="M 14.15625 -4.328125 C 14.15625 -2.878906 13.585938 -1.757812 12.453125 -0.96875 C 11.316406 -0.175781 9.722656 0.21875 7.671875 0.21875 C 3.859375 0.21875 1.644531 -1.109375 1.03125 -3.765625 L 3.09375 -4.171875 C 3.332031 -3.234375 3.835938 -2.539062 4.609375 -2.09375 C 5.378906 -1.65625 6.425781 -1.4375 7.75 -1.4375 C 9.125 -1.4375 10.179688 -1.671875 10.921875 -2.140625 C 11.671875 -2.609375 12.046875 -3.300781 12.046875 -4.21875 C 12.046875 -4.726562 11.925781 -5.140625 11.6875 -5.453125 C 11.457031 -5.773438 11.128906 -6.039062 10.703125 -6.25 C 10.285156 -6.457031 9.785156 -6.628906 9.203125 -6.765625 C 8.617188 -6.910156 7.96875 -7.066406 7.25 -7.234375 C 6.007812 -7.503906 5.066406 -7.773438 4.421875 -8.046875 C 3.785156 -8.328125 3.28125 -8.632812 2.90625 -8.96875 C 2.539062 -9.3125 2.257812 -9.707031 2.0625 -10.15625 C 1.863281 -10.601562 1.765625 -11.125 1.765625 -11.71875 C 1.765625 -13.0625 2.273438 -14.09375 3.296875 -14.8125 C 4.328125 -15.539062 5.800781 -15.90625 7.71875 -15.90625 C 9.5 -15.90625 10.859375 -15.628906 11.796875 -15.078125 C 12.742188 -14.535156 13.40625 -13.609375 13.78125 -12.296875 L 11.6875 -11.9375 C 11.457031 -12.769531 11.019531 -13.375 10.375 -13.75 C 9.726562 -14.125 8.835938 -14.3125 7.703125 -14.3125 C 6.441406 -14.3125 5.484375 -14.101562 4.828125 -13.6875 C 4.171875 -13.269531 3.84375 -12.648438 3.84375 -11.828125 C 3.84375 -11.335938 3.96875 -10.9375 4.21875 -10.625 C 4.476562 -10.3125 4.847656 -10.046875 5.328125 -9.828125 C 5.804688 -9.609375 6.765625 -9.335938 8.203125 -9.015625 C 8.691406 -8.910156 9.175781 -8.800781 9.65625 -8.6875 C 10.132812 -8.570312 10.59375 -8.429688 11.03125 -8.265625 C 11.46875 -8.109375 11.875 -7.921875 12.25 -7.703125 C 12.632812 -7.492188 12.96875 -7.234375 13.25 -6.921875 C 13.53125 -6.609375 13.75 -6.238281 13.90625 -5.8125 C 14.070312 -5.394531 14.15625 -4.898438 14.15625 -4.328125 Z M 14.15625 -4.328125 "></path></g></g></g><g fill="#000000" fill-opacity="1"><g transform="translate(22.846717, 25.919348)"><g><path d="M 1.875 0 L 1.875 -15.671875 L 13.765625 -15.671875 L 13.765625 -13.9375 L 4 -13.9375 L 4 -8.90625 L 13.09375 -8.90625 L 13.09375 -7.203125 L 4 -7.203125 L 4 -1.734375 L 14.21875 -1.734375 L 14.21875 0 Z M 1.875 0 "></path></g></g></g><g fill="#000000" fill-opacity="1"><g transform="translate(38.043535, 25.919348)"><g><path d="M 12.953125 0 L 8.875 -6.5 L 4 -6.5 L 4 0 L 1.875 0 L 1.875 -15.671875 L 9.25 -15.671875 C 11.007812 -15.671875 12.367188 -15.273438 13.328125 -14.484375 C 14.285156 -13.691406 14.765625 -12.59375 14.765625 -11.1875 C 14.765625 -10.019531 14.425781 -9.039062 13.75 -8.25 C 13.070312 -7.457031 12.140625 -6.957031 10.953125 -6.75 L 15.390625 0 Z M 12.640625 -11.171875 C 12.640625 -12.078125 12.328125 -12.769531 11.703125 -13.25 C 11.085938 -13.726562 10.195312 -13.96875 9.03125 -13.96875 L 4 -13.96875 L 4 -8.1875 L 9.125 -8.1875 C 10.238281 -8.1875 11.101562 -8.445312 11.71875 -8.96875 C 12.332031 -9.488281 12.640625 -10.222656 12.640625 -11.171875 Z M 12.640625 -11.171875 "></path></g></g></g><g fill="#000000" fill-opacity="1"><g transform="translate(54.49749, 25.919348)"><g><path d="M 8.703125 0 L 6.5 0 L 0.09375 -15.671875 L 2.34375 -15.671875 L 6.671875 -4.640625 L 7.609375 -1.875 L 8.546875 -4.640625 L 12.859375 -15.671875 L 15.09375 -15.671875 Z M 8.703125 0 "></path></g></g></g><g fill="#000000" fill-opacity="1"><g transform="translate(69.694307, 25.919348)"><g><path d="M 2.109375 0 L 2.109375 -15.671875 L 4.234375 -15.671875 L 4.234375 0 Z M 2.109375 0 "></path></g></g></g><g fill="#000000" fill-opacity="1"><g transform="translate(76.024468, 25.919348)"><g><path d="M 8.8125 -14.171875 C 7.070312 -14.171875 5.71875 -13.613281 4.75 -12.5 C 3.789062 -11.382812 3.3125 -9.851562 3.3125 -7.90625 C 3.3125 -5.988281 3.8125 -4.445312 4.8125 -3.28125 C 5.820312 -2.113281 7.1875 -1.53125 8.90625 -1.53125 C 11.09375 -1.53125 12.738281 -2.613281 13.84375 -4.78125 L 15.578125 -3.921875 C 14.929688 -2.566406 14.023438 -1.535156 12.859375 -0.828125 C 11.691406 -0.128906 10.335938 0.21875 8.796875 0.21875 C 7.210938 0.21875 5.84375 -0.109375 4.6875 -0.765625 C 3.539062 -1.421875 2.664062 -2.359375 2.0625 -3.578125 C 1.457031 -4.796875 1.15625 -6.238281 1.15625 -7.90625 C 1.15625 -10.40625 1.828125 -12.363281 3.171875 -13.78125 C 4.523438 -15.195312 6.394531 -15.90625 8.78125 -15.90625 C 10.457031 -15.90625 11.851562 -15.578125 12.96875 -14.921875 C 14.09375 -14.273438 14.914062 -13.3125 15.4375 -12.03125 L 13.421875 -11.359375 C 13.054688 -12.265625 12.472656 -12.957031 11.671875 -13.4375 C 10.867188 -13.925781 9.914062 -14.171875 8.8125 -14.171875 Z M 8.8125 -14.171875 "></path></g></g></g><g fill="#000000" fill-opacity="1"><g transform="translate(92.478423, 25.919348)"><g><path d="M 1.875 0 L 1.875 -15.671875 L 13.765625 -15.671875 L 13.765625 -13.9375 L 4 -13.9375 L 4 -8.90625 L 13.09375 -8.90625 L 13.09375 -7.203125 L 4 -7.203125 L 4 -1.734375 L 14.21875 -1.734375 L 14.21875 0 Z M 1.875 0 "></path></g></g></g><g fill="#000000" fill-opacity="1"><g transform="translate(107.67524, 25.919348)"><g><path d="M 14.15625 -4.328125 C 14.15625 -2.878906 13.585938 -1.757812 12.453125 -0.96875 C 11.316406 -0.175781 9.722656 0.21875 7.671875 0.21875 C 3.859375 0.21875 1.644531 -1.109375 1.03125 -3.765625 L 3.09375 -4.171875 C 3.332031 -3.234375 3.835938 -2.539062 4.609375 -2.09375 C 5.378906 -1.65625 6.425781 -1.4375 7.75 -1.4375 C 9.125 -1.4375 10.179688 -1.671875 10.921875 -2.140625 C 11.671875 -2.609375 12.046875 -3.300781 12.046875 -4.21875 C 12.046875 -4.726562 11.925781 -5.140625 11.6875 -5.453125 C 11.457031 -5.773438 11.128906 -6.039062 10.703125 -6.25 C 10.285156 -6.457031 9.785156 -6.628906 9.203125 -6.765625 C 8.617188 -6.910156 7.96875 -7.066406 7.25 -7.234375 C 6.007812 -7.503906 5.066406 -7.773438 4.421875 -8.046875 C 3.785156 -8.328125 3.28125 -8.632812 2.90625 -8.96875 C 2.539062 -9.3125 2.257812 -9.707031 2.0625 -10.15625 C 1.863281 -10.601562 1.765625 -11.125 1.765625 -11.71875 C 1.765625 -13.0625 2.273438 -14.09375 3.296875 -14.8125 C 4.328125 -15.539062 5.800781 -15.90625 7.71875 -15.90625 C 9.5 -15.90625 10.859375 -15.628906 11.796875 -15.078125 C 12.742188 -14.535156 13.40625 -13.609375 13.78125 -12.296875 L 11.6875 -11.9375 C 11.457031 -12.769531 11.019531 -13.375 10.375 -13.75 C 9.726562 -14.125 8.835938 -14.3125 7.703125 -14.3125 C 6.441406 -14.3125 5.484375 -14.101562 4.828125 -13.6875 C 4.171875 -13.269531 3.84375 -12.648438 3.84375 -11.828125 C 3.84375 -11.335938 3.96875 -10.9375 4.21875 -10.625 C 4.476562 -10.3125 4.847656 -10.046875 5.328125 -9.828125 C 5.804688 -9.609375 6.765625 -9.335938 8.203125 -9.015625 C 8.691406 -8.910156 9.175781 -8.800781 9.65625 -8.6875 C 10.132812 -8.570312 10.59375 -8.429688 11.03125 -8.265625 C 11.46875 -8.109375 11.875 -7.921875 12.25 -7.703125 C 12.632812 -7.492188 12.96875 -7.234375 13.25 -6.921875 C 13.53125 -6.609375 13.75 -6.238281 13.90625 -5.8125 C 14.070312 -5.394531 14.15625 -4.898438 14.15625 -4.328125 Z M 14.15625 -4.328125 "></path></g></g></g><g clip-path="url(#id1)"><path fill="#000000" d="M 135.03125 11.121094 L 142.359375 18.480469 L 134.980469 25.890625 L 133.480469 24.382812 L 139.359375 18.480469 L 133.53125 12.625 L 135.03125 11.121094 " fill-opacity="1" fill-rule="nonzero"></path></g></svg>