<svg xmlns="http://www.w3.org/2000/svg" width="55" height="49" viewBox="0 0 55 49" fill="none"><path d="M27.0739 0L11.8142 1.61344L0 17.4726L27.0739 49L54.1479 17.4726L42.3339 1.61344L27.0739 0Z" fill="#FDB300"></path><path d="M0 17.4729L27.0739 49.0001L10.9662 17.4729H0Z" fill="#EB6C00"></path><path d="M43.1817 17.4729L27.0742 49.0001L54.1479 17.4729H43.1817Z" fill="#EB6C00"></path><path d="M10.9668 17.4729L27.0745 49.0001L43.1822 17.4729H10.9668Z" fill="#FDAD00"></path><path d="M11.8148 1.61344L10.9668 17.4726L27.0745 0L11.8148 1.61344Z" fill="#FDD231"></path><path d="M43.1817 17.4729L42.334 1.61347L27.0742 0.000244141L43.1817 17.4729Z" fill="#FDD231"></path><path d="M43.1819 17.4727H54.1479L42.334 1.61328L43.1819 17.4727Z" fill="#FDAD00"></path><path d="M0 17.4727H10.9662L11.8142 1.61328L0 17.4727Z" fill="#FDAD00"></path><path d="M27.0745 0L10.9668 17.4726H43.1822L27.0745 0Z" fill="#FEEEB7"></path></svg>