<svg xmlns="http://www.w3.org/2000/svg" xmlns:xlink="http://www.w3.org/1999/xlink" id="Layer_1" x="0px" y="0px" viewBox="0 0 80 38.9" style="enable-background:new 0 0 80 38.9;" xml:space="preserve"><style type="text/css">	.st0{fill:#F7942F;}	.st1{fill:#CBDF7F;}	.st2{fill:#BDE1C7;}	.st3{fill:#F0C2C2;}	.st4{fill:#FFF7F0;}	.st5{fill:#69A265;}	.st6{fill:#4FA84A;}	.st7{fill:#56AC4C;}	.st8{fill:#459A46;}	.st9{fill:#439645;}	.st10{fill:#48A047;}	.st11{fill:#C0BFA6;}	.st12{fill:#B63133;}	.st13{fill:#E13338;}	.st14{fill:#FAF3F3;}</style><path class="st0" d="M39.4,19.4c0,5-4.1,9-9.1,9s-9-4.1-9-9.1c0-5,4.1-9,9.1-9c5,0,9,4,9,9C39.4,19.3,39.4,19.4,39.4,19.4z  M30.4,14.6L30.4,14.6c-1.1,0-2.2,0-3.3,0c-0.2,0-0.5-0.1-0.5,0.3s0.2,0.3,0.4,0.3c0.6,0,0.8,0.3,0.8,0.9c0,2.3,0,4.5,0,6.8 c0,0.4-0.2,0.7-0.5,0.8c-0.2,0.1-0.3,0.2-0.3,0.4s0.3,0.2,0.4,0.2c0.6,0,1.2,0,1.8,0c1.4,0,2.8,0,4.2,0c0.4,0,0.6-0.1,0.6-0.5 s0-1,0.1-1.6c0-0.2,0.1-0.3-0.2-0.3s-0.4,0-0.5,0.3c-0.1,0.2-0.1,0.4-0.1,0.6c0,0.5-0.3,0.7-0.8,0.6c-0.8,0-1.6,0-2.3,0 c-0.4,0-0.5-0.1-0.5-0.5c0-0.6,0-1.3,0-1.9c0-1.5,0-1.5,1.5-1.4c0.6,0,1.3-0.1,1.2,0.9c0,0.2,0.1,0.3,0.3,0.3s0.3-0.1,0.3-0.3 c0-0.8,0-1.6,0-2.5c0-0.2-0.1-0.3-0.3-0.3s-0.4,0.1-0.3,0.3c0.1,0.9-0.5,0.9-1.1,0.8c-0.4,0-0.8,0-1.2,0s-0.4-0.1-0.4-0.4 c0-0.9,0.1-1.7,0.1-2.6c0-0.3,0.2-0.4,0.5-0.4H32c1.1,0,1.1,0,1.4,1c0,0.2,0.1,0.3,0.3,0.3s0.3-0.1,0.3-0.3c0-0.4,0.1-0.9,0.1-1.3 c0.1-0.5-0.1-0.6-0.6-0.6C32.4,14.7,31.4,14.6,30.4,14.6L30.4,14.6z"></path><path class="st1" d="M70,28.5c-5,0-9.1-4.1-9-9.1s4.1-9.1,9.1-9c5,0,9.1,4.1,9,9.1c0,0,0,0,0,0C79.1,24.5,75,28.5,70,28.5z M68,24.6 c0.5,0.4,1.1,0.7,1.7,1c0.3,0.1,0.7,0.1,1-0.1c1.5-0.8,2.9-1.7,4.4-2.5c0.5-0.2,0.8-0.8,0.7-1.3c0-1.6,0-3.1,0-4.7 c0.1-0.7-0.3-1.3-0.9-1.5c-1.4-0.8-2.8-1.6-4.1-2.4c-0.4-0.2-0.9-0.2-1.3,0L65,15.8c-0.4,0.2-0.6,0.6-0.5,1c0,1.8,0,3.5,0,5.3 c0,0.3,0.1,0.6,0.3,0.8c0.6,0.4,1.2,0.8,1.9,1c1,0.3,1.9-0.2,1.9-1c0.1-1.8,0-3.6,0-5.5c0-0.3-0.1-0.4-0.4-0.4 c-0.4,0-0.5,0.2-0.5,0.6c0,1.6,0,3.1,0,4.7c0,0.8-0.4,1-1.1,0.7c-0.3-0.1-0.5-0.3-0.8-0.5c-0.4-0.2-0.6-0.6-0.6-1c0-1.5,0-2.9,0-4.4 c0-0.3,0.1-0.6,0.4-0.8c1.3-0.7,2.7-1.5,4-2.3c0.3-0.2,0.6-0.2,0.9,0c1.3,0.8,2.6,1.5,3.9,2.2c0.4,0.2,0.6,0.5,0.6,0.9 c0,1.4,0,2.8,0,4.2c0,0.4-0.2,0.8-0.6,1c-1.2,0.7-2.5,1.4-3.7,2.1c-0.3,0.3-0.8,0.3-1.2,0C69.1,24.2,68.6,24,68,24.6z M71.6,22 c0.4,0,0.8,0,1.2-0.2c0.8-0.2,1.3-1.1,1-1.9c0,0,0-0.1,0-0.1c-0.3-0.6-0.8-0.7-1.4-0.8s-1.2-0.2-1.8-0.3c-0.2,0-0.5-0.2-0.5-0.5 s0.2-0.4,0.4-0.5c0.8-0.3,1.7,0,2.2,0.7c0.2,0.2,0.5,0.3,0.7,0.2c0.3-0.1,0.2-0.4,0.1-0.6c-0.1-0.4-0.4-0.8-0.8-0.9 c-0.8-0.3-1.7-0.4-2.5-0.1c-0.5,0.1-1,0.6-1,1.2c-0.1,0.6,0.3,1.3,0.9,1.4c0,0,0,0,0,0c0.7,0.2,1.4,0.2,2.2,0.4 c0.3,0.1,0.6,0.2,0.6,0.5c0,0.2-0.1,0.5-0.4,0.5c-0.9,0.4-1.9,0.2-2.5-0.6c-0.2-0.3-0.5-0.3-0.7-0.2s-0.1,0.4-0.1,0.6 c0.1,0.4,0.4,0.8,0.8,0.9C70.5,22,71.1,22,71.6,22L71.6,22z"></path><path class="st2" d="M10.1,10.5c4.7-0.2,8.9,4,9,8.8c0.1,5-4,9.2-9,9.3c0,0,0,0-0.1,0c-5,0-9-4.1-9.1-9C0.8,14.5,5.2,10.1,10.1,10.5 z M9.7,25.9c0.1,0.5,0.2,1,0.3,1.6c0,0.2,0,0.3,0.3,0.3s0.1-0.2,0.1-0.3c0-0.6,0-1.2,0.1-1.8c0.3,0,0.4-0.1,0.6-0.3 c1.6-1.4,2.6-3.4,2.8-5.6c0.1-1.4-0.1-2.8-0.7-4c-0.4-1.2-1.1-2.3-1.9-3.2c-0.4-0.4-0.8-0.9-1.1-1.4c0-0.1-0.1-0.3-0.2-0.1 c-0.1,0.4-0.5,0.7-0.8,0.9c-0.6,0.6-1.2,1.2-1.5,2c-2.2,3.7-2.1,8.6,2,11.8L9.7,25.9z"></path><path class="st3" d="M50.1,28.4c-5,0.2-9.2-4.4-9-9.2c0.1-5,4.2-9.1,9.2-9s9.1,4.2,9,9.2c0,5-4,9-9,9C50.2,28.4,50.1,28.4,50.1,28.4 z M50.2,26.8l5.5-3c0.2-0.1,0.3-0.3,0.3-0.5c0.3-2.7,0.7-5.4,1-8.1c0-0.3,0-0.5-0.3-0.6c-2.1-0.7-4.2-1.4-6.3-2.1 c-0.1-0.1-0.2-0.1-0.3,0c-2.1,0.7-4.2,1.5-6.2,2.2c-0.4,0.1-0.3,0.4-0.3,0.7c0.1,1,0.2,2.1,0.4,3.1c0.2,1.6,0.4,3.3,0.6,4.9 c0,0.3,0.2,0.5,0.4,0.6c0.8,0.4,1.6,0.9,2.4,1.3C48.2,25.9,49.1,26.4,50.2,26.8z"></path><path class="st4" d="M30.4,14.6c1,0,2.1,0,3.1,0c0.5,0,0.7,0.1,0.6,0.6c-0.1,0.4-0.1,0.9-0.1,1.3c0,0.2-0.1,0.3-0.3,0.3 s-0.3-0.1-0.3-0.3c-0.3-1-0.3-1-1.4-1h-1.6c-0.3,0-0.5,0-0.5,0.4c0,0.9,0,1.7-0.1,2.6c0,0.3,0.1,0.4,0.4,0.4s0.8,0,1.2,0 c0.6,0,1.2,0,1.1-0.8c0-0.2,0.2-0.3,0.3-0.3s0.3,0.1,0.3,0.3c0,0.8,0,1.7,0,2.5c0,0.2-0.1,0.3-0.3,0.3s-0.4-0.1-0.3-0.3 c0.1-1-0.6-0.9-1.2-0.9c-1.5-0.1-1.5-0.1-1.5,1.4c0,0.6,0,1.3,0,1.9c0,0.4,0.1,0.5,0.5,0.5c0.8,0,1.6,0,2.3,0c0.5,0,0.7-0.1,0.8-0.6 c0-0.2,0.1-0.4,0.1-0.6c0-0.3,0.3-0.3,0.5-0.3s0.2,0.2,0.2,0.3c0,0.5-0.1,1-0.1,1.6s-0.2,0.5-0.6,0.5c-1.4,0-2.8,0-4.2,0 c-0.6,0-1.2,0-1.8,0c-0.2,0-0.4,0.1-0.4-0.2s0.1-0.3,0.3-0.4c0.3-0.1,0.5-0.5,0.5-0.8c0-2.3,0.1-4.5,0-6.8c0-0.6-0.2-0.8-0.8-0.9 c-0.2,0-0.4,0-0.4-0.3s0.3-0.3,0.5-0.3C28.1,14.7,29.2,14.7,30.4,14.6L30.4,14.6z"></path><path class="st5" d="M68,24.6c0.5-0.6,1-0.4,1.5,0c0.3,0.3,0.8,0.3,1.2,0c1.2-0.7,2.4-1.4,3.7-2.1c0.4-0.2,0.7-0.6,0.6-1.1 c0-1.4,0-2.8,0-4.2c0-0.4-0.2-0.8-0.6-0.9c-1.3-0.7-2.6-1.5-3.9-2.2c-0.3-0.2-0.6-0.2-0.9,0c-1.3,0.8-2.7,1.6-4,2.3 c-0.3,0.1-0.5,0.4-0.4,0.8c0,1.5,0,2.9,0,4.4c0,0.4,0.2,0.8,0.6,1c0.3,0.1,0.5,0.3,0.8,0.5c0.7,0.4,1.1,0.1,1.1-0.7 c0-1.6,0-3.1,0-4.7c0-0.3,0.1-0.6,0.5-0.6c0.3,0,0.4,0.1,0.4,0.4c0,1.8,0,3.6,0,5.5c0,0.8-0.9,1.3-1.9,1c-0.7-0.2-1.3-0.6-1.9-1 c-0.2-0.2-0.4-0.5-0.3-0.8c0-1.8,0-3.5,0-5.3c0-0.4,0.2-0.8,0.5-1l4.5-2.6c0.4-0.2,0.9-0.2,1.3,0c1.4,0.8,2.7,1.6,4.1,2.4 c0.6,0.3,1,0.9,0.9,1.5c-0.1,1.6,0,3.1,0,4.7c0.1,0.5-0.2,1-0.7,1.3c-1.5,0.8-2.9,1.7-4.4,2.5c-0.3,0.2-0.7,0.2-1,0.1 C69.1,25.3,68.5,25,68,24.6z"></path><path class="st5" d="M71.6,22c-0.6,0-1.1-0.1-1.6-0.3c-0.4-0.2-0.7-0.5-0.8-0.9c-0.1-0.2-0.2-0.5,0.1-0.6s0.5-0.2,0.7,0.2 c0.6,0.8,1.7,1.1,2.6,0.6c0.3-0.1,0.4-0.3,0.4-0.5c0-0.4-0.3-0.5-0.6-0.5c-0.7-0.2-1.5-0.1-2.2-0.4c-0.6-0.1-1.1-0.8-0.9-1.4 c0,0,0,0,0,0c0-0.6,0.5-1,1-1.2c0.8-0.3,1.7-0.3,2.5,0.1c0.4,0.2,0.7,0.5,0.8,0.9c0.1,0.2,0.2,0.5-0.1,0.6c-0.2,0.1-0.5,0-0.7-0.2 c-0.5-0.7-1.4-0.9-2.2-0.7c-0.2,0.1-0.4,0.2-0.4,0.5s0.2,0.4,0.5,0.5c0.6,0.1,1.2,0.2,1.8,0.3s1.1,0.2,1.4,0.8 c0.3,0.8-0.1,1.7-0.9,2c0,0-0.1,0-0.1,0C72.5,22,72.1,22.1,71.6,22z"></path><path class="st6" d="M9.6,25.8c-4.1-3.2-4.3-8.1-2-11.8c0.6,2.3,1.5,4.4,2.2,6.7c0,0.2,0.2,0.3,0.4,0.3c0,0,0,0,0,0 c0,0.8-0.2,1.5-0.1,2.3c0,0.3,0,0.5-0.1,0.8c0,0.4-0.1,0.8-0.1,1.2C9.8,25.4,9.8,25.6,9.6,25.8L9.6,25.8z"></path><path class="st7" d="M10.2,21C10,21,9.8,20.9,9.7,20.7c0,0,0,0,0,0c-0.6-2.2-1.6-4.4-2.2-6.7c0.4-0.8,0.9-1.4,1.5-2 c0.3-0.3,0.6-0.5,0.8-0.9c0-0.1,0.1,0,0.2,0.1c-0.2,0.4,0.1,0.7,0,1.1c0,1.6,0,3.2,0,4.8c-0.1,1.3,0.2,2.5,0.1,3.8L10.2,21z"></path><path class="st8" d="M10.2,20.9c0.1-1.3-0.2-2.5-0.1-3.8c0.5-0.1,1.1-0.2,1.6-0.2c0.7,0,1.2-0.2,1.4-1c0.6,1.2,0.8,2.6,0.7,4 c-0.3,0.2-0.5,0.6-0.9,0.6L10.2,20.9z"></path><path class="st9" d="M10.2,20.9l2.7-0.4c0.4-0.1,0.6-0.4,0.9-0.6C13.6,22,12.6,24,11,25.4c-0.2,0.1-0.3,0.3-0.6,0.3 c-0.1-0.2-0.3-0.3-0.3-0.5c0-0.4,0-0.8-0.3-1.2c0.1-0.2,0.2-0.5,0.1-0.8c-0.1-0.8,0.1-1.5,0.1-2.3L10.2,20.9z"></path><path class="st10" d="M13.1,15.9c-0.1,0.8-0.6,1-1.4,1c-0.6,0-1.1,0.1-1.6,0.2c0-1.6,0-3.2,0-4.8c0-0.3-0.2-0.7,0-1 c0.3,0.5,0.7,1,1.1,1.4C12,13.6,12.7,14.7,13.1,15.9z"></path><path class="st11" d="M10.2,25.1c0,0.3,0.2,0.3,0.3,0.5c-0.1,0.6-0.2,1.2-0.2,1.8c0,0.1,0,0.3-0.1,0.3s-0.3-0.2-0.3-0.3 c0-0.5-0.1-1.1-0.3-1.6v-0.1c0.2-0.2,0.2-0.4,0.2-0.6S10,25,10.2,25.1z"></path><path class="st5" d="M9.7,25.8v0.1V25.8L9.7,25.8z"></path><path class="st12" d="M50.3,12.5c2.1,0.7,4.2,1.4,6.3,2.1c0.3,0.1,0.4,0.3,0.3,0.6c-0.4,2.7-0.7,5.4-1,8.1c0,0.2-0.1,0.4-0.3,0.5 l-5.5,3c0-1.8,0-3.7,0-5.5c0.2,0,0.3,0,0.5,0c1.4,0,1.5,0,2,1.3c0.1,0.6,0.7,1,1.3,0.9c0,0,0,0,0,0c0.4,0,0.5,0,0.3-0.5 c-1.4-3-2.8-5.9-4.1-8.9C50.2,13.6,50,13,50.3,12.5z"></path><path class="st13" d="M50.3,12.5c-0.2,0.5,0,1.1-0.1,1.6c-0.4,0.6-0.7,1.3-1,2c-1,2.3-2,4.5-3,6.8c-0.1,0.2-0.3,0.5,0.1,0.6 c0.6,0.2,1.2,0,1.5-0.6c0,0,0-0.1,0-0.1c0.7-1.6,0.7-1.6,2.5-1.5c0,1.8,0,3.7,0,5.5c-1-0.4-2-0.9-2.9-1.5c-0.8-0.4-1.6-0.9-2.4-1.3 c-0.2-0.1-0.4-0.3-0.4-0.6c-0.2-1.6-0.4-3.3-0.6-4.9c-0.1-1-0.2-2.1-0.4-3.1c0-0.3-0.1-0.5,0.3-0.7c2.1-0.7,4.2-1.5,6.2-2.2 C50.1,12.5,50.2,12.5,50.3,12.5z"></path><path class="st5" d="M10.2,25.1c-0.1-0.1-0.3-0.1-0.4,0c0-0.4,0.1-0.8,0.1-1.2C10.1,24.3,10.2,24.7,10.2,25.1z"></path><path class="st14" d="M50.2,21.3c-1.8-0.2-1.8-0.2-2.5,1.5c-0.2,0.6-0.8,1-1.4,0.8c0,0-0.1,0-0.1,0c-0.4-0.1-0.2-0.4-0.1-0.6 c1-2.3,2-4.5,3-6.8c0.3-0.7,0.6-1.4,1-2c1.4,3,2.8,5.9,4.1,8.9c0.2,0.4,0,0.4-0.3,0.5c-0.6,0.1-1.2-0.2-1.3-0.8c0,0,0,0,0-0.1 c-0.5-1.3-0.5-1.3-2-1.3C50.5,21.3,50.3,21.3,50.2,21.3z M51.3,19.7l-1.1-2.3c0-0.1-0.1-0.3-0.2,0c-0.3,0.8-0.7,1.5-1,2.3 c-0.1,0.2-0.2,0.4,0.2,0.4h2C51.5,20,51.5,19.9,51.3,19.7z"></path><path class="st13" d="M51.3,19.7c0.1,0.2,0.1,0.3-0.1,0.3h-2c-0.4,0-0.2-0.2-0.2-0.4c0.3-0.8,0.7-1.5,1-2.3c0.2,0.7,0.2,1.4,0.1,2.1 c0,0.5,0.2,0.6,0.6,0.5C51,19.9,51.2,19.8,51.3,19.7z"></path><path class="st12" d="M51.3,19.7c-0.2,0.1-0.4,0.2-0.6,0.2c-0.4,0-0.6,0-0.6-0.5c0.1-0.7,0-1.4-0.1-2.1c0.1-0.3,0.2-0.1,0.2,0 L51.3,19.7z"></path></svg>