<svg xmlns="http://www.w3.org/2000/svg" id="Layer_1" data-name="Layer 1" width="80" height="80" viewBox="0 0 80 80"><defs><style>.cls-1{font-size:12px;fill:#231f20;font-family:MyriadPro-Regular, Myriad Pro;}.cls-2{letter-spacing:-0.03em;}.cls-3{fill:#294996;}.cls-4{fill:#c9e1f5;}</style></defs><text class="cls-1" transform="translate(31.59 90)">I<tspan class="cls-2" x="2.87" y="0">O</tspan><tspan x="10.84" y="0">T</tspan></text><path class="cls-3" d="M15.8,60a3.72,3.72,0,0,1-3.71-3.72V39.51a3.72,3.72,0,1,1,7.43,0v16.8A3.73,3.73,0,0,1,15.8,60Zm0,0"></path><path class="cls-3" d="M49.8,39a3.09,3.09,0,0,0,3.09,3.1h2.87V56.93a3.1,3.1,0,1,0,6.19,0V42.09h2.87a3.1,3.1,0,0,0,0-6.2H52.89A3.09,3.09,0,0,0,49.8,39Zm0,0"></path><path class="cls-3" d="M36.11,37.5A10.41,10.41,0,1,0,46.52,47.91,10.4,10.4,0,0,0,36.11,37.5Zm0,14.13a3.72,3.72,0,1,1,3.72-3.72,3.72,3.72,0,0,1-3.72,3.72Zm0,0"></path><path class="cls-4" d="M36.11,53a5.1,5.1,0,1,1,5.1-5.1,5.1,5.1,0,0,1-5.1,5.1Zm0-7.44a2.34,2.34,0,1,0,2.34,2.34,2.34,2.34,0,0,0-2.34-2.34Zm0,0"></path><path class="cls-3" d="M48.05,35.32a1.17,1.17,0,0,1-1-.59,13.14,13.14,0,0,0-22.91,0,1.16,1.16,0,1,1-2-1.14,15.46,15.46,0,0,1,27,0,1.16,1.16,0,0,1-.44,1.58,1.08,1.08,0,0,1-.57.15Zm0,0"></path><path class="cls-3" d="M43.06,38.13a1.14,1.14,0,0,1-1-.59,7.42,7.42,0,0,0-12.94,0,1.15,1.15,0,0,1-1.58.44,1.18,1.18,0,0,1-.45-1.59,9.75,9.75,0,0,1,17,0A1.17,1.17,0,0,1,43.63,38a1.18,1.18,0,0,1-.57.15Zm0,0"></path><path class="cls-3" d="M53,32.52a1.15,1.15,0,0,1-1-.59,18.85,18.85,0,0,0-32.88,0,1.17,1.17,0,0,1-2-1.15,21.18,21.18,0,0,1,36.94,0,1.18,1.18,0,0,1-.45,1.59,1.16,1.16,0,0,1-.57.15Zm0,0"></path></svg>