<svg xmlns="http://www.w3.org/2000/svg" id="Layer_1" data-name="Layer 1" width="80" height="80" viewBox="0 0 80 80"><defs><style>.cls-1{fill:#4aa5dc;}.cls-2{fill:#7ebfe9;}</style></defs><path class="cls-1" d="M39.26,58.89,19.74,49.12l-7,3.5a1.65,1.65,0,0,0,0,3L39.26,68.83A1.62,1.62,0,0,0,40,69v-10A1.74,1.74,0,0,1,39.26,58.89Z"></path><path class="cls-2" d="M40,59.06V69a1.62,1.62,0,0,0,.74-.18L67.26,55.57a1.62,1.62,0,0,0,.89-1.24,2,2,0,0,0,0-.23,1.71,1.71,0,0,0-.91-1.48l-7-3.5L40.74,58.89A1.74,1.74,0,0,1,40,59.06Z"></path><path class="cls-1" d="M40,20.94V11a1.61,1.61,0,0,0-.74.17L12.74,24.43a1.65,1.65,0,0,0,0,2.95l7,3.5,19.52-9.77A1.74,1.74,0,0,1,40,20.94Z"></path><path class="cls-1" d="M19.74,35.3l-7,3.49a1.66,1.66,0,0,0,0,3l7,3.49,9.94-5Z"></path><path class="cls-1" d="M40,55.18v-10a1.61,1.61,0,0,1-.74-.17l-9.58-4.79-9.94,5L39.26,55A1.62,1.62,0,0,0,40,55.18Z"></path><path class="cls-1" d="M39.26,31.06a1.62,1.62,0,0,1,.74-.18V20.94h0a1.74,1.74,0,0,0-.74.17L19.74,30.88l9.94,5Z"></path><path class="cls-1" d="M40,30.88a1.62,1.62,0,0,0-.74.18l-9.58,4.79,9.58,4.79a1.74,1.74,0,0,0,.74.17V30.88Z"></path><path class="cls-2" d="M68.17,40.27a1.67,1.67,0,0,0-.91-1.48l-7-3.49-9.94,5,9.94,5,7-3.49A1.68,1.68,0,0,0,68.17,40.27Z"></path><path class="cls-2" d="M40.74,45.06a1.61,1.61,0,0,1-.74.17v10a1.62,1.62,0,0,0,.74-.18l19.52-9.76-9.94-5Z"></path><path class="cls-2" d="M40.32,11a1.73,1.73,0,0,1,.42.14A1.73,1.73,0,0,0,40.32,11Z"></path><path class="cls-2" d="M40.32,21a2.3,2.3,0,0,1,.42.14l19.52,9.77,7-3.5a1.65,1.65,0,0,0,0-2.95L40.74,11.17a1.73,1.73,0,0,0-.42-.14l-.14,0H40v9.94A1.73,1.73,0,0,1,40.32,21Z"></path><path class="cls-2" d="M40,11h0Z"></path><path class="cls-2" d="M40,20.94h0a1.73,1.73,0,0,1,.32,0A1.73,1.73,0,0,0,40,20.94Z"></path><path class="cls-2" d="M40.32,21a2.3,2.3,0,0,1,.42.14A2.3,2.3,0,0,0,40.32,21Z"></path><path class="cls-2" d="M40.32,21a1.73,1.73,0,0,0-.32,0v9.94l.31,0a1.84,1.84,0,0,1,.43.15l9.58,4.79,9.94-5L40.74,21.11A2.3,2.3,0,0,0,40.32,21Z"></path><path class="cls-2" d="M40.31,30.91l-.31,0h0Z"></path><path class="cls-2" d="M40.31,30.91a1.84,1.84,0,0,1,.43.15A1.84,1.84,0,0,0,40.31,30.91Z"></path><path class="cls-2" d="M40.31,30.91l-.31,0v9.93a1.74,1.74,0,0,0,.74-.17l9.58-4.79-9.58-4.79A1.84,1.84,0,0,0,40.31,30.91Z"></path></svg>