<svg xmlns="http://www.w3.org/2000/svg" xmlns:xlink="http://www.w3.org/1999/xlink" id="Layer_1" data-name="Layer 1" width="80" height="80" viewBox="0 0 80 80"><defs><style>.cls-1{fill:url(#linear-gradient);}.cls-2{fill:#2967b1;}</style><linearGradient id="linear-gradient" x1="-75.99" y1="-902.44" x2="-75.97" y2="-902.45" gradientTransform="matrix(2500, 0, 0, -1643.57, 189997.5, -1483195.63)" gradientUnits="userSpaceOnUse"><stop offset="0" stop-color="#c9cbce"></stop><stop offset="1" stop-color="#7c7b82"></stop></linearGradient></defs><path class="cls-1" d="M45.72,54.16c-14.29,0-26.44-7.15-26.44-15.73s10.72-15.7,25-15.7c18,0,26.41,6.94,26.41,15.51s-9.22,15.92-25,15.92M40,14.15c-18.58,0-34.29,10-34.29,22.87,0,12.14,15.62,22.23,34.2,22.23S74.29,49.88,74.29,37,58.58,14.15,40,14.15"></path><path class="cls-2" d="M34.09,28V65.85H45.52V51.14c2.85,0,4.55-.62,6.42,2.8,2.86,4.91,6.43,11.91,6.43,11.91H71.94s-8.57-14-9.29-14.71c-1.31-1.4-2.85-1.4-5-2.1,4.28-.7,8.27-2.47,9.66-6.28,1.22-3.5,1.07-8-1.53-10.94C63.54,29.45,61.23,28,55.51,28Zm11.43,7.87H53a3.51,3.51,0,0,1,0,7H45.52v-7Z"></path></svg>