<svg xmlns="http://www.w3.org/2000/svg" id="Layer_1" data-name="Layer 1" width="80" height="80" viewBox="0 0 80 80"><defs><style>.cls-1{fill:#f07281;}.cls-2{fill:#fde35b;}.cls-3{fill:#fdc167;}.cls-4{fill:#90bac5;}.cls-5{fill:#010101;}.cls-6{fill:#961f32;}</style></defs><path class="cls-1" d="M50.2,33.26H48a.85.85,0,0,1-.85-.84V30.19a.85.85,0,0,1,.85-.84H50.2a.84.84,0,0,1,.84.84v2.23a.84.84,0,0,1-.84.84Zm0,0"></path><path class="cls-1" d="M33.6,62.44H31.37a.84.84,0,0,1-.84-.84V59.38a.85.85,0,0,1,.84-.85H33.6a.85.85,0,0,1,.84.85V61.6a.84.84,0,0,1-.84.84Zm0,0"></path><path class="cls-2" d="M56.07,28.1h-2.6a.81.81,0,0,1-.81-.81v-2.6a.8.8,0,0,1,.81-.8h2.6a.8.8,0,0,1,.8.8v2.6a.8.8,0,0,1-.8.81Zm0,0"></path><path class="cls-3" d="M50.74,23H48.31A1.06,1.06,0,0,1,47.25,22V19.51a1.05,1.05,0,0,1,1.06-1.05h2.43a1.05,1.05,0,0,1,1.06,1.05V22A1.06,1.06,0,0,1,50.74,23Zm0,0"></path><path class="cls-4" d="M59.16,44.41c4.35-3.4,5.36-6.49,5.36-11.78v-.06a1.62,1.62,0,0,0,0-.22v-.12C64.29,22,54,13.83,41.4,13.83a28.8,28.8,0,0,0-4,.28C47.49,16,55,23.3,55.21,32v.4c0,5.29-1,8.37-5.36,11.78"></path><path class="cls-4" d="M43.57,63.43,54.23,67.5c3.22.61,5.5-1.51,6.11-4.74l2.59-9.14c-7.94.49-15.51,2.92-19.36,9.81Zm0,0"></path><path class="cls-5" d="M40.17,24.84a.85.85,0,0,0,.62.26H46a.87.87,0,0,0,.62-.26l1.42-1.42a3.06,3.06,0,1,0-1.23-4.15,3,3,0,0,0,0,2.92l-1.17,1.16H41.15l-3-3V14.62H40.7a1.13,1.13,0,0,0,.26,0c7.78-.29,15.79,3.23,19.66,10.47H57.7a3.06,3.06,0,1,0-3.81,3.8v8H47.34a.87.87,0,0,0-.87.87v4.81H44.72V37.33a.86.86,0,0,0-.31-.66l-2.75-2.36V28.6h3.57l1.17,1.16a3.06,3.06,0,1,0,1.23-1.23L46.21,27.1a.87.87,0,0,0-.62-.25h-4.8a.88.88,0,0,0-.88.87v7a.9.9,0,0,0,.31.67L43,37.74v4.84H39.48a.89.89,0,0,0-.62.25l-7,7a.91.91,0,0,0-.26.62v7.12a3.06,3.06,0,1,0,1.75,0V50.8l6.48-6.48h15.8a.85.85,0,0,0,.78-.48L59,38.6a.78.78,0,0,0,.1-.39V35.15H63v3.6l-1.13,2.47a.91.91,0,0,0,0,.67l3.85,10.25a.15.15,0,0,1,0,.13.1.1,0,0,1-.07,0H61.84A.86.86,0,0,0,61,53.46l1,3.08-2,.71a.88.88,0,0,0-.54,1.11.94.94,0,0,0,.12.22l1.29,1.81-1.12.89a.85.85,0,0,0-.33.68v2.25a2.89,2.89,0,0,1-1.39,2.46A2.69,2.69,0,0,1,56.7,67C53,67,39,62.45,39,54.81V53a.88.88,0,1,0-1.75,0v1.82c0,9.32,15.7,14,19.41,14a4.42,4.42,0,0,0,2.24-.62,4.59,4.59,0,0,0,2.24-4V62.38l1.45-1.14a.88.88,0,0,0,.17-1.19l-1.1-1.54,1.75-.6A.88.88,0,0,0,64,56.8l-.93-2.75H65.6a1.83,1.83,0,0,0,1.5-.79,1.89,1.89,0,0,0,.22-1.74l-3.73-9.9,1.06-2.32a.76.76,0,0,0,.08-.36V34.1A21.15,21.15,0,0,0,56.94,18a23.94,23.94,0,0,0-16-5.14.47.47,0,0,0-.17,0h-3.5a.87.87,0,0,0-.87.87v7a.85.85,0,0,0,.26.62Zm9.36-5.42a1.31,1.31,0,1,1-1.32,1.31A1.31,1.31,0,0,1,49.53,19.42Zm-.44,10.49a1.31,1.31,0,1,1-1.31,1.31A1.31,1.31,0,0,1,49.09,29.91ZM33.8,60.49a1.31,1.31,0,1,1-1.31-1.31A1.31,1.31,0,0,1,33.8,60.49ZM53.46,26a1.31,1.31,0,1,1,1.31,1.32A1.31,1.31,0,0,1,53.46,26Zm9.48,7.43H58.26a.87.87,0,0,0-.87.88V38L55.1,42.58H48.21V38.64h6.56a.87.87,0,0,0,.87-.87V28.9a3,3,0,0,0,2.06-2h3.74A21.1,21.1,0,0,1,62.94,33.4Z"></path><path class="cls-6" d="M25,40.6H22.44a.83.83,0,0,1-.83-.83V37.2a.83.83,0,0,1,.83-.83H25a.83.83,0,0,1,.82.83v2.57a.83.83,0,0,1-.82.83Zm0,0"></path><path d="M22.21,42l3,0a2,2,0,0,0,2-2v-.41l5.87.06L35.36,42a1.08,1.08,0,0,0,.75.32l2.37,0a1.07,1.07,0,0,0,0-2.14l-1.93,0-2.26-2.31a1.11,1.11,0,0,0-.75-.32l-6.32-.06V37a2,2,0,0,0-2-2l-3,0a2,2,0,0,0-2,2l0,3a2,2,0,0,0,2,2Zm.14-2.14,0-2.72,2.72,0,0,2.72Zm0,0"></path><path class="cls-4" d="M19.64,32.64H16.71a.76.76,0,0,1-.77-.77V28.94a.77.77,0,0,1,.77-.78h2.93a.78.78,0,0,1,.78.78v2.93a.77.77,0,0,1-.78.77Zm0,0"></path><path d="M16.66,33.89l3,0a2,2,0,0,0,2-2v-.41l5.87,0,2.27,2.31a1,1,0,0,0,.75.32l7.73,0a1.08,1.08,0,0,0,1.08-1.06,1.06,1.06,0,0,0-1.06-1.08l-7.29,0-2.26-2.31a1.07,1.07,0,0,0-.75-.32l-6.32-.06V29a2,2,0,0,0-2-2l-3,0a2,2,0,0,0-2,2l0,3a2,2,0,0,0,2,2Zm.14-2.14,0-2.72,2.72,0,0,2.73Zm0,0"></path><path class="cls-2" d="M22.91,24.66H19.34a.82.82,0,0,1-.82-.82V20.27a.82.82,0,0,1,.82-.82h3.57a.82.82,0,0,1,.82.82v3.57a.82.82,0,0,1-.82.82Zm0,0"></path><path d="M24.62,23.16l5.87.06,2.26,2.31a1.12,1.12,0,0,0,.76.32l2.37,0a1.07,1.07,0,0,0,0-2.14l-1.93,0L31.71,21.4a1.12,1.12,0,0,0-.76-.32L24.64,21v-.41a2,2,0,0,0-2-2l-3,0a2,2,0,0,0-2,2l0,3a2,2,0,0,0,2,2h0l3,0a2,2,0,0,0,2-2v-.41m-4.87.24,0-2.72,2.72,0,0,2.72Zm0,0"></path><path class="cls-1" d="M17.34,16.51H14.81a.52.52,0,0,1-.52-.52V13.46a.52.52,0,0,1,.52-.52h2.53a.52.52,0,0,1,.53.52V16a.52.52,0,0,1-.53.52Zm0,0"></path><path d="M28,13.75l-8.36-.06v-.41a2,2,0,0,0-2-2l-3,0a2,2,0,0,0-2,2l0,3a2,2,0,0,0,2,2h0l3,0a2,2,0,0,0,2-2v-.41l9.19.21m-14.06,0,0-2.72,2.72,0,0,2.72Zm0,0"></path><path d="M28.76,16,31,18.34a1,1,0,0,0,.75.32l2.37,0a1.07,1.07,0,0,0,0-2.14l-1.93,0L30,14.22a1.85,1.85,0,0,0-1-.41l-1-.06"></path><path class="cls-3" d="M18.84,49.65H16.41a1.05,1.05,0,0,1-1.06-1.06V46.16a1.05,1.05,0,0,1,1.06-1.06h2.43a1.05,1.05,0,0,1,1.06,1.06v2.43a1.05,1.05,0,0,1-1.06,1.06Zm0,0"></path><path d="M28.7,46.4l-7.56-.06v-.41a2,2,0,0,0-2-2l-3,0a2,2,0,0,0-2,2l0,3a2,2,0,0,0,2,2h0l3,0a2,2,0,0,0,2-2v-.41l7.54.06m-12.41.18,0-2.72L19,46l0,2.72Zm0,0"></path><path d="M28.6,48.53a1.85,1.85,0,0,0,1-.41l2.26-2.31,1.93,0a1.07,1.07,0,1,0,0-2.13l-2.37,0a1.07,1.07,0,0,0-.76.32L27.5,47.2"></path></svg>