<svg xmlns="http://www.w3.org/2000/svg" xmlns:xlink="http://www.w3.org/1999/xlink" id="Layer_1" data-name="Layer 1" width="80" height="80" viewBox="0 0 80 80"><defs><style>.cls-1{fill:url(#linear-gradient);}.cls-2{fill:url(#linear-gradient-2);}</style><linearGradient id="linear-gradient" x1="-200.12" y1="100.07" x2="-200.1" y2="100.05" gradientTransform="matrix(1849.27, 0, 0, -1853.39, 370089.79, 185481.28)" gradientUnits="userSpaceOnUse"><stop offset="0" stop-color="#3a7fb9"></stop><stop offset="1" stop-color="#376a95"></stop></linearGradient><linearGradient id="linear-gradient-2" x1="-200.46" y1="100.4" x2="-200.44" y2="100.38" gradientTransform="matrix(1849.27, 0, 0, -1853.39, 370734.19, 186108.67)" gradientUnits="userSpaceOnUse"><stop offset="0" stop-color="#fee053"></stop><stop offset="1" stop-color="#ffc433"></stop></linearGradient></defs><path class="cls-1" d="M39.76,7.35c-16.66,0-15.62,7.22-15.62,7.22l0,7.49h15.9v2.25H17.84S7.18,23.1,7.18,39.92s9.3,16.21,9.3,16.21H22v-7.8S21.74,39,31.2,39H47s8.86.15,8.86-8.56V16.06S57.18,7.35,39.76,7.35Zm-8.77,5a2.87,2.87,0,0,1,2.87,2.86h0A2.86,2.86,0,0,1,31,18.1h0a2.85,2.85,0,0,1-2.86-2.85h0A2.86,2.86,0,0,1,31,12.38Z"></path><path class="cls-2" d="M40.24,72.65c16.66,0,15.62-7.22,15.62-7.22l0-7.49H39.94V55.69H62.16S72.82,56.9,72.82,40.08s-9.3-16.21-9.3-16.21H58v7.8S58.26,41,48.8,41H33s-8.86-.15-8.86,8.56v14.4s-1.35,8.71,16.07,8.71Zm8.77-5a2.87,2.87,0,0,1-2.87-2.86h0A2.86,2.86,0,0,1,49,61.9h0a2.85,2.85,0,0,1,2.86,2.85h0A2.86,2.86,0,0,1,49,67.62Z"></path></svg>