<svg xmlns="http://www.w3.org/2000/svg" id="Layer_1" data-name="Layer 1" width="80" height="80" viewBox="0 0 80 80"><defs><style>.cls-1{font-size:12px;fill:#231f20;font-family:MyriadPro-Regular, Myriad Pro;}.cls-2{letter-spacing:-0.05em;}.cls-3{fill:#262f3e;}.cls-4{fill:#f8991d;}</style></defs><text class="cls-1" transform="translate(30.42 90)"><tspan class="cls-2">A</tspan><tspan x="6.71" y="0">WS</tspan></text><path class="cls-3" d="M25.17,34.44a6.8,6.8,0,0,0,.25,2,12.58,12.58,0,0,0,.72,1.63,1.09,1.09,0,0,1,.16.52.87.87,0,0,1-.43.68l-1.42.95a1.19,1.19,0,0,1-.59.2,1.06,1.06,0,0,1-.68-.32,5.71,5.71,0,0,1-.81-1.06,13.32,13.32,0,0,1-.7-1.33A8.36,8.36,0,0,1,15,40.84a6.17,6.17,0,0,1-4.52-1.63,5.8,5.8,0,0,1-1.67-4.34,5.83,5.83,0,0,1,2.05-4.66,8.25,8.25,0,0,1,5.54-1.76,17.62,17.62,0,0,1,2.4.18c.83.11,1.69.29,2.6.5V27.48a5,5,0,0,0-1.07-3.62,5.16,5.16,0,0,0-3.68-1,10.05,10.05,0,0,0-2.44.29,19.78,19.78,0,0,0-2.44.77,6.78,6.78,0,0,1-.79.3,1.19,1.19,0,0,1-.37.06c-.31,0-.47-.22-.47-.7v-1.1a1.54,1.54,0,0,1,.16-.79,1.74,1.74,0,0,1,.63-.48,12.73,12.73,0,0,1,2.85-1,14.52,14.52,0,0,1,3.53-.43c2.69,0,4.65.61,5.92,1.83s1.87,3.08,1.87,5.57v7.32ZM16,37.88a6.89,6.89,0,0,0,2.33-.41A5.1,5.1,0,0,0,20.47,36a3.47,3.47,0,0,0,.77-1.44,8.75,8.75,0,0,0,.22-2v-.95a20.58,20.58,0,0,0-2.08-.38,15.1,15.1,0,0,0-2.12-.14,5.22,5.22,0,0,0-3.37.9,3.14,3.14,0,0,0-1.11,2.6,3.13,3.13,0,0,0,.84,2.4,3.26,3.26,0,0,0,2.37.84Zm18.15,2.44a1.29,1.29,0,0,1-.85-.23,1.86,1.86,0,0,1-.48-.88L27.5,21.74a3.54,3.54,0,0,1-.21-.91.52.52,0,0,1,.43-.56h2.36a1.26,1.26,0,0,1,.88.22,2.27,2.27,0,0,1,.45.88l3.77,15,3.53-15a1.59,1.59,0,0,1,.43-.88,1.51,1.51,0,0,1,.9-.22h1.81a1.37,1.37,0,0,1,.91.22,1.7,1.7,0,0,1,.43.88l3.57,15.15,3.91-15.15a1.9,1.9,0,0,1,.45-.88,1.45,1.45,0,0,1,.88-.22h2.11a.49.49,0,0,1,.56.43v.13a2.2,2.2,0,0,1,0,.36c-.05.21-.1.39-.16.57L49,39.23a1.68,1.68,0,0,1-.48.88,1.42,1.42,0,0,1-.85.23H45.74a1.33,1.33,0,0,1-.9-.23,1.59,1.59,0,0,1-.43-.9L40.9,24.63,37.42,39.19a1.62,1.62,0,0,1-.43.9,1.45,1.45,0,0,1-.9.23Zm29.05.61a15.05,15.05,0,0,1-3.48-.41,10.26,10.26,0,0,1-2.6-.9,1.61,1.61,0,0,1-.7-.64,1.48,1.48,0,0,1-.13-.63V37.2c0-.48.18-.7.52-.7a1.12,1.12,0,0,1,.4.07c.14,0,.34.13.57.22a11.94,11.94,0,0,0,2.48.79,13.56,13.56,0,0,0,2.69.27,6.13,6.13,0,0,0,3.3-.74A2.44,2.44,0,0,0,67.42,35a2.17,2.17,0,0,0-.61-1.58,5.7,5.7,0,0,0-2.28-1.18l-3.28-1a6.9,6.9,0,0,1-3.62-2.3A5.41,5.41,0,0,1,56.5,25.6a4.89,4.89,0,0,1,.61-2.51,5.89,5.89,0,0,1,1.63-1.85,7,7,0,0,1,2.35-1.18,9.47,9.47,0,0,1,2.85-.38,10.84,10.84,0,0,1,1.51.09c.52.07,1,.16,1.47.25a8.93,8.93,0,0,1,1.29.36,5.44,5.44,0,0,1,1,.41,1.75,1.75,0,0,1,.68.56,1.07,1.07,0,0,1,.2.75v1.06c0,.47-.18.72-.52.72a2.69,2.69,0,0,1-.86-.27,10.22,10.22,0,0,0-4.34-.88,5.8,5.8,0,0,0-3,.63,2.2,2.2,0,0,0-1.07,2,2.07,2.07,0,0,0,.68,1.6,6.67,6.67,0,0,0,2.49,1.24l3.21,1a6.83,6.83,0,0,1,3.5,2.17,5,5,0,0,1,1,3.17,5.57,5.57,0,0,1-.58,2.62,6.49,6.49,0,0,1-1.66,2,7,7,0,0,1-2.5,1.26,11,11,0,0,1-3.24.48Z"></path><path class="cls-4" d="M67.47,51.91c-7.44,5.5-18.25,8.41-27.54,8.41A49.8,49.8,0,0,1,6.32,47.51c-.7-.64-.07-1.5.76-1a67.83,67.83,0,0,0,33.64,8.93A67.07,67.07,0,0,0,66.38,50.2c1.24-.57,2.31.81,1.09,1.71Z"></path><path class="cls-4" d="M70.56,48.39c-1-1.22-6.28-.59-8.7-.3-.72.09-.84-.54-.18-1,4.25-3,11.23-2.13,12.05-1.13s-.23,8-4.21,11.34c-.61.52-1.2.25-.92-.42C69.5,54.63,71.51,49.59,70.56,48.39Z"></path></svg>