<svg xmlns="http://www.w3.org/2000/svg" id="Layer_1" data-name="Layer 1" width="80" height="80" viewBox="0 0 80 80"><defs><style>.cls-1{fill:#e8762e;}.cls-2{fill:#c72038;}.cls-3{fill:#5c879b;}.cls-4{fill:#5d6792;}.cls-5{fill:#eb9126;}.cls-6{fill:#1f467e;fill-rule:evenodd;}.cls-7{fill:#7299a6;}</style></defs><path class="cls-1" d="M38.39,50.17h3.22V41.41h8.08V38.3H41.61V29.53H38.39V38.3h-8v3.11h8Z"></path><path class="cls-2" d="M23.5,62.83h2.72V55h7.21V52.61H26.22V44.72H23.5v7.89H16.29V55H23.5Z"></path><path class="cls-3" d="M53.78,34.69H56.5V26.91h7.3V24.57H56.5V16.68H53.78v7.89H46.57v2.34h7.21Z"></path><path class="cls-4" d="M38.88,69h2.34V63.41h5v-2h-5V55.82H38.88v5.55H34v2h4.87Z"></path><path class="cls-5" d="M23.6,34.69h2.53V26.81h7.3V24.57h-7.3V16.68H23.6v7.89H16.29v2.24H23.6Z"></path><path class="cls-4" d="M62.05,46.38h2.34V40.92h5V38.78h-5V33.33H62.05v5.45H57.18v2.14h4.87Z"></path><path class="cls-6" d="M53.78,62.83H56.5V55h7.3V52.61H56.5V44.72H53.78v7.89H46.57V55h7.21Z"></path><path class="cls-7" d="M45.79,18.05V16.39H40.92V11H39.17v5.35H34.3v1.66h4.87V23.4h1.75V18.05ZM15.51,46h1.76V40.63h4.86V39H17.27V33.72H15.51V39H10.65v1.75l4.86-.1Z"></path></svg>