<svg xmlns="http://www.w3.org/2000/svg" id="Layer_1" data-name="Layer 1" width="80" height="80" viewBox="0 0 80 80"><defs><style>.cls-1{fill:#54c1de;}.cls-2{fill:#fff;}</style></defs><path class="cls-1" d="M59.2,30.68h0c-.64-.22-1.28-.42-1.92-.61.11-.43.21-.87.3-1.31,1.45-7,.5-12.72-2.74-14.59s-8.19.08-13.33,4.54c-.5.44-1,.9-1.48,1.36-.33-.31-.65-.61-1-.91-5.38-4.78-10.77-6.79-14-4.91s-4,7.13-2.72,13.81c.13.66.28,1.32.44,2-.76.22-1.5.45-2.2.7-6.31,2.2-10.34,5.64-10.34,9.22s4.32,7.4,10.89,9.64c.54.18,1.07.35,1.61.51-.17.7-.33,1.41-.46,2.12C21,58.79,22,64,25.07,65.78s8.57,0,13.8-4.62c.41-.36.82-.74,1.24-1.14.52.5,1.06,1,1.61,1.47,5.06,4.35,10.07,6.11,13.16,4.32s4.23-7.45,2.89-14.26q-.17-.78-.36-1.59l1.11-.35c6.83-2.26,11.27-5.92,11.27-9.66S65.63,32.89,59.2,30.68Zm-16-10c4.4-3.82,8.51-5.34,10.39-4.26s2.77,5.8,1.51,11.88c-.08.4-.17.79-.26,1.18a60.73,60.73,0,0,0-8-1.25,61.31,61.31,0,0,0-5-6.29C42.26,21.46,42.72,21,43.18,20.63ZM27.8,43c.54,1,1.1,2.07,1.69,3.09s1.22,2,1.87,3.06a54.81,54.81,0,0,1-5.49-.89C26.4,46.57,27,44.8,27.8,43Zm0-6a54.41,54.41,0,0,1-1.89-5.16c1.7-.38,3.51-.69,5.4-.93-.64,1-1.24,2-1.83,3S28.33,36,27.8,37Zm1.35,3c.79-1.63,1.63-3.23,2.54-4.8h0q1.35-2.35,2.88-4.6c1.78-.13,3.59-.2,5.43-.2s3.66.07,5.44.2c1,1.49,2,3,2.87,4.58s1.76,3.16,2.57,4.79c-.8,1.63-1.65,3.24-2.57,4.82h0c-.9,1.57-1.85,3.1-2.85,4.61-1.77.13-3.6.19-5.46.19s-3.66-.06-5.39-.17q-1.55-2.25-2.92-4.62T29.15,40Zm21.37,6.06c.6-1,1.18-2.09,1.73-3.16a55.34,55.34,0,0,1,2,5.24,51,51,0,0,1-5.56,1Q49.64,47.6,50.52,46.07Zm1.7-9c-.55-1.05-1.12-2.08-1.71-3.1s-1.19-2-1.81-3c1.9.24,3.72.56,5.43.95A51.91,51.91,0,0,1,52.22,37ZM40,23.71a53.58,53.58,0,0,1,3.5,4.23q-3.51-.17-7,0C37.65,26.42,38.84,25,40,23.71ZM26.3,16.45c2-1.15,6.4.49,11.05,4.62.3.26.6.54.89.82a61.33,61.33,0,0,0-5.07,6.28,61.89,61.89,0,0,0-8,1.24c-.15-.61-.29-1.22-.41-1.84h0C23.69,21.85,24.43,17.53,26.3,16.45ZM23.4,47.64c-.5-.14-1-.29-1.47-.46A21.37,21.37,0,0,1,15,43.49C13.5,42.23,12.75,41,12.75,40c0-2.17,3.24-4.94,8.63-6.82.68-.23,1.36-.45,2.05-.64A61.86,61.86,0,0,0,26.34,40,60.92,60.92,0,0,0,23.4,47.64ZM37.19,59.25a21.52,21.52,0,0,1-6.67,4.17h0c-1.83.65-3.29.67-4.18.16-1.88-1.08-2.66-5.27-1.59-10.88.12-.67.27-1.33.43-2a59.11,59.11,0,0,0,8,1.16,62.46,62.46,0,0,0,5.12,6.32Q37.78,58.74,37.19,59.25Zm2.91-2.88c-1.21-1.3-2.41-2.74-3.59-4.29,1.14,0,2.31.07,3.49.07s2.42,0,3.6-.08C42.44,53.64,41.26,55.09,40.1,56.37Zm15.46,3.54c-.36,1.91-1.07,3.19-2,3.7-1.87,1.09-5.89-.33-10.22-4-.5-.43-1-.89-1.5-1.37a60.42,60.42,0,0,0,5-6.34A60.28,60.28,0,0,0,55,50.61c.12.49.23,1,.32,1.44A21.57,21.57,0,0,1,55.56,59.91ZM57.72,47.2h0l-1,.31a61.8,61.8,0,0,0-3-7.55,58.53,58.53,0,0,0,2.9-7.44c.61.18,1.2.37,1.77.56,5.51,1.9,8.88,4.71,8.88,6.87S63.61,45.24,57.72,47.2Z"></path><path class="cls-2" d="M31.36,49.15c-.65-1-1.27-2-1.87-3.06s-1.15-2-1.69-3.09c-.76,1.8-1.4,3.57-1.93,5.26A54.81,54.81,0,0,0,31.36,49.15Z"></path><path class="cls-2" d="M43.53,27.94A53.58,53.58,0,0,0,40,23.71c-1.19,1.29-2.38,2.71-3.54,4.23Q40,27.78,43.53,27.94Z"></path><path class="cls-1" d="M40,34.68A5.32,5.32,0,1,1,34.68,40,5.32,5.32,0,0,1,40,34.68"></path></svg>