<svg xmlns="http://www.w3.org/2000/svg" id="Layer_1" data-name="Layer 1" width="80" height="80" viewBox="0 0 80 80"><defs><style>.cls-1{fill:#17a0db;}.cls-2{fill:#fff;}</style></defs><path class="cls-1" d="M34.43,21.82A11.65,11.65,0,0,1,53.1,24.28a14.19,14.19,0,0,1,5.8-1.23,14.45,14.45,0,0,1,0,28.89,13.45,13.45,0,0,1-2.83-.28A10.46,10.46,0,0,1,46.94,57,10.32,10.32,0,0,1,42.36,56a11.95,11.95,0,0,1-22.21-.54,10.76,10.76,0,0,1-2.28.24,11.23,11.23,0,0,1-5.54-20.91,12.7,12.7,0,0,1-1.07-5.13,12.91,12.91,0,0,1,23.17-7.81"></path><path class="cls-2" d="M16.4,40.86c0,.11,0,.14,0,.15a2.57,2.57,0,0,0,.38.23,4.06,4.06,0,0,0,2,.47c1.36,0,2.21-.73,2.21-1.89v0c0-1.08-1-1.47-1.85-1.75L19,38c-.68-.22-1.26-.41-1.26-.85v0c0-.38.34-.66.87-.66a3.89,3.89,0,0,1,1.73.45s.13.08.18,0,.26-.68.28-.74a.12.12,0,0,0-.07-.15,3.77,3.77,0,0,0-1.95-.53h-.14a1.91,1.91,0,0,0-2.11,1.84v0c0,1.14,1,1.51,1.86,1.76l.14,0c.66.2,1.22.37,1.22.83v0c0,.42-.36.73-1,.73a3.19,3.19,0,0,1-1.75-.5l-.23-.14s-.13-.07-.18.06l-.27.74Zm20,0c0,.11,0,.14,0,.15a3.21,3.21,0,0,0,.38.23,4.06,4.06,0,0,0,2,.47c1.36,0,2.21-.73,2.21-1.89v0c0-1.08-1-1.47-1.85-1.75L39,38c-.67-.22-1.26-.41-1.26-.85v0c0-.38.34-.66.87-.66a3.89,3.89,0,0,1,1.73.45s.13.08.18,0,.26-.68.28-.74a.11.11,0,0,0-.07-.15,3.77,3.77,0,0,0-1.95-.53h-.13a1.91,1.91,0,0,0-2.12,1.84v0c0,1.14,1,1.51,1.86,1.76l.14,0c.66.2,1.22.37,1.22.83v0c0,.42-.36.73-1,.73A3.19,3.19,0,0,1,37,40.2l-.23-.14a.12.12,0,0,0-.18.06l-.26.74ZM50,38.58a2.78,2.78,0,0,1-.37,1.54,1.4,1.4,0,0,1-2.21,0,3.47,3.47,0,0,1,0-3.08,1.4,1.4,0,0,1,2.21,0A2.78,2.78,0,0,1,50,38.58m1.13-1.22a2.52,2.52,0,0,0-1.39-1.66,3.22,3.22,0,0,0-2.44,0,2.54,2.54,0,0,0-.87.67,2.76,2.76,0,0,0-.52,1,4.28,4.28,0,0,0-.17,1.22,4.33,4.33,0,0,0,.17,1.22,2.76,2.76,0,0,0,.52,1,2.48,2.48,0,0,0,.87.66,3.22,3.22,0,0,0,2.44,0,2.52,2.52,0,0,0,.88-.66,2.74,2.74,0,0,0,.51-1,4.33,4.33,0,0,0,.17-1.22,4.28,4.28,0,0,0-.17-1.22m9.34,3.13a.1.1,0,0,0-.14-.07,3,3,0,0,1-.53.15,4,4,0,0,1-.62,0,1.74,1.74,0,0,1-1.3-.49,2.18,2.18,0,0,1-.49-1.56,2.36,2.36,0,0,1,.43-1.49,1.49,1.49,0,0,1,1.27-.56,3.74,3.74,0,0,1,1.2.17s.09,0,.13-.08l.28-.77a.11.11,0,0,0-.07-.14,4.41,4.41,0,0,0-.76-.19,5.39,5.39,0,0,0-.85-.06,3,3,0,0,0-1.27.25,2.67,2.67,0,0,0-.92.66,2.81,2.81,0,0,0-.55,1,4,4,0,0,0-.19,1.22,3.29,3.29,0,0,0,.76,2.27,2.88,2.88,0,0,0,2.25.84,4.88,4.88,0,0,0,1.61-.28.1.1,0,0,0,0-.14l-.28-.77Zm2-2.54a2.27,2.27,0,0,1,.32-.91,1.34,1.34,0,0,1,2.18,0,2,2,0,0,1,.25.91Zm3.84-.81a2.44,2.44,0,0,0-.5-.9,2.34,2.34,0,0,0-.73-.56,2.87,2.87,0,0,0-1.1-.22,2.94,2.94,0,0,0-1.27.25,2.41,2.41,0,0,0-.89.67,2.8,2.8,0,0,0-.52,1,4.46,4.46,0,0,0-.17,1.23,4.3,4.3,0,0,0,.17,1.23,2.57,2.57,0,0,0,.56,1,2.65,2.65,0,0,0,1,.64,3.91,3.91,0,0,0,1.4.23,4,4,0,0,0,1.94-.39s.08-.06,0-.18l-.25-.71a.12.12,0,0,0-.15-.06,3.75,3.75,0,0,1-1.58.28,1.82,1.82,0,0,1-1.31-.45,1.78,1.78,0,0,1-.45-1.28h3.85a.11.11,0,0,0,.11-.1,4.32,4.32,0,0,0-.11-1.66M31.6,38a2.27,2.27,0,0,1,.32-.91,1.34,1.34,0,0,1,2.18,0,2,2,0,0,1,.25.91Zm3.83-.81a2.31,2.31,0,0,0-.49-.9,2.34,2.34,0,0,0-.73-.56,2.87,2.87,0,0,0-1.1-.22,2.94,2.94,0,0,0-1.27.25,2.41,2.41,0,0,0-.89.67,2.8,2.8,0,0,0-.52,1,4.46,4.46,0,0,0-.17,1.23,4.3,4.3,0,0,0,.17,1.23,2.57,2.57,0,0,0,.56,1,2.65,2.65,0,0,0,1,.64,3.91,3.91,0,0,0,1.4.23,4,4,0,0,0,1.94-.39s.08-.06,0-.18l-.25-.71a.12.12,0,0,0-.15-.06,3.75,3.75,0,0,1-1.58.28A1.82,1.82,0,0,1,32,40.18a1.78,1.78,0,0,1-.45-1.28h3.85a.11.11,0,0,0,.11-.1,4.21,4.21,0,0,0-.12-1.66M23.28,40.47a.73.73,0,0,1-.22-.23.9.9,0,0,1-.12-.5.87.87,0,0,1,.35-.75,1.68,1.68,0,0,1,1.11-.28,8.24,8.24,0,0,1,1.05.09v1.75h0a7.13,7.13,0,0,1-1,.14,1.75,1.75,0,0,1-1.13-.22m1.53-2.71-.6,0a3.69,3.69,0,0,0-.95.13,2.35,2.35,0,0,0-.8.37,1.89,1.89,0,0,0-.56.63,1.85,1.85,0,0,0-.2.89,2,2,0,0,0,.17.88,1.63,1.63,0,0,0,.5.6,2.1,2.1,0,0,0,.79.34,4.49,4.49,0,0,0,1,.11,7.59,7.59,0,0,0,1.17-.1l1-.19.27-.07a.12.12,0,0,0,.09-.12V37.69a2.12,2.12,0,0,0-.61-1.7,2.58,2.58,0,0,0-1.77-.54,5.89,5.89,0,0,0-1,.1,3.74,3.74,0,0,0-1.19.43.13.13,0,0,0,0,.16l.27.73a.11.11,0,0,0,.13.06l.06,0a4,4,0,0,1,1.68-.39,1.5,1.5,0,0,1,.95.25c.21.16.32.4.32.91v.17l-.64-.08m31.06-2a.1.1,0,0,0-.06-.14,2.6,2.6,0,0,0-.64-.11,1.89,1.89,0,0,0-1,.16,1.67,1.67,0,0,0-.65.48V35.7a.12.12,0,0,0-.12-.12h-1a.11.11,0,0,0-.11.12v5.74a.11.11,0,0,0,.11.12h1a.11.11,0,0,0,.11-.12V38.57a3.22,3.22,0,0,1,.13-1A1.4,1.4,0,0,1,54,37a1.12,1.12,0,0,1,.47-.29,2.07,2.07,0,0,1,.52-.07,2.22,2.22,0,0,1,.42,0,.12.12,0,0,0,.14-.1c.07-.18.26-.71.29-.81"></path><path class="cls-2" d="M46.38,33.12,46,33a4.11,4.11,0,0,0-.53,0,2.21,2.21,0,0,0-1.63.58,3.2,3.2,0,0,0-.77,1.75l0,.26h-.87a.12.12,0,0,0-.13.11l-.15.8c0,.08,0,.12.13.12h.85L42,41.43a7,7,0,0,1-.23,1,2.16,2.16,0,0,1-.27.55.66.66,0,0,1-.36.27,1.25,1.25,0,0,1-.45.07,1.65,1.65,0,0,1-.31,0,.65.65,0,0,1-.21-.06.1.1,0,0,0-.13.06c0,.08-.26.7-.29.78a.1.1,0,0,0,.06.15l.35.11a2.4,2.4,0,0,0,.57,0,2.73,2.73,0,0,0,.94-.15,1.69,1.69,0,0,0,.71-.49,2.44,2.44,0,0,0,.5-.86,6.75,6.75,0,0,0,.34-1.3l.87-4.91h1.27a.13.13,0,0,0,.13-.11l.14-.8c0-.08,0-.12-.13-.12H44.26a5.05,5.05,0,0,1,.21-.87,1,1,0,0,1,.27-.41.72.72,0,0,1,.32-.2,1.31,1.31,0,0,1,.41-.06,1.51,1.51,0,0,1,.32,0l.2,0c.12,0,.14,0,.16-.06l.3-.81a.1.1,0,0,0-.07-.13M29.17,41.44a.11.11,0,0,1-.11.12H28a.11.11,0,0,1-.11-.12V33.23a.11.11,0,0,1,.11-.12h1a.11.11,0,0,1,.11.12Z"></path></svg>