<svg xmlns="http://www.w3.org/2000/svg" id="Layer_1" data-name="Layer 1" width="80" height="80" viewBox="0 0 80 80"><defs><style>.cls-1{fill:#69617d;}.cls-2{fill:#4f9cba;}.cls-3{fill:#54c3e5;}.cls-4{fill:#91cbd7;}.cls-5{fill:#1c8b93;}.cls-6{fill:#ffd188;}.cls-7{fill:#b98941;}.cls-8{fill:#ed6671;}.cls-9{fill:#aa2036;}.cls-10{fill:#f6958a;}.cls-11{fill:#9c4a49;}.cls-12{fill:#4c9099;}</style></defs><path class="cls-1" d="M20.2,21.94,36,16.21l.77,2.11L21,24.05Zm0,0"></path><path class="cls-1" d="M43.39,19.79,45,18.2l18,18-1.59,1.59Zm0,0"></path><path class="cls-1" d="M46.29,38.83l.3-2.23,13.5,1.85-.31,2.23Zm0,0"></path><path class="cls-1" d="M19,27.31l1-2,18,9-1,2Zm0,0"></path><path class="cls-1" d="M19.7,56.93l1-2L36.81,63l-1,2Zm0,0"></path><rect class="cls-1" x="39.7" y="41.47" width="2.25" height="19.11"></rect><path class="cls-1" d="M18,48.72,37,19.51l1.89,1.22L19.92,50Zm0,0"></path><path class="cls-1" d="M43.78,61.46,61.52,42.9l1.63,1.56L45.41,63Zm0,0"></path><path class="cls-1" d="M18,30l1.94-1.15L38.46,60l-1.93,1.15Zm0,0"></path><path class="cls-2" d="M24,53.84a7.7,7.7,0,0,1-.83,3.52A7.87,7.87,0,1,1,16.1,46a7.74,7.74,0,0,1,4.27,1.26A7.85,7.85,0,0,1,24,53.84Zm0,0"></path><path class="cls-3" d="M20.19,53.84a4,4,0,0,1-.43,1.83,4.09,4.09,0,1,1-3.66-5.92,4,4,0,0,1,2.22.66,4.07,4.07,0,0,1,1.87,3.43Zm0,0"></path><path class="cls-4" d="M46.22,59.48a7.76,7.76,0,0,1,1.9,5.11A7.87,7.87,0,1,1,32.81,62a7.86,7.86,0,0,1,13.41-2.53Zm0,0"></path><path class="cls-5" d="M43.31,62a4,4,0,0,1,1,2.63,4,4,0,1,1-8.09,0,3.91,3.91,0,0,1,.23-1.33A4,4,0,0,1,43.31,62Zm0,0"></path><path class="cls-6" d="M63.9,32.39a7.87,7.87,0,0,1,0,15.74A7.9,7.9,0,0,1,56,40.26a6.23,6.23,0,0,1,.08-1.06,7.77,7.77,0,0,1,2.22-4.51,7.87,7.87,0,0,1,5.57-2.3Zm0,0"></path><path class="cls-7" d="M63.9,36.41a3.85,3.85,0,0,1,0,7.7,3.86,3.86,0,0,1-3.85-3.85,3,3,0,0,1,0-.52,3.73,3.73,0,0,1,1.09-2.2,3.8,3.8,0,0,1,2.72-1.13Zm0,0"></path><path class="cls-8" d="M48,37A7.87,7.87,0,0,1,32.33,35.9a7.71,7.71,0,0,1,.84-3.52,7.86,7.86,0,0,1,14.9,3.52A6.23,6.23,0,0,1,48,37Zm0,0"></path><path class="cls-9" d="M43.93,36.41a3.76,3.76,0,0,1-7.48-.51,3.62,3.62,0,0,1,.39-1.68A3.76,3.76,0,0,1,44,35.9a4.36,4.36,0,0,1,0,.51Zm0,0"></path><path class="cls-10" d="M40.82,7.54a7.87,7.87,0,1,1,0,15.74A7.76,7.76,0,0,1,36.55,22,7.87,7.87,0,0,1,40.82,7.54Zm0,0"></path><path class="cls-11" d="M40.82,10.61a4.8,4.8,0,1,1,0,9.6,4.8,4.8,0,0,1-4.8-4.8,4.79,4.79,0,0,1,4.8-4.8Zm0,0"></path><path class="cls-4" d="M23.5,22A7.92,7.92,0,0,1,24,24.7a7.7,7.7,0,0,1-.83,3.52A7.87,7.87,0,1,1,23.5,22Zm0,0"></path><path class="cls-12" d="M20.31,23.17a4.28,4.28,0,0,1,.27,1.53,4.33,4.33,0,0,1-.47,2,4.51,4.51,0,0,1-1.72,1.85,4.42,4.42,0,0,1-2.29.63,4.48,4.48,0,1,1,4.21-6Zm0,0"></path></svg>