<svg xmlns="http://www.w3.org/2000/svg" xmlns:xlink="http://www.w3.org/1999/xlink" id="Layer_1" x="0px" y="0px" viewBox="0 0 80 80" style="enable-background:new 0 0 80 80;" xml:space="preserve"><style type="text/css">	.st0{fill:#0098C4;}	.st1{fill:#303845;}	.st2{fill:#50BDD6;}	.st3{opacity:0.2;fill:#3D3D3D;enable-background:new    ;}</style><g>	<path class="st0" d="M12.4,67.4c0,2.5,12.1,4.6,27.1,4.6s27.1-2.1,27.1-4.6V51.2H12.4V67.4z"></path>	<path class="st1" d="M39.5,46.6c-15,0-27.1,2-27.1,4.6c0,2.5,12.1,4.6,27.1,4.6s27.1-2,27.1-4.6C66.6,48.7,54.5,46.6,39.5,46.6z"></path>	<path class="st0" d="M12.4,47.6c0,2.5,12.1,4.6,27.1,4.6s27.1-2.1,27.1-4.6V31.4H12.4V47.6z"></path>	<path class="st1" d="M39.5,26.9c-15,0-27.1,2-27.1,4.6c0,2.5,12.1,4.6,27.1,4.6s27.1-2,27.1-4.6S54.5,26.9,39.5,26.9z"></path>	<path class="st0" d="M12.4,27.8c0,2.5,12.1,4.6,27.1,4.6s27.1-2.1,27.1-4.6V11.6H12.4V27.8z"></path>	<path class="st2" d="M39.5,7.1c-15,0-27.1,2.1-27.1,4.6s12.1,4.6,27.1,4.6s27.1-2.1,27.1-4.6C66.6,9.1,54.5,7.1,39.5,7.1z"></path>	<path class="st3" d="M12.4,11.6v16.1c0,0.7,0.8,1.3,2.3,1.8c-1.5,0.6-2.3,1.2-2.3,1.8v16.1c0,0.7,0.8,1.3,2.3,1.8  c-1.5,0.6-2.3,1.2-2.3,1.8v16.1c0,2.5,12.1,4.6,27.1,4.6V7.1C24.5,7.1,12.4,9.1,12.4,11.6z"></path>	<path class="st1" d="M59.9,16.8c-1.3,0-2.4,0.8-2.4,1.8v9c0,1,1.1,1.8,2.4,1.8c1.3,0,2.4-0.8,2.4-1.8v-9  C62.3,17.5,61.2,16.8,59.9,16.8z"></path>	<path class="st1" d="M59.9,36.1c-1.3,0-2.4,0.8-2.4,1.7v9c0,1,1.1,1.8,2.4,1.8c1.3,0,2.4-0.8,2.4-1.8v-9  C62.3,36.9,61.2,36.1,59.9,36.1z"></path>	<path class="st1" d="M59.9,55.8c-1.3,0-2.4,0.8-2.4,1.8v9c0,1,1.1,1.7,2.4,1.7c1.3,0,2.4-0.8,2.4-1.7v-9  C62.3,56.6,61.2,55.8,59.9,55.8z"></path></g></svg>