<svg xmlns="http://www.w3.org/2000/svg" id="Layer_1" data-name="Layer 1" width="80" height="80" viewBox="0 0 80 80"><defs><style>.cls-1{fill:#a678b4;}.cls-2{fill:#9c6bad;}.cls-3{fill:#9764a9;}.cls-4{fill:#8a54a2;}.cls-5{fill:#683f7c;}.cls-6{fill:#7a4b92;}.cls-7{fill:#9968ac;}.cls-8{fill:#b186bc;}.cls-9{fill:#9360a6;}.cls-10{fill:#8954a2;}.cls-11{fill:#905aa5;}</style></defs><path class="cls-1" d="M29,17.36a14.71,14.71,0,0,1,1.21-2.93c2.93,0,5.82-.47,8.72-.75s5.58-.52,8.35-.87c1.49,1,3.26,1.65,4.63,2.88a27.94,27.94,0,0,1,1.29,4.93c.89,3.66,1.64,7.36,2.52,11a2.63,2.63,0,0,1,.09,1.08,9.6,9.6,0,0,1-2.27,3Q46,44.46,38.51,53.23a2,2,0,0,1-.85.67,2.57,2.57,0,0,1-1.74-.32c-1.49-.67-3.16-.9-4.51-1.91-.58-1.05-.37-2.23-.47-3.34-.26-2.83-.4-5.67-.6-8.5-.31-4.5-.55-9-.89-13.49C29.23,23.35,29,20.36,29,17.36Z"></path><path class="cls-2" d="M29,17.36a6.46,6.46,0,0,1,.46,2.45c0,4.52.6,9,.79,13.53.15,3.66.42,7.32.73,11a54.59,54.59,0,0,0,.69,7.44,12.63,12.63,0,0,1-3.2,1.86,18,18,0,0,1-4.05,2.06c-1.24.06-1.63-1-2.32-1.72,0,.29.07.59-.22.79-1.08-2.69-1.23-5.59-1.87-8.38a21.66,21.66,0,0,0-.4-2.16c-.72-2.15-.19-4.1.67-6.11,2.83-6.64,5.57-13.31,8.35-20C28.76,17.86,28.91,17.61,29,17.36Z"></path><path class="cls-3" d="M55.6,33c-.48-2.25-.94-4.49-1.45-6.73-.8-3.54-1.63-7.06-2.45-10.6-.24-1.15-.35-2.27.7-3.13a7.41,7.41,0,0,1,2.58,4c1.2,3.79,2.48,7.55,3.87,11.27a19.27,19.27,0,0,1,.84,5.5c.33,4.37.54,8.74.82,13.11a20,20,0,0,1,0,5.18.63.63,0,0,1-.25-.31C60.07,45.49,57.48,40.37,56,35A4.94,4.94,0,0,1,55.6,33Z"></path><path class="cls-4" d="M46.82,69.32c-1.73.77-3.62.82-5.43,1.18-.28,0-.62-.17-.91-.3L26.18,64c-1.33-.57-1.61-1.94-2.31-3,.13-.82.8-.48,1.26-.58a5.65,5.65,0,0,0,1.3.08,11,11,0,0,1,3.28,1.26c4.64,2,9.29,3.9,13.92,5.89A4.54,4.54,0,0,0,46.82,69.32Z"></path><path class="cls-2" d="M47.56,13a15,15,0,0,1-4.39.7c-4,.39-7.92.75-11.86,1.23-.4,0-.94.24-1.07-.45a2.63,2.63,0,0,1,2.15-2.27c2.45-.69,4.86-1.55,7.26-2.43A4.11,4.11,0,0,1,42,9.61L48.78,11c.29.16.79.26.41.73S48.43,13,47.56,13Z"></path><path class="cls-5" d="M60.44,51.33a.6.6,0,0,0,.08.21c-.2,3.6-.4,7.19-.58,10.79a1.56,1.56,0,0,1-.86,1.47c-1.34.74-2.65,1.56-4,2.34-1-.39-.7-1.3-.79-2.06A19.25,19.25,0,0,1,56.09,60c1.11-2.48,2.21-5,3.34-7.45C59.64,52.05,59.69,51.36,60.44,51.33Z"></path><path class="cls-6" d="M54.63,64a3.19,3.19,0,0,0,.48,2.19c-1.33,1.22-3.07,1.56-4.71,2.1-1.18.39-2.39.72-3.58,1.08a2.49,2.49,0,0,1-3.17-1.47c.38-.88,1.3-1.06,2-1.51C48.63,65.49,51.6,64.61,54.63,64Z"></path><path class="cls-7" d="M26.33,60.78c-.33.24-.65,0-1,0-.56-.33-1.2.06-1.77-.23a45.3,45.3,0,0,1-1.67-5.81,3.36,3.36,0,0,0-.16-1.37c1.14.43,1.25,2.07,2.63,2a17.68,17.68,0,0,0,1.68,3.71C26.34,59.61,26.79,60.14,26.33,60.78Z"></path><path class="cls-8" d="M47.56,13c.44-.4.86-.82,1.33-1.2s0-.52-.11-.74A10.17,10.17,0,0,1,52.4,12.5a12.9,12.9,0,0,0-.7,3.13c-1.17-.62-2.34-1.26-3.52-1.87C47.84,13.58,47.56,13.38,47.56,13Z"></path><path class="cls-9" d="M23.58,60.55c.59.07,1.23-.24,1.77.23-.49.08-1.06-.21-1.48.27Z"></path><path class="cls-10" d="M54.63,64c-1.54,1-3.37,1.07-5.05,1.63-1.3.43-2.65.71-4,1-.71-.26-1-.93-1.34-1.5-2.07-3.34-4.23-6.62-6.25-10-.26-.43-.89-.86-.22-1.46L55.6,33c1.32,3.13,2.15,6.42,3.17,9.65.31,1,.56,2,1,3a12.17,12.17,0,0,1,.71,5.73A38.55,38.55,0,0,0,58,56.45C56.86,58.93,55.76,61.45,54.63,64Z"></path><path class="cls-9" d="M37.79,53.69c-.21.35,0,.59.18.87,2,3.08,3.84,6.27,5.91,9.31.61.89,1.14,1.85,1.72,2.76l-2,1.22a34.74,34.74,0,0,1-5.82-2.31C34,64,30.16,62.37,26.33,60.78c-.16-1.63-1.51-2.72-1.91-4.25-.1-.39-.33-.73,0-1.12,2-.78,3.81-2.07,5.77-3a4.94,4.94,0,0,1,1.55-.66L36,53.3A3.6,3.6,0,0,0,37.79,53.69Z"></path><path class="cls-2" d="M40.48,19.29c.94-.35,1.34.33,1.34,1s-.4,1.34-1.34,1A1.51,1.51,0,0,1,40.48,19.29Z"></path><path class="cls-11" d="M40.48,19.29a6.44,6.44,0,0,0,0,2C39.47,20.39,39.47,20.16,40.48,19.29Z"></path></svg>