<svg xmlns="http://www.w3.org/2000/svg" xmlns:xlink="http://www.w3.org/1999/xlink" id="Layer_1" data-name="Layer 1" width="80" height="80" viewBox="0 0 80 80"><defs><style>.cls-1{fill:url(#linear-gradient);}.cls-2{fill:url(#linear-gradient-2);}.cls-3{fill:#fff;}</style><linearGradient id="linear-gradient" x1="-1993.22" y1="-2047.25" x2="-1991.96" y2="-2040.13" gradientTransform="matrix(-9.77, 0, 0, 9.77, -19418.86, 19997.94)" gradientUnits="userSpaceOnUse"><stop offset="0" stop-color="#fbae42"></stop><stop offset="1" stop-color="#ef4032"></stop></linearGradient><linearGradient id="linear-gradient-2" x1="-236.26" y1="-1003.24" x2="-237.18" y2="-1008.46" gradientTransform="matrix(9.77, 0, 0, -9.77, 2347.9, -9788.69)" gradientUnits="userSpaceOnUse"><stop offset="0" stop-color="#e3a03a"></stop><stop offset="1" stop-color="#d43c29"></stop></linearGradient></defs><path class="cls-1" d="M22,7.54h36A15.16,15.16,0,0,1,63,8.4,14.39,14.39,0,0,1,72.3,19.71a17.8,17.8,0,0,1,.17,2.82V57.6A17,17,0,0,1,72.2,61,14.44,14.44,0,0,1,62.43,71.8a15.12,15.12,0,0,1-4.54.66c-.68,0-36,0-36.57,0A14.38,14.38,0,0,1,7.63,58V22A13.4,13.4,0,0,1,9,15.76,14.37,14.37,0,0,1,21.14,7.59,4.41,4.41,0,0,1,22,7.54Z"></path><path class="cls-2" d="M62.3,60.64a9.19,9.19,0,0,0-.76-1,10.46,10.46,0,0,0-2.18-2,6.59,6.59,0,0,0-3.42-1.17,6.3,6.3,0,0,0-2.54.4A16.8,16.8,0,0,0,51,58c-.88.45-1.77.91-2.71,1.29a19.61,19.61,0,0,1-3.47,1.06,23,23,0,0,1-4.52.36,30.53,30.53,0,0,1-8-1.22,30.14,30.14,0,0,1-6.52-2.81,34.41,34.41,0,0,1-5-3.58,38,38,0,0,1-3.6-3.58c-.76-.88-1.49-1.82-2.18-2.78a12.71,12.71,0,0,1-.76-1.2L7.53,38.28V21.92A14.36,14.36,0,0,1,21.88,7.54H34.69l9.48,9.64C65.58,31.73,58.65,47.79,58.65,47.79S64.74,54.63,62.3,60.64Z"></path><path class="cls-3" d="M44.22,17.18C65.63,31.73,58.7,47.79,58.7,47.79s6.09,6.87,3.63,12.88c0,0-2.51-4.21-6.72-4.21S49.17,60.67,41,60.67c-18.18,0-26.78-15.19-26.78-15.19,16.38,10.78,27.57,3.14,27.57,3.14-7.38-4.28-23.08-24.77-23.08-24.77,13.67,11.64,19.58,14.7,19.58,14.7-3.53-2.91-13.42-17.16-13.42-17.16,7.91,8,23.64,19.19,23.64,19.19C53,28.21,44.22,17.18,44.22,17.18Z"></path></svg>