<svg xmlns="http://www.w3.org/2000/svg" xmlns:xlink="http://www.w3.org/1999/xlink" id="Layer_1" x="0px" y="0px" viewBox="0 0 327.7 280.9" style="enable-background:new 0 0 327.7 280.9;" xml:space="preserve"><style type="text/css">	.st0{fill:#FFFFFF;}	.st1{fill:#4385F4;}	.st2{fill:none;stroke:#4385F4;stroke-width:2;stroke-miterlimit:10;stroke-dasharray:3,3;}	.st3{fill:#FF7058;}	.st4{fill:#FFD15C;}	.st5{clip-path:url(#SVGID_2_);}	.st6{fill:#F1543F;}	.st7{fill:#F8B64C;}	.st8{clip-path:url(#SVGID_4_);}	.st9{fill:#FFC952;}	.st10{fill:none;}	.st11{opacity:0.5;fill:#4385F4;enable-background:new    ;}	.st12{opacity:0.5;}	.st13{fill:#2C72C6;}	.st14{fill:#3D597A;}	.st15{fill:#FFA829;}</style><ellipse class="st0" cx="164.2" cy="139.9" rx="118.8" ry="118.6"></ellipse><path class="st1" d="M164.2,23.9c64.1,0,116.1,52.1,116,116.2c0,64.1-52.1,116.1-116.2,116c-64.1,0-116.1-52.1-116-116.2 c0-30.8,12.3-60.3,34-82.1C103.8,36,133.4,23.8,164.2,23.9 M164.2,18.6c-67.1,0-121.5,54.3-121.5,121.2s54.3,121.4,121.4,121.4 S285.6,206.9,285.6,140S231.2,18.6,164.2,18.6L164.2,18.6z"></path><path class="st2" d="M164,252.4c62.1,0,112.5-50.3,112.5-112.3S226.2,27.7,164,27.7S51.5,78,51.5,140S101.9,252.4,164,252.4"></path><polygon class="st3" points="173,141.1 159.2,141.1 161.6,136 163.6,131.4 168.6,131.4 170.7,136 "></polygon><path class="st4" d="M181.8,141.1h-31.3c-1.7,0-3.1,1.4-3.1,3.1v10.2h37.4v-10.2c0.1-1.6-1.1-3-2.7-3.1 C182,141.1,181.9,141.1,181.8,141.1"></path><g>	<defs>		<path id="SVGID_1_" d="M170.7,136c-1.2,0.6-2.5,1.2-3.8,1.7l-0.8,0.2l-0.8-0.3c-1.3-0.5-2.5-1.1-3.8-1.7l2-4.7h4.8L170.7,136z"></path>	</defs>	<clipPath id="SVGID_2_">		<use xlink:href="#SVGID_1_" style="overflow:visible;"></use>	</clipPath>	<g class="st5">		<rect x="157.2" y="126.8" class="st6" width="17.8" height="15.4"></rect>	</g></g><path class="st7" d="M190.6,79.3h-48.8c-1,0-1.9,0.8-1.9,1.9c0,1.1,0.8,2,1.9,2c0,0,0,0,0,0h48.8c1,0,1.9-0.9,1.9-1.9 C192.5,80.3,191.7,79.4,190.6,79.3C190.6,79.3,190.6,79.3,190.6,79.3z M128.6,87.9v6.4c0.1,15.2,9.3,28.9,23.3,34.7 c9.1,3.8,19.4,3.8,28.5,0c14.1-5.8,23.3-19.5,23.3-34.7v-6.4L128.6,87.9z M197.5,94.3c0,7.3-2.5,14.3-7.2,19.9 c-6,7.2-14.8,11.4-24.1,11.4c-9.3,0-18.2-4.2-24.1-11.4c-4.6-5.6-7.2-12.6-7.2-19.9v-0.2h62.5v0.2L197.5,94.3z"></path><path class="st4" d="M190.6,83.2v16.9c0,15.7-9.7,29.8-24.4,35.5c-14.7-5.7-24.4-19.9-24.4-35.6V83.2H190.6z"></path><g>	<defs>		<rect id="SVGID_3_" x="141.7" y="83.2" width="48.7" height="2.3"></rect>	</defs>	<clipPath id="SVGID_4_">		<use xlink:href="#SVGID_3_" style="overflow:visible;"></use>	</clipPath>	<g class="st8">		<rect x="137.4" y="78.9" class="st9" width="57.4" height="11.1"></rect>	</g></g><path class="st0" d="M164,101c0,0-1.4-0.1-1.4,1.1v5.5h9.3v1.6c0,0.4-0.3,0.8-0.8,0.8c0,0-0.1,0-0.1,0h-8.4v7.2h10.1 c0,0,6.1-0.9,6.2-7.2V101H164z M178.3,92.1h-18c-6.5,1.5-6.7,7-6.7,7v18.2h7v-16.6c0-0.8,0.5-1.5,1.3-1.7h16.4L178.3,92.1z"></path><path class="st10" d="M223,227L223,227C223.1,227,223,227,223,227z M235.5,215.6L235.5,215.6L235.5,215.6z M247,201.9L247,201.9 C247,201.8,247,201.9,247,201.9z M260.7,173.3L260.7,173.3z M264.1,158.5L264.1,158.5C264.1,158.5,264.2,158.5,264.1,158.5 L264.1,158.5z M264.1,142.5C264.1,142.5,264.1,142.4,264.1,142.5C264.1,142.5,264.2,142.5,264.1,142.5L264.1,142.5z M263,127.7 L263,127.7C263,127.6,263,127.6,263,127.7L263,127.7z M259.6,113.9L259.6,113.9C259.6,113.9,259.6,113.9,259.6,113.9L259.6,113.9z  M255,99.1L255,99.1L255,99.1z M162.3,231.2c-8.6,0.4-17.3-0.6-25.6-3c3-3.8-1.9-7.7-6.6-11.3c-4.9-3.7-9.9-7.3-9.9-7.3 s5.8,6,5.2,11.1c-0.2,1.2-0.2,2.3,0.1,3.5c-1.3-0.6-2.7-1.3-4-1.9c3.5-3.3-0.5-8-4.2-12.5c-4-4.5-8-9-8-9c0,0,4.4,6.9,2.9,11.9 c-0.4,1.1-0.6,2.3-0.5,3.5c-1.2-0.9-2.3-1.7-3.4-2.6c3.9-2.7,1-8.1-1.7-13.2c-3-5.1-6-10.1-6-10.1c0,0,3,7.5,0.6,12.3 c-0.6,1.1-1,2.2-1.2,3.4c-1-1-1.9-2.1-2.8-3.1c4.2-2.1,2.5-7.9,0.8-13.4c-2-5.5-4.1-10.8-4-10.8c-0.1,0,1.6,7.8-1.6,12.2 c-0.8,1-1.3,2-1.7,3.2c-0.7-1.2-1.5-2.3-2.2-3.5c4.4-1.5,3.9-7.5,3.1-13.1c-1-5.7-2.1-11.1-2.1-11.2c0-0.1,0.3,7.8-3.6,11.8 c-0.9,0.9-1.6,1.9-2.2,3c-0.3-0.8-0.7-1.6-1-2.4c-0.3-0.6-0.5-1.2-0.7-1.9c4.5-0.9,4.9-6.4,5-11.8c0-5.4-0.3-10.6-0.3-10.6 s-0.9,7.3-5.1,10.5c-1,0.7-1.8,1.5-2.6,2.5c-0.4-1.7-0.9-3.4-1.2-5.1c4.4-0.1,5.6-5.3,6.5-10.2c0.9-4.9,1.2-9.8,1.1-9.9 c0-0.1-1.8,6.6-6.2,9c-1,0.5-2,1.2-2.8,2c-0.2-1.9-0.4-3.8-0.5-5.7c4.2,0.5,6.1-4.1,7.5-8.6c0.9-3,1.7-6,2.2-9 c-0.1,0-2.5,5.9-6.9,7.6c-1.1,0.3-2.1,0.9-2.9,1.5c0-1.7,0.1-3.4,0.3-5.1c0-0.4,0.1-0.8,0.1-1.2c3.8,1.1,6.2-3,8-7s3.1-8.1,3.1-8.2 c0,0-3,5.2-7.3,6.2c-1,0.2-2,0.5-2.9,1c0.4-2.2,0.8-4.5,1.3-6.7c3.4,1.4,6-2.1,8.1-5.6c1.4-2.4,2.7-4.9,3.8-7.4c0,0-3.3,4.7-7.4,5 c-0.9,0-1.8,0.2-2.6,0.5c0.7-2.3,1.4-4.6,2.2-6.9c2.9,1.4,5.6-1.4,7.8-4.4c1.6-2.2,3-4.4,4.4-6.7c0,0-3.6,4.1-7.4,3.8 c-0.7-0.1-1.4,0-2.1,0.1c0.9-2.2,1.9-4.5,3-6.7l0.2-0.4c2.4,1.4,5.1-0.9,7.4-3.5c1.7-2,3.4-4.1,4.9-6.2c-0.1,0-3.9,3.8-7.3,3.2 c-0.7-0.2-1.4-0.2-2.1-0.1c2.3-5,5-9.8,7.8-14.5c-3.3,4.8-6.2,9.6-8.8,14.2c-0.3-0.8-0.7-1.6-1.3-2.4c-1.1-1.4-1.1-3.7-0.7-5.8 c0.2-1.2,0.6-2.5,1.1-3.6c-1.7,2.8-3.1,5.8-4.2,8.9c-1.3,4.4-1.3,8.6,1.7,9.1c-1.2,2.5-2.3,4.9-3.4,7.4c-0.4-0.7-0.9-1.3-1.5-1.9 c-1.4-1.3-1.7-3.7-1.7-5.7c0.1-1.3,0.3-2.5,0.6-3.8c-1.4,3-2.4,6.2-3.1,9.4c-0.7,4.5-0.2,8.7,2.9,9c-0.8,2.2-1.5,4.5-2.2,6.7 c-0.5-0.6-1.1-1.1-1.7-1.5c-3.4-2.2-2.7-8.9-2.6-9.4c-1.1,3.2-1.7,6.6-1.9,10c-0.2,4.6,0.9,8.8,4.2,8.9c0,0,0,0,0,0.1 c-0.4,2.1-0.8,4.1-1.2,6.2c-0.6-0.5-1.3-0.9-2-1.3c-3.9-1.8-4.1-8.8-4-9.3c-0.7,3.5-0.9,7-0.7,10.6c0.4,4.8,2.2,9.1,5.6,8.6 c-0.2,1.9-0.3,3.9-0.3,5.8c-0.7-0.4-1.5-0.8-2.3-1.1c-4.2-1.3-5.4-8.2-5.5-9.1c-0.3,3.7,0,7.4,0.7,11.1c1,5,3.7,9.4,7.2,8.3 c0.1,1.7,0.2,3.6,0.4,5.4c-0.9-0.4-1.8-0.7-2.7-0.9c-4.7-0.8-6.9-8.1-7-8.8c0.2,4,1,7.9,2.3,11.6c1.8,5.2,5.3,9.5,8.9,7.6 c0.3,1.6,0.7,3.3,1.2,4.9c-1-0.3-2.1-0.5-3.2-0.6c-5.1-0.1-8.5-7.8-8.7-8.3c0.8,4.2,2.3,8.2,4.2,12c2.8,5.3,7.2,9.5,10.7,6.7 c0.5,1.4,1.1,2.8,1.7,4.3c-1.2-0.2-2.4-0.3-3.6-0.2c-5.4,0.6-10.3-7.2-10.4-7.5c1.5,4.3,3.7,8.4,6.4,12c3.9,5.2,9.3,9,12.5,5.3 c0.7,1.2,1.4,2.4,2.2,3.5c-1.2-0.1-2.4,0-3.6,0.3c-5.4,1.4-11.7-6-11.6-6.1c2.2,4.1,5.1,7.9,8.4,11.2c4.8,4.7,10.9,7.6,13.4,3.5 c0.9,1.1,1.9,2.1,2.9,3.2c-1.2,0.1-2.4,0.4-3.5,0.9c-4.9,2.1-12-3.6-12.6-4.3c2.9,3.7,6.4,7,10.3,9.7c5.7,4,12.4,5.8,14.2,1.4 c1.1,0.9,2.3,1.8,3.5,2.7c-1.2,0.3-2.4,0.7-3.5,1.4c-4.6,2.7-12.7-1.7-13.6-2.3c3.7,3.2,7.8,5.9,12.2,8c6.5,3,13.7,3.6,14.8-0.9 c1.3,0.7,2.7,1.4,4,2c-1.2,0.5-2.3,1.1-3.3,1.9c-4.2,3.4-13.2,0.5-14.2,0c4.3,2.6,9,4.5,13.9,5.7c7.2,1.7,14.6,1.1,14.9-3.4 c8.4,2.5,17.2,3.5,25.9,3.1L162.3,231.2z"></path><path class="st11" d="M107.4,226.5L107.4,226.5C107.3,226.5,107.4,226.5,107.4,226.5z M94,215.6L94,215.6 C93.9,215.6,94,215.6,94,215.6z M83.1,202.8L83.1,202.8L83.1,202.8z M68.8,173.5L68.8,173.5z M66.1,158.3L66.1,158.3z M65.5,143.1 L65.5,143.1C65.5,143,65.5,143.1,65.5,143.1L65.5,143.1z M66.9,128.1C66.9,128,66.9,128,66.9,128.1C66.9,128,66.9,128,66.9,128.1 L66.9,128.1z M70,113.2L70,113.2L70,113.2z M74.9,98.8L74.9,98.8C74.9,98.8,74.9,98.7,74.9,98.8z"></path><g class="st12">	<path class="st1" d="M161.9,230.5c-8.6,0.4-17.1-0.6-25.4-3c2.9-3.8-1.9-7.6-6.6-11.3l-9.8-7.3c-0.1,0.1,5.8,5.9,5.2,11  c-0.2,1.2-0.2,2.3,0.1,3.5c-1.3-0.6-2.6-1.3-3.9-1.9c3.4-3.3-0.5-8-4.2-12.5c-3.9-4.5-7.9-8.9-7.9-8.9c0,0,4.4,6.9,2.9,11.9  c-0.4,1.1-0.6,2.3-0.5,3.5c-1.2-0.9-2.3-1.7-3.4-2.6c3.9-2.7,1-8.1-1.7-13.1c-2.9-5.1-6-10.1-6-10.1c0,0,2.9,7.5,0.6,12.3  c-0.6,1.1-1,2.2-1.1,3.4c-1-1-1.9-2.1-2.8-3.1c4.1-2.1,2.5-7.8,0.8-13.3c-1.9-5.5-4-10.7-4-10.8c0-0.1,1.6,7.8-1.5,12.2  c-0.8,1-1.3,2-1.7,3.2c-0.7-1.2-1.5-2.3-2.1-3.5c4.4-1.5,3.8-7.4,3.1-13c-1-5.7-2.1-11.1-2.1-11.1s0.3,7.8-3.5,11.7  c-0.9,0.8-1.6,1.8-2.2,2.9c-0.3-0.8-0.7-1.6-1-2.4c-0.2-0.6-0.5-1.2-0.7-1.9c4.4-0.8,4.8-6.4,4.9-11.7c0-5.4-0.3-10.5-0.3-10.6  s-0.9,7.3-5,10.5c-1,0.7-1.8,1.5-2.5,2.5c-0.4-1.7-0.9-3.3-1.2-5c4.4-0.1,5.6-5.2,6.4-10.2c0.9-5,1.2-9.8,1.1-9.8  c0,0-1.7,6.6-6.1,9c-1,0.5-2,1.2-2.8,2c-0.2-1.9-0.4-3.8-0.5-5.7c4.2,0.5,6-4.1,7.4-8.6c0.9-3,1.6-6,2.2-9c-0.1,0-2.5,5.9-6.8,7.5  c-1.1,0.3-2,0.9-2.9,1.5c0.1-1.7,0.1-3.4,0.3-5.1c0-0.4,0.1-0.8,0.1-1.2c3.8,1.1,6.2-3,8-7c1.8-3.9,3.1-8.1,3.1-8.1  c0,0-2.9,5.2-7.2,6.2c-1,0.2-2,0.5-2.9,1c0.3-2.2,0.8-4.4,1.3-6.6c3.3,1.4,6-2.1,8-5.5c1.4-2.4,2.6-4.8,3.8-7.4c0,0-3.3,4.7-7.4,5  c-0.9,0-1.7,0.2-2.6,0.5c0.7-2.3,1.4-4.6,2.2-6.9c2.8,1.4,5.5-1.4,7.8-4.4c1.6-2.2,3-4.4,4.3-6.7c0,0-3.6,4.2-7.3,3.9  c-0.7-0.1-1.4,0-2.1,0.1c0.9-2.2,1.9-4.4,3-6.7l0.2-0.4c2.3,1.4,5.1-0.9,7.4-3.5c1.7-2,3.3-4.1,4.8-6.2c0,0-3.8,3.8-7.2,3.1  c-0.7-0.2-1.4-0.2-2.1-0.2c2.3-5,5-9.8,7.8-14.4c-3.3,4.8-6.2,9.5-8.7,14.2c-0.3-0.8-0.7-1.6-1.3-2.4c-1.1-1.4-1.1-3.8-0.7-5.8  c0.2-1.2,0.6-2.5,1.1-3.6c-1.7,2.8-3.1,5.8-4.1,8.9c-1.3,4.4-1.3,8.6,1.7,9.1c-1.2,2.4-2.3,4.9-3.3,7.3c-0.4-0.7-0.9-1.3-1.5-1.9  c-1.4-1.3-1.7-3.7-1.7-5.7c0.1-1.3,0.2-2.5,0.6-3.7c-1.4,3-2.4,6.2-3,9.4c-0.7,4.5-0.2,8.6,2.9,9c-0.8,2.2-1.5,4.5-2.2,6.7  c-0.5-0.6-1.1-1.1-1.7-1.5c-3.4-2.2-2.7-8.9-2.6-9.4c-1.1,3.2-1.7,6.6-1.9,9.9c-0.2,4.6,0.9,8.8,4.2,8.8c0,0,0,0,0,0.1  c-0.4,2.1-0.8,4.1-1.2,6.2c-0.6-0.5-1.3-0.9-2-1.2c-3.8-1.7-4-8.7-4-9.3c-0.7,3.5-0.9,7-0.7,10.5c0.4,4.8,2.2,9.1,5.6,8.6  c-0.2,1.9-0.3,3.9-0.3,5.8c-0.7-0.4-1.5-0.8-2.3-1.1c-4.2-1.3-5.4-8.2-5.4-9c-0.3,3.7,0,7.4,0.7,11c1,5,3.6,9.3,7.1,8.2  c0.1,1.8,0.2,3.6,0.4,5.3c-0.9-0.4-1.8-0.7-2.7-0.9c-4.6-0.8-6.8-8-7-8.7c0.2,3.9,1,7.8,2.3,11.6c1.8,5.2,5.3,9.5,8.9,7.6  c0.3,1.6,0.7,3.2,1.1,4.9c-1-0.3-2.1-0.5-3.2-0.6c-5-0.1-8.5-7.8-8.6-8.3c0.8,4.2,2.2,8.2,4.2,11.9c2.8,5.3,7.2,9.4,10.7,6.6  c0.5,1.4,1.1,2.8,1.7,4.2c-1.2-0.2-2.4-0.3-3.5-0.2c-5.4,0.6-10.2-7.2-10.3-7.5c1.5,4.3,3.7,8.3,6.3,12c3.8,5.2,9.3,9,12.4,5.3  c0.7,1.2,1.4,2.3,2.2,3.5c-1.2-0.1-2.4,0-3.5,0.3c-5.3,1.4-11.6-6-11.5-6.1c2.2,4.1,5,7.8,8.3,11.1c4.7,4.7,10.8,7.6,13.3,3.5  c0.9,1.1,1.9,2.1,2.8,3.1c-1.2,0.1-2.4,0.4-3.5,0.8c-4.9,2.1-11.9-3.5-12.6-4.2c2.9,3.7,6.4,7,10.3,9.7c5.7,3.9,12.3,5.8,14.1,1.4  c1.1,0.9,2.3,1.8,3.5,2.6c-1.2,0.3-2.4,0.7-3.5,1.4c-4.6,2.7-12.6-1.7-13.5-2.3c3.6,3.2,7.7,5.9,12.1,7.9c6.5,3,13.6,3.6,14.6-0.9  c1.3,0.7,2.6,1.4,4,2c-1.2,0.5-2.3,1.1-3.2,1.9c-4.1,3.4-13.1,0.5-14.1,0c4.3,2.6,9,4.5,13.8,5.7c7.1,1.7,14.5,1.1,14.8-3.4  c8.3,2.4,17,3.5,25.7,3.1L161.9,230.5z"></path></g><path class="st10" d="M168.1,230.5c8.6,0.4,17.1-0.6,25.4-3c-2.9-3.8,1.9-7.6,6.6-11.3l9.8-7.3c0.1,0.1-5.8,5.9-5.2,11 c0.2,1.2,0.2,2.3-0.1,3.5c1.3-0.6,2.6-1.3,3.9-1.9c-3.4-3.3,0.5-8,4.2-12.5c3.9-4.5,7.9-8.9,7.9-8.9c0,0-4.4,6.9-2.9,11.9 c0.4,1.1,0.6,2.3,0.5,3.5c1.2-0.9,2.3-1.7,3.4-2.6c-3.9-2.7-1-8.1,1.7-13.1c2.9-5.1,6-10.1,6-10.1c0,0-3,7.5-0.6,12.3 c0.6,1.1,1,2.2,1.1,3.4c1-1,1.9-2.1,2.8-3.1c-4.1-2.1-2.5-7.8-0.8-13.3c1.9-5.5,4-10.7,4-10.8c0-0.1-1.6,7.8,1.5,12.2 c0.7,1,1.3,2,1.7,3.2c0.7-1.2,1.5-2.3,2.2-3.5c-4.4-1.5-3.8-7.4-3.1-13c1-5.7,2.1-11.1,2.1-11.1s-0.3,7.8,3.5,11.7 c0.9,0.8,1.6,1.8,2.2,2.9c0.3-0.8,0.7-1.6,1-2.4c0.2-0.6,0.5-1.2,0.7-1.9c-4.4-0.8-4.8-6.4-4.9-11.7c0-5.4,0.3-10.5,0.3-10.6 c0-0.1,0.9,7.3,5,10.5c1,0.7,1.8,1.5,2.5,2.5c0.4-1.7,0.8-3.3,1.2-5c-4.4-0.1-5.6-5.2-6.4-10.2c-0.7-5-1.1-9.8-1.1-9.8 c0-0.1,1.8,6.6,6.1,9c1,0.5,2,1.2,2.8,2c0.2-1.9,0.4-3.8,0.5-5.7c-4.2,0.5-6-4.1-7.4-8.6c-0.9-3-1.6-6-2.2-9c0.1,0,2.5,5.9,6.8,7.5 c1.1,0.3,2,0.9,2.9,1.5c-0.1-1.7-0.1-3.4-0.3-5.1c0-0.4-0.1-0.8-0.1-1.2c-3.8,1.1-6.2-3-8-7s-3.1-8.1-3.1-8.1c0,0,2.9,5.2,7.2,6.2 c1,0.2,2,0.5,2.9,1c-0.3-2.2-0.8-4.4-1.3-6.6c-3.3,1.4-6-2.1-8-5.5c-1.4-2.4-2.6-4.8-3.8-7.4c0,0,3.3,4.7,7.3,5 c0.9,0,1.7,0.2,2.6,0.5c-0.7-2.3-1.4-4.6-2.2-6.9c-2.8,1.4-5.5-1.4-7.8-4.4c-1.6-2.2-3-4.4-4.3-6.7c0,0,3.6,4.2,7.3,3.9 c0.7-0.1,1.4,0,2.1,0.1c-0.9-2.2-1.9-4.4-3-6.7l-0.2-0.4c-2.3,1.4-5.1-0.9-7.4-3.5c-1.7-2-3.3-4.1-4.8-6.2c0,0,3.8,3.8,7.2,3.1 c0.7-0.2,1.4-0.2,2.1-0.1c-2.3-5-5-9.8-7.8-14.4c3.3,4.8,6.2,9.5,8.7,14.2c0.3-0.8,0.7-1.6,1.3-2.4c1.1-1.4,1.1-3.8,0.7-5.8 c-0.2-1.2-0.6-2.5-1.1-3.6c1.7,2.8,3.1,5.8,4.1,8.9c1.3,4.4,1.3,8.6-1.7,9.1c1.2,2.4,2.3,4.9,3.3,7.3c0.4-0.7,0.9-1.3,1.5-1.9 c1.4-1.3,1.7-3.7,1.7-5.7c-0.1-1.3-0.2-2.5-0.6-3.7c1.4,3,2.4,6.2,3,9.4c0.7,4.5,0.2,8.6-2.9,9c0.8,2.2,1.5,4.5,2.2,6.7 c0.5-0.6,1.1-1.1,1.7-1.5c3.3-2.2,2.7-8.9,2.5-9.4c1.1,3.2,1.7,6.6,1.9,9.9c0.2,4.6-0.9,8.8-4.2,8.8c0,0,0,0,0,0.1 c0.4,2.1,0.8,4.1,1.2,6.2c0.6-0.5,1.3-0.9,2-1.3c3.8-1.7,4-8.7,4-9.3c0.7,3.5,0.9,7,0.7,10.5c-0.4,4.8-2.2,9.1-5.6,8.6 c0.2,1.9,0.3,3.9,0.3,5.8c0.7-0.4,1.5-0.8,2.3-1.1c4.2-1.3,5.4-8.2,5.4-9c0.3,3.7,0,7.4-0.7,11c-1,5-3.6,9.3-7.1,8.2 c-0.1,1.8-0.2,3.6-0.4,5.3c0.9-0.4,1.8-0.7,2.7-0.9c4.6-0.8,6.8-8,7-8.7c-0.2,3.9-1,7.8-2.3,11.6c-1.8,5.2-5.3,9.5-8.9,7.6 c-0.3,1.6-0.7,3.2-1.1,4.9c1-0.3,2.1-0.5,3.2-0.6c5-0.1,8.5-7.8,8.6-8.3c-0.8,4.2-2.2,8.2-4.2,11.9c-2.8,5.3-7.2,9.4-10.7,6.6 c-0.5,1.4-1.1,2.8-1.7,4.2c1.2-0.2,2.4-0.3,3.5-0.2c5.4,0.6,10.2-7.2,10.3-7.5c-1.5,4.3-3.7,8.3-6.3,12c-3.8,5.2-9.3,9-12.4,5.3 c-0.7,1.2-1.4,2.3-2.2,3.5c1.2-0.1,2.4,0,3.5,0.3c5.3,1.4,11.6-6,11.5-6.1c-2.2,4.1-5,7.8-8.3,11.1c-4.7,4.7-10.8,7.6-13.3,3.5 c-0.9,1.1-1.9,2.1-2.8,3.1c1.2,0.1,2.4,0.4,3.5,0.8c4.9,2,11.9-3.6,12.5-4.3c-2.9,3.7-6.4,7-10.2,9.7c-5.7,3.9-12.3,5.8-14.1,1.4 c-1.1,0.9-2.3,1.8-3.5,2.6c1.2,0.3,2.4,0.7,3.4,1.4c4.6,2.7,12.6-1.7,13.5-2.3c-3.6,3.2-7.7,5.9-12.1,7.9c-6.5,3-13.6,3.6-14.6-0.9 c-1.3,0.7-2.6,1.4-4,2c1.2,0.5,2.3,1.1,3.2,1.9c4.1,3.4,13.1,0.5,14.1,0c-4.3,2.6-8.9,4.5-13.8,5.7c-7.1,1.7-14.5,1.1-14.8-3.4 c-8.3,2.4-17,3.5-25.7,3.1l-0.2-1.4L168.1,230.5z"></path><path d="M198,209.8c0.2-0.3,0.3-0.7,0.3-1c0-0.1,0-0.2,0-0.4s0-0.3,0-0.4c0-0.4-0.1-0.7-0.3-1c-0.2-0.2-0.5-0.4-0.9-0.3 c-0.3,0-0.7,0.1-0.9,0.3c-0.2,0.3-0.3,0.7-0.3,1v0.4v0.4c0,0.4,0.1,0.7,0.3,1c0.2,0.2,0.5,0.4,0.9,0.3 C197.5,210.1,197.8,210,198,209.8z M195.2,210.5c-0.5-0.5-0.7-1.1-0.7-1.7v-0.9c0-0.7,0.3-1.3,0.7-1.7c1.1-0.8,2.7-0.8,3.8,0 c0.5,0.5,0.7,1.1,0.7,1.7c0,0.1,0,0.2,0,0.5s0,0.4,0,0.5c0,0.7-0.3,1.3-0.7,1.7C197.9,211.4,196.4,211.4,195.2,210.5L195.2,210.5z  M189.3,210.5c-0.5-0.5-0.7-1.1-0.7-1.7v-0.4V208c0-0.7,0.3-1.3,0.7-1.7c0.5-0.4,1.2-0.7,1.8-0.6c0.5,0,1,0.1,1.4,0.3 c0.3,0.2,0.6,0.4,0.9,0.7c0.2,0.2,0.3,0.5,0.3,0.8c0,0.1,0,0.1-0.1,0.2c-0.1,0-0.1,0.1-0.2,0.1h-0.9c-0.1,0-0.1,0-0.2,0 c0-0.1-0.1-0.1-0.1-0.2c-0.1-0.2-0.2-0.4-0.4-0.6c-0.2-0.1-0.4-0.2-0.7-0.2c-0.3,0-0.7,0.1-0.9,0.3c-0.2,0.3-0.3,0.7-0.3,1v0.7 c0,0.9,0.4,1.4,1.2,1.4c0.2,0,0.5-0.1,0.7-0.2c0.2-0.2,0.3-0.4,0.4-0.6c0-0.1,0.1-0.1,0.1-0.2c0,0,0.1-0.1,0.2-0.1h0.9 c0.1,0,0.1,0,0.2,0.1c0.1,0,0.1,0.1,0.1,0.2c0,0.3-0.1,0.6-0.3,0.8c-0.2,0.3-0.5,0.6-0.9,0.7c-0.4,0.2-0.9,0.3-1.4,0.3 C190.4,211.3,189.8,211,189.3,210.5L189.3,210.5z M186.1,211c0,0-0.1-0.1-0.1-0.2v-1.1c0-0.1,0.1-0.2,0.2-0.3c0,0,0,0,0,0h1.1 c0.1,0,0.1,0,0.2,0.1c0.1,0,0.1,0.1,0.1,0.2v1.1c0,0.1,0,0.1-0.1,0.2c0,0.1-0.1,0.1-0.2,0.1h-1.1C186.2,211.1,186.1,211.1,186.1,211 L186.1,211z M181.2,210.9c-0.3-0.1-0.6-0.3-0.8-0.6c-0.1-0.2-0.2-0.3-0.3-0.5c0-0.1,0-0.1,0.1-0.2c0,0,0.1-0.1,0.2-0.1h0.9 c0.1,0,0.1,0,0.1,0.1l0.2,0.2c0.3,0.2,0.6,0.3,0.9,0.3c0.2,0,0.5,0,0.7-0.2c0.2-0.1,0.3-0.3,0.3-0.5c0-0.1,0-0.2-0.1-0.3 c-0.1-0.1-0.3-0.2-0.4-0.2c-0.3-0.1-0.6-0.2-0.9-0.3c-0.5-0.1-0.9-0.3-1.3-0.6c-0.3-0.3-0.4-0.6-0.4-1c0-0.3,0.1-0.6,0.3-0.8 c0.2-0.3,0.5-0.5,0.7-0.6c0.4-0.2,0.8-0.2,1.2-0.2c0.4,0,0.8,0.1,1.2,0.2c0.3,0.1,0.6,0.3,0.8,0.5c0.1,0.2,0.2,0.3,0.3,0.6 c0,0.1,0,0.1-0.1,0.2c0,0-0.1,0.1-0.2,0.1h-0.8c-0.1,0-0.1,0-0.2-0.1c-0.1-0.1-0.2-0.1-0.2-0.2c-0.1-0.1-0.2-0.2-0.4-0.2 c-0.2-0.1-0.3-0.1-0.5-0.1c-0.2,0-0.4,0-0.6,0.2c-0.1,0.1-0.2,0.3-0.2,0.4c0,0.1,0,0.2,0.1,0.3c0.1,0.1,0.3,0.2,0.4,0.2 c0.3,0.1,0.6,0.2,0.9,0.2c1.3,0.2,1.9,0.8,1.9,1.6c0,0.5-0.2,0.9-0.6,1.2c-0.5,0.3-1.2,0.5-1.8,0.5 C182.1,211.2,181.6,211.1,181.2,210.9L181.2,210.9z M171.1,211c0,0-0.1-0.1-0.1-0.2v-4.9c0-0.1,0-0.1,0.1-0.2c0.1,0,0.1-0.1,0.2-0.1 h0.8c0.1,0,0.1,0,0.2,0.1c0,0,0.1,0.1,0.1,0.2v0.4c0.4-0.5,0.9-0.7,1.5-0.7c0.7-0.1,1.3,0.3,1.6,0.9c0.2-0.3,0.4-0.5,0.7-0.7 c0.3-0.2,0.6-0.3,1-0.3c0.5,0,1,0.2,1.4,0.6c0.4,0.5,0.6,1.1,0.5,1.7v3c0,0.1,0,0.1-0.1,0.2c0,0.1-0.1,0.1-0.2,0.1H178 c-0.1,0-0.1,0-0.2-0.1c0,0-0.1-0.1-0.1-0.2v-2.9c0-0.3-0.1-0.7-0.3-1c-0.2-0.2-0.5-0.3-0.7-0.3c-0.3,0-0.5,0.1-0.7,0.3 c-0.2,0.3-0.3,0.6-0.3,1v2.9c0,0.1,0,0.1-0.1,0.2c0,0.1-0.1,0.1-0.2,0.1h-0.9c-0.1,0-0.2-0.1-0.3-0.3v-2.9c0-0.3-0.1-0.7-0.3-1 c-0.2-0.2-0.5-0.3-0.7-0.3c-0.3,0-0.5,0.1-0.7,0.3c-0.2,0.3-0.3,0.6-0.3,1v2.9c0,0.1,0,0.1-0.1,0.2c0,0.1-0.1,0.1-0.2,0.1h-0.9 C171.2,211.1,171.1,211.1,171.1,211L171.1,211z M166.7,211c0,0-0.1-0.1-0.1-0.2v-4.9c0-0.1,0-0.1,0.1-0.2c0,0,0.1-0.1,0.2-0.1h0.9 c0.1,0,0.1,0,0.2,0.1c0,0.1,0.1,0.1,0.1,0.2v0.4c0.4-0.5,0.9-0.7,1.5-0.7h0.4c0.1,0,0.1,0,0.2,0.1c0,0,0.1,0.1,0.1,0.2v0.8 c0,0.1,0,0.1-0.1,0.2c0,0.1-0.1,0.1-0.2,0.1h-0.8c-0.3,0-0.6,0.1-0.8,0.3c-0.2,0.2-0.3,0.5-0.3,0.8v2.9c0,0.1,0,0.1-0.1,0.2 c0,0-0.1,0.1-0.2,0.1h-1C166.8,211.1,166.7,211.1,166.7,211L166.7,211z M160.9,211c0,0-0.1-0.1-0.1-0.2v-4.1h-0.9 c-0.1,0-0.2-0.1-0.3-0.2c0,0,0,0,0,0v-0.6c0-0.1,0-0.1,0.1-0.2c0,0,0.1-0.1,0.2-0.1h0.9v-0.4c0-0.5,0.1-1,0.5-1.4 c0.4-0.3,1-0.5,1.5-0.5h2.2c0.1,0,0.1,0,0.2,0.1c0,0.1,0.1,0.1,0.1,0.2v0.6c0,0.1,0,0.1-0.1,0.2c0,0-0.1,0.1-0.2,0.1h-2.1 c-0.2,0-0.4,0.1-0.6,0.2c-0.1,0.2-0.2,0.4-0.2,0.6v0.4h2.9c0.1,0,0.1,0,0.2,0.1c0,0.1,0.1,0.1,0.1,0.2v4.9c0,0.1,0,0.1-0.1,0.2 c0,0.1-0.1,0.1-0.2,0.1h-0.9c-0.1,0-0.2-0.1-0.3-0.3v-4.1h-1.7v4.1c0,0.1,0,0.1-0.1,0.2c0,0.1-0.1,0.1-0.2,0.1H161 C161,211.1,160.9,211.1,160.9,211L160.9,211z M157,209.7c0.2-0.3,0.3-0.6,0.3-0.9c0-0.1,0-0.2,0-0.4s0-0.3,0-0.4 c0-0.3-0.1-0.6-0.3-0.9c-0.2-0.2-0.5-0.4-0.9-0.4c-0.7,0-1.1,0.5-1.2,1.4v0.6c0.1,0.9,0.5,1.4,1.2,1.4 C156.5,210.1,156.8,209.9,157,209.7z M154.1,210.5c-0.4-0.5-0.6-1.2-0.6-1.8V208c0-0.7,0.2-1.3,0.6-1.8c0.4-0.5,1-0.7,1.6-0.7 c0.6,0,1.2,0.2,1.6,0.7v-2.3c0-0.1,0-0.1,0.1-0.2c0,0,0.1-0.1,0.2-0.1h0.9c0.1,0,0.1,0,0.2,0.1c0,0,0.1,0.1,0.1,0.2v7 c0,0.1,0,0.1-0.1,0.2c0,0.1-0.1,0.1-0.2,0.1h-0.9c-0.1,0-0.2-0.1-0.3-0.3v-0.4c-0.8,0.9-2.2,1-3.2,0.2 C154.1,210.6,154.1,210.6,154.1,210.5L154.1,210.5z M150.8,209.8c0.2-0.3,0.3-0.7,0.3-1c0-0.1,0-0.2,0-0.4c0-0.2,0-0.3,0-0.4 c0-0.4-0.1-0.7-0.3-1c-0.2-0.2-0.5-0.4-0.9-0.3c-0.3,0-0.7,0.1-0.9,0.3c-0.2,0.3-0.3,0.7-0.3,1v0.8c0,0.4,0.1,0.7,0.3,1 c0.2,0.2,0.5,0.4,0.9,0.3C150.2,210.2,150.6,210,150.8,209.8L150.8,209.8z M148,210.6c-0.5-0.5-0.7-1.1-0.7-1.7v-0.9 c0-0.7,0.3-1.3,0.7-1.7c0.5-0.4,1.2-0.7,1.9-0.6c0.7,0,1.4,0.2,1.9,0.6c0.5,0.5,0.7,1.1,0.7,1.7c0,0.1,0,0.2,0,0.5 c0,0.2,0,0.4,0,0.5c0,0.7-0.3,1.3-0.7,1.7C150.7,211.4,149.1,211.4,148,210.6L148,210.6z M144.6,209.8c0.2-0.3,0.3-0.7,0.3-1 c0-0.1,0-0.3,0-0.4c0-0.1,0-0.3,0-0.4c0-0.4-0.1-0.7-0.3-1c-0.2-0.2-0.5-0.4-0.9-0.3c-0.3,0-0.7,0.1-0.9,0.3c-0.2,0.3-0.3,0.7-0.3,1 v0.8c0,0.4,0.1,0.7,0.3,1C143.3,210.3,144.1,210.3,144.6,209.8L144.6,209.8z M141.8,210.6c-0.5-0.5-0.7-1.1-0.7-1.7v-0.9 c0-0.7,0.3-1.3,0.7-1.7c1.1-0.8,2.7-0.8,3.8,0c0.5,0.5,0.7,1.1,0.7,1.7c0,0.1,0,0.2,0,0.5c0,0.2,0,0.4,0,0.5c0,0.7-0.3,1.3-0.7,1.7 C144.5,211.4,142.9,211.4,141.8,210.6L141.8,210.6z M138.1,209.6c0.2-0.3,0.3-0.6,0.3-0.9c0-0.1,0-0.2,0-0.3c0-0.1,0-0.2,0-0.3 c0-0.3-0.1-0.7-0.3-0.9c-0.2-0.3-0.5-0.4-0.9-0.4c-0.8,0-1.2,0.5-1.2,1.4v0.2c0,1.1,0.4,1.6,1.2,1.6 C137.6,210,138,209.8,138.1,209.6L138.1,209.6z M135.8,213.1c-0.3-0.2-0.6-0.4-0.8-0.7c-0.1-0.2-0.2-0.4-0.2-0.7 c0-0.1,0-0.1,0.1-0.2c0,0,0.1-0.1,0.2-0.1h0.9c0.1,0,0.1,0,0.2,0c0.1,0,0.1,0.1,0.1,0.2c0.1,0.2,0.2,0.3,0.3,0.5 c0.2,0.1,0.5,0.2,0.7,0.2c0.6,0.1,1.1-0.3,1.2-0.8c0-0.1,0-0.3,0-0.4v-0.7c-0.9,0.9-2.3,0.9-3.2,0c-0.4-0.5-0.6-1.1-0.6-1.8v-0.3 V208c0-0.6,0.2-1.3,0.6-1.8c0.4-0.5,1-0.7,1.6-0.7c0.3,0,0.7,0.1,1,0.2c0.3,0.1,0.5,0.3,0.7,0.6v-0.4c0-0.1,0-0.1,0.1-0.2 c0,0,0.1-0.1,0.2-0.1h0.9c0.1,0,0.1,0,0.2,0.1c0,0.1,0.1,0.1,0.1,0.2v5c0,0.7-0.2,1.3-0.6,1.8c-0.5,0.5-1.2,0.7-2,0.6 C136.8,213.4,136.3,213.3,135.8,213.1L135.8,213.1z"></path><path class="st13" d="M305,162.8h-31.8v48.5H305l-10.2-22.8L305,162.8z M22.8,162.8h31.8v48.5H22.8L33,188.6L22.8,162.8z"></path><path class="st14" d="M289.3,146.2l-16.1,16.6v48.5l16.1-16V146.2z M38.8,146.2l16.1,17.3v47.9l-16.1-16V146.2z"></path><polygon class="st1" points="38.4,195 289.3,195 289.3,145.9 38.4,145.9 "></polygon><path class="st11" d="M166.9,231.2c8.6,0.4,17.3-0.6,25.6-3c-3-3.8,1.9-7.7,6.6-11.3c4.9-3.7,9.9-7.3,9.9-7.3s-5.8,6-5.2,11.1 c0.2,1.2,0.2,2.3-0.1,3.5c1.3-0.6,2.7-1.3,4-1.9c-3.5-3.3,0.5-8,4.2-12.5c4-4.5,8-9,8-9c0,0-4.4,6.9-2.9,11.9 c0.4,1.1,0.6,2.3,0.5,3.5c1.2-0.9,2.3-1.7,3.4-2.6c-3.9-2.7-1-8.1,1.7-13.2c3-5.1,6-10.1,6-10.1c0,0-3,7.5-0.6,12.3 c0.6,1.1,1,2.2,1.2,3.4c1-1,1.9-2.1,2.8-3.1c-4.2-2.1-2.5-7.9-0.8-13.4c2-5.5,4.1-10.8,4-10.8c0.1,0-1.6,7.8,1.6,12.2 c0.8,1,1.3,2,1.7,3.2c0.7-1.2,1.5-2.3,2.2-3.5c-4.4-1.5-3.9-7.5-3.1-13.1c1-5.7,2.1-11.1,2.1-11.2c0-0.1-0.2,7.8,3.6,11.8 c0.9,0.8,1.6,1.8,2.2,2.9c0.3-0.8,0.7-1.6,1-2.4c0.3-0.6,0.5-1.2,0.7-1.9c-4.5-0.9-4.9-6.4-5-11.8c0-5.4,0.3-10.6,0.3-10.6 c0-0.1,0.9,7.3,5.1,10.5c1,0.7,1.8,1.5,2.6,2.5c0.4-1.7,0.8-3.4,1.2-5.1c-4.4-0.1-5.6-5.3-6.5-10.2c-0.9-4.9-1.2-9.8-1.1-9.9 s1.8,6.6,6.2,9c1,0.5,2,1.2,2.8,2c0.2-1.9,0.4-3.8,0.5-5.7c-4.2,0.5-6.1-4.1-7.5-8.6c-0.9-3-1.7-6-2.2-9c0.1,0,2.5,5.9,6.9,7.6 c1.1,0.3,2.1,0.9,2.9,1.5c-0.1-1.7-0.1-3.4-0.3-5.1c0-0.4-0.1-0.8-0.1-1.2c-3.8,1.1-6.2-3-8-7c-1.8-3.9-3.1-8.1-3.1-8.2 c0,0,3,5.2,7.3,6.2c1,0.2,2,0.5,2.9,1c-0.4-2.2-0.8-4.5-1.3-6.7c-3.4,1.4-6-2.1-8.1-5.6c-1.4-2.4-2.7-4.9-3.8-7.4c0,0,3.3,4.7,7.4,5 c0.9,0,1.8,0.2,2.6,0.5c-0.7-2.3-1.4-4.6-2.2-6.9c-2.9,1.4-5.6-1.4-7.8-4.4c-1.6-2.2-3-4.4-4.4-6.7c0,0,3.6,4.2,7.4,4 c0.7-0.1,1.4,0,2.1,0.1c-0.9-2.2-1.9-4.5-3-6.7l-0.2-0.4c-2.4,1.4-5.1-0.9-7.4-3.5c-1.7-2-3.4-4.1-4.9-6.2c0.1,0,3.9,3.8,7.3,3.2 c0.7-0.2,1.4-0.2,2.1-0.1c-2.4-5-5-9.8-7.9-14.5c3.3,4.8,6.2,9.6,8.8,14.2c0.3-0.8,0.7-1.6,1.3-2.4c1.1-1.4,1.1-3.8,0.7-5.8 c-0.3-1.2-0.6-2.5-1.1-3.6c1.7,2.8,3.1,5.8,4.2,8.9c1.3,4.4,1.3,8.6-1.7,9.1c1.2,2.5,2.3,4.9,3.4,7.4c0.4-0.7,0.9-1.3,1.5-1.9 c1.4-1.3,1.7-3.7,1.7-5.7c-0.1-1.3-0.3-2.5-0.6-3.8c1.4,3,2.4,6.2,3.1,9.4c0.7,4.5,0.2,8.7-2.9,9c0.8,2.2,1.5,4.5,2.2,6.7 c0.5-0.6,1.1-1.1,1.7-1.5c3.4-2.2,2.7-8.9,2.6-9.4c1.1,3.2,1.7,6.6,1.9,10c0.2,4.6-0.9,8.8-4.2,8.9c0,0,0,0,0,0.1 c0.4,2.1,0.8,4.1,1.2,6.2c0.6-0.5,1.3-0.9,2-1.3c3.9-1.8,4.1-8.8,4-9.3c0.7,3.5,0.9,7,0.7,10.6c-0.4,4.8-2.2,9.1-5.6,8.6 c0.2,1.9,0.3,3.9,0.3,5.8c0.7-0.4,1.5-0.8,2.3-1.1c4.2-1.3,5.4-8.2,5.5-9.1c0.3,3.7,0,7.4-0.7,11.1c-1,5-3.7,9.4-7.2,8.3 c-0.1,1.7-0.2,3.6-0.4,5.4c0.9-0.4,1.8-0.7,2.7-0.9c4.7-0.8,6.9-8.1,7-8.8c-0.2,4-1,7.9-2.3,11.6c-1.8,5.2-5.3,9.5-8.9,7.6 c-0.3,1.6-0.7,3.3-1.2,4.9c1-0.3,2.1-0.5,3.2-0.6c5.1-0.1,8.5-7.8,8.7-8.3c-0.8,4.2-2.3,8.2-4.2,12c-2.8,5.3-7.2,9.5-10.7,6.7 c-0.5,1.4-1.1,2.8-1.7,4.3c1.2-0.2,2.4-0.3,3.6-0.2c5.4,0.6,10.3-7.2,10.4-7.5c-1.5,4.3-3.7,8.4-6.4,12c-3.9,5.2-9.3,9-12.5,5.3 c-0.7,1.2-1.4,2.4-2.2,3.5c1.2-0.1,2.4,0,3.6,0.3c5.4,1.4,11.7-6,11.6-6.1c-2.2,4.1-5.1,7.9-8.5,11.2c-4.8,4.7-10.9,7.6-13.4,3.5 c-0.9,1.1-1.9,2.1-2.9,3.2c1.2,0.1,2.4,0.4,3.5,0.9c4.9,2,12-3.6,12.7-4.3c-2.9,3.7-6.4,7-10.3,9.7c-5.7,4-12.4,5.8-14.2,1.4 c-1.1,0.9-2.3,1.8-3.5,2.7c1.2,0.3,2.4,0.7,3.5,1.4c4.6,2.7,12.7-1.7,13.6-2.3c-3.7,3.2-7.8,5.9-12.2,8c-6.5,3-13.7,3.6-14.8-0.9 c-1.3,0.7-2.7,1.4-4,2c1.2,0.5,2.2,1.1,3.2,1.9c4.2,3.4,13.2,0.5,14.2,0c-4.3,2.6-9,4.5-13.9,5.7c-7.2,1.7-14.6,1.1-14.9-3.4 c-8.4,2.5-17.2,3.5-25.9,3.1L166.9,231.2z"></path><path class="st15" d="M165.5,33.4l5.1,10.4l11.5,1.7l-8.3,8.1l2,11.4l-10.3-5.4l-10.3,5.4l2-11.4l-8.3-8.1l11.5-1.7L165.5,33.4z"></path><polygon class="st7" points="133.6,53.7 130.5,47.5 127.4,53.7 120.5,54.7 125.5,59.6 124.3,66.4 130.5,63.2 136.6,66.4 135.5,59.6  140.5,54.7 "></polygon><polygon class="st7" points="210.4,54.7 203.5,53.7 200.4,47.5 197.3,53.7 190.4,54.7 195.4,59.6 194.3,66.4 200.4,63.2 206.6,66.4  205.4,59.6 "></polygon><polygon class="st4" points="116.4,70 114.6,66.3 112.7,70 108.6,70.6 111.6,73.5 110.8,77.6 114.6,75.7 118.3,77.6 117.5,73.5  120.5,70.6 "></polygon><polygon class="st4" points="222.3,70.6 218.2,70 216.3,66.3 214.5,70 210.4,70.6 213.4,73.5 212.6,77.6 216.3,75.7 220.1,77.6  219.3,73.5 "></polygon><g>	<path class="st0" d="M111.7,166.6v-8.6h-3.1v-1.8h8.3v1.8h-3.1v8.6H111.7z"></path>	<path class="st0" d="M127.3,161.3c0,3.3-2,5.4-5,5.4c-3.1,0-5-2.1-5-5.4c0-3.3,1.9-5.4,5-5.4C125.3,155.9,127.3,158,127.3,161.3z   M119.4,161.3c0,2.2,1.1,3.6,2.8,3.6c1.7,0,2.8-1.4,2.8-3.6s-1.1-3.6-2.8-3.6C120.5,157.8,119.4,159.2,119.4,161.3z"></path>	<path class="st0" d="M133,156.1c1.9-0.1,3.5,1.3,3.6,3.2c0,0.1,0,0.3,0,0.4c0.1,1.9-1.5,3.5-3.4,3.6c-0.1,0-0.2,0-0.3,0h-2.1v3.3  h-2.2v-10.5L133,156.1z M130.8,161.5h1.6c1,0.1,1.9-0.7,2-1.7s-0.7-1.9-1.7-2c-0.1,0-0.2,0-0.3,0h-1.6V161.5z"></path>	<path class="st0" d="M142.8,163.6c0.1,0.9,1,1.4,2.2,1.4c1.2,0,2-0.6,2-1.3c0-0.8-0.5-1.1-1.7-1.3l-1.4-0.3  c-1.9-0.4-2.9-1.4-2.9-2.9c0-1.9,1.7-3.2,4-3.2c2.3,0,4,1.3,4,3.1h-2c-0.1-0.9-0.9-1.4-1.9-1.4s-1.8,0.5-1.8,1.3  c0,0.8,0.5,1,1.7,1.3l1.3,0.3c2.1,0.5,3,1.4,3,2.9c0,2-1.6,3.3-4.2,3.3s-4.1-1.2-4.2-3.2H142.8z"></path>	<path class="st0" d="M160.2,161.3c0,3.3-2,5.4-5,5.4s-5-2.1-5-5.4c0-3.3,1.9-5.4,5-5.4S160.2,158,160.2,161.3z M152.4,161.3  c0,2.2,1.1,3.6,2.8,3.6s2.8-1.4,2.8-3.6s-1.1-3.6-2.8-3.6S152.4,159.2,152.4,161.3z"></path>	<path class="st0" d="M161.6,166.6v-10.5h6.8v1.8h-4.7v2.8h4.3v1.7h-4.3v4.1L161.6,166.6z"></path>	<path class="st0" d="M172.3,166.6v-8.6h-3.1v-1.8h8.3v1.8h-3.1v8.6H172.3z"></path>	<path class="st0" d="M183,166.6H181l-2.8-10.5h2.3l1.6,7.6h0.1l2-7.6h1.8l2,7.6h0.1l1.7-7.6h2.3l-2.8,10.5h-2.1l-2-7.1H185  L183,166.6z"></path>	<path class="st0" d="M198.1,164h-3.6l-0.8,2.5h-2.2l3.6-10.5h2.6l3.6,10.5H199L198.1,164z M194.9,162.4h2.7l-1.3-4.3h-0.1  L194.9,162.4z"></path>	<path class="st0" d="M204.5,166.6h-2.1v-10.5h4.3c2.4,0,3.8,1.3,3.8,3.3c0.1,1.3-0.7,2.5-1.9,3l2.2,4.2h-2.5l-1.9-3.8h-1.8  L204.5,166.6z M204.5,161.1h1.9c0.9,0.1,1.6-0.5,1.7-1.4c0-0.1,0-0.2,0-0.3c0-0.9-0.7-1.6-1.5-1.7c-0.1,0-0.1,0-0.2,0h-1.9  L204.5,161.1z"></path>	<path class="st0" d="M218.8,166.6h-6.9v-10.5h6.9v1.8H214v2.5h4.5v1.7H214v2.6h4.7V166.6z"></path>	<path class="st0" d="M77.2,173.9c3.1,0,5,1.9,5,5.2c0,3.3-1.8,5.2-5,5.2h-4v-10.5L77.2,173.9z M75.4,182.5H77c2,0,3-1.2,3-3.4  c0-2.3-1.1-3.3-3-3.3h-1.6L75.4,182.5z"></path>	<path class="st0" d="M90.5,184.3h-6.9v-10.5h6.9v1.9h-4.7v2.5h4.5v1.7h-4.5v2.6h4.7V184.3z"></path>	<path class="st0" d="M95,184.3l-3.5-10.5h2.4l2.4,8.2h0.1l2.4-8.2h2.4l-3.5,10.5H95z"></path>	<path class="st0" d="M109.1,184.3h-6.9v-10.5h6.9v1.9h-4.7v2.5h4.5v1.7h-4.5v2.6h4.7V184.3z"></path>	<path class="st0" d="M117.4,184.3h-6.7v-10.5h2.2v8.6h4.6V184.3z"></path>	<path class="st0" d="M128,179.1c0,3.3-1.9,5.4-5,5.4s-5-2.1-5-5.4c0-3.3,1.9-5.4,5-5.4S128,175.8,128,179.1z M120.2,179.1  c0,2.2,1.1,3.6,2.8,3.6s2.8-1.4,2.8-3.6s-1.1-3.6-2.8-3.6S120.2,176.9,120.2,179.1z"></path>	<path class="st0" d="M133.8,173.9c1.9-0.1,3.5,1.3,3.6,3.2c0,0.1,0,0.3,0,0.4c0.1,1.9-1.5,3.5-3.4,3.6c-0.1,0-0.2,0-0.3,0h-2.1v3.3  h-2.2v-10.5L133.8,173.9z M131.6,179.3h1.6c1,0.1,1.9-0.7,2-1.7s-0.7-1.9-1.7-2c-0.1,0-0.2,0-0.3,0h-1.6V179.3z"></path>	<path class="st0" d="M149.8,184.3h-1.9v-7h-0.1l-2.8,7h-1.4l-2.8-7h-0.1v7h-2v-10.5h2.5l3,7.4h0.1l3-7.4h2.5L149.8,184.3z"></path>	<path class="st0" d="M158.4,184.3h-6.9v-10.5h6.9v1.9h-4.7v2.5h4.5v1.7h-4.5v2.6h4.7V184.3z"></path>	<path class="st0" d="M160,184.3v-10.5h1.8l4.9,6.8h0.1v-6.8h2.1v10.5H167l-4.9-6.9h-0.1v6.8L160,184.3z"></path>	<path class="st0" d="M173.1,184.3v-8.6h-3v-1.8h8.3v1.8h-3.1v8.6L173.1,184.3z"></path>	<path class="st0" d="M182.4,179.1c0-3.4,1.9-5.4,4.9-5.4c2.3-0.2,4.4,1.6,4.6,3.9h-2.1c-0.2-1.2-1.2-2.2-2.5-2.1  c-1.6,0-2.7,1.4-2.7,3.6c0,2.2,1,3.6,2.7,3.6c1.2,0.1,2.3-0.8,2.5-2h2.1c-0.2,2.3-2,3.8-4.6,3.8  C184.3,184.5,182.4,182.5,182.4,179.1z"></path>	<path class="st0" d="M203.1,179.1c0,3.3-2,5.4-5,5.4s-5-2.1-5-5.4c0-3.3,1.9-5.4,5-5.4C201.1,173.7,203.1,175.8,203.1,179.1z   M195.2,179.1c0,2.2,1.1,3.6,2.8,3.6c1.7,0,2.8-1.4,2.8-3.6s-1.1-3.6-2.8-3.6S195.2,176.9,195.2,179.1z"></path>	<path class="st0" d="M215.5,184.3h-1.9v-7h-0.1l-2.8,7h-1.4l-2.8-7h-0.1v7h-1.9v-10.5h2.5l3,7.4h0.1l3-7.4h2.5L215.5,184.3z"></path>	<path class="st0" d="M221.6,173.9c1.9-0.1,3.5,1.3,3.6,3.2c0,0.1,0,0.3,0,0.4c0.1,1.9-1.5,3.5-3.4,3.6c-0.1,0-0.2,0-0.3,0h-2.1v3.3  h-2.2v-10.5L221.6,173.9z M219.5,179.3h1.6c1,0.1,1.9-0.7,2-1.7s-0.7-1.9-1.7-2c-0.1,0-0.2,0-0.3,0h-1.6V179.3z"></path>	<path class="st0" d="M231.6,181.8h-3.7l-0.8,2.5h-2.2l3.6-10.5h2.6l3.6,10.5h-2.3L231.6,181.8z M228.4,180.2h2.7l-1.3-4.3h-0.1  L228.4,180.2z"></path>	<path class="st0" d="M235.8,184.3v-10.5h1.8l4.9,6.8h0.1v-6.8h2.1v10.5h-1.8l-4.9-6.8h-0.1v6.8H235.8z"></path>	<path class="st0" d="M249.4,184.3v-3.9l-3.6-6.5h2.4l2.3,4.5h0.1l2.3-4.5h2.3l-3.6,6.5v3.9H249.4z"></path></g></svg>