<svg xmlns="http://www.w3.org/2000/svg" width="48" height="49" viewBox="0 0 48 49" fill="none"><path d="M27.5 8L14.5 13L4 24.5L14.5 34L23.5 40.5L39.5 45.5L44 34L45 20.5L39.5 5L27.5 8Z" fill="white"></path><path d="M31.2957 24.5015L39.9058 9.69436L44.0663 24.5015L39.9056 39.3051L31.2957 24.5015ZM27.0992 26.9061L35.7105 41.7108L20.7134 37.8844L9.87903 26.9061H27.0992ZM35.7086 7.28786L27.0992 22.095H9.87903L20.7134 11.116L35.7086 7.28786ZM48 19.4623L42.7473 0L23.1415 5.21589L20.2393 10.2977L14.3502 10.2556L0 24.5028L14.3502 38.7466H14.3508L20.2374 38.7033L23.1438 43.785L42.7473 49L47.9998 29.5414L45.0168 24.5017L47.9998 19.4627L48 19.4623Z" fill="#222C37"></path></svg>