<svg xmlns="http://www.w3.org/2000/svg" width="49" height="49" viewBox="0 0 49 49" fill="none"><rect x="1" y="1" width="47" height="47" rx="9" fill="white" stroke="black" stroke-width="2"></rect><path d="M24.0694 10C24.0694 10 18.5499 11.5604 13.5894 16.8237C8.6288 22.087 8 25.8365 8 28.6312C9.09458 26.7681 15.8484 16.4976 17.432 21.3883V33.0794C17.432 33.0794 17.3389 34.663 14.9168 34.0342C15.6388 35.385 19.365 38.7153 26.0955 39.3907C27.6326 37.8536 29.6355 35.6412 29.6355 35.6412L32.9891 38.4824C32.9891 38.4824 39.0209 34.5699 41.3964 28.8874C39.1839 30.3313 36.5057 33.6849 35.1084 31.3327V17.1031C35.1084 17.1031 38.6949 11.7234 39.2538 11.4672C37.8332 11.7234 32.826 13.3769 30.1944 16.7771C29.4491 15.962 27.3764 15.9387 27.3764 15.9387C27.3764 15.9387 29.0067 17.2894 29.0299 18.5238C29.0532 19.7581 29.0299 30.0518 29.0299 31.2395C27.9121 32.3807 26.7243 32.9862 25.9558 32.9862C24.1625 32.9862 23.6502 32.3574 23.1611 31.7286V16.7771C23.1611 16.7771 22.2761 17.5223 21.5775 16.3113C20.8788 15.1003 20.8555 12.7481 24.0694 10Z" fill="black"></path></svg>