<svg xmlns="http://www.w3.org/2000/svg" xmlns:xlink="http://www.w3.org/1999/xlink" width="80" viewBox="0 0 60 60" height="80" preserveAspectRatio="xMidYMid meet"><defs><clipPath id="id1"><path d="M 3.898438 4 L 57 4 L 57 57 L 3.898438 57 Z M 3.898438 4 " clip-rule="nonzero"></path></clipPath></defs><g clip-path="url(#id1)"><path fill="#ffffff" d="M 29.949219 56.25 L 29.949219 46.148438 C 32.554688 46.140625 35.117188 45.5 37.417969 44.277344 C 39.71875 43.058594 41.683594 41.292969 43.152344 39.140625 C 44.617188 36.988281 45.535156 34.511719 45.832031 31.925781 C 46.125 29.335938 45.78125 26.71875 44.835938 24.292969 C 44.078125 22.230469 42.878906 20.359375 41.320312 18.808594 C 39.765625 17.257812 37.890625 16.066406 35.828125 15.3125 C 33.402344 14.371094 30.78125 14.03125 28.195312 14.324219 C 25.609375 14.621094 23.132812 15.539062 20.980469 17.003906 C 18.832031 18.46875 17.066406 20.4375 15.847656 22.734375 C 14.625 25.035156 13.980469 27.597656 13.96875 30.199219 L 3.898438 30.199219 C 3.910156 26.066406 4.898438 21.996094 6.789062 18.324219 C 8.675781 14.648438 11.40625 11.472656 14.757812 9.058594 C 18.109375 6.640625 21.988281 5.054688 26.070312 4.429688 C 30.152344 3.800781 34.328125 4.148438 38.25 5.449219 C 42.113281 6.667969 45.625 8.796875 48.488281 11.664062 C 51.351562 14.527344 53.484375 18.035156 54.707031 21.898438 C 56.003906 25.820312 56.351562 29.996094 55.726562 34.078125 C 55.097656 38.164062 53.511719 42.039062 51.097656 45.390625 C 48.679688 48.746094 45.503906 51.476562 41.828125 53.363281 C 38.152344 55.25 34.082031 56.238281 29.949219 56.25 Z M 29.949219 56.25 " fill-opacity="1" fill-rule="nonzero"></path></g><path fill="#ffffff" d="M 19.90625 36.136719 L 29.980469 36.136719 L 29.980469 46.207031 L 19.90625 46.207031 Z M 19.90625 36.136719 " fill-opacity="1" fill-rule="evenodd"></path><path fill="#ffffff" d="M 12.199219 46.207031 L 19.90625 46.207031 L 19.90625 53.917969 L 12.199219 53.917969 Z M 12.199219 46.207031 " fill-opacity="1" fill-rule="evenodd"></path><path fill="#ffffff" d="M 5.730469 39.738281 L 12.199219 39.738281 L 12.199219 46.207031 L 5.730469 46.207031 Z M 5.730469 39.738281 " fill-opacity="1" fill-rule="evenodd"></path></svg>