<svg xmlns="http://www.w3.org/2000/svg" xmlns:xlink="http://www.w3.org/1999/xlink" width="80" viewBox="0 0 60 60" height="80" preserveAspectRatio="xMidYMid meet"><defs><clipPath id="id1"><path d="M 1.949219 4 L 59 4 L 59 56 L 1.949219 56 Z M 1.949219 4 " clip-rule="nonzero"></path></clipPath></defs><g clip-path="url(#id1)"><path fill="#ffffff" d="M 19.242188 26.007812 C 19.6875 26.457031 19.941406 27.066406 19.941406 27.699219 L 19.941406 34.761719 L 40.183594 34.761719 L 40.183594 14.828125 L 14.761719 14.828125 L 14.761719 25.304688 L 17.554688 25.304688 C 18.1875 25.308594 18.796875 25.558594 19.242188 26.007812 Z M 18.988281 51.707031 L 1.949219 51.707031 L 1.949219 53.6875 C 1.949219 53.875 1.988281 54.0625 2.058594 54.238281 C 2.128906 54.414062 2.234375 54.570312 2.367188 54.703125 C 2.5 54.839844 2.660156 54.945312 2.832031 55.015625 C 3.007812 55.089844 3.191406 55.125 3.378906 55.125 L 17.554688 55.125 C 17.742188 55.125 17.929688 55.089844 18.105469 55.015625 C 18.277344 54.945312 18.433594 54.839844 18.566406 54.703125 C 18.699219 54.570312 18.804688 54.414062 18.878906 54.238281 C 18.949219 54.0625 18.988281 53.875 18.988281 53.6875 Z M 10.03125 53.59375 C 10.003906 53.535156 9.988281 53.472656 9.992188 53.410156 C 9.992188 53.347656 10.003906 53.285156 10.027344 53.226562 C 10.050781 53.167969 10.089844 53.117188 10.132812 53.074219 C 10.222656 52.988281 10.34375 52.9375 10.46875 52.9375 C 10.59375 52.9375 10.714844 52.988281 10.800781 53.074219 C 10.847656 53.117188 10.882812 53.167969 10.910156 53.226562 C 10.933594 53.285156 10.945312 53.347656 10.945312 53.410156 C 10.949219 53.472656 10.933594 53.535156 10.90625 53.59375 C 10.886719 53.65625 10.851562 53.710938 10.800781 53.753906 C 10.710938 53.839844 10.59375 53.890625 10.46875 53.890625 C 10.34375 53.890625 10.222656 53.839844 10.132812 53.753906 C 10.085938 53.710938 10.050781 53.652344 10.03125 53.59375 Z M 58.230469 6.886719 C 58.230469 5.773438 57.332031 4.875 56.226562 4.875 L 12.945312 4.875 C 11.839844 4.875 10.945312 5.773438 10.945312 6.886719 L 10.945312 10.027344 L 58.230469 10.027344 Z M 14.21875 7.269531 C 14.242188 7.328125 14.257812 7.390625 14.253906 7.453125 C 14.257812 7.515625 14.246094 7.578125 14.21875 7.632812 C 14.191406 7.695312 14.15625 7.75 14.113281 7.796875 C 14.019531 7.878906 13.902344 7.925781 13.777344 7.929688 C 13.714844 7.933594 13.652344 7.917969 13.597656 7.894531 C 13.535156 7.875 13.480469 7.84375 13.433594 7.796875 C 13.390625 7.75 13.355469 7.695312 13.339844 7.632812 C 13.3125 7.578125 13.300781 7.515625 13.300781 7.453125 C 13.300781 7.328125 13.347656 7.207031 13.433594 7.117188 C 13.484375 7.074219 13.539062 7.039062 13.597656 7.011719 C 13.683594 6.976562 13.777344 6.964844 13.871094 6.984375 C 13.960938 7.003906 14.046875 7.050781 14.113281 7.117188 C 14.15625 7.160156 14.195312 7.210938 14.21875 7.269531 Z M 16.851562 7.117188 C 16.9375 7.207031 16.984375 7.328125 16.984375 7.453125 C 16.984375 7.515625 16.972656 7.574219 16.957031 7.632812 C 16.925781 7.691406 16.890625 7.746094 16.851562 7.796875 C 16.804688 7.835938 16.753906 7.871094 16.699219 7.894531 C 16.636719 7.917969 16.574219 7.933594 16.507812 7.929688 C 16.382812 7.929688 16.261719 7.882812 16.171875 7.796875 C 16.085938 7.703125 16.039062 7.578125 16.039062 7.453125 C 16.039062 7.390625 16.050781 7.328125 16.066406 7.269531 C 16.089844 7.210938 16.128906 7.160156 16.171875 7.117188 C 16.238281 7.050781 16.324219 7.003906 16.417969 6.984375 C 16.511719 6.964844 16.609375 6.976562 16.699219 7.011719 C 16.753906 7.039062 16.804688 7.074219 16.851562 7.117188 Z M 19.683594 7.269531 C 19.710938 7.328125 19.722656 7.390625 19.722656 7.453125 C 19.722656 7.515625 19.710938 7.578125 19.683594 7.632812 C 19.664062 7.695312 19.625 7.753906 19.578125 7.796875 C 19.488281 7.882812 19.367188 7.929688 19.242188 7.929688 C 19.179688 7.933594 19.121094 7.917969 19.0625 7.894531 C 19.003906 7.871094 18.953125 7.839844 18.910156 7.796875 C 18.863281 7.75 18.828125 7.695312 18.804688 7.632812 C 18.777344 7.578125 18.765625 7.515625 18.765625 7.453125 C 18.765625 7.390625 18.777344 7.328125 18.804688 7.269531 C 18.828125 7.210938 18.863281 7.160156 18.910156 7.117188 C 18.953125 7.070312 19.003906 7.035156 19.0625 7.011719 C 19.148438 6.976562 19.246094 6.964844 19.335938 6.984375 C 19.429688 7.003906 19.511719 7.050781 19.578125 7.117188 C 19.625 7.15625 19.664062 7.210938 19.683594 7.269531 Z M 43.96875 14.816406 L 54.414062 14.816406 L 54.414062 27.816406 L 43.96875 27.816406 Z M 58.230469 10.996094 L 10.945312 10.996094 L 10.945312 25.304688 L 13.808594 25.304688 L 13.808594 14.347656 C 13.804688 14.285156 13.816406 14.222656 13.84375 14.164062 C 13.867188 14.105469 13.902344 14.054688 13.945312 14.007812 C 13.988281 13.964844 14.042969 13.929688 14.101562 13.90625 C 14.160156 13.878906 14.222656 13.867188 14.285156 13.871094 L 40.660156 13.871094 C 40.722656 13.867188 40.785156 13.878906 40.84375 13.90625 C 40.902344 13.929688 40.953125 13.964844 40.996094 14.007812 C 41.042969 14.054688 41.078125 14.105469 41.101562 14.164062 C 41.125 14.222656 41.136719 14.285156 41.136719 14.347656 L 41.136719 35.238281 C 41.136719 35.367188 41.085938 35.488281 40.996094 35.578125 C 40.90625 35.667969 40.785156 35.71875 40.660156 35.71875 L 19.941406 35.71875 L 19.941406 38.59375 L 56.226562 38.59375 C 57.332031 38.59375 58.230469 37.691406 58.230469 36.582031 Z M 43.15625 28.632812 C 43.066406 28.542969 43.015625 28.421875 43.015625 28.296875 L 43.015625 14.339844 C 43.015625 14.210938 43.066406 14.09375 43.15625 14.003906 C 43.246094 13.914062 43.367188 13.863281 43.492188 13.859375 L 54.890625 13.859375 C 55.019531 13.859375 55.140625 13.910156 55.226562 14 C 55.316406 14.089844 55.367188 14.210938 55.367188 14.339844 L 55.367188 28.296875 C 55.367188 28.359375 55.355469 28.421875 55.332031 28.480469 C 55.308594 28.539062 55.273438 28.589844 55.230469 28.636719 C 55.1875 28.679688 55.132812 28.714844 55.074219 28.738281 C 55.015625 28.761719 54.953125 28.773438 54.890625 28.773438 L 43.492188 28.773438 C 43.367188 28.773438 43.246094 28.722656 43.15625 28.632812 Z M 43.15625 35.574219 C 43.070312 35.488281 43.019531 35.367188 43.015625 35.238281 L 43.015625 31.140625 C 43.015625 31.011719 43.066406 30.894531 43.15625 30.804688 C 43.246094 30.714844 43.367188 30.664062 43.492188 30.660156 L 54.890625 30.660156 C 55.019531 30.660156 55.140625 30.710938 55.226562 30.800781 C 55.316406 30.890625 55.367188 31.011719 55.367188 31.140625 L 55.367188 35.238281 C 55.367188 35.367188 55.316406 35.488281 55.226562 35.578125 C 55.140625 35.667969 55.019531 35.71875 54.890625 35.71875 L 43.492188 35.71875 C 43.367188 35.714844 43.246094 35.664062 43.15625 35.574219 Z M 3.378906 26.265625 L 17.554688 26.265625 C 17.742188 26.265625 17.929688 26.300781 18.105469 26.371094 C 18.277344 26.445312 18.433594 26.550781 18.566406 26.683594 C 18.699219 26.816406 18.804688 26.976562 18.878906 27.152344 C 18.949219 27.324219 18.988281 27.511719 18.988281 27.699219 L 18.988281 28.976562 L 1.949219 28.976562 L 1.949219 27.699219 C 1.949219 27.511719 1.988281 27.324219 2.058594 27.152344 C 2.128906 26.976562 2.234375 26.816406 2.367188 26.683594 C 2.5 26.550781 2.660156 26.445312 2.832031 26.375 C 3.007812 26.300781 3.191406 26.265625 3.378906 26.265625 Z M 18.988281 29.933594 L 1.949219 29.933594 L 1.949219 50.746094 L 18.988281 50.746094 Z M 43.96875 31.617188 L 54.414062 31.617188 L 54.414062 34.761719 L 43.96875 34.761719 Z M 3.101562 43.34375 L 3.101562 36.390625 L 12.007812 36.390625 L 12.007812 43.34375 Z M 2.652344 36.316406 C 2.652344 36.113281 2.820312 35.949219 3.027344 35.949219 L 12.082031 35.949219 C 12.289062 35.949219 12.457031 36.113281 12.457031 36.316406 L 12.457031 43.417969 C 12.457031 43.621094 12.289062 43.785156 12.082031 43.785156 L 3.027344 43.785156 C 2.820312 43.785156 2.652344 43.621094 2.652344 43.417969 Z M 13.875 36.34375 L 13.875 41.179688 L 17.847656 41.179688 L 17.847656 36.34375 Z M 13.707031 35.949219 C 13.570312 35.949219 13.460938 36.054688 13.460938 36.1875 L 13.460938 41.339844 C 13.460938 41.46875 13.570312 41.574219 13.707031 41.574219 L 18.015625 41.574219 C 18.152344 41.574219 18.261719 41.46875 18.261719 41.339844 L 18.261719 36.1875 C 18.261719 36.054688 18.152344 35.949219 18.015625 35.949219 Z M 13.867188 43.410156 L 13.867188 42.355469 L 17.855469 42.355469 L 17.855469 43.410156 Z M 13.460938 42.28125 C 13.460938 42.113281 13.605469 41.976562 13.785156 41.976562 L 17.9375 41.976562 C 18.117188 41.976562 18.261719 42.113281 18.261719 42.28125 L 18.261719 43.484375 C 18.261719 43.652344 18.117188 43.785156 17.9375 43.785156 L 13.785156 43.785156 C 13.605469 43.785156 13.460938 43.652344 13.460938 43.484375 Z M 13.460938 42.28125 " fill-opacity="1" fill-rule="evenodd"></path></g></svg>