<svg xmlns="http://www.w3.org/2000/svg" xmlns:xlink="http://www.w3.org/1999/xlink" width="80" viewBox="0 0 60 60" height="80" preserveAspectRatio="xMidYMid meet"><defs><clipPath id="id1"><path d="M 3.335938 2 L 43 2 L 43 43 L 3.335938 43 Z M 3.335938 2 " clip-rule="nonzero"></path></clipPath></defs><g clip-path="url(#id1)"><path fill="#ffffff" d="M 29.585938 2.925781 C 16.160156 2.925781 17 8.777344 17 8.777344 L 17.015625 14.839844 L 29.824219 14.839844 L 29.824219 16.660156 L 11.925781 16.660156 C 11.925781 16.660156 3.335938 15.679688 3.335938 29.292969 C 3.335938 42.910156 10.835938 42.425781 10.835938 42.425781 L 15.308594 42.425781 L 15.308594 36.109375 C 15.308594 36.109375 15.066406 28.574219 22.6875 28.574219 L 35.390625 28.574219 C 35.390625 28.574219 42.53125 28.6875 42.53125 21.636719 L 42.53125 9.980469 C 42.53125 9.980469 43.613281 2.925781 29.585938 2.925781 Z M 22.523438 7 C 22.824219 7 23.125 7.0625 23.402344 7.175781 C 23.683594 7.292969 23.9375 7.464844 24.152344 7.679688 C 24.367188 7.894531 24.535156 8.148438 24.652344 8.429688 C 24.765625 8.710938 24.828125 9.015625 24.828125 9.316406 C 24.828125 9.621094 24.765625 9.925781 24.652344 10.207031 C 24.535156 10.484375 24.367188 10.742188 24.152344 10.957031 C 23.9375 11.171875 23.683594 11.34375 23.402344 11.460938 C 23.125 11.574219 22.824219 11.636719 22.523438 11.636719 C 22.21875 11.636719 21.917969 11.574219 21.640625 11.460938 C 21.359375 11.34375 21.105469 11.171875 20.890625 10.957031 C 20.679688 10.742188 20.507812 10.484375 20.390625 10.207031 C 20.277344 9.925781 20.21875 9.621094 20.21875 9.316406 C 20.21875 9.015625 20.277344 8.710938 20.390625 8.429688 C 20.507812 8.148438 20.679688 7.894531 20.890625 7.679688 C 21.105469 7.464844 21.359375 7.292969 21.640625 7.175781 C 21.917969 7.0625 22.21875 7 22.523438 7 Z M 22.523438 7 " fill-opacity="1" fill-rule="nonzero"></path></g><path fill="#ffffff" d="M 29.964844 55.800781 C 43.390625 55.800781 42.550781 49.949219 42.550781 49.949219 L 42.535156 43.886719 L 29.726562 43.886719 L 29.726562 42.066406 L 47.625 42.066406 C 47.625 42.066406 56.214844 43.046875 56.214844 29.429688 C 56.214844 15.816406 48.714844 16.296875 48.714844 16.296875 L 44.242188 16.296875 L 44.242188 22.617188 C 44.242188 22.617188 44.484375 30.152344 36.863281 30.152344 L 24.160156 30.152344 C 24.160156 30.152344 17.023438 30.035156 17.023438 37.085938 L 17.023438 48.746094 C 17.023438 48.746094 15.9375 55.800781 29.964844 55.800781 Z M 37.03125 51.722656 C 36.726562 51.722656 36.425781 51.664062 36.148438 51.546875 C 35.867188 51.429688 35.613281 51.261719 35.398438 51.046875 C 35.183594 50.828125 35.015625 50.574219 34.898438 50.292969 C 34.785156 50.011719 34.726562 49.710938 34.726562 49.40625 C 34.722656 49.101562 34.785156 48.800781 34.898438 48.519531 C 35.015625 48.238281 35.183594 47.984375 35.398438 47.769531 C 35.613281 47.550781 35.867188 47.382812 36.148438 47.265625 C 36.425781 47.148438 36.726562 47.089844 37.03125 47.089844 C 37.332031 47.089844 37.632812 47.148438 37.910156 47.265625 C 38.191406 47.382812 38.445312 47.550781 38.660156 47.769531 C 38.875 47.984375 39.042969 48.238281 39.160156 48.519531 C 39.273438 48.800781 39.335938 49.101562 39.332031 49.40625 C 39.335938 49.710938 39.273438 50.011719 39.160156 50.292969 C 39.042969 50.574219 38.875 50.828125 38.660156 51.042969 C 38.445312 51.261719 38.191406 51.429688 37.910156 51.546875 C 37.632812 51.664062 37.332031 51.722656 37.03125 51.722656 Z M 37.03125 51.722656 " fill-opacity="1" fill-rule="nonzero"></path></svg>