<svg xmlns="http://www.w3.org/2000/svg" xmlns:xlink="http://www.w3.org/1999/xlink" width="80" viewBox="0 0 60 60" height="80" preserveAspectRatio="xMidYMid meet"><defs><clipPath id="id1"><path d="M 2.25 46 L 22 46 L 22 53 L 2.25 53 Z M 2.25 46 " clip-rule="nonzero"></path></clipPath><clipPath id="id2"><path d="M 2.25 6 L 11 6 L 11 13 L 2.25 13 Z M 2.25 6 " clip-rule="nonzero"></path></clipPath></defs><path fill="#ffffff" d="M 21.855469 24.003906 C 21.855469 25.628906 20.539062 26.945312 18.917969 26.945312 C 17.292969 26.945312 15.976562 25.628906 15.976562 24.003906 C 15.976562 22.382812 17.292969 21.066406 18.917969 21.066406 C 20.539062 21.066406 21.855469 22.382812 21.855469 24.003906 Z M 21.855469 24.003906 " fill-opacity="1" fill-rule="nonzero"></path><path fill="#ffffff" d="M 33.621094 5.378906 C 33.621094 4.835938 34.058594 4.398438 34.601562 4.398438 L 43.246094 4.398438 C 42.832031 3.226562 41.726562 2.441406 40.484375 2.4375 L 18.917969 2.4375 C 17.292969 2.4375 15.976562 3.753906 15.976562 5.378906 L 15.976562 6.359375 L 33.621094 6.359375 Z M 33.621094 5.378906 " fill-opacity="1" fill-rule="nonzero"></path><path fill="#ffffff" d="M 23.816406 35.574219 L 23.816406 33.808594 C 23.816406 31.101562 21.625 28.90625 18.917969 28.90625 C 16.210938 28.90625 14.015625 31.101562 14.015625 33.808594 L 14.015625 35.574219 C 15.238281 36.199219 16.570312 36.585938 17.9375 36.707031 L 17.9375 34.789062 L 19.898438 34.789062 L 19.898438 36.707031 C 21.265625 36.582031 22.59375 36.199219 23.816406 35.574219 Z M 23.816406 35.574219 " fill-opacity="1" fill-rule="nonzero"></path><path fill="#ffffff" d="M 8.183594 24.984375 L 10.09375 24.984375 L 10.09375 26.945312 L 8.1875 26.945312 C 8.433594 29.664062 9.699219 32.183594 11.726562 34.003906 C 11.832031 34.101562 11.945312 34.183594 12.054688 34.273438 L 12.054688 33.808594 C 12.058594 31.25 13.484375 28.902344 15.757812 27.722656 C 14.183594 26.398438 13.605469 24.226562 14.3125 22.292969 C 15.019531 20.359375 16.859375 19.074219 18.917969 19.074219 C 20.976562 19.074219 22.816406 20.359375 23.523438 22.292969 C 24.226562 24.226562 23.648438 26.398438 22.074219 27.722656 C 24.347656 28.902344 25.777344 31.25 25.78125 33.808594 L 25.78125 34.277344 C 25.886719 34.1875 26 34.105469 26.105469 34.011719 C 28.136719 32.1875 29.402344 29.664062 29.648438 26.945312 L 27.742188 26.945312 L 27.742188 24.984375 L 29.652344 24.984375 C 29.171875 19.8125 25.074219 15.710938 19.898438 15.230469 L 19.898438 17.144531 L 17.9375 17.144531 L 17.9375 15.230469 C 12.761719 15.710938 8.664062 19.8125 8.183594 24.984375 Z M 8.183594 24.984375 " fill-opacity="1" fill-rule="nonzero"></path><path fill="#ffffff" d="M 35.582031 16.164062 L 55.1875 16.164062 L 55.1875 6.359375 L 35.582031 6.359375 Z M 43.425781 8.320312 L 53.226562 8.320312 L 53.226562 10.28125 L 43.425781 10.28125 Z M 37.542969 8.320312 L 41.464844 8.320312 L 41.464844 10.28125 L 37.542969 10.28125 Z M 37.542969 12.242188 L 53.226562 12.242188 L 53.226562 14.203125 L 37.542969 14.203125 Z M 37.542969 12.242188 " fill-opacity="1" fill-rule="nonzero"></path><path fill="#ffffff" d="M 23.816406 53.414062 C 23.816406 53.957031 23.378906 54.394531 22.835938 54.394531 L 15.976562 54.394531 C 15.976562 56.019531 17.292969 57.335938 18.917969 57.335938 L 40.484375 57.335938 C 42.109375 57.335938 43.425781 56.019531 43.425781 54.394531 L 43.425781 51.457031 L 23.816406 51.457031 Z M 28.71875 53.414062 L 30.679688 53.414062 L 30.679688 55.375 L 28.71875 55.375 Z M 28.71875 53.414062 " fill-opacity="1" fill-rule="nonzero"></path><g clip-path="url(#id1)"><path fill="#ffffff" d="M 21.855469 46.554688 L 2.25 46.554688 L 2.25 52.433594 L 21.855469 52.433594 Z M 9.113281 50.476562 L 4.210938 50.476562 L 4.210938 48.515625 L 9.113281 48.515625 Z M 19.898438 50.476562 L 11.074219 50.476562 L 11.074219 48.515625 L 19.898438 48.515625 Z M 19.898438 50.476562 " fill-opacity="1" fill-rule="nonzero"></path></g><path fill="#ffffff" d="M 55.996094 22.042969 C 55.714844 22.042969 55.445312 22.148438 55.234375 22.332031 L 39.953125 35.816406 L 43.382812 39.242188 L 56.863281 23.960938 C 57.160156 23.621094 57.234375 23.136719 57.046875 22.722656 C 56.859375 22.308594 56.449219 22.042969 55.996094 22.042969 Z M 55.996094 22.042969 " fill-opacity="1" fill-rule="nonzero"></path><path fill="#ffffff" d="M 33.621094 41.652344 L 33.621094 43.382812 C 33.625 44.148438 33.429688 44.902344 33.058594 45.574219 L 37.542969 45.574219 C 40.097656 45.570312 42.222656 43.609375 42.429688 41.0625 L 38.132812 36.765625 C 35.585938 36.972656 33.625 39.097656 33.621094 41.652344 Z M 33.621094 41.652344 " fill-opacity="1" fill-rule="nonzero"></path><path fill="#ffffff" d="M 37.542969 47.535156 L 30.679688 47.535156 C 30.222656 47.539062 29.820312 47.226562 29.714844 46.777344 C 29.609375 46.332031 29.828125 45.871094 30.242188 45.671875 C 31.113281 45.242188 31.664062 44.351562 31.660156 43.382812 L 31.660156 41.652344 C 31.664062 38.015625 34.503906 35.015625 38.132812 34.808594 L 43.425781 30.136719 L 43.425781 18.125 L 34.601562 18.125 C 34.058594 18.125 33.621094 17.683594 33.621094 17.144531 L 33.621094 8.320312 L 15.976562 8.320312 L 15.976562 13.578125 C 16.621094 13.425781 17.273438 13.320312 17.9375 13.269531 L 17.9375 10.28125 L 19.894531 10.28125 L 19.894531 13.269531 C 26.152344 13.761719 31.121094 18.730469 31.609375 24.984375 L 34.601562 24.984375 L 34.601562 26.945312 L 31.609375 26.945312 C 31.144531 33.214844 26.164062 38.199219 19.894531 38.664062 L 19.894531 41.652344 L 17.9375 41.652344 L 17.9375 38.664062 C 17.273438 38.613281 16.621094 38.511719 15.976562 38.355469 L 15.976562 44.59375 L 22.835938 44.59375 C 23.378906 44.59375 23.816406 45.03125 23.816406 45.574219 L 23.816406 49.496094 L 43.425781 49.496094 L 43.425781 44.1875 C 42.1875 46.261719 39.957031 47.53125 37.542969 47.535156 Z M 37.542969 47.535156 " fill-opacity="1" fill-rule="nonzero"></path><g clip-path="url(#id2)"><path fill="#ffffff" d="M 10.09375 6.359375 L 2.25 6.359375 L 2.25 12.242188 L 10.09375 12.242188 Z M 8.132812 10.28125 L 4.210938 10.28125 L 4.210938 8.320312 L 8.132812 8.320312 Z M 8.132812 10.28125 " fill-opacity="1" fill-rule="nonzero"></path></g></svg>