<svg xmlns="http://www.w3.org/2000/svg" xmlns:xlink="http://www.w3.org/1999/xlink" width="80" viewBox="0 0 60 60" height="80" preserveAspectRatio="xMidYMid meet"><defs><clipPath id="id1"><path d="M 5.25 3 L 56 3 L 56 59 L 5.25 59 Z M 5.25 3 " clip-rule="nonzero"></path></clipPath></defs><path fill="#ffffff" d="M 22.347656 36.335938 C 24.277344 36.335938 25.839844 37.886719 25.839844 39.800781 L 25.839844 54.660156 C 25.839844 56.574219 24.277344 58.125 22.347656 58.125 C 20.417969 58.125 18.855469 56.574219 18.855469 54.660156 L 18.855469 39.800781 C 18.855469 37.886719 20.417969 36.335938 22.347656 36.335938 Z M 22.347656 36.335938 " fill-opacity="1" fill-rule="nonzero"></path><path fill="#ffffff" d="M 14.375 18.46875 C 14.363281 18.601562 14.351562 18.734375 14.351562 18.867188 L 14.351562 41.382812 C 14.351562 43.804688 16.285156 45.753906 18.683594 45.753906 L 41.765625 45.753906 C 44.164062 45.753906 46.097656 43.804688 46.097656 41.382812 L 46.097656 18.867188 C 46.097656 18.734375 46.089844 18.597656 46.078125 18.46875 Z M 14.375 18.46875 " fill-opacity="1" fill-rule="nonzero"></path><path fill="#ffffff" d="M 15.507812 2.675781 C 15.683594 2.574219 15.910156 2.632812 16.011719 2.808594 L 19.695312 9.136719 C 19.796875 9.3125 19.734375 9.535156 19.558594 9.636719 C 19.382812 9.734375 19.160156 9.675781 19.058594 9.5 L 15.375 3.171875 C 15.273438 2.996094 15.332031 2.773438 15.507812 2.675781 Z M 44.941406 2.675781 C 45.117188 2.773438 45.179688 2.996094 45.078125 3.171875 L 41.394531 9.5 C 41.292969 9.675781 41.066406 9.734375 40.890625 9.636719 C 40.714844 9.535156 40.65625 9.3125 40.757812 9.136719 L 44.441406 2.808594 C 44.542969 2.632812 44.765625 2.574219 44.941406 2.675781 Z M 44.941406 2.675781 " fill-opacity="1" fill-rule="evenodd"></path><g clip-path="url(#id1)"><path fill="#ffffff" d="M 41.59375 39.800781 C 41.59375 37.886719 40.03125 36.335938 38.101562 36.335938 C 36.171875 36.335938 34.609375 37.886719 34.609375 39.800781 L 34.609375 54.660156 C 34.609375 56.574219 36.171875 58.125 38.101562 58.125 C 40.03125 58.125 41.59375 56.574219 41.59375 54.660156 Z M 12.234375 23.9375 C 12.234375 22.023438 10.671875 20.472656 8.742188 20.472656 C 6.8125 20.472656 5.25 22.023438 5.25 23.9375 L 5.25 38.796875 C 5.25 40.710938 6.8125 42.261719 8.742188 42.261719 C 10.671875 42.261719 12.234375 40.710938 12.234375 38.796875 Z M 55.199219 23.9375 C 55.199219 22.023438 53.636719 20.472656 51.707031 20.472656 C 49.777344 20.472656 48.214844 22.023438 48.214844 23.9375 L 48.214844 38.796875 C 48.214844 40.710938 49.777344 42.261719 51.707031 42.261719 C 53.636719 42.261719 55.199219 40.710938 55.199219 38.796875 Z M 28.46875 3.65625 C 20.660156 4.40625 14.574219 10.074219 14.476562 16.992188 L 45.972656 16.992188 C 45.875 10.074219 39.789062 4.40625 31.980469 3.65625 Z M 23.730469 12.546875 C 24.730469 12.546875 25.535156 11.761719 25.535156 10.792969 L 25.535156 10.785156 C 25.53125 9.816406 24.71875 9.035156 23.722656 9.039062 C 22.722656 9.039062 21.917969 9.828125 21.917969 10.792969 L 21.917969 10.804688 C 21.921875 11.769531 22.734375 12.550781 23.730469 12.546875 Z M 37.21875 12.546875 C 38.214844 12.546875 39.023438 11.761719 39.019531 10.792969 L 39.019531 10.785156 C 39.015625 9.816406 38.207031 9.035156 37.207031 9.039062 C 36.210938 9.039062 35.402344 9.828125 35.40625 10.792969 L 35.40625 10.804688 C 35.410156 11.769531 36.21875 12.550781 37.21875 12.546875 Z M 37.21875 12.546875 " fill-opacity="1" fill-rule="evenodd"></path></g></svg>