<svg xmlns="http://www.w3.org/2000/svg" xmlns:xlink="http://www.w3.org/1999/xlink" width="80" viewBox="0 0 60 60" height="80" preserveAspectRatio="xMidYMid meet"><defs><clipPath id="id1"><path d="M 2.851562 36 L 56 36 L 56 49 L 2.851562 49 Z M 2.851562 36 " clip-rule="nonzero"></path></clipPath></defs><path fill="#ffffff" d="M 17.707031 28.144531 C 17.695312 28.679688 17.757812 29.214844 17.898438 29.730469 C 18.054688 30.171875 18.242188 30.601562 18.460938 31.011719 C 18.539062 31.132812 18.582031 31.277344 18.585938 31.421875 C 18.574219 31.53125 18.539062 31.636719 18.480469 31.730469 C 18.421875 31.824219 18.34375 31.902344 18.25 31.957031 L 17.144531 32.707031 C 17.011719 32.804688 16.855469 32.859375 16.691406 32.867188 C 16.492188 32.855469 16.304688 32.765625 16.164062 32.617188 C 15.929688 32.359375 15.71875 32.078125 15.535156 31.78125 C 15.359375 31.476562 15.183594 31.140625 14.992188 30.730469 C 14.371094 31.511719 13.585938 32.140625 12.691406 32.566406 C 11.800781 32.992188 10.820312 33.207031 9.835938 33.1875 C 9.195312 33.222656 8.554688 33.128906 7.953125 32.910156 C 7.351562 32.6875 6.796875 32.347656 6.328125 31.90625 C 5.441406 30.925781 4.976562 29.628906 5.035156 28.296875 C 5.089844 26.964844 5.660156 25.710938 6.625 24.8125 C 7.84375 23.832031 9.367188 23.335938 10.917969 23.417969 C 11.539062 23.421875 12.160156 23.472656 12.777344 23.5625 C 13.425781 23.652344 14.09375 23.792969 14.792969 23.953125 L 14.792969 22.648438 C 14.792969 21.292969 14.511719 20.347656 13.96875 19.796875 C 13.410156 19.242188 12.460938 18.976562 11.113281 18.976562 C 10.472656 18.976562 9.835938 19.054688 9.21875 19.207031 C 8.574219 19.363281 7.941406 19.566406 7.324219 19.816406 C 7.125 19.90625 6.917969 19.984375 6.710938 20.046875 C 6.621094 20.078125 6.523438 20.09375 6.429688 20.097656 C 6.183594 20.097656 6.0625 19.921875 6.0625 19.546875 L 6.0625 18.679688 C 6.042969 18.460938 6.085938 18.246094 6.183594 18.054688 C 6.316406 17.890625 6.484375 17.761719 6.675781 17.679688 C 7.378906 17.324219 8.121094 17.054688 8.882812 16.875 C 9.777344 16.644531 10.699219 16.53125 11.621094 16.539062 C 13.707031 16.539062 15.230469 17.019531 16.214844 17.980469 C 17.179688 18.941406 17.667969 20.40625 17.667969 22.371094 L 17.667969 28.148438 L 17.703125 28.148438 Z M 10.589844 30.855469 C 11.203125 30.847656 11.8125 30.738281 12.394531 30.535156 C 13.039062 30.308594 13.613281 29.914062 14.058594 29.394531 C 14.34375 29.0625 14.546875 28.671875 14.65625 28.25 C 14.777344 27.742188 14.835938 27.222656 14.832031 26.699219 L 14.832031 25.949219 C 14.300781 25.820312 13.761719 25.71875 13.21875 25.648438 C 12.671875 25.578125 12.121094 25.542969 11.570312 25.539062 C 10.644531 25.464844 9.722656 25.71875 8.957031 26.253906 C 8.519531 26.578125 8.195312 27.039062 8.039062 27.566406 C 7.878906 28.09375 7.890625 28.65625 8.074219 29.175781 C 8.261719 29.695312 8.605469 30.136719 9.058594 30.441406 C 9.507812 30.742188 10.046875 30.890625 10.585938 30.855469 Z M 24.671875 32.78125 C 24.433594 32.804688 24.199219 32.742188 24.003906 32.601562 C 23.820312 32.410156 23.691406 32.167969 23.636719 31.90625 L 19.511719 18.121094 C 19.433594 17.890625 19.378906 17.652344 19.355469 17.410156 C 19.347656 17.351562 19.351562 17.289062 19.367188 17.234375 C 19.386719 17.175781 19.417969 17.125 19.457031 17.082031 C 19.5 17.035156 19.546875 17.003906 19.601562 16.984375 C 19.660156 16.960938 19.71875 16.953125 19.777344 16.960938 L 21.496094 16.960938 C 21.738281 16.929688 21.980469 16.996094 22.179688 17.140625 C 22.355469 17.335938 22.476562 17.574219 22.53125 17.835938 L 25.476562 29.640625 L 28.210938 17.835938 C 28.246094 17.574219 28.363281 17.332031 28.546875 17.140625 C 28.753906 17.011719 29 16.949219 29.246094 16.964844 L 30.648438 16.964844 C 30.898438 16.9375 31.144531 17 31.351562 17.140625 C 31.535156 17.328125 31.652344 17.574219 31.683594 17.835938 L 34.457031 29.785156 L 37.488281 17.835938 C 37.546875 17.578125 37.667969 17.339844 37.839844 17.140625 C 38.042969 17.011719 38.285156 16.949219 38.523438 16.964844 L 40.15625 16.964844 C 40.214844 16.953125 40.277344 16.960938 40.335938 16.980469 C 40.390625 17 40.445312 17.03125 40.488281 17.074219 C 40.53125 17.121094 40.5625 17.171875 40.582031 17.230469 C 40.601562 17.289062 40.605469 17.351562 40.597656 17.414062 C 40.59375 17.507812 40.582031 17.601562 40.5625 17.699219 C 40.535156 17.851562 40.492188 18 40.4375 18.144531 L 36.207031 31.925781 C 36.15625 32.1875 36.027344 32.429688 35.839844 32.621094 C 35.640625 32.75 35.410156 32.8125 35.171875 32.796875 L 33.664062 32.796875 C 33.417969 32.824219 33.171875 32.761719 32.964844 32.621094 C 32.78125 32.425781 32.664062 32.175781 32.632812 31.90625 L 29.914062 20.40625 L 27.210938 31.890625 C 27.171875 32.15625 27.054688 32.402344 26.878906 32.601562 C 26.671875 32.742188 26.425781 32.804688 26.179688 32.78125 Z M 47.207031 33.261719 C 46.296875 33.261719 45.390625 33.15625 44.503906 32.941406 C 43.804688 32.796875 43.125 32.558594 42.488281 32.230469 C 42.261719 32.121094 42.074219 31.945312 41.945312 31.730469 C 41.878906 31.574219 41.839844 31.402344 41.839844 31.230469 L 41.839844 30.320312 C 41.839844 29.945312 41.980469 29.769531 42.242188 29.769531 C 42.351562 29.769531 42.457031 29.785156 42.558594 29.820312 C 42.664062 29.859375 42.820312 29.929688 43 30 C 43.617188 30.277344 44.265625 30.488281 44.929688 30.625 C 45.617188 30.765625 46.3125 30.835938 47.015625 30.839844 C 47.90625 30.890625 48.792969 30.6875 49.574219 30.25 C 49.859375 30.074219 50.097656 29.824219 50.257812 29.527344 C 50.417969 29.230469 50.496094 28.894531 50.488281 28.554688 C 50.496094 28.324219 50.457031 28.097656 50.375 27.882812 C 50.292969 27.667969 50.171875 27.472656 50.015625 27.308594 C 49.5 26.863281 48.894531 26.546875 48.242188 26.378906 L 45.695312 25.578125 C 44.59375 25.289062 43.609375 24.652344 42.886719 23.757812 C 42.324219 23.019531 42.015625 22.109375 42.011719 21.171875 C 41.996094 20.480469 42.160156 19.800781 42.484375 19.191406 C 42.796875 18.621094 43.226562 18.121094 43.746094 17.730469 C 44.292969 17.308594 44.910156 16.996094 45.570312 16.804688 C 46.285156 16.59375 47.03125 16.492188 47.777344 16.5 C 48.171875 16.496094 48.5625 16.519531 48.953125 16.570312 C 49.355469 16.625 49.726562 16.695312 50.09375 16.769531 C 50.445312 16.855469 50.777344 16.945312 51.09375 17.054688 C 51.347656 17.132812 51.59375 17.242188 51.828125 17.375 C 52.035156 17.480469 52.214844 17.632812 52.355469 17.820312 C 52.46875 17.996094 52.523438 18.203125 52.511719 18.410156 L 52.511719 19.25 C 52.511719 19.621094 52.371094 19.820312 52.109375 19.820312 C 51.875 19.792969 51.648438 19.71875 51.445312 19.605469 C 50.382812 19.128906 49.234375 18.890625 48.078125 18.910156 C 47.269531 18.859375 46.464844 19.035156 45.746094 19.410156 C 45.476562 19.570312 45.257812 19.804688 45.113281 20.082031 C 44.96875 20.363281 44.902344 20.679688 44.921875 20.996094 C 44.917969 21.230469 44.960938 21.46875 45.050781 21.683594 C 45.140625 21.902344 45.277344 22.097656 45.449219 22.261719 C 46.015625 22.71875 46.671875 23.054688 47.375 23.242188 L 49.867188 24.042969 C 50.921875 24.320312 51.871094 24.917969 52.585938 25.757812 C 53.121094 26.472656 53.40625 27.355469 53.390625 28.253906 C 53.402344 28.972656 53.246094 29.679688 52.933594 30.324219 C 52.625 30.933594 52.1875 31.46875 51.65625 31.894531 C 51.078125 32.351562 50.414062 32.691406 49.707031 32.890625 C 48.898438 33.144531 48.054688 33.269531 47.207031 33.261719 Z M 47.207031 33.261719 " fill-opacity="1" fill-rule="nonzero"></path><g clip-path="url(#id1)"><path fill="#ffffff" d="M 50.519531 41.929688 C 44.75 46.261719 36.367188 48.5625 29.160156 48.5625 C 19.535156 48.613281 10.234375 45.007812 3.082031 38.449219 C 2.539062 37.953125 3.03125 37.273438 3.679688 37.667969 C 10.605469 41.730469 18.363281 44.105469 26.34375 44.609375 C 34.324219 45.113281 42.3125 43.730469 49.679688 40.574219 C 50.640625 40.128906 51.464844 41.214844 50.519531 41.929688 Z M 52.921875 39.148438 C 52.183594 38.1875 48.046875 38.683594 46.167969 38.914062 C 45.609375 38.984375 45.519531 38.488281 46.027344 38.113281 C 49.324219 35.757812 54.746094 36.4375 55.375 37.21875 C 56.003906 38.023438 55.199219 43.53125 52.113281 46.171875 C 51.640625 46.582031 51.183594 46.367188 51.394531 45.832031 C 52.097656 44.070312 53.65625 40.089844 52.921875 39.148438 Z M 52.921875 39.148438 " fill-opacity="1" fill-rule="nonzero"></path></g></svg>