<svg xmlns="http://www.w3.org/2000/svg" xmlns:xlink="http://www.w3.org/1999/xlink" width="80" viewBox="0 0 60 60" height="80" preserveAspectRatio="xMidYMid meet"><defs><clipPath id="id1"><path d="M 12.148438 1 L 40 1 L 40 56 L 12.148438 56 Z M 12.148438 1 " clip-rule="nonzero"></path></clipPath></defs><g clip-path="url(#id1)"><path fill="#ffffff" d="M 12.148438 4.632812 C 12.148438 2.984375 13.5 1.648438 15.167969 1.648438 L 36.167969 1.648438 C 37.835938 1.648438 39.1875 2.984375 39.1875 4.632812 L 39.1875 4.871094 L 12.148438 4.871094 Z M 12.148438 6.777344 L 12.148438 47.441406 L 29.84375 47.441406 C 29.789062 46.964844 29.765625 46.480469 29.773438 45.992188 C 29.835938 43.234375 30.972656 40.605469 32.945312 38.652344 C 34.640625 36.980469 36.835938 35.917969 39.1875 35.609375 L 39.1875 6.777344 Z M 30.246094 49.351562 C 30.714844 50.867188 31.519531 52.273438 32.625 53.460938 C 33.195312 54.074219 33.828125 54.613281 34.511719 55.074219 L 15.167969 55.074219 C 13.5 55.074219 12.148438 53.738281 12.148438 52.09375 L 12.148438 49.351562 Z M 26.632812 51.617188 C 26.632812 52.144531 26.203125 52.570312 25.667969 52.570312 C 25.136719 52.570312 24.703125 52.144531 24.703125 51.617188 C 24.703125 51.089844 25.136719 50.660156 25.667969 50.660156 C 26.203125 50.660156 26.632812 51.089844 26.632812 51.617188 Z M 16.746094 9.503906 C 16.960938 9.070312 17.308594 8.773438 17.757812 8.628906 C 17.949219 8.570312 18.3125 8.566406 25.644531 8.566406 C 33.183594 8.5625 33.335938 8.5625 33.554688 8.632812 C 34.003906 8.769531 34.351562 9.070312 34.570312 9.503906 L 34.699219 9.765625 L 34.710938 13.824219 L 34.71875 17.886719 L 32.886719 16.078125 L 32.835938 16.023438 C 31.195312 14.410156 30.96875 14.1875 30.761719 14.203125 C 30.726562 14.207031 30.695312 14.214844 30.65625 14.226562 L 30.644531 14.230469 C 30.550781 14.257812 30.03125 14.75 28.375 16.386719 L 26.222656 18.515625 L 25.226562 17.53125 C 24.675781 16.992188 24.1875 16.527344 24.148438 16.507812 C 24.039062 16.457031 23.832031 16.457031 23.71875 16.519531 C 23.664062 16.546875 22.207031 17.972656 20.472656 19.683594 C 18.742188 21.398438 17.304688 22.800781 17.28125 22.800781 C 17.1875 22.800781 16.882812 22.445312 16.75 22.179688 C 16.660156 22.003906 16.617188 21.808594 16.617188 21.613281 L 16.617188 9.765625 Z M 23.226562 12.394531 C 23.007812 11.714844 22.4375 11.148438 21.765625 10.9375 C 21.464844 10.84375 20.9375 10.820312 20.636719 10.890625 C 19.636719 11.113281 18.898438 12.023438 18.898438 13.023438 C 18.902344 13.972656 19.519531 14.816406 20.425781 15.109375 C 20.800781 15.230469 21.421875 15.230469 21.796875 15.109375 C 22.460938 14.890625 22.992188 14.347656 23.238281 13.636719 C 23.335938 13.34375 23.328125 12.71875 23.226562 12.394531 Z M 20.75 11.902344 C 20.410156 12.007812 20.121094 12.285156 19.992188 12.617188 C 19.890625 12.890625 19.90625 13.296875 20.039062 13.546875 C 20.15625 13.769531 20.351562 13.964844 20.578125 14.082031 C 20.734375 14.167969 20.796875 14.179688 21.109375 14.179688 C 21.425781 14.179688 21.484375 14.167969 21.640625 14.082031 C 21.890625 13.953125 22.125 13.691406 22.226562 13.441406 C 22.441406 12.875 22.15625 12.195312 21.597656 11.949219 C 21.394531 11.859375 20.953125 11.835938 20.75 11.902344 Z M 26.371094 19.691406 C 26.453125 19.664062 27.101562 19.046875 28.613281 17.554688 C 29.78125 16.398438 30.75 15.453125 30.773438 15.453125 C 30.792969 15.453125 31.6875 16.324219 32.765625 17.390625 L 34.722656 19.324219 L 34.710938 20.617188 L 34.703125 21.621094 C 34.699219 21.8125 34.65625 22 34.570312 22.175781 C 34.351562 22.609375 34.003906 22.910156 33.554688 23.046875 C 33.335938 23.113281 33.183594 23.113281 25.890625 23.113281 L 18.457031 23.113281 L 21.207031 20.398438 L 23.960938 17.675781 L 24.976562 18.679688 C 26.074219 19.761719 26.101562 19.777344 26.371094 19.691406 Z M 14.925781 35.515625 L 36.410156 35.515625 L 36.410156 24.902344 L 14.925781 24.902344 Z M 23.519531 27.027344 L 34.261719 27.027344 L 34.261719 29.148438 L 23.519531 29.148438 Z M 17.074219 27.027344 L 21.371094 27.027344 L 21.371094 29.148438 L 17.074219 29.148438 Z M 17.074219 31.273438 L 34.261719 31.273438 L 34.261719 33.394531 L 17.074219 33.394531 Z M 17.074219 31.273438 " fill-opacity="1" fill-rule="evenodd"></path></g><path fill="#ffffff" d="M 52.933594 57.183594 L 48.472656 52.777344 C 50.164062 50.789062 51.015625 48.238281 50.847656 45.648438 C 50.679688 43.058594 49.503906 40.632812 47.570312 38.878906 C 45.636719 37.125 43.089844 36.175781 40.464844 36.234375 C 37.839844 36.289062 35.335938 37.34375 33.480469 39.179688 C 31.625 41.011719 30.554688 43.484375 30.5 46.078125 C 30.441406 48.671875 31.402344 51.1875 33.179688 53.097656 C 34.953125 55.011719 37.410156 56.171875 40.03125 56.335938 C 42.648438 56.503906 45.234375 55.664062 47.242188 53.992188 L 51.703125 58.398438 C 51.867188 58.558594 52.085938 58.648438 52.320312 58.648438 C 52.550781 58.648438 52.769531 58.558594 52.933594 58.398438 C 53.097656 58.238281 53.1875 58.019531 53.1875 57.789062 C 53.1875 57.5625 53.097656 57.34375 52.933594 57.183594 Z M 52.933594 57.183594 " fill-opacity="1" fill-rule="nonzero"></path></svg>