<svg xmlns="http://www.w3.org/2000/svg" xmlns:xlink="http://www.w3.org/1999/xlink" width="80" viewBox="0 0 60 60" height="80" preserveAspectRatio="xMidYMid meet"><defs><clipPath id="id1"><path d="M 1.613281 3 L 57 3 L 57 57 L 1.613281 57 Z M 1.613281 3 " clip-rule="nonzero"></path></clipPath></defs><path fill="#ffffff" d="M 36.554688 29.023438 L 39.015625 26.5625 C 39.21875 26.359375 39.5 26.242188 39.785156 26.242188 C 39.839844 26.242188 39.898438 26.25 39.953125 26.257812 C 40.296875 26.3125 40.59375 26.523438 40.753906 26.835938 L 43.390625 31.921875 L 43.730469 31.746094 L 41.210938 26.882812 C 41.035156 26.542969 41.050781 26.136719 41.246094 25.8125 C 41.445312 25.484375 41.800781 25.285156 42.179688 25.285156 L 45.207031 25.285156 L 36.554688 17.332031 Z M 36.554688 29.023438 " fill-opacity="1" fill-rule="nonzero"></path><path fill="#ffffff" d="M 19.082031 30.113281 L 10.347656 30.113281 L 10.347656 32.300781 L 19.082031 32.300781 Z M 19.082031 30.113281 " fill-opacity="1" fill-rule="nonzero"></path><g clip-path="url(#id1)"><path fill="#ffffff" d="M 55.121094 3.863281 L 2.703125 3.863281 C 2.101562 3.863281 1.613281 4.351562 1.613281 4.957031 L 1.613281 42.144531 C 1.613281 42.75 2.101562 43.238281 2.703125 43.238281 L 27.820312 43.238281 L 27.820312 54.175781 L 17.992188 54.175781 C 17.390625 54.175781 16.902344 54.664062 16.902344 55.269531 C 16.902344 55.875 17.390625 56.363281 17.992188 56.363281 L 39.832031 56.363281 C 40.4375 56.363281 40.925781 55.875 40.925781 55.269531 C 40.925781 54.664062 40.4375 54.175781 39.832031 54.175781 L 30.003906 54.175781 L 30.003906 43.238281 L 55.121094 43.238281 C 55.722656 43.238281 56.210938 42.75 56.210938 42.144531 L 56.210938 4.957031 C 56.210938 4.351562 55.722656 3.863281 55.121094 3.863281 Z M 21.269531 33.394531 C 21.269531 34 20.78125 34.488281 20.175781 34.488281 L 9.257812 34.488281 C 8.652344 34.488281 8.164062 34 8.164062 33.394531 L 8.164062 29.019531 C 8.164062 28.414062 8.652344 27.925781 9.257812 27.925781 L 20.175781 27.925781 C 20.78125 27.925781 21.269531 28.414062 21.269531 29.019531 Z M 20.175781 23.550781 L 9.257812 23.550781 C 8.652344 23.550781 8.164062 23.058594 8.164062 22.457031 C 8.164062 21.851562 8.652344 21.363281 9.257812 21.363281 L 20.175781 21.363281 C 20.78125 21.363281 21.269531 21.851562 21.269531 22.457031 C 21.269531 23.058594 20.78125 23.550781 20.175781 23.550781 Z M 28.914062 19.175781 L 9.257812 19.175781 C 8.652344 19.175781 8.164062 18.683594 8.164062 18.082031 C 8.164062 17.476562 8.652344 16.988281 9.257812 16.988281 L 28.914062 16.988281 C 29.515625 16.988281 30.003906 17.476562 30.003906 18.082031 C 30.003906 18.683594 29.515625 19.175781 28.914062 19.175781 Z M 28.914062 14.800781 L 9.257812 14.800781 C 8.652344 14.800781 8.164062 14.308594 8.164062 13.707031 C 8.164062 13.101562 8.652344 12.613281 9.257812 12.613281 L 28.914062 12.613281 C 29.515625 12.613281 30.003906 13.101562 30.003906 13.707031 C 30.003906 14.308594 29.515625 14.800781 28.914062 14.800781 Z M 49.035156 26.777344 C 48.871094 27.195312 48.46875 27.472656 48.015625 27.472656 L 43.980469 27.472656 L 46.171875 31.710938 C 46.304688 31.964844 46.332031 32.265625 46.242188 32.542969 C 46.15625 32.820312 45.960938 33.050781 45.707031 33.183594 L 43.425781 34.363281 C 43.265625 34.449219 43.09375 34.488281 42.925781 34.488281 C 42.53125 34.488281 42.148438 34.273438 41.953125 33.898438 L 39.503906 29.167969 L 36.238281 32.4375 C 35.921875 32.75 35.453125 32.84375 35.046875 32.671875 C 34.636719 32.503906 34.371094 32.105469 34.371094 31.664062 L 34.371094 14.84375 C 34.371094 14.410156 34.628906 14.015625 35.027344 13.839844 C 35.417969 13.667969 35.886719 13.742188 36.203125 14.035156 L 48.753906 25.574219 C 49.085938 25.878906 49.199219 26.355469 49.035156 26.777344 Z M 49.035156 26.777344 " fill-opacity="1" fill-rule="nonzero"></path></g></svg>