<svg xmlns="http://www.w3.org/2000/svg" xmlns:xlink="http://www.w3.org/1999/xlink" width="80" viewBox="0 0 60 60" height="80" preserveAspectRatio="xMidYMid meet"><defs><clipPath id="id1"><path d="M 4.6875 2 L 55 2 L 55 58 L 4.6875 58 Z M 4.6875 2 " clip-rule="nonzero"></path></clipPath></defs><g clip-path="url(#id1)"><path fill="#ffffff" d="M 27.410156 2.765625 C 28.773438 1.980469 30.550781 1.976562 31.914062 2.765625 C 38.777344 6.675781 45.636719 10.578125 52.496094 14.488281 C 53.789062 15.222656 54.648438 16.667969 54.636719 18.167969 L 54.636719 41.683594 C 54.648438 43.246094 53.699219 44.726562 52.335938 45.445312 C 45.5 49.332031 38.664062 53.222656 31.828125 57.109375 C 30.433594 57.914062 28.621094 57.851562 27.273438 56.980469 C 25.222656 55.785156 23.167969 54.589844 21.117188 53.394531 C 20.699219 53.140625 20.226562 52.941406 19.933594 52.53125 C 20.191406 52.175781 20.660156 52.132812 21.039062 51.976562 C 21.898438 51.703125 22.683594 51.261719 23.46875 50.835938 C 23.667969 50.699219 23.910156 50.75 24.101562 50.875 C 25.855469 51.886719 27.589844 52.929688 29.351562 53.933594 C 29.726562 54.152344 30.105469 53.863281 30.425781 53.683594 C 37.136719 49.859375 43.855469 46.050781 50.5625 42.222656 C 50.8125 42.101562 50.949219 41.835938 50.929688 41.5625 C 50.933594 33.804688 50.929688 26.046875 50.929688 18.289062 C 50.960938 17.976562 50.78125 17.691406 50.5 17.5625 C 43.6875 13.695312 36.875 9.820312 30.0625 5.949219 C 29.945312 5.867188 29.804688 5.824219 29.664062 5.824219 C 29.519531 5.824219 29.378906 5.867188 29.261719 5.949219 C 22.449219 9.820312 15.640625 13.699219 8.824219 17.566406 C 8.546875 17.695312 8.359375 17.976562 8.394531 18.289062 C 8.394531 26.046875 8.394531 33.804688 8.394531 41.5625 C 8.382812 41.699219 8.410156 41.832031 8.476562 41.949219 C 8.542969 42.066406 8.644531 42.160156 8.765625 42.214844 C 10.582031 43.257812 12.402344 44.289062 14.222656 45.324219 C 15.246094 45.878906 16.503906 46.210938 17.632812 45.785156 C 18.632812 45.425781 19.328125 44.398438 19.308594 43.332031 C 19.320312 35.621094 19.304688 27.90625 19.316406 20.195312 C 19.292969 19.855469 19.613281 19.570312 19.945312 19.601562 C 20.816406 19.597656 21.691406 19.589844 22.566406 19.605469 C 22.929688 19.597656 23.183594 19.964844 23.136719 20.3125 C 23.132812 28.070312 23.144531 35.832031 23.132812 43.59375 C 23.132812 45.664062 22.289062 47.914062 20.394531 48.925781 C 18.054688 50.144531 15.167969 49.886719 12.855469 48.714844 C 10.859375 47.710938 8.949219 46.523438 6.984375 45.445312 C 5.621094 44.734375 4.679688 43.246094 4.6875 41.683594 L 4.6875 18.167969 C 4.671875 16.636719 5.570312 15.164062 6.902344 14.441406 C 13.738281 10.550781 20.574219 6.660156 27.410156 2.765625 Z M 27.410156 2.765625 " fill-opacity="1" fill-rule="nonzero"></path></g><path fill="#ffffff" d="M 33.371094 19.058594 C 36.355469 18.863281 39.546875 18.941406 42.230469 20.421875 C 44.308594 21.558594 45.460938 23.941406 45.496094 26.265625 C 45.4375 26.582031 45.113281 26.753906 44.816406 26.734375 C 43.949219 26.730469 43.085938 26.746094 42.21875 26.726562 C 41.851562 26.742188 41.640625 26.398438 41.59375 26.074219 C 41.34375 24.960938 40.742188 23.855469 39.703125 23.320312 C 38.105469 22.515625 36.257812 22.554688 34.515625 22.570312 C 33.246094 22.640625 31.882812 22.75 30.804688 23.503906 C 29.980469 24.074219 29.726562 25.226562 30.023438 26.152344 C 30.300781 26.820312 31.0625 27.035156 31.6875 27.230469 C 35.28125 28.179688 39.089844 28.085938 42.613281 29.332031 C 44.074219 29.839844 45.5 30.828125 46 32.371094 C 46.652344 34.433594 46.367188 36.902344 44.910156 38.558594 C 43.726562 39.925781 42.007812 40.667969 40.292969 41.070312 C 38.007812 41.582031 35.636719 41.597656 33.320312 41.367188 C 31.140625 41.117188 28.871094 40.539062 27.1875 39.042969 C 25.746094 37.78125 25.042969 35.820312 25.113281 33.921875 C 25.132812 33.605469 25.445312 33.378906 25.75 33.40625 C 26.621094 33.398438 27.492188 33.398438 28.363281 33.40625 C 28.710938 33.382812 28.972656 33.6875 28.988281 34.015625 C 29.148438 35.078125 29.542969 36.191406 30.460938 36.820312 C 32.234375 37.972656 34.453125 37.894531 36.480469 37.925781 C 38.160156 37.851562 40.046875 37.828125 41.417969 36.707031 C 42.140625 36.070312 42.355469 35 42.160156 34.082031 C 41.949219 33.304688 41.144531 32.945312 40.453125 32.707031 C 36.90625 31.578125 33.054688 31.988281 29.542969 30.707031 C 28.113281 30.199219 26.734375 29.238281 26.1875 27.761719 C 25.421875 25.671875 25.773438 23.085938 27.382812 21.484375 C 28.953125 19.890625 31.21875 19.277344 33.371094 19.054688 Z M 33.371094 19.058594 " fill-opacity="1" fill-rule="nonzero"></path></svg>