<svg xmlns="http://www.w3.org/2000/svg" xmlns:xlink="http://www.w3.org/1999/xlink" width="80" viewBox="0 0 60 60" height="80" preserveAspectRatio="xMidYMid meet"><path fill="#ffffff" d="M 6 3.789062 L 51.871094 3.789062 L 47.699219 51.058594 L 31.746094 55.523438 C 29.90625 56.039062 27.964844 56.039062 26.125 55.523438 L 10.171875 51.058594 Z M 22.160156 14.292969 L 26.328125 14.292969 L 26.328125 45.316406 L 13.296875 41.605469 L 13.296875 36.351562 L 22.160156 38.976562 Z M 29.976562 45.28125 L 29.976562 40.027344 L 39.359375 37.402344 L 39.359375 32.675781 L 29.976562 34.777344 L 29.976562 14.292969 L 45.09375 14.292969 L 44.050781 20.070312 L 34.667969 20.070312 L 34.667969 27.949219 L 43.921875 26.910156 C 43.988281 26.90625 44.042969 26.960938 44.039062 27.027344 L 42.488281 42.128906 Z M 29.976562 45.28125 " fill-opacity="1" fill-rule="evenodd"></path></svg>