<svg xmlns="http://www.w3.org/2000/svg" xmlns:xlink="http://www.w3.org/1999/xlink" width="80" viewBox="0 0 60 60" height="80" preserveAspectRatio="xMidYMid meet"><defs><clipPath id="id1"><path d="M 1.949219 12 L 59 12 L 59 53 L 1.949219 53 Z M 1.949219 12 " clip-rule="nonzero"></path></clipPath></defs><g clip-path="url(#id1)"><path fill="#ffffff" d="M 4.332031 12.195312 C 3.015625 12.195312 1.949219 13.265625 1.949219 14.582031 L 1.949219 18.285156 L 58.125 18.285156 L 58.125 14.582031 C 58.125 13.265625 57.058594 12.195312 55.746094 12.195312 Z M 58.125 19.480469 L 1.949219 19.480469 L 1.949219 49.929688 C 1.949219 51.25 3.015625 52.320312 4.332031 52.320312 L 55.746094 52.320312 C 57.058594 52.320312 58.125 51.25 58.125 49.929688 Z M 6.710938 15.179688 C 6.710938 15.511719 6.445312 15.777344 6.117188 15.777344 C 5.785156 15.777344 5.519531 15.511719 5.519531 15.179688 C 5.519531 14.851562 5.785156 14.582031 6.117188 14.582031 C 6.445312 14.582031 6.710938 14.851562 6.710938 15.179688 Z M 9.210938 15.777344 C 9.539062 15.777344 9.804688 15.511719 9.804688 15.179688 C 9.804688 14.851562 9.539062 14.582031 9.210938 14.582031 C 8.882812 14.582031 8.613281 14.851562 8.613281 15.179688 C 8.613281 15.511719 8.882812 15.777344 9.210938 15.777344 Z M 12.898438 15.179688 C 12.898438 15.511719 12.632812 15.777344 12.304688 15.777344 C 11.976562 15.777344 11.710938 15.511719 11.710938 15.179688 C 11.710938 14.851562 11.976562 14.582031 12.304688 14.582031 C 12.632812 14.582031 12.898438 14.851562 12.898438 15.179688 Z M 5.667969 24.738281 C 5.914062 24.238281 6.304688 23.898438 6.8125 23.734375 C 7.03125 23.664062 7.4375 23.660156 15.738281 23.660156 C 24.277344 23.65625 24.445312 23.65625 24.691406 23.738281 C 25.203125 23.894531 25.597656 24.238281 25.84375 24.738281 L 25.992188 25.039062 L 26.003906 29.703125 L 26.011719 34.367188 L 23.941406 32.289062 L 23.878906 32.230469 C 22.023438 30.375 21.765625 30.117188 21.53125 30.136719 C 21.496094 30.140625 21.457031 30.152344 21.414062 30.164062 L 21.398438 30.167969 C 21.296875 30.199219 20.707031 30.765625 18.832031 32.648438 L 16.398438 35.09375 L 15.265625 33.960938 C 14.640625 33.339844 14.09375 32.808594 14.046875 32.785156 C 13.925781 32.726562 13.6875 32.730469 13.558594 32.796875 C 13.5 32.828125 11.851562 34.46875 9.886719 36.433594 C 7.929688 38.40625 6.300781 40.015625 6.273438 40.015625 C 6.167969 40.015625 5.820312 39.605469 5.671875 39.304688 L 5.519531 38.996094 L 5.519531 25.039062 Z M 13.003906 28.058594 C 12.753906 27.277344 12.109375 26.628906 11.347656 26.386719 C 11.007812 26.277344 10.410156 26.25 10.070312 26.328125 C 8.941406 26.585938 8.105469 27.632812 8.105469 28.78125 C 8.109375 29.871094 8.804688 30.839844 9.835938 31.175781 C 10.257812 31.316406 10.960938 31.316406 11.386719 31.175781 C 12.136719 30.929688 12.738281 30.304688 13.015625 29.484375 C 13.128906 29.152344 13.121094 28.433594 13.003906 28.058594 Z M 10.199219 27.492188 C 9.816406 27.617188 9.484375 27.933594 9.34375 28.316406 C 9.226562 28.628906 9.246094 29.09375 9.394531 29.382812 C 9.527344 29.636719 9.75 29.863281 10.007812 30 C 10.183594 30.097656 10.25 30.109375 10.609375 30.109375 C 10.964844 30.109375 11.03125 30.097656 11.207031 30 C 11.488281 29.851562 11.757812 29.550781 11.871094 29.257812 C 12.113281 28.609375 11.789062 27.828125 11.160156 27.546875 C 10.929688 27.441406 10.433594 27.414062 10.199219 27.492188 Z M 16.566406 36.441406 C 16.65625 36.410156 17.390625 35.703125 19.101562 33.988281 C 20.421875 32.660156 21.519531 31.574219 21.542969 31.574219 C 21.566406 31.574219 22.582031 32.574219 23.800781 33.796875 L 26.015625 36.019531 L 25.992188 38.996094 L 25.84375 39.296875 C 25.597656 39.796875 25.203125 40.140625 24.691406 40.296875 C 24.445312 40.378906 24.277344 40.378906 16.019531 40.378906 L 7.605469 40.378906 L 10.714844 37.253906 L 13.832031 34.128906 L 14.984375 35.28125 C 16.226562 36.523438 16.257812 36.542969 16.566406 36.441406 Z M 30.277344 26.523438 L 30.277344 37.035156 L 52.886719 37.035156 L 52.886719 26.523438 Z M 29.800781 24.851562 C 29.140625 24.851562 28.609375 25.386719 28.609375 26.046875 L 28.609375 37.511719 C 28.609375 38.171875 29.140625 38.707031 29.800781 38.707031 L 53.363281 38.707031 C 54.023438 38.707031 54.554688 38.171875 54.554688 37.511719 L 54.554688 26.046875 C 54.554688 25.386719 54.023438 24.851562 53.363281 24.851562 Z M 12.183594 47.542969 L 12.183594 44.4375 L 22.660156 44.4375 L 22.660156 47.542969 Z M 10.519531 43.484375 C 10.519531 43.085938 10.839844 42.765625 11.234375 42.765625 L 23.609375 42.765625 C 23.652344 42.765625 23.691406 42.769531 23.730469 42.777344 C 23.769531 42.769531 23.808594 42.765625 23.847656 42.765625 L 36.226562 42.765625 C 36.265625 42.765625 36.304688 42.769531 36.34375 42.777344 C 36.382812 42.769531 36.421875 42.765625 36.464844 42.765625 L 48.84375 42.765625 C 49.234375 42.765625 49.554688 43.085938 49.554688 43.484375 L 49.554688 48.5 C 49.554688 48.894531 49.234375 49.214844 48.84375 49.214844 L 36.464844 49.214844 C 36.421875 49.214844 36.382812 49.210938 36.34375 49.207031 C 36.304688 49.210938 36.265625 49.214844 36.226562 49.214844 L 23.847656 49.214844 C 23.808594 49.214844 23.769531 49.210938 23.730469 49.207031 C 23.691406 49.210938 23.652344 49.214844 23.609375 49.214844 L 11.234375 49.214844 C 10.839844 49.214844 10.519531 48.894531 10.519531 48.5 Z M 24.800781 44.4375 L 24.800781 47.542969 L 35.273438 47.542969 L 35.273438 44.4375 Z M 37.417969 47.542969 L 37.417969 44.4375 L 47.890625 44.4375 L 47.890625 47.542969 Z M 37.417969 47.542969 " fill-opacity="1" fill-rule="evenodd"></path></g></svg>