<svg xmlns="http://www.w3.org/2000/svg" xmlns:xlink="http://www.w3.org/1999/xlink" width="80" viewBox="0 0 60 60" height="80" preserveAspectRatio="xMidYMid meet"><defs><clipPath id="id1"><path d="M 29 1.019531 L 41 1.019531 L 41 15 L 29 15 Z M 29 1.019531 " clip-rule="nonzero"></path></clipPath><clipPath id="id2"><path d="M 6.273438 14 L 53.523438 14 L 53.523438 58.769531 L 6.273438 58.769531 Z M 6.273438 14 " clip-rule="nonzero"></path></clipPath></defs><g clip-path="url(#id1)"><path fill="#ffffff" d="M 29.90625 13.519531 C 29.980469 11.144531 30.636719 7.644531 32.910156 5.347656 C 35.023438 3.210938 37.59375 2.171875 39.195312 1.695312 C 39.816406 1.511719 40.410156 1.980469 40.378906 2.625 C 40.269531 4.898438 39.671875 8.289062 38.132812 10.105469 C 36.679688 11.820312 34.339844 14.089844 30.914062 14.472656 C 30.355469 14.535156 29.886719 14.082031 29.90625 13.519531 Z M 29.90625 13.519531 " fill-opacity="1" fill-rule="nonzero"></path></g><g clip-path="url(#id2)"><path fill="#ffffff" d="M 35.769531 56.996094 C 37.414062 57.628906 39.078125 58.265625 40.582031 58.265625 C 43.800781 58.265625 53.175781 50.832031 53.511719 43.113281 C 53.53125 42.71875 53.292969 42.363281 52.945312 42.171875 C 50.5625 40.835938 46.667969 37.511719 46.53125 32.675781 C 46.375 27.039062 49.203125 22.5625 51.34375 20.710938 C 51.824219 20.292969 51.992188 19.558594 51.5625 19.089844 C 49.613281 16.960938 45.695312 14.035156 42.121094 14.105469 C 39.519531 14.160156 37.175781 15.128906 35.167969 15.960938 C 33.625 16.597656 32.277344 17.15625 31.160156 17.15625 C 30.101562 17.15625 28.832031 16.601562 27.371094 15.964844 C 25.410156 15.109375 23.105469 14.105469 20.519531 14.105469 C 15.730469 14.105469 6.273438 18.078125 6.273438 33.414062 C 6.273438 41.542969 14.660156 58.480469 21.738281 58.265625 C 23.265625 58.265625 24.898438 57.632812 26.519531 57.003906 C 28.117188 56.386719 29.699219 55.769531 31.160156 55.769531 C 32.570312 55.769531 34.160156 56.382812 35.769531 56.996094 Z M 35.769531 56.996094 " fill-opacity="1" fill-rule="nonzero"></path></g></svg>