<svg xmlns="http://www.w3.org/2000/svg" xmlns:xlink="http://www.w3.org/1999/xlink" width="80" viewBox="0 0 60 60" height="80" preserveAspectRatio="xMidYMid meet"><defs><clipPath id="id1"><path d="M 3.300781 1 L 58 1 L 58 59 L 3.300781 59 Z M 3.300781 1 " clip-rule="nonzero"></path></clipPath></defs><g clip-path="url(#id1)"><path fill="#ffffff" d="M 57.628906 14.421875 C 57.648438 14.5 57.660156 14.574219 57.660156 14.652344 L 57.660156 26.808594 C 57.660156 26.964844 57.621094 27.117188 57.542969 27.253906 C 57.464844 27.386719 57.355469 27.5 57.21875 27.578125 L 47.136719 33.449219 L 47.136719 45.09375 C 47.136719 45.410156 46.972656 45.703125 46.699219 45.859375 L 25.65625 58.121094 C 25.605469 58.148438 25.554688 58.164062 25.503906 58.183594 C 25.480469 58.191406 25.464844 58.203125 25.441406 58.207031 C 25.296875 58.246094 25.140625 58.246094 24.992188 58.207031 C 24.96875 58.203125 24.949219 58.1875 24.925781 58.179688 C 24.875 58.160156 24.828125 58.144531 24.78125 58.121094 L 3.738281 45.859375 C 3.605469 45.785156 3.496094 45.671875 3.417969 45.535156 C 3.339844 45.402344 3.300781 45.25 3.300781 45.09375 L 3.300781 8.628906 C 3.300781 8.550781 3.3125 8.472656 3.332031 8.394531 C 3.335938 8.371094 3.351562 8.347656 3.359375 8.320312 C 3.378906 8.277344 3.394531 8.226562 3.417969 8.183594 C 3.433594 8.15625 3.457031 8.132812 3.476562 8.105469 C 3.503906 8.070312 3.527344 8.035156 3.554688 8.003906 C 3.582031 7.976562 3.613281 7.957031 3.640625 7.9375 C 3.671875 7.910156 3.703125 7.882812 3.738281 7.859375 L 14.261719 1.730469 C 14.394531 1.652344 14.542969 1.613281 14.699219 1.613281 C 14.851562 1.613281 15.003906 1.652344 15.136719 1.730469 L 25.65625 7.859375 L 25.660156 7.859375 C 25.695312 7.882812 25.722656 7.910156 25.753906 7.933594 C 25.785156 7.957031 25.816406 7.976562 25.839844 8.003906 C 25.871094 8.035156 25.894531 8.070312 25.917969 8.105469 C 25.9375 8.132812 25.964844 8.15625 25.976562 8.183594 C 26.003906 8.230469 26.019531 8.277344 26.035156 8.320312 C 26.042969 8.347656 26.058594 8.371094 26.066406 8.398438 C 26.085938 8.472656 26.097656 8.550781 26.097656 8.628906 L 26.097656 31.402344 L 34.863281 26.296875 L 34.863281 14.652344 C 34.863281 14.574219 34.875 14.496094 34.894531 14.421875 C 34.902344 14.394531 34.917969 14.371094 34.925781 14.347656 C 34.941406 14.300781 34.957031 14.253906 34.980469 14.210938 C 35 14.179688 35.023438 14.15625 35.039062 14.132812 C 35.066406 14.097656 35.089844 14.058594 35.121094 14.027344 C 35.144531 14.003906 35.175781 13.984375 35.207031 13.960938 C 35.238281 13.933594 35.265625 13.90625 35.300781 13.886719 L 45.824219 7.757812 C 45.957031 7.679688 46.109375 7.636719 46.261719 7.636719 C 46.414062 7.636719 46.566406 7.679688 46.699219 7.757812 L 57.222656 13.886719 C 57.257812 13.90625 57.285156 13.933594 57.320312 13.960938 C 57.347656 13.984375 57.378906 14.003906 57.402344 14.027344 C 57.433594 14.058594 57.457031 14.097656 57.484375 14.132812 C 57.503906 14.15625 57.527344 14.179688 57.542969 14.210938 C 57.566406 14.253906 57.582031 14.300781 57.597656 14.347656 C 57.609375 14.371094 57.621094 14.394531 57.628906 14.421875 Z M 55.90625 26.296875 L 55.90625 16.1875 L 52.222656 18.332031 L 47.136719 21.296875 L 47.136719 31.402344 Z M 45.386719 44.578125 L 45.386719 34.464844 L 40.382812 37.355469 L 26.09375 45.605469 L 26.09375 55.816406 Z M 5.054688 10.164062 L 5.054688 44.578125 L 24.339844 55.816406 L 24.339844 45.609375 L 14.265625 39.839844 L 14.257812 39.832031 C 14.222656 39.8125 14.195312 39.785156 14.164062 39.761719 C 14.136719 39.738281 14.105469 39.71875 14.082031 39.695312 L 14.078125 39.691406 C 14.050781 39.664062 14.03125 39.628906 14.003906 39.601562 C 13.984375 39.570312 13.957031 39.542969 13.941406 39.511719 L 13.9375 39.511719 C 13.917969 39.476562 13.90625 39.4375 13.894531 39.398438 C 13.878906 39.367188 13.859375 39.335938 13.851562 39.300781 L 13.851562 39.296875 C 13.839844 39.257812 13.839844 39.210938 13.832031 39.167969 C 13.828125 39.136719 13.820312 39.101562 13.820312 39.070312 L 13.820312 15.269531 L 8.734375 12.308594 Z M 14.699219 3.523438 L 5.933594 8.628906 L 14.695312 13.734375 L 23.460938 8.628906 L 14.695312 3.523438 Z M 19.257812 35.386719 L 24.34375 32.425781 L 24.34375 10.164062 L 20.660156 12.308594 L 15.574219 15.269531 L 15.574219 37.53125 Z M 46.261719 9.546875 L 37.496094 14.652344 L 46.261719 19.761719 L 55.027344 14.652344 Z M 45.386719 21.296875 L 40.300781 18.332031 L 36.617188 16.1875 L 36.617188 26.296875 L 41.703125 29.257812 L 45.386719 31.402344 Z M 25.21875 44.074219 L 38.074219 36.648438 L 44.5 32.933594 L 35.742188 27.832031 L 25.65625 33.707031 L 16.464844 39.0625 Z M 25.21875 44.074219 " fill-opacity="1" fill-rule="nonzero"></path></g></svg>