<svg xmlns="http://www.w3.org/2000/svg" xmlns:xlink="http://www.w3.org/1999/xlink" width="80" viewBox="0 0 60 60" height="80" preserveAspectRatio="xMidYMid meet"><defs><clipPath id="id1"><path d="M 0.710938 3 L 59.210938 3 L 59.210938 56 L 0.710938 56 Z M 0.710938 3 " clip-rule="nonzero"></path></clipPath></defs><g clip-path="url(#id1)"><path fill="#ffffff" d="M 48.769531 20.78125 C 48.167969 20.570312 47.539062 20.375 46.890625 20.1875 C 47 19.757812 47.097656 19.328125 47.183594 18.910156 C 48.605469 12.023438 47.675781 6.472656 44.5 4.648438 C 41.453125 2.894531 36.472656 4.722656 31.441406 9.089844 C 30.960938 9.507812 30.472656 9.953125 29.988281 10.417969 C 29.667969 10.109375 29.34375 9.8125 29.023438 9.527344 C 23.75 4.859375 18.46875 2.890625 15.292969 4.722656 C 12.25 6.480469 11.351562 11.695312 12.632812 18.222656 C 12.753906 18.855469 12.898438 19.5 13.0625 20.152344 C 12.316406 20.363281 11.59375 20.589844 10.902344 20.832031 C 4.722656 22.980469 0.773438 26.347656 0.773438 29.84375 C 0.773438 33.449219 5.011719 37.070312 11.449219 39.265625 C 11.957031 39.441406 12.484375 39.605469 13.027344 39.757812 C 12.851562 40.464844 12.699219 41.160156 12.570312 41.835938 C 11.347656 48.253906 12.300781 53.34375 15.335938 55.089844 C 18.46875 56.894531 23.730469 55.039062 28.851562 50.574219 C 29.257812 50.222656 29.664062 49.847656 30.070312 49.457031 C 30.597656 49.960938 31.125 50.441406 31.648438 50.890625 C 36.609375 55.148438 41.511719 56.867188 44.539062 55.121094 C 47.671875 53.3125 48.691406 47.839844 47.367188 41.183594 C 47.269531 40.671875 47.148438 40.15625 47.019531 39.625 C 47.386719 39.515625 47.75 39.402344 48.105469 39.289062 C 54.796875 37.074219 59.148438 33.5 59.148438 29.84375 C 59.148438 26.335938 55.074219 22.945312 48.769531 20.78125 Z M 47.320312 36.925781 C 47 37.03125 46.671875 37.132812 46.339844 37.230469 C 45.601562 34.898438 44.605469 32.417969 43.382812 29.855469 C 44.546875 27.351562 45.503906 24.902344 46.222656 22.585938 C 46.820312 22.757812 47.398438 22.941406 47.957031 23.132812 C 53.359375 24.988281 56.65625 27.730469 56.65625 29.84375 C 56.65625 32.09375 53.097656 35.015625 47.320312 36.925781 Z M 44.921875 41.664062 C 45.507812 44.609375 45.589844 47.269531 45.203125 49.351562 C 44.855469 51.21875 44.15625 52.46875 43.289062 52.964844 C 41.449219 54.027344 37.515625 52.648438 33.277344 49.003906 C 32.789062 48.585938 32.296875 48.140625 31.808594 47.667969 C 33.453125 45.875 35.09375 43.789062 36.699219 41.472656 C 39.519531 41.222656 42.1875 40.8125 44.605469 40.257812 C 44.726562 40.738281 44.828125 41.207031 44.921875 41.664062 Z M 20.675781 52.78125 C 18.878906 53.414062 17.449219 53.433594 16.582031 52.9375 C 14.742188 51.875 13.976562 47.785156 15.019531 42.300781 C 15.140625 41.675781 15.28125 41.027344 15.445312 40.367188 C 17.835938 40.894531 20.484375 41.277344 23.3125 41.503906 C 24.929688 43.769531 26.621094 45.855469 28.324219 47.679688 C 27.953125 48.039062 27.582031 48.378906 27.210938 48.699219 C 24.945312 50.675781 22.675781 52.078125 20.675781 52.78125 Z M 12.257812 36.914062 C 9.410156 35.941406 7.058594 34.679688 5.449219 33.304688 C 4 32.066406 3.269531 30.839844 3.269531 29.84375 C 3.269531 27.722656 6.4375 25.019531 11.722656 23.179688 C 12.367188 22.957031 13.035156 22.746094 13.734375 22.550781 C 14.464844 24.917969 15.421875 27.398438 16.578125 29.902344 C 15.40625 32.445312 14.433594 34.964844 13.699219 37.363281 C 13.199219 37.21875 12.71875 37.070312 12.257812 36.914062 Z M 15.078125 17.746094 C 13.980469 12.152344 14.710938 7.933594 16.542969 6.875 C 18.496094 5.75 22.816406 7.355469 27.367188 11.386719 C 27.65625 11.644531 27.949219 11.914062 28.242188 12.195312 C 26.546875 14.011719 24.871094 16.078125 23.269531 18.332031 C 20.523438 18.585938 17.898438 18.996094 15.480469 19.539062 C 15.328125 18.929688 15.195312 18.332031 15.078125 17.746094 Z M 40.257812 23.949219 C 39.679688 22.953125 39.089844 21.980469 38.484375 21.035156 C 40.347656 21.269531 42.128906 21.582031 43.804688 21.964844 C 43.304688 23.574219 42.675781 25.253906 41.9375 26.980469 C 41.410156 25.976562 40.847656 24.964844 40.257812 23.949219 Z M 29.988281 13.972656 C 31.140625 15.214844 32.292969 16.601562 33.425781 18.109375 C 32.285156 18.054688 31.128906 18.027344 29.960938 18.027344 C 28.808594 18.027344 27.660156 18.054688 26.527344 18.105469 C 27.660156 16.617188 28.824219 15.230469 29.988281 13.972656 Z M 19.65625 23.964844 C 19.078125 24.964844 18.53125 25.96875 18.007812 26.976562 C 17.28125 25.257812 16.660156 23.570312 16.152344 21.9375 C 17.820312 21.566406 19.59375 21.261719 21.445312 21.03125 C 20.832031 21.984375 20.234375 22.964844 19.65625 23.964844 Z M 21.5 38.832031 C 19.585938 38.617188 17.785156 38.332031 16.117188 37.96875 C 16.632812 36.308594 17.269531 34.582031 18.011719 32.828125 C 18.535156 33.835938 19.085938 34.839844 19.667969 35.839844 C 20.257812 36.859375 20.871094 37.855469 21.5 38.832031 Z M 30.058594 45.890625 C 28.878906 44.617188 27.699219 43.210938 26.546875 41.695312 C 27.664062 41.738281 28.804688 41.761719 29.960938 41.761719 C 31.152344 41.761719 32.328125 41.734375 33.484375 41.683594 C 32.351562 43.226562 31.199219 44.636719 30.058594 45.890625 Z M 41.960938 32.738281 C 42.742188 34.511719 43.402344 36.226562 43.921875 37.863281 C 42.230469 38.246094 40.402344 38.554688 38.476562 38.789062 C 39.082031 37.828125 39.679688 36.839844 40.269531 35.824219 C 40.863281 34.796875 41.429688 33.765625 41.960938 32.738281 Z M 38.109375 34.582031 C 37.195312 36.160156 36.257812 37.664062 35.308594 39.085938 C 33.578125 39.210938 31.785156 39.273438 29.960938 39.273438 C 28.144531 39.273438 26.378906 39.21875 24.675781 39.109375 C 23.6875 37.667969 22.730469 36.15625 21.824219 34.59375 C 20.921875 33.035156 20.085938 31.464844 19.332031 29.902344 C 20.085938 28.335938 20.917969 26.761719 21.816406 25.207031 C 22.71875 23.648438 23.667969 22.144531 24.648438 20.714844 C 26.382812 20.582031 28.164062 20.515625 29.960938 20.515625 C 31.769531 20.515625 33.550781 20.582031 35.289062 20.714844 C 36.253906 22.136719 37.195312 23.636719 38.101562 25.195312 C 39.015625 26.773438 39.855469 28.335938 40.617188 29.867188 C 39.859375 31.425781 39.019531 33.003906 38.109375 34.582031 Z M 43.253906 6.800781 C 45.207031 7.925781 45.96875 12.460938 44.738281 18.40625 C 44.660156 18.789062 44.574219 19.171875 44.476562 19.566406 C 42.054688 19.007812 39.425781 18.59375 36.671875 18.335938 C 35.066406 16.058594 33.40625 13.984375 31.738281 12.191406 C 32.1875 11.761719 32.636719 11.351562 33.078125 10.964844 C 37.390625 7.222656 41.417969 5.746094 43.253906 6.800781 Z M 29.960938 24.640625 C 32.839844 24.640625 35.175781 26.96875 35.175781 29.84375 C 35.175781 32.714844 32.839844 35.042969 29.960938 35.042969 C 27.085938 35.042969 24.75 32.714844 24.75 29.84375 C 24.75 26.96875 27.085938 24.640625 29.960938 24.640625 Z M 29.960938 24.640625 " fill-opacity="1" fill-rule="nonzero"></path></g></svg>