<svg xmlns="http://www.w3.org/2000/svg" xmlns:xlink="http://www.w3.org/1999/xlink" width="80" viewBox="0 0 60 60" height="80" preserveAspectRatio="xMidYMid meet"><defs><clipPath id="id1"><path d="M 2.210938 4 L 55 4 L 55 56 L 2.210938 56 Z M 2.210938 4 " clip-rule="nonzero"></path></clipPath></defs><g clip-path="url(#id1)"><path fill="#ffffff" d="M 16.886719 55.421875 C 17.449219 55.695312 18.070312 55.839844 18.699219 55.835938 L 38.515625 55.800781 C 39.144531 55.796875 39.761719 55.648438 40.328125 55.375 C 40.890625 55.097656 41.390625 54.699219 41.785156 54.207031 L 54.082031 38.789062 C 54.476562 38.285156 54.753906 37.699219 54.894531 37.074219 C 55.035156 36.449219 55.03125 35.796875 54.890625 35.171875 L 50.496094 15.925781 C 50.355469 15.304688 50.078125 14.722656 49.683594 14.222656 C 49.285156 13.726562 48.78125 13.328125 48.210938 13.054688 L 30.433594 4.511719 C 29.863281 4.234375 29.238281 4.085938 28.605469 4.085938 C 27.972656 4.085938 27.347656 4.234375 26.78125 4.511719 L 9.007812 13.089844 C 8.433594 13.363281 7.933594 13.761719 7.535156 14.261719 C 7.140625 14.757812 6.863281 15.339844 6.722656 15.960938 L 2.332031 35.207031 C 2.179688 35.832031 2.171875 36.484375 2.3125 37.113281 C 2.453125 37.738281 2.734375 38.324219 3.136719 38.824219 L 15.433594 54.242188 C 15.824219 54.742188 16.320312 55.144531 16.886719 55.421875 Z M 46.351562 33.859375 L 46.382812 33.859375 C 46.648438 33.929688 46.890625 34.074219 47.074219 34.285156 C 47.253906 34.492188 47.367188 34.753906 47.398438 35.03125 C 47.320312 35.269531 47.171875 35.476562 46.96875 35.621094 C 46.765625 35.769531 46.523438 35.847656 46.277344 35.847656 C 46.179688 35.851562 46.085938 35.839844 45.996094 35.8125 C 45.980469 35.796875 45.964844 35.785156 45.945312 35.78125 C 45.929688 35.773438 45.910156 35.773438 45.890625 35.773438 C 45.855469 35.773438 45.820312 35.765625 45.785156 35.757812 C 45.75 35.75 45.714844 35.738281 45.679688 35.738281 C 45.460938 35.679688 45.25 35.597656 45.046875 35.492188 C 44.992188 35.472656 44.941406 35.449219 44.886719 35.421875 C 44.835938 35.394531 44.78125 35.367188 44.730469 35.351562 L 44.695312 35.351562 C 44.109375 35.105469 43.496094 34.925781 42.867188 34.816406 L 42.796875 34.816406 C 42.632812 34.832031 42.476562 34.894531 42.34375 34.996094 C 42.324219 34.996094 42.316406 35.003906 42.308594 35.011719 C 42.296875 35.023438 42.289062 35.03125 42.273438 35.03125 L 41.851562 34.960938 C 40.816406 38.210938 38.640625 40.972656 35.738281 42.726562 L 35.914062 43.148438 C 35.914062 43.167969 35.90625 43.175781 35.894531 43.183594 C 35.886719 43.195312 35.878906 43.203125 35.878906 43.222656 C 35.8125 43.402344 35.800781 43.597656 35.84375 43.789062 C 36.082031 44.375 36.386719 44.933594 36.753906 45.449219 L 36.753906 45.484375 C 36.789062 45.539062 36.824219 45.582031 36.859375 45.625 C 36.894531 45.667969 36.929688 45.714844 36.964844 45.769531 C 37.113281 45.941406 37.246094 46.132812 37.351562 46.335938 C 37.394531 46.390625 37.429688 46.449219 37.457031 46.511719 C 37.457031 46.53125 37.46875 46.539062 37.476562 46.546875 C 37.484375 46.558594 37.492188 46.566406 37.492188 46.582031 C 37.621094 46.859375 37.644531 47.175781 37.5625 47.46875 C 37.523438 47.609375 37.453125 47.738281 37.363281 47.847656 C 37.269531 47.957031 37.15625 48.046875 37.027344 48.113281 C 36.898438 48.179688 36.753906 48.21875 36.605469 48.21875 C 36.386719 48.214844 36.171875 48.152344 35.984375 48.03125 C 35.796875 47.914062 35.648438 47.742188 35.550781 47.542969 C 35.535156 47.523438 35.519531 47.5 35.519531 47.472656 C 35.5 47.4375 35.484375 47.410156 35.464844 47.386719 C 35.449219 47.359375 35.429688 47.332031 35.410156 47.296875 C 35.324219 47.089844 35.253906 46.875 35.203125 46.65625 L 35.09375 46.339844 L 35.09375 46.300781 C 34.894531 45.691406 34.648438 45.101562 34.359375 44.53125 C 34.308594 44.445312 34.242188 44.375 34.164062 44.320312 C 34.085938 44.265625 33.996094 44.226562 33.902344 44.210938 C 33.867188 44.175781 33.867188 44.175781 33.832031 44.175781 L 33.621094 43.785156 C 33.023438 44 32.414062 44.179688 31.792969 44.316406 C 30.792969 44.558594 29.769531 44.679688 28.742188 44.671875 C 27.0625 44.671875 25.394531 44.359375 23.828125 43.75 L 23.582031 44.210938 C 23.558594 44.230469 23.550781 44.238281 23.542969 44.242188 C 23.535156 44.246094 23.527344 44.246094 23.511719 44.246094 C 23.328125 44.300781 23.167969 44.414062 23.054688 44.566406 C 22.742188 45.125 22.492188 45.71875 22.316406 46.339844 L 22.210938 46.65625 C 22.152344 46.875 22.082031 47.085938 22 47.296875 C 21.957031 47.347656 21.921875 47.410156 21.894531 47.472656 C 21.875 47.492188 21.863281 47.515625 21.859375 47.542969 C 21.757812 47.738281 21.605469 47.902344 21.421875 48.019531 C 21.234375 48.140625 21.023438 48.207031 20.804688 48.21875 C 20.660156 48.21875 20.515625 48.179688 20.382812 48.113281 C 20.253906 48.042969 20.140625 47.949219 20.046875 47.835938 C 19.953125 47.71875 19.882812 47.589844 19.839844 47.445312 C 19.796875 47.304688 19.785156 47.15625 19.800781 47.007812 C 19.8125 46.859375 19.859375 46.71875 19.925781 46.589844 C 19.945312 46.570312 19.957031 46.542969 19.960938 46.515625 C 19.988281 46.453125 20.023438 46.394531 20.066406 46.339844 C 20.105469 46.285156 20.140625 46.230469 20.175781 46.175781 C 20.265625 46.035156 20.351562 45.902344 20.453125 45.773438 C 20.488281 45.71875 20.523438 45.675781 20.558594 45.632812 C 20.59375 45.589844 20.628906 45.542969 20.664062 45.488281 L 20.664062 45.453125 C 21.023438 44.929688 21.328125 44.371094 21.578125 43.789062 C 21.605469 43.695312 21.613281 43.59375 21.601562 43.496094 C 21.589844 43.402344 21.558594 43.304688 21.507812 43.222656 C 21.507812 43.203125 21.5 43.195312 21.492188 43.1875 C 21.484375 43.175781 21.472656 43.167969 21.472656 43.152344 L 21.683594 42.691406 C 21.160156 42.378906 20.65625 42.039062 20.175781 41.664062 C 18.023438 39.949219 16.421875 37.628906 15.574219 35 L 15.082031 35.070312 C 15.0625 35.070312 15.054688 35.058594 15.046875 35.050781 C 15.039062 35.042969 15.027344 35.035156 15.011719 35.035156 C 14.882812 34.925781 14.722656 34.863281 14.554688 34.855469 L 14.480469 34.855469 C 13.855469 34.964844 13.242188 35.144531 12.652344 35.386719 L 12.617188 35.386719 C 12.566406 35.40625 12.511719 35.433594 12.460938 35.460938 C 12.40625 35.484375 12.355469 35.511719 12.300781 35.53125 C 12.101562 35.632812 11.886719 35.71875 11.667969 35.777344 C 11.636719 35.777344 11.601562 35.789062 11.5625 35.796875 C 11.527344 35.804688 11.492188 35.8125 11.460938 35.8125 C 11.460938 35.847656 11.425781 35.847656 11.390625 35.847656 C 11.296875 35.878906 11.203125 35.890625 11.109375 35.882812 C 10.855469 35.902344 10.605469 35.832031 10.398438 35.683594 C 10.195312 35.53125 10.046875 35.316406 9.984375 35.070312 C 9.941406 34.773438 10.011719 34.472656 10.179688 34.230469 C 10.351562 33.984375 10.609375 33.816406 10.898438 33.757812 C 10.910156 33.742188 10.929688 33.734375 10.945312 33.726562 C 10.964844 33.722656 10.984375 33.71875 11.003906 33.722656 C 11.039062 33.722656 11.074219 33.714844 11.109375 33.703125 C 11.144531 33.695312 11.179688 33.6875 11.214844 33.6875 C 11.4375 33.648438 11.660156 33.625 11.882812 33.617188 C 12 33.585938 12.117188 33.574219 12.234375 33.582031 L 12.269531 33.582031 C 12.914062 33.542969 13.550781 33.4375 14.167969 33.261719 C 14.335938 33.179688 14.472656 33.042969 14.554688 32.871094 C 14.554688 32.855469 14.5625 32.84375 14.570312 32.835938 C 14.582031 32.828125 14.589844 32.820312 14.589844 32.800781 L 15.046875 32.660156 C 14.574219 29.402344 15.273438 26.085938 17.011719 23.300781 C 17.058594 23.199219 17.117188 23.105469 17.1875 23.019531 L 16.835938 22.699219 L 16.835938 22.628906 C 16.847656 22.53125 16.839844 22.433594 16.808594 22.34375 C 16.777344 22.25 16.726562 22.167969 16.660156 22.097656 C 16.171875 21.679688 15.640625 21.3125 15.082031 20.996094 C 14.984375 20.925781 14.878906 20.863281 14.765625 20.820312 C 14.558594 20.714844 14.359375 20.597656 14.167969 20.464844 C 14.132812 20.449219 14.105469 20.421875 14.082031 20.394531 C 14.054688 20.367188 14.027344 20.339844 13.992188 20.324219 C 13.976562 20.324219 13.964844 20.3125 13.957031 20.304688 C 13.949219 20.296875 13.941406 20.289062 13.921875 20.289062 C 13.691406 20.101562 13.535156 19.835938 13.488281 19.539062 C 13.445312 19.242188 13.511719 18.941406 13.675781 18.691406 C 13.773438 18.570312 13.894531 18.46875 14.035156 18.402344 C 14.175781 18.332031 14.328125 18.300781 14.484375 18.304688 C 14.765625 18.304688 15.039062 18.40625 15.257812 18.585938 C 15.257812 18.609375 15.273438 18.617188 15.289062 18.628906 C 15.300781 18.636719 15.316406 18.644531 15.328125 18.65625 C 15.371094 18.699219 15.410156 18.726562 15.445312 18.753906 C 15.46875 18.769531 15.488281 18.785156 15.503906 18.796875 C 15.664062 18.957031 15.816406 19.121094 15.960938 19.292969 C 16.050781 19.367188 16.132812 19.453125 16.207031 19.542969 C 16.628906 20.027344 17.097656 20.46875 17.609375 20.855469 C 17.703125 20.921875 17.8125 20.957031 17.925781 20.960938 C 17.960938 20.960938 17.996094 20.953125 18.03125 20.945312 C 18.066406 20.933594 18.101562 20.925781 18.136719 20.925781 L 18.207031 20.925781 L 18.558594 21.171875 C 20.429688 19.171875 22.855469 17.789062 25.515625 17.203125 C 26.144531 17.074219 26.777344 16.976562 27.414062 16.917969 L 27.449219 16.457031 L 27.519531 16.386719 C 27.667969 16.273438 27.769531 16.109375 27.800781 15.925781 C 27.832031 15.285156 27.796875 14.644531 27.695312 14.011719 L 27.695312 13.976562 C 27.679688 13.910156 27.671875 13.855469 27.660156 13.800781 C 27.652344 13.738281 27.644531 13.679688 27.625 13.621094 C 27.550781 13.40625 27.515625 13.175781 27.519531 12.945312 L 27.519531 12.664062 C 27.515625 12.511719 27.542969 12.363281 27.59375 12.222656 C 27.648438 12.082031 27.730469 11.957031 27.835938 11.847656 C 27.984375 11.679688 28.183594 11.566406 28.402344 11.515625 C 28.621094 11.46875 28.851562 11.492188 29.054688 11.582031 C 29.261719 11.671875 29.433594 11.824219 29.546875 12.019531 C 29.664062 12.210938 29.714844 12.4375 29.695312 12.664062 L 29.695312 12.980469 C 29.660156 13.234375 29.625 13.445312 29.589844 13.65625 L 29.589844 13.660156 C 29.550781 13.773438 29.527344 13.890625 29.519531 14.011719 L 29.519531 14.046875 C 29.4375 14.683594 29.402344 15.324219 29.414062 15.960938 C 29.449219 16.144531 29.546875 16.3125 29.695312 16.421875 L 29.765625 16.492188 L 29.800781 16.953125 C 32.476562 17.207031 35.027344 18.226562 37.144531 19.898438 C 37.648438 20.316406 38.128906 20.765625 38.585938 21.242188 L 39.007812 20.960938 L 39.078125 20.960938 C 39.140625 20.988281 39.214844 21 39.285156 20.996094 C 39.402344 20.992188 39.511719 20.953125 39.601562 20.886719 C 40.113281 20.515625 40.585938 20.085938 41.007812 19.609375 C 41.097656 19.539062 41.179688 19.453125 41.253906 19.363281 C 41.398438 19.1875 41.550781 19.023438 41.710938 18.867188 C 41.746094 18.847656 41.773438 18.824219 41.796875 18.796875 C 41.824219 18.769531 41.851562 18.742188 41.886719 18.726562 L 41.957031 18.65625 C 42.175781 18.476562 42.445312 18.378906 42.726562 18.367188 C 42.882812 18.367188 43.039062 18.398438 43.175781 18.46875 C 43.316406 18.535156 43.441406 18.636719 43.535156 18.757812 C 43.703125 19.007812 43.769531 19.308594 43.722656 19.605469 C 43.679688 19.902344 43.523438 20.167969 43.289062 20.355469 C 43.289062 20.375 43.277344 20.382812 43.257812 20.394531 C 43.246094 20.402344 43.234375 20.410156 43.21875 20.425781 C 43.179688 20.464844 43.136719 20.496094 43.101562 20.519531 C 43.078125 20.539062 43.058594 20.550781 43.042969 20.566406 C 42.855469 20.699219 42.65625 20.816406 42.449219 20.921875 C 42.394531 20.957031 42.34375 20.984375 42.289062 21.011719 C 42.238281 21.035156 42.183594 21.0625 42.132812 21.097656 C 41.570312 21.414062 41.039062 21.785156 40.546875 22.199219 C 40.429688 22.351562 40.367188 22.539062 40.371094 22.730469 L 40.371094 22.800781 L 40.019531 23.121094 C 40.9375 24.542969 41.605469 26.113281 41.988281 27.765625 C 42.367188 29.402344 42.449219 31.09375 42.234375 32.761719 L 42.691406 32.90625 C 42.691406 32.921875 42.699219 32.929688 42.707031 32.941406 C 42.71875 32.949219 42.726562 32.957031 42.726562 32.976562 C 42.761719 33.0625 42.8125 33.144531 42.878906 33.210938 C 42.945312 33.277344 43.023438 33.332031 43.113281 33.363281 C 43.730469 33.539062 44.367188 33.644531 45.007812 33.683594 L 45.046875 33.683594 C 45.164062 33.710938 45.28125 33.722656 45.398438 33.71875 C 45.625 33.726562 45.847656 33.75 46.070312 33.789062 C 46.105469 33.789062 46.140625 33.800781 46.175781 33.808594 C 46.210938 33.816406 46.246094 33.824219 46.28125 33.824219 C 46.28125 33.859375 46.316406 33.859375 46.351562 33.859375 Z M 28.570312 32.867188 L 30.117188 32.125 L 30.46875 30.457031 L 29.414062 29.109375 L 27.691406 29.109375 L 26.640625 30.457031 L 27.023438 32.125 Z M 39.53125 32.015625 C 39.640625 30.820312 39.558594 29.609375 39.285156 28.4375 C 39.019531 27.25 38.570312 26.113281 37.949219 25.070312 L 33.699219 28.933594 C 33.59375 29.042969 33.523438 29.175781 33.488281 29.324219 C 33.433594 29.5625 33.472656 29.8125 33.597656 30.023438 C 33.722656 30.234375 33.921875 30.390625 34.15625 30.457031 Z M 31.664062 26.238281 L 36.265625 22.941406 C 34.5625 21.222656 32.335938 20.136719 29.941406 19.859375 L 30.257812 25.636719 C 30.28125 25.78125 30.339844 25.917969 30.433594 26.027344 C 30.578125 26.207031 30.78125 26.332031 31.007812 26.371094 C 31.234375 26.410156 31.46875 26.363281 31.664062 26.238281 Z M 26.640625 19.929688 C 26.457031 19.964844 26.269531 20 26.078125 20.035156 C 24.09375 20.484375 22.277344 21.492188 20.84375 22.945312 L 25.515625 26.3125 C 25.644531 26.382812 25.789062 26.421875 25.9375 26.417969 C 26.179688 26.414062 26.414062 26.316406 26.59375 26.148438 C 26.769531 25.976562 26.875 25.742188 26.886719 25.496094 L 27.203125 19.824219 C 27.007812 19.859375 26.824219 19.894531 26.640625 19.929688 Z M 23.335938 28.828125 L 19.15625 25.070312 C 17.910156 27.15625 17.355469 29.589844 17.574219 32.015625 L 23.023438 30.421875 C 23.191406 30.382812 23.34375 30.285156 23.441406 30.140625 C 23.597656 29.949219 23.675781 29.707031 23.652344 29.460938 C 23.632812 29.214844 23.519531 28.988281 23.335938 28.828125 Z M 23.792969 33.71875 L 18.207031 34.675781 L 18.203125 34.675781 C 19.027344 36.964844 20.570312 38.917969 22.597656 40.242188 L 24.742188 35.03125 C 24.808594 34.847656 24.820312 34.652344 24.777344 34.464844 C 24.726562 34.242188 24.601562 34.042969 24.421875 33.910156 C 24.242188 33.773438 24.019531 33.703125 23.792969 33.71875 Z M 28.574219 42.011719 C 29.398438 42.007812 30.222656 41.914062 31.03125 41.730469 L 31.035156 41.730469 C 31.191406 41.683594 31.347656 41.640625 31.5 41.601562 C 31.691406 41.554688 31.878906 41.503906 32.054688 41.445312 L 29.347656 36.519531 C 29.230469 36.363281 29.089844 36.230469 28.925781 36.128906 C 28.738281 36.035156 28.523438 36.007812 28.320312 36.054688 C 28.117188 36.101562 27.933594 36.214844 27.800781 36.378906 L 25.023438 41.445312 C 26.171875 41.816406 27.367188 42.007812 28.574219 42.011719 Z M 34.511719 40.242188 C 35.867188 39.355469 37.019531 38.179688 37.882812 36.800781 C 38.339844 36.144531 38.6875 35.414062 38.902344 34.640625 L 33.28125 33.683594 C 33.109375 33.679688 32.941406 33.71875 32.789062 33.789062 C 32.59375 33.886719 32.4375 34.050781 32.347656 34.25 C 32.257812 34.449219 32.242188 34.675781 32.296875 34.890625 Z M 34.511719 40.242188 " fill-opacity="1" fill-rule="evenodd"></path></g></svg>