<svg xmlns="http://www.w3.org/2000/svg" xmlns:xlink="http://www.w3.org/1999/xlink" width="80" viewBox="0 0 60 60" height="80" preserveAspectRatio="xMidYMid meet"><defs><clipPath id="id1"><path d="M 1.351562 19 L 39 19 L 39 41 L 1.351562 41 Z M 1.351562 19 " clip-rule="nonzero"></path></clipPath></defs><g clip-path="url(#id1)"><path fill="#ffffff" d="M 5.683594 25.675781 C 5.570312 25.675781 5.542969 25.621094 5.597656 25.535156 L 6.183594 24.785156 C 6.242188 24.703125 6.382812 24.644531 6.492188 24.644531 L 16.46875 24.644531 C 16.582031 24.644531 16.609375 24.730469 16.554688 24.8125 L 16.078125 25.535156 C 16.023438 25.621094 15.882812 25.703125 15.800781 25.703125 Z M 1.460938 28.238281 C 1.351562 28.238281 1.320312 28.179688 1.378906 28.097656 L 1.964844 27.347656 C 2.019531 27.261719 2.160156 27.207031 2.273438 27.207031 L 15.015625 27.207031 C 15.128906 27.207031 15.183594 27.289062 15.15625 27.375 L 14.933594 28.042969 C 14.90625 28.152344 14.792969 28.210938 14.683594 28.210938 Z M 8.226562 30.796875 C 8.113281 30.796875 8.085938 30.714844 8.140625 30.632812 L 8.53125 29.933594 C 8.589844 29.851562 8.699219 29.769531 8.8125 29.769531 L 14.402344 29.769531 C 14.515625 29.769531 14.570312 29.851562 14.570312 29.964844 L 14.515625 30.632812 C 14.515625 30.742188 14.402344 30.828125 14.320312 30.828125 Z M 37.238281 25.175781 C 35.476562 25.621094 34.273438 25.953125 32.542969 26.398438 C 32.121094 26.511719 32.09375 26.539062 31.730469 26.121094 C 31.3125 25.648438 31.003906 25.339844 30.417969 25.0625 C 28.65625 24.199219 26.953125 24.449219 25.359375 25.480469 C 23.457031 26.707031 22.480469 28.515625 22.507812 30.769531 C 22.535156 32.996094 24.074219 34.835938 26.28125 35.140625 C 28.179688 35.390625 29.773438 34.722656 31.03125 33.304688 C 31.285156 32.996094 31.507812 32.664062 31.785156 32.273438 L 26.394531 32.273438 C 25.804688 32.273438 25.664062 31.910156 25.863281 31.4375 C 26.226562 30.574219 26.894531 29.128906 27.285156 28.402344 C 27.371094 28.238281 27.566406 27.957031 27.984375 27.957031 L 38.160156 27.957031 C 38.101562 28.710938 38.101562 29.460938 37.992188 30.214844 C 37.683594 32.21875 36.929688 34.054688 35.699219 35.671875 C 33.6875 38.316406 31.058594 39.957031 27.734375 40.402344 C 24.996094 40.765625 22.453125 40.234375 20.214844 38.566406 C 18.148438 37.007812 16.972656 34.945312 16.667969 32.386719 C 16.304688 29.351562 17.199219 26.621094 19.042969 24.226562 C 21.027344 21.640625 23.652344 19.996094 26.867188 19.410156 C 29.496094 18.9375 32.011719 19.246094 34.273438 20.777344 C 35.753906 21.75 36.816406 23.085938 37.515625 24.703125 C 37.683594 24.953125 37.574219 25.089844 37.238281 25.175781 Z M 37.238281 25.175781 " fill-opacity="1" fill-rule="nonzero"></path></g><path fill="#ffffff" d="M 46.488281 40.566406 C 43.945312 40.511719 41.625 39.789062 39.667969 38.117188 C 38.019531 36.699219 36.984375 34.886719 36.652344 32.746094 C 36.148438 29.597656 37.015625 26.816406 38.914062 24.335938 C 40.953125 21.664062 43.414062 20.273438 46.742188 19.6875 C 49.589844 19.1875 52.273438 19.464844 54.707031 21.109375 C 56.914062 22.609375 58.285156 24.644531 58.648438 27.316406 C 59.121094 31.074219 58.03125 34.136719 55.433594 36.753906 C 53.585938 38.617188 51.324219 39.789062 48.726562 40.316406 C 47.96875 40.457031 47.214844 40.484375 46.488281 40.566406 Z M 53.140625 29.320312 C 53.113281 28.957031 53.113281 28.679688 53.058594 28.402344 C 52.554688 25.644531 50.011719 24.085938 47.355469 24.699219 C 44.753906 25.285156 43.078125 26.925781 42.464844 29.542969 C 41.960938 31.714844 43.023438 33.914062 45.035156 34.804688 C 46.574219 35.472656 48.109375 35.390625 49.589844 34.636719 C 51.800781 33.496094 53 31.714844 53.140625 29.320312 Z M 53.140625 29.320312 " fill-opacity="1" fill-rule="nonzero"></path></svg>