<svg xmlns="http://www.w3.org/2000/svg" xmlns:xlink="http://www.w3.org/1999/xlink" width="80" viewBox="0 0 60 60" height="80" preserveAspectRatio="xMidYMid meet"><defs><clipPath id="id1"><path d="M 7.078125 22 L 13 22 L 13 41 L 7.078125 41 Z M 7.078125 22 " clip-rule="nonzero"></path></clipPath><clipPath id="id2"><path d="M 47.589844 22.507812 L 52.808594 22.507812 L 52.808594 40.410156 L 47.589844 40.410156 Z M 47.589844 22.507812 " clip-rule="nonzero"></path></clipPath><clipPath id="id3"><path d="M 14 22 L 46 22 L 46 59.003906 L 14 59.003906 Z M 14 22 " clip-rule="nonzero"></path></clipPath><clipPath id="id4"><path d="M 14 1.253906 L 46 1.253906 L 46 21 L 14 21 Z M 14 1.253906 " clip-rule="nonzero"></path></clipPath></defs><g clip-path="url(#id1)"><path fill="#ffffff" d="M 9.679688 22.554688 C 8.246094 22.554688 7.09375 23.675781 7.09375 25.136719 L 7.09375 37.746094 C 7.09375 39.167969 8.246094 40.328125 9.679688 40.328125 C 11.109375 40.328125 12.285156 39.167969 12.285156 37.746094 L 12.285156 25.136719 C 12.285156 23.675781 11.109375 22.554688 9.679688 22.554688 " fill-opacity="1" fill-rule="nonzero"></path></g><g clip-path="url(#id2)"><path fill="#ffffff" d="M 50.203125 22.554688 C 48.789062 22.554688 47.636719 23.675781 47.636719 25.136719 L 47.636719 37.746094 C 47.636719 39.167969 48.789062 40.328125 50.203125 40.328125 C 51.632812 40.328125 52.808594 39.167969 52.808594 37.746094 L 52.808594 25.136719 C 52.808594 23.675781 51.632812 22.554688 50.203125 22.554688 " fill-opacity="1" fill-rule="nonzero"></path></g><g clip-path="url(#id3)"><path fill="#ffffff" d="M 14.59375 22.554688 C 14.59375 22.601562 14.59375 22.601562 14.59375 22.683594 L 14.59375 45.878906 C 14.59375 48.03125 16.324219 49.796875 18.460938 49.796875 L 22.609375 49.796875 L 22.609375 56.425781 C 22.609375 57.84375 23.761719 59.003906 25.195312 59.003906 C 26.628906 59.003906 27.761719 57.84375 27.761719 56.425781 L 27.761719 49.796875 L 32.164062 49.796875 L 32.164062 56.425781 C 32.164062 57.84375 33.359375 59.003906 34.769531 59.003906 C 36.203125 59.003906 37.355469 57.84375 37.355469 56.425781 L 37.355469 49.796875 L 41.503906 49.796875 C 43.640625 49.796875 45.371094 48.03125 45.371094 45.878906 L 45.371094 22.683594 C 45.371094 22.601562 45.371094 22.601562 45.371094 22.554688 L 14.59375 22.554688 " fill-opacity="1" fill-rule="nonzero"></path></g><g clip-path="url(#id4)"><path fill="#ffffff" d="M 37.613281 14.121094 C 36.78125 14.121094 36.136719 13.476562 36.136719 12.65625 C 36.136719 11.882812 36.78125 11.238281 37.613281 11.238281 C 38.402344 11.238281 39.042969 11.882812 39.042969 12.65625 C 39.042969 13.476562 38.402344 14.121094 37.613281 14.121094 Z M 22.097656 14.121094 C 21.285156 14.121094 20.664062 13.476562 20.664062 12.65625 C 20.664062 11.882812 21.285156 11.238281 22.097656 11.238281 C 22.886719 11.238281 23.550781 11.882812 23.550781 12.65625 C 23.550781 13.476562 22.886719 14.121094 22.097656 14.121094 Z M 37.503906 6.765625 L 40.261719 1.554688 L 39.6875 1.253906 L 36.929688 6.460938 C 34.835938 5.386719 32.484375 4.742188 29.984375 4.742188 C 27.589844 4.742188 25.367188 5.34375 23.355469 6.332031 L 20.664062 1.253906 L 20.085938 1.554688 L 22.757812 6.632812 C 17.992188 9.128906 14.742188 14.25 14.679688 20.0625 L 45.265625 20.0625 C 45.242188 14.335938 42.101562 9.34375 37.503906 6.765625 " fill-opacity="1" fill-rule="nonzero"></path></g></svg>