<svg xmlns="http://www.w3.org/2000/svg" xmlns:xlink="http://www.w3.org/1999/xlink" width="80" viewBox="0 0 60 60" height="80" preserveAspectRatio="xMidYMid meet"><defs><clipPath id="id1"><path d="M 1.5 4 L 59 4 L 59 49 L 1.5 49 Z M 1.5 4 " clip-rule="nonzero"></path></clipPath></defs><g clip-path="url(#id1)"><path fill="#ffffff" d="M 27.660156 46.125 L 40.996094 43.785156 L 41.121094 43.757812 L 34.261719 35.65625 C 31.964844 32.953125 29.679688 30.238281 27.40625 27.515625 C 27.40625 27.476562 34.488281 8.105469 34.527344 8.039062 C 34.539062 8.011719 39.359375 16.277344 46.210938 28.066406 L 57.960938 48.296875 L 58.050781 48.449219 L 14.453125 48.449219 L 27.660156 46.132812 Z M 1.5 43.660156 C 1.5 43.648438 4.730469 38.074219 8.683594 31.277344 L 15.867188 18.910156 L 24.234375 11.933594 C 28.839844 8.101562 32.617188 4.957031 32.632812 4.949219 C 32.605469 5.066406 32.558594 5.179688 32.5 5.285156 L 23.410156 24.648438 L 14.480469 43.660156 L 7.992188 43.667969 C 4.421875 43.675781 1.5 43.667969 1.5 43.65625 Z M 1.5 43.660156 " fill-opacity="1" fill-rule="nonzero"></path></g></svg>