<svg xmlns="http://www.w3.org/2000/svg" xmlns:xlink="http://www.w3.org/1999/xlink" width="80" viewBox="0 0 60 60" height="80" preserveAspectRatio="xMidYMid meet"><defs><clipPath id="id1"><path d="M 2.25 21 L 31 21 L 31 50 L 2.25 50 Z M 2.25 21 " clip-rule="nonzero"></path></clipPath></defs><path fill="#ffffff" d="M 39.355469 20.039062 L 44.203125 15.171875 L 44.527344 13.121094 C 35.691406 5.058594 21.640625 5.972656 13.675781 15.027344 C 11.449219 17.59375 9.832031 20.632812 8.945312 23.917969 L 10.679688 23.671875 L 20.378906 22.066406 L 21.128906 21.300781 C 23.203125 18.996094 26.078125 17.578125 29.160156 17.328125 C 32.242188 17.078125 35.304688 18.015625 37.722656 19.953125 Z M 39.355469 20.039062 " fill-opacity="0.6" fill-rule="nonzero"></path><path fill="#ffffff" d="M 51.113281 23.777344 C 50 19.660156 47.710938 15.957031 44.527344 13.125 L 37.722656 19.953125 C 39.140625 21.117188 40.277344 22.589844 41.046875 24.257812 C 41.816406 25.925781 42.199219 27.746094 42.164062 29.582031 L 42.164062 30.792969 C 43.761719 30.792969 45.292969 31.429688 46.421875 32.5625 C 47.554688 33.695312 48.1875 35.234375 48.1875 36.835938 C 48.1875 38.441406 47.554688 39.976562 46.421875 41.109375 C 45.292969 42.246094 43.761719 42.882812 42.164062 42.882812 L 30.035156 42.882812 L 28.839844 44.179688 L 28.839844 51.46875 L 30.03125 52.609375 L 42.160156 52.609375 C 45.542969 52.648438 48.84375 51.59375 51.578125 49.597656 C 54.3125 47.601562 56.332031 44.777344 57.339844 41.535156 C 58.34375 38.296875 58.28125 34.820312 57.160156 31.621094 C 56.039062 28.421875 53.917969 25.667969 51.113281 23.773438 " fill-opacity="1" fill-rule="nonzero"></path><path fill="#ffffff" d="M 17.914062 52.613281 L 30.027344 52.613281 L 30.027344 42.882812 L 17.914062 42.882812 C 17.054688 42.882812 16.207031 42.695312 15.429688 42.335938 L 13.710938 42.863281 L 8.824219 47.730469 L 8.402344 49.386719 C 11.132812 51.476562 14.476562 52.609375 17.914062 52.613281 " fill-opacity="0.6" fill-rule="nonzero"></path><g clip-path="url(#id1)"><path fill="#ffffff" d="M 17.914062 21.042969 C 14.628906 21.0625 11.4375 22.113281 8.777344 24.042969 C 6.113281 25.972656 4.121094 28.6875 3.074219 31.808594 C 2.027344 34.929688 1.976562 38.300781 2.929688 41.453125 C 3.886719 44.605469 5.800781 47.378906 8.402344 49.386719 L 15.429688 42.335938 C 14.535156 41.929688 13.753906 41.3125 13.148438 40.539062 C 12.546875 39.765625 12.136719 38.855469 11.960938 37.886719 C 11.785156 36.917969 11.847656 35.921875 12.140625 34.984375 C 12.429688 34.046875 12.945312 33.191406 13.640625 32.496094 C 14.332031 31.800781 15.183594 31.285156 16.117188 30.992188 C 17.054688 30.699219 18.046875 30.640625 19.011719 30.816406 C 19.976562 30.992188 20.882812 31.402344 21.65625 32.007812 C 22.425781 32.613281 23.042969 33.398438 23.445312 34.296875 L 30.472656 27.246094 C 28.996094 25.308594 27.097656 23.742188 24.917969 22.667969 C 22.738281 21.59375 20.339844 21.039062 17.914062 21.046875 " fill-opacity="1" fill-rule="nonzero"></path></g></svg>