<svg xmlns="http://www.w3.org/2000/svg" xmlns:xlink="http://www.w3.org/1999/xlink" width="80" viewBox="0 0 60 60" height="80" preserveAspectRatio="xMidYMid meet"><path fill="#ffffff" d="M 24.363281 20.507812 L 29.464844 20.507812 C 30.140625 20.507812 30.6875 21.050781 30.6875 21.714844 L 30.6875 34.964844 L 34.921875 34.964844 L 34.921875 37.371094 L 29.464844 37.371094 C 28.792969 37.371094 28.242188 36.832031 28.242188 36.167969 L 28.242188 22.917969 L 24.363281 22.917969 Z M 24.363281 20.507812 " fill-opacity="1" fill-rule="evenodd"></path><path fill="#ffffff" d="M 3 4.660156 C 3 3.328125 4.09375 2.25 5.445312 2.25 L 22.453125 2.25 C 23.804688 2.25 24.898438 3.328125 24.898438 4.660156 L 24.898438 4.851562 L 3 4.851562 Z M 3 6.394531 L 3 39.25 L 24.898438 39.25 L 24.898438 6.394531 Z M 24.605469 40.792969 L 24.898438 40.792969 L 24.898438 43.007812 C 24.898438 44.339844 23.804688 45.417969 22.453125 45.417969 L 5.445312 45.417969 C 4.09375 45.417969 3 44.339844 3 43.007812 L 3 40.792969 Z M 14.730469 42.621094 C 14.730469 43.046875 14.382812 43.394531 13.949219 43.394531 C 13.515625 43.394531 13.167969 43.046875 13.167969 42.621094 C 13.167969 42.195312 13.515625 41.851562 13.949219 41.851562 C 14.382812 41.851562 14.730469 42.195312 14.730469 42.621094 Z M 6.722656 8.597656 C 6.898438 8.246094 7.179688 8.007812 7.542969 7.890625 C 7.699219 7.84375 7.988281 7.839844 13.929688 7.839844 C 20.039062 7.835938 20.15625 7.835938 20.335938 7.894531 C 20.699219 8.003906 20.984375 8.246094 21.160156 8.597656 L 21.265625 8.808594 L 21.273438 12.085938 L 21.277344 15.367188 L 19.796875 13.90625 L 19.757812 13.867188 C 18.425781 12.5625 18.242188 12.378906 18.074219 12.394531 C 18.046875 12.394531 18.019531 12.402344 17.988281 12.414062 L 17.980469 12.414062 C 17.90625 12.4375 17.484375 12.835938 16.140625 14.160156 L 14.398438 15.878906 L 13.589844 15.082031 C 13.144531 14.644531 12.75 14.273438 12.71875 14.253906 C 12.675781 14.234375 12.609375 14.222656 12.546875 14.226562 C 12.535156 14.226562 12.527344 14.226562 12.515625 14.226562 C 12.507812 14.226562 12.496094 14.230469 12.484375 14.230469 C 12.441406 14.234375 12.402344 14.246094 12.371094 14.265625 C 12.328125 14.285156 11.144531 15.4375 9.742188 16.820312 C 8.339844 18.207031 7.175781 19.339844 7.15625 19.339844 C 7.109375 19.339844 6.996094 19.230469 6.894531 19.097656 C 6.828125 19.011719 6.765625 18.921875 6.726562 18.839844 C 6.65625 18.695312 6.617188 18.539062 6.617188 18.378906 L 6.617188 8.808594 Z M 11.972656 10.929688 C 11.792969 10.382812 11.332031 9.925781 10.789062 9.753906 C 10.734375 9.738281 10.671875 9.726562 10.605469 9.714844 C 10.566406 9.707031 10.527344 9.703125 10.488281 9.699219 C 10.429688 9.691406 10.375 9.6875 10.316406 9.6875 C 10.238281 9.683594 10.164062 9.683594 10.09375 9.6875 C 10.011719 9.691406 9.9375 9.703125 9.875 9.714844 C 9.066406 9.898438 8.464844 10.632812 8.464844 11.441406 C 8.46875 12.207031 8.96875 12.886719 9.703125 13.125 C 10.007812 13.222656 10.511719 13.222656 10.8125 13.125 C 11.351562 12.949219 11.78125 12.511719 11.980469 11.933594 C 12.058594 11.699219 12.054688 11.195312 11.972656 10.929688 Z M 9.964844 10.53125 C 9.691406 10.621094 9.453125 10.84375 9.351562 11.113281 C 9.320312 11.199219 9.300781 11.300781 9.296875 11.410156 C 9.296875 11.46875 9.300781 11.53125 9.308594 11.589844 C 9.3125 11.621094 9.316406 11.652344 9.324219 11.679688 C 9.339844 11.746094 9.359375 11.808594 9.390625 11.863281 C 9.414062 11.914062 9.445312 11.960938 9.480469 12.003906 C 9.523438 12.0625 9.574219 12.113281 9.628906 12.160156 C 9.6875 12.210938 9.757812 12.257812 9.828125 12.296875 C 9.953125 12.363281 10.003906 12.371094 10.257812 12.371094 C 10.386719 12.371094 10.460938 12.371094 10.523438 12.359375 C 10.582031 12.347656 10.625 12.328125 10.6875 12.296875 C 10.886719 12.191406 11.082031 11.980469 11.160156 11.777344 C 11.335938 11.320312 11.101562 10.769531 10.652344 10.570312 C 10.488281 10.5 10.132812 10.480469 9.964844 10.53125 Z M 15.089844 16.3125 C 15.378906 16.039062 15.785156 15.640625 16.335938 15.101562 C 17.28125 14.167969 18.066406 13.40625 18.082031 13.40625 C 18.09375 13.40625 18.328125 13.628906 18.683594 13.976562 C 18.964844 14.246094 19.316406 14.59375 19.695312 14.96875 L 21.28125 16.53125 L 21.273438 17.574219 L 21.265625 18.386719 C 21.265625 18.457031 21.257812 18.527344 21.242188 18.597656 C 21.222656 18.679688 21.195312 18.757812 21.160156 18.832031 C 20.984375 19.183594 20.699219 19.425781 20.335938 19.539062 C 20.15625 19.59375 20.039062 19.59375 14.128906 19.59375 L 8.109375 19.59375 L 10.335938 17.398438 L 12.566406 15.199219 L 13.386719 16.011719 C 14.277344 16.882812 14.300781 16.898438 14.519531 16.828125 C 14.539062 16.820312 14.589844 16.78125 14.675781 16.703125 C 14.769531 16.617188 14.90625 16.492188 15.089844 16.3125 Z M 22.648438 31.058594 L 5.25 31.058594 L 5.25 36.167969 L 22.648438 36.167969 Z M 11.339844 34.464844 L 6.988281 34.464844 L 6.988281 32.761719 L 11.339844 32.761719 Z M 20.910156 34.464844 L 13.078125 34.464844 L 13.078125 32.761719 L 20.910156 32.761719 Z M 22.648438 29.613281 L 5.25 29.613281 L 5.25 21.039062 L 22.648438 21.039062 Z M 20.910156 22.753906 L 12.210938 22.753906 L 12.210938 24.46875 L 20.910156 24.46875 Z M 10.46875 22.753906 L 6.988281 22.753906 L 6.988281 24.46875 L 10.46875 24.46875 Z M 20.910156 26.183594 L 6.988281 26.183594 L 6.988281 27.898438 L 20.910156 27.898438 Z M 20.910156 26.183594 " fill-opacity="1" fill-rule="evenodd"></path><path fill="#ffffff" d="M 34.382812 16.992188 C 34.382812 15.660156 35.476562 14.582031 36.824219 14.582031 L 53.835938 14.582031 C 55.1875 14.582031 56.28125 15.660156 56.28125 16.992188 L 56.28125 17.183594 L 34.382812 17.183594 Z M 34.382812 18.726562 L 34.382812 51.582031 L 56.28125 51.582031 L 56.28125 18.726562 Z M 55.988281 53.125 L 56.28125 53.125 L 56.28125 55.339844 C 56.28125 56.671875 55.1875 57.75 53.835938 57.75 L 36.824219 57.75 C 35.476562 57.75 34.382812 56.671875 34.382812 55.339844 L 34.382812 53.125 Z M 46.113281 54.957031 C 46.113281 55.382812 45.761719 55.726562 45.332031 55.726562 C 44.898438 55.726562 44.546875 55.382812 44.546875 54.957031 C 44.546875 54.53125 44.898438 54.183594 45.332031 54.183594 C 45.761719 54.183594 46.113281 54.53125 46.113281 54.957031 Z M 38.542969 20.410156 C 38.660156 20.332031 38.785156 20.269531 38.925781 20.222656 C 39.078125 20.175781 39.371094 20.171875 45.3125 20.171875 C 51.417969 20.171875 51.539062 20.171875 51.71875 20.226562 C 52.082031 20.335938 52.363281 20.582031 52.539062 20.929688 L 52.644531 21.140625 L 52.660156 27.703125 L 51.179688 26.242188 L 51.136719 26.203125 C 49.808594 24.894531 49.625 24.714844 49.457031 24.726562 C 49.425781 24.730469 49.394531 24.738281 49.359375 24.75 C 49.285156 24.769531 48.863281 25.167969 47.523438 26.492188 L 45.78125 28.210938 L 44.972656 27.417969 C 44.890625 27.335938 44.808594 27.257812 44.734375 27.183594 L 44.59375 27.046875 C 44.5 26.957031 44.417969 26.878906 44.34375 26.8125 C 44.207031 26.679688 44.113281 26.597656 44.097656 26.589844 C 44.011719 26.546875 43.84375 26.550781 43.75 26.597656 C 43.726562 26.609375 43.332031 26.992188 42.734375 27.574219 C 42.289062 28.011719 41.726562 28.5625 41.121094 29.15625 C 39.722656 30.539062 38.558594 31.671875 38.539062 31.671875 C 38.515625 31.671875 38.480469 31.648438 38.4375 31.609375 C 38.425781 31.601562 38.414062 31.589844 38.40625 31.578125 C 38.375 31.550781 38.347656 31.515625 38.316406 31.480469 C 38.238281 31.386719 38.15625 31.269531 38.109375 31.171875 C 38.035156 31.03125 38 30.871094 38 30.710938 L 38 21.140625 L 38.105469 20.929688 C 38.148438 20.84375 38.195312 20.765625 38.25 20.695312 C 38.261719 20.679688 38.277344 20.660156 38.289062 20.644531 C 38.304688 20.625 38.324219 20.609375 38.339844 20.589844 C 38.402344 20.523438 38.46875 20.460938 38.542969 20.410156 Z M 43.351562 23.265625 C 43.175781 22.714844 42.714844 22.257812 42.167969 22.089844 C 42.042969 22.050781 41.871094 22.027344 41.695312 22.019531 C 41.652344 22.015625 41.605469 22.015625 41.558594 22.015625 C 41.445312 22.019531 41.339844 22.03125 41.253906 22.050781 C 40.445312 22.230469 39.847656 22.964844 39.847656 23.773438 C 39.851562 24.539062 40.347656 25.222656 41.085938 25.457031 C 41.390625 25.558594 41.890625 25.558594 42.195312 25.457031 C 42.734375 25.28125 43.164062 24.84375 43.363281 24.269531 C 43.40625 24.132812 43.425781 23.914062 43.417969 23.699219 C 43.410156 23.535156 43.390625 23.378906 43.351562 23.265625 Z M 41.347656 22.867188 C 41.070312 22.953125 40.835938 23.175781 40.734375 23.445312 C 40.648438 23.667969 40.664062 23.992188 40.769531 24.199219 C 40.863281 24.375 41.023438 24.535156 41.207031 24.628906 C 41.335938 24.699219 41.382812 24.707031 41.640625 24.707031 C 41.894531 24.707031 41.941406 24.699219 42.070312 24.628906 C 42.269531 24.523438 42.460938 24.3125 42.542969 24.109375 C 42.714844 23.652344 42.484375 23.105469 42.035156 22.90625 C 41.945312 22.867188 41.800781 22.84375 41.660156 22.835938 C 41.539062 22.832031 41.421875 22.839844 41.347656 22.867188 Z M 45.902344 29.160156 C 45.96875 29.136719 46.492188 28.640625 47.714844 27.433594 C 48.660156 26.5 49.445312 25.738281 49.464844 25.738281 C 49.480469 25.738281 50.207031 26.441406 51.078125 27.300781 L 52.664062 28.863281 L 52.652344 29.910156 L 52.648438 30.71875 C 52.644531 30.875 52.609375 31.027344 52.539062 31.167969 C 52.363281 31.519531 52.082031 31.761719 51.71875 31.871094 C 51.539062 31.925781 51.417969 31.925781 45.511719 31.925781 L 39.488281 31.925781 L 41.714844 29.730469 L 43.945312 27.53125 L 44.769531 28.34375 C 45.660156 29.21875 45.679688 29.230469 45.902344 29.160156 Z M 54.03125 43.394531 L 36.628906 43.394531 L 36.628906 48.5 L 54.03125 48.5 Z M 42.71875 46.796875 L 38.371094 46.796875 L 38.371094 45.097656 L 42.71875 45.097656 Z M 52.292969 46.796875 L 44.460938 46.796875 L 44.460938 45.097656 L 52.292969 45.097656 Z M 54.03125 41.949219 L 36.628906 41.949219 L 36.628906 33.371094 L 54.03125 33.371094 Z M 52.292969 35.089844 L 43.589844 35.089844 L 43.589844 36.804688 L 52.292969 36.804688 Z M 41.851562 35.089844 L 38.371094 35.089844 L 38.371094 36.804688 L 41.851562 36.804688 Z M 52.292969 38.519531 L 38.371094 38.519531 L 38.371094 40.234375 L 52.292969 40.234375 Z M 52.292969 38.519531 " fill-opacity="1" fill-rule="evenodd"></path></svg>