<svg xmlns="http://www.w3.org/2000/svg" xmlns:xlink="http://www.w3.org/1999/xlink" width="80" viewBox="0 0 60 60" height="80" preserveAspectRatio="xMidYMid meet"><defs><clipPath id="id1"><path d="M 4.800781 1 L 46 1 L 46 55 L 4.800781 55 Z M 4.800781 1 " clip-rule="nonzero"></path></clipPath></defs><path fill="#ffffff" d="M 29.378906 33.578125 C 29.03125 34.085938 28.902344 34.722656 28.988281 35.359375 C 29.164062 36.714844 30.117188 37.648438 31.289062 37.941406 C 31.464844 37.984375 31.59375 37.816406 31.507812 37.648438 C 31.464844 37.605469 31.421875 37.5625 31.378906 37.5625 C 30.335938 37.308594 29.511719 36.417969 29.378906 35.1875 C 29.335938 34.722656 29.421875 34.257812 29.683594 33.832031 C 30.8125 31.96875 33.246094 32.09375 34.285156 33.621094 C 34.589844 34.085938 34.765625 34.636719 34.71875 35.230469 C 34.71875 35.273438 34.71875 35.316406 34.765625 35.359375 C 34.851562 35.484375 35.109375 35.441406 35.109375 35.273438 C 35.15625 34.636719 34.980469 34 34.632812 33.449219 C 33.417969 31.714844 30.683594 31.542969 29.378906 33.578125 Z M 29.378906 33.578125 " fill-opacity="1" fill-rule="nonzero"></path><g clip-path="url(#id1)"><path fill="#ffffff" d="M 30.550781 49.535156 L 9.746094 49.535156 L 9.746094 7.273438 L 40.953125 7.273438 L 40.953125 36.699219 C 41.082031 36.761719 41.144531 36.824219 41.269531 36.886719 C 41.398438 36.132812 41.84375 35.445312 42.539062 34.945312 C 43.175781 34.507812 43.808594 34.320312 44.441406 34.445312 C 44.886719 34.507812 45.332031 34.757812 45.773438 35.070312 C 45.773438 35.007812 45.835938 34.882812 45.902344 34.820312 C 45.902344 22.046875 45.902344 6.207031 45.902344 6.207031 C 45.902344 3.890625 43.933594 1.949219 41.589844 1.949219 L 9.113281 1.949219 C 6.765625 1.949219 4.800781 3.890625 4.800781 6.207031 L 4.800781 50.597656 C 4.800781 52.914062 6.765625 54.855469 9.113281 54.855469 L 35.5625 54.855469 Z M 25.222656 4.203125 C 25.476562 4.203125 25.730469 4.453125 25.730469 4.703125 C 25.730469 4.957031 25.476562 5.207031 25.222656 5.207031 C 24.96875 5.207031 24.714844 4.957031 24.714844 4.703125 C 24.714844 4.453125 24.96875 4.203125 25.222656 4.203125 Z M 25.539062 53.289062 C 24.589844 53.539062 23.765625 52.664062 24.019531 51.789062 C 24.144531 51.347656 24.460938 51.035156 24.90625 50.910156 C 25.859375 50.660156 26.683594 51.535156 26.429688 52.414062 C 26.300781 52.789062 25.921875 53.164062 25.539062 53.289062 Z M 25.539062 53.289062 " fill-opacity="1" fill-rule="nonzero"></path></g><path fill="#ffffff" d="M 31.1875 48.53125 L 37.339844 54.980469 C 40.699219 58.550781 46.15625 59.238281 50.34375 56.609375 C 50.40625 56.609375 50.40625 56.546875 50.46875 56.546875 L 52.433594 55.292969 C 56.558594 52.664062 57.761719 47.34375 55.226562 43.210938 L 50.40625 35.445312 C 49.835938 34.570312 49.136719 34.132812 48.503906 34.195312 C 47.804688 34.257812 47.234375 34.820312 47.042969 35.257812 C 46.917969 35.570312 46.851562 35.886719 46.980469 36.011719 C 46.980469 36.011719 46.980469 36.074219 47.042969 36.074219 C 47.042969 36.074219 48.628906 38.953125 49.328125 39.953125 C 49.515625 40.207031 49.390625 40.582031 49.136719 40.769531 C 48.882812 40.957031 48.503906 40.832031 48.3125 40.582031 L 46.027344 37.074219 C 45.457031 36.136719 44.824219 35.632812 44.316406 35.507812 C 44 35.445312 43.617188 35.570312 43.300781 35.824219 C 43.300781 35.824219 43.300781 35.824219 43.238281 35.824219 C 42.476562 36.324219 42.222656 37.386719 42.730469 38.140625 L 45.332031 42.207031 C 45.523438 42.460938 45.394531 42.835938 45.140625 43.023438 L 45.078125 43.023438 C 44.824219 43.210938 44.441406 43.085938 44.253906 42.835938 L 41.90625 39.203125 C 41.527344 38.578125 40.953125 37.824219 40.257812 37.636719 C 39.941406 37.574219 39.558594 37.636719 39.113281 37.949219 C 38.796875 38.203125 38.609375 38.453125 38.542969 38.765625 C 38.417969 39.453125 38.734375 40.332031 39.179688 41.144531 L 40.699219 43.460938 C 41.019531 43.898438 41.207031 44.210938 41.273438 44.398438 C 41.398438 44.652344 41.273438 45.027344 41.019531 45.152344 C 40.765625 45.277344 40.382812 45.214844 40.257812 44.964844 L 39.6875 44.085938 C 39.6875 44.023438 39.621094 44.023438 39.621094 43.960938 C 39.179688 43.335938 38.609375 42.523438 38.164062 41.644531 L 33.914062 34.945312 C 33.40625 34.132812 32.328125 33.882812 31.566406 34.382812 C 30.804688 34.882812 30.550781 35.949219 31.058594 36.699219 L 39.433594 49.847656 C 39.558594 50.097656 39.558594 50.410156 39.304688 50.597656 C 39.050781 50.785156 38.734375 50.785156 38.542969 50.597656 C 38.417969 50.535156 38.289062 50.347656 38.101562 50.222656 C 37.148438 49.347656 34.992188 47.21875 33.027344 47.34375 C 32.328125 47.59375 31.757812 47.90625 31.1875 48.53125 Z M 31.1875 48.53125 " fill-opacity="1" fill-rule="nonzero"></path><path fill="#ffffff" d="M 27.972656 32.996094 C 27.449219 33.761719 27.277344 34.699219 27.40625 35.636719 C 27.667969 37.636719 29.054688 39.082031 30.789062 39.507812 C 31.046875 39.59375 31.222656 39.296875 31.09375 39.082031 C 31.046875 39.042969 31.003906 39 30.917969 38.957031 C 29.359375 38.53125 28.144531 37.253906 27.925781 35.378906 C 27.839844 34.699219 28.015625 33.976562 28.40625 33.378906 C 30.09375 30.609375 33.691406 30.78125 35.253906 33.082031 C 35.730469 33.804688 35.945312 34.613281 35.902344 35.464844 C 35.902344 35.507812 35.902344 35.59375 35.945312 35.636719 C 36.078125 35.847656 36.425781 35.761719 36.46875 35.507812 C 36.554688 34.570312 36.292969 33.589844 35.730469 32.78125 C 33.953125 30.144531 29.921875 29.929688 27.972656 32.996094 Z M 27.972656 32.996094 " fill-opacity="1" fill-rule="nonzero"></path><path fill="#ffffff" d="M 37.851562 23.550781 L 12.777344 23.550781 L 12.777344 30.976562 L 37.851562 30.976562 Z M 21.554688 28.5 L 15.285156 28.5 L 15.285156 26.023438 L 21.554688 26.023438 Z M 35.34375 28.5 L 24.0625 28.5 L 24.0625 26.023438 L 35.34375 26.023438 Z M 35.34375 28.5 " fill-opacity="1" fill-rule="nonzero"></path><path fill="#ffffff" d="M 12.777344 21.300781 L 37.851562 21.300781 L 37.851562 8.925781 L 12.777344 8.925781 Z M 22.808594 11.398438 L 35.34375 11.398438 L 35.34375 13.875 L 22.808594 13.875 Z M 15.285156 11.398438 L 20.300781 11.398438 L 20.300781 13.875 L 15.285156 13.875 Z M 15.285156 16.351562 L 35.34375 16.351562 L 35.34375 18.824219 L 15.285156 18.824219 Z M 15.285156 16.351562 " fill-opacity="1" fill-rule="nonzero"></path></svg>