<svg xmlns="http://www.w3.org/2000/svg" width="51" height="49" viewBox="0 0 51 49" fill="none"><path d="M41.2191 49H8.86974C3.96504 49 0 45.0217 0 40.1006V8.89941C0 3.9783 3.96504 0 8.86974 0H41.2191C46.1238 0 50.0889 3.9783 50.0889 8.89941V40.1006C50.0889 45.0217 46.1238 49 41.2191 49Z" fill="#FF26BE"></path><path d="M40.4259 46.9056H9.66333C5.48993 46.9056 2.08789 43.4922 2.08789 39.3048V9.69575C2.08789 5.50839 5.48993 2.09497 9.66333 2.09497H40.4059C44.6013 2.09497 47.9813 5.50839 47.9813 9.69575V39.2847C48.0014 43.4922 44.5993 46.9056 40.4259 46.9056Z" fill="#2E001F"></path><path d="M19.8044 22.9289L25.6487 34.1944C25.7529 34.3613 25.6908 34.5301 25.5225 34.5301H21.8901C21.6597 34.5301 21.5555 34.4678 21.4513 34.2587C20.1149 31.4946 18.7585 28.7305 17.36 25.7574H17.318C16.0657 28.5637 14.6873 31.5167 13.3529 34.2808C13.2487 34.4477 13.1446 34.512 12.9763 34.512H9.53615C9.32778 34.512 9.30574 34.3452 9.41193 34.2185L15.1301 23.2868L9.60026 12.2303C9.47404 12.0635 9.60026 11.9369 9.72448 11.9369H13.3149C13.5232 11.9369 13.6074 11.9791 13.6895 12.168C15.0039 14.9321 16.3402 17.7807 17.5924 20.5649H17.6345C18.8447 17.8008 20.181 14.9321 21.4753 12.1881C21.5795 12.0213 21.6416 11.9167 21.852 11.9167H25.212C25.3783 11.9167 25.4424 12.0434 25.3382 12.2102L19.8044 22.9289ZM26.6726 26.3423C26.6726 21.4635 29.9083 17.652 35.0414 17.652C35.4802 17.652 35.7086 17.652 36.1273 17.6942V12.1459C36.1273 12.0193 36.2315 11.9369 36.3357 11.9369H39.6336C39.7999 11.9369 39.8419 11.9992 39.8419 12.1037V31.3278C39.8419 31.8927 39.8419 32.6043 39.9461 33.3802C39.9461 33.5069 39.904 33.5471 39.7798 33.6114C38.0267 34.4497 36.1894 34.8256 34.4363 34.8256C29.9063 34.8437 26.6706 32.0394 26.6726 26.3423ZM36.1253 20.983C35.8328 20.8564 35.4161 20.7739 34.9152 20.7739C32.2845 20.7739 30.4493 22.8043 30.4493 26.1775C30.4493 30.0312 32.3286 31.5811 34.6868 31.5811C35.1877 31.5811 35.7306 31.5188 36.1273 31.3499V20.983H36.1253Z" fill="#FFD9F2"></path></svg>