<?xml version="1.0" encoding="UTF-8"?>
<svg width="18px" height="18px" viewBox="0 0 18 18" version="1.1" xmlns="http://www.w3.org/2000/svg" xmlns:xlink="http://www.w3.org/1999/xlink">
    <title>link-icon</title>
    <g id="Page-1" stroke="none" stroke-width="1" fill="none" fill-rule="evenodd">
        <g id="header-builder" transform="translate(-221.000000, -961.000000)" fill="#BBBBBB" fill-rule="nonzero">
            <g transform="translate(50.000000, 250.000000)" id="elements">
                <g transform="translate(137.000000, 570.000000)">
                    <g id="link" transform="translate(20.000000, 131.000000)">
                        <g id="link-icon" transform="translate(14.000000, 10.000000)">
                            <path d="M9.62534435,12 C8.53810836,12 7.45087236,11.6074766 6.62809917,10.8224299 C6.42240588,10.6261682 6.24609734,10.4299065 6.09917355,10.2056075 C5.92286501,9.95327103 5.98163453,9.58878505 6.27548209,9.42056075 C6.5399449,9.25233645 6.92194674,9.30841121 7.09825528,9.58878505 C7.21579431,9.75700935 7.33333333,9.89719626 7.48025712,10.0373832 C8.68503214,11.1869159 10.6244261,11.1869159 11.7998163,10.0373832 L15.943067,6.08411215 C17.1184573,4.93457944 17.1184573,3.08411215 15.9136823,1.93457944 C14.738292,0.813084112 12.7988981,0.813084112 11.594123,1.96261682 L9.00826446,4.42990654 C8.77318641,4.65420561 8.42056933,4.65420561 8.18549128,4.42990654 C7.95041322,4.20560748 7.95041322,3.86915888 8.18549128,3.64485981 L10.7713499,1.17757009 C12.4168962,-0.392523364 15.1202938,-0.392523364 16.7658402,1.17757009 C18.4113866,2.74766355 18.4113866,5.3271028 16.7658402,6.89719626 L12.6225895,10.8224299 C11.7998163,11.6074766 10.7125803,12 9.62534435,12 Z" id="Path"></path>
                            <path d="M4.23140496,18 C3.08539945,18 2.02754821,17.5804196 1.23415978,16.8251748 C-0.411386593,15.2587413 -0.411386593,12.6853147 1.23415978,11.1188811 L5.37741047,7.17482517 C7.02295684,5.60839161 9.72635445,5.60839161 11.3719008,7.17482517 C11.5775941,7.37062937 11.7539027,7.56643357 11.9008264,7.79020979 C12.077135,8.04195804 12.0183655,8.40559441 11.7245179,8.57342657 C11.4600551,8.74125874 11.0780533,8.68531469 10.9017447,8.40559441 C10.7842057,8.23776224 10.6666667,8.0979021 10.5197429,7.95804196 C9.31496786,6.81118881 7.37557392,6.81118881 6.20018365,7.95804196 L2.08631772,11.9020979 C0.8815427,13.048951 0.8815427,14.8951049 2.08631772,16.013986 C2.67401286,16.5734266 3.43801653,16.8811189 4.26078972,16.8811189 C5.0835629,16.8811189 5.84756657,16.5734266 6.43526171,16.013986 L9.02112029,13.5524476 C9.25619835,13.3286713 9.60881543,13.3286713 9.84389348,13.5524476 C10.0789715,13.7762238 10.0789715,14.1118881 9.84389348,14.3356643 L7.25803489,16.7972028 C6.43526171,17.5804196 5.37741047,18 4.23140496,18 Z" id="Path"></path>
                        </g>
                    </g>
                </g>
            </g>
        </g>
    </g>
</svg>